%TF.GenerationSoftware,KiCad,Pcbnew,9.0.0*%
%TF.CreationDate,2025-11-11T18:57:33-05:00*%
%TF.ProjectId,Agi_WSN,4167695f-5753-44e2-9e6b-696361645f70,rev?*%
%TF.SameCoordinates,Original*%
%TF.FileFunction,Paste,Top*%
%TF.FilePolarity,Positive*%
%FSLAX46Y46*%
G04 Gerber Fmt 4.6, Leading zero omitted, Abs format (unit mm)*
G04 Created by KiCad (PCBNEW 9.0.0) date 2025-11-11 18:57:33*
%MOMM*%
%LPD*%
G01*
G04 APERTURE LIST*
G04 Aperture macros list*
%AMRoundRect*
0 Rectangle with rounded corners*
0 $1 Rounding radius*
0 $2 $3 $4 $5 $6 $7 $8 $9 X,Y pos of 4 corners*
0 Add a 4 corners polygon primitive as box body*
4,1,4,$2,$3,$4,$5,$6,$7,$8,$9,$2,$3,0*
0 Add four circle primitives for the rounded corners*
1,1,$1+$1,$2,$3*
1,1,$1+$1,$4,$5*
1,1,$1+$1,$6,$7*
1,1,$1+$1,$8,$9*
0 Add four rect primitives between the rounded corners*
20,1,$1+$1,$2,$3,$4,$5,0*
20,1,$1+$1,$4,$5,$6,$7,0*
20,1,$1+$1,$6,$7,$8,$9,0*
20,1,$1+$1,$8,$9,$2,$3,0*%
G04 Aperture macros list end*
%ADD10RoundRect,0.237500X0.237500X-0.300000X0.237500X0.300000X-0.237500X0.300000X-0.237500X-0.300000X0*%
%ADD11RoundRect,0.237500X-0.287500X-0.237500X0.287500X-0.237500X0.287500X0.237500X-0.287500X0.237500X0*%
%ADD12RoundRect,0.237500X-0.237500X0.300000X-0.237500X-0.300000X0.237500X-0.300000X0.237500X0.300000X0*%
%ADD13RoundRect,0.237500X0.300000X0.237500X-0.300000X0.237500X-0.300000X-0.237500X0.300000X-0.237500X0*%
%ADD14R,1.220000X0.970000*%
%ADD15RoundRect,0.237500X-0.237500X0.250000X-0.237500X-0.250000X0.237500X-0.250000X0.237500X0.250000X0*%
%ADD16RoundRect,0.237500X0.237500X-0.287500X0.237500X0.287500X-0.237500X0.287500X-0.237500X-0.287500X0*%
%ADD17R,1.676400X0.482600*%
%ADD18R,1.900000X1.100000*%
%ADD19R,0.254000X0.711200*%
%ADD20R,0.711200X0.254000*%
%ADD21R,3.606800X3.606800*%
%ADD22R,1.219200X0.279400*%
%ADD23RoundRect,0.150000X0.512500X0.150000X-0.512500X0.150000X-0.512500X-0.150000X0.512500X-0.150000X0*%
%ADD24RoundRect,0.150000X-0.825000X-0.150000X0.825000X-0.150000X0.825000X0.150000X-0.825000X0.150000X0*%
%ADD25RoundRect,0.237500X-0.250000X-0.237500X0.250000X-0.237500X0.250000X0.237500X-0.250000X0.237500X0*%
%ADD26RoundRect,0.237500X0.237500X-0.250000X0.237500X0.250000X-0.237500X0.250000X-0.237500X-0.250000X0*%
%ADD27RoundRect,0.237500X0.250000X0.237500X-0.250000X0.237500X-0.250000X-0.237500X0.250000X-0.237500X0*%
%ADD28R,0.850000X0.300000*%
%ADD29RoundRect,0.100000X0.575000X-0.100000X0.575000X0.100000X-0.575000X0.100000X-0.575000X-0.100000X0*%
%ADD30RoundRect,0.250000X0.700000X-1.200000X0.700000X1.200000X-0.700000X1.200000X-0.700000X-1.200000X0*%
%ADD31RoundRect,0.237500X-0.300000X-0.237500X0.300000X-0.237500X0.300000X0.237500X-0.300000X0.237500X0*%
%ADD32R,3.660000X2.600000*%
%ADD33R,3.540000X2.600000*%
G04 APERTURE END LIST*
D10*
%TO.C,C31*%
X135255000Y-86286000D03*
X135255000Y-88011000D03*
%TD*%
%TO.C,C30*%
X129413000Y-88011000D03*
X129413000Y-86286000D03*
%TD*%
D11*
%TO.C,L5*%
X133209000Y-88037500D03*
X131459000Y-88037500D03*
%TD*%
D12*
%TO.C,C22*%
X114860000Y-93257500D03*
X114860000Y-94982500D03*
%TD*%
D10*
%TO.C,C17*%
X123165000Y-81127500D03*
X123165000Y-82852500D03*
%TD*%
%TO.C,C33*%
X116215000Y-82727500D03*
X116215000Y-84452500D03*
%TD*%
D13*
%TO.C,C32*%
X118852500Y-80590000D03*
X120577500Y-80590000D03*
%TD*%
D14*
%TO.C,Y2*%
X120860000Y-84510000D03*
X118570000Y-84510000D03*
X118570000Y-82670000D03*
X120860000Y-82670000D03*
%TD*%
D15*
%TO.C,R15*%
X136000000Y-106462500D03*
X136000000Y-108287500D03*
%TD*%
D16*
%TO.C,D3*%
X136000000Y-112750000D03*
X136000000Y-111000000D03*
%TD*%
D17*
%TO.C,U5*%
X123853000Y-102735000D03*
X123853000Y-104005000D03*
X123853000Y-105275000D03*
X123853000Y-106545000D03*
X119027000Y-106545000D03*
X119027000Y-105275000D03*
X119027000Y-104005000D03*
X119027000Y-102735000D03*
%TD*%
D18*
%TO.C,Y1*%
X106533100Y-101755002D03*
X106533100Y-104255002D03*
%TD*%
D19*
%TO.C,U4*%
X120509501Y-93549500D03*
X121009500Y-93549500D03*
X121509499Y-93549500D03*
X122009500Y-93549500D03*
X122509500Y-93549500D03*
X123009501Y-93549500D03*
X123509500Y-93549500D03*
X124009499Y-93549500D03*
D20*
X124609000Y-92949999D03*
X124609000Y-92450000D03*
X124609000Y-91950001D03*
X124609000Y-91450000D03*
X124609000Y-90950000D03*
X124609000Y-90449999D03*
X124609000Y-89950000D03*
X124609000Y-89450001D03*
D19*
X124009499Y-88850500D03*
X123509500Y-88850500D03*
X123009501Y-88850500D03*
X122509500Y-88850500D03*
X122009500Y-88850500D03*
X121509499Y-88850500D03*
X121009500Y-88850500D03*
X120509501Y-88850500D03*
D20*
X119910000Y-89450001D03*
X119910000Y-89950000D03*
X119910000Y-90449999D03*
X119910000Y-90950000D03*
X119910000Y-91450000D03*
X119910000Y-91950001D03*
X119910000Y-92450000D03*
X119910000Y-92949999D03*
D21*
X122259500Y-91200000D03*
%TD*%
D22*
%TO.C,U3*%
X109539200Y-102505000D03*
X109539200Y-103005002D03*
X109539200Y-103505001D03*
X109539200Y-104005000D03*
X109539200Y-104505002D03*
X113527000Y-104505002D03*
X113527000Y-104005000D03*
X113527000Y-103505001D03*
X113527000Y-103005002D03*
X113527000Y-102505000D03*
%TD*%
D23*
%TO.C,U2*%
X148550000Y-115020000D03*
X148550000Y-114070000D03*
X148550000Y-113120000D03*
X146275000Y-113120000D03*
X146275000Y-115020000D03*
%TD*%
D24*
%TO.C,U1*%
X116000000Y-113150000D03*
X116000000Y-114420000D03*
X116000000Y-115690000D03*
X116000000Y-116960000D03*
X116000000Y-118230000D03*
X116000000Y-119500000D03*
X116000000Y-120770000D03*
X116000000Y-122040000D03*
X120950000Y-122040000D03*
X120950000Y-120770000D03*
X120950000Y-119500000D03*
X120950000Y-118230000D03*
X120950000Y-116960000D03*
X120950000Y-115690000D03*
X120950000Y-114420000D03*
X120950000Y-113150000D03*
%TD*%
D25*
%TO.C,TH1*%
X102562500Y-125095000D03*
X104387500Y-125095000D03*
%TD*%
D26*
%TO.C,R14*%
X86530000Y-92120000D03*
X86530000Y-90295000D03*
%TD*%
D27*
%TO.C,R13*%
X125482500Y-117700000D03*
X123657500Y-117700000D03*
%TD*%
D25*
%TO.C,R12*%
X106727500Y-107010000D03*
X108552500Y-107010000D03*
%TD*%
%TO.C,R11*%
X116757500Y-108360000D03*
X118582500Y-108360000D03*
%TD*%
D15*
%TO.C,R10*%
X129000000Y-106462500D03*
X129000000Y-108287500D03*
%TD*%
D25*
%TO.C,R9*%
X106562500Y-122095000D03*
X108387500Y-122095000D03*
%TD*%
D15*
%TO.C,R8*%
X132500000Y-106462500D03*
X132500000Y-108287500D03*
%TD*%
D25*
%TO.C,R7*%
X102562500Y-122095000D03*
X104387500Y-122095000D03*
%TD*%
%TO.C,R6*%
X106650000Y-116095000D03*
X108475000Y-116095000D03*
%TD*%
%TO.C,R5*%
X102650000Y-119095000D03*
X104475000Y-119095000D03*
%TD*%
%TO.C,R4*%
X102650000Y-116095000D03*
X104475000Y-116095000D03*
%TD*%
%TO.C,R3*%
X106562500Y-110095000D03*
X108387500Y-110095000D03*
%TD*%
%TO.C,R2*%
X102562500Y-113095000D03*
X104387500Y-113095000D03*
%TD*%
%TO.C,R1*%
X102562500Y-110095000D03*
X104387500Y-110095000D03*
%TD*%
D16*
%TO.C,L4*%
X127635000Y-82536000D03*
X127635000Y-80786000D03*
%TD*%
%TO.C,L3*%
X129413000Y-84441000D03*
X129413000Y-82691000D03*
%TD*%
D11*
%TO.C,L2*%
X131586000Y-82677000D03*
X133336000Y-82677000D03*
%TD*%
%TO.C,L1*%
X135269000Y-84328000D03*
X137019000Y-84328000D03*
%TD*%
D28*
%TO.C,J2*%
X160550000Y-117070000D03*
X160550000Y-110070000D03*
D29*
X157875000Y-112270000D03*
X157875000Y-112920000D03*
X157875000Y-113570000D03*
X157875000Y-114220000D03*
X157875000Y-114870000D03*
D30*
X160550000Y-113570000D03*
%TD*%
D16*
%TO.C,D2*%
X129000000Y-112750000D03*
X129000000Y-111000000D03*
%TD*%
%TO.C,D1*%
X132500000Y-112750000D03*
X132500000Y-111000000D03*
%TD*%
D31*
%TO.C,C34*%
X134887500Y-117500000D03*
X136612500Y-117500000D03*
%TD*%
%TO.C,C29*%
X127661500Y-78994000D03*
X129386500Y-78994000D03*
%TD*%
%TO.C,C28*%
X131612500Y-78994000D03*
X133337500Y-78994000D03*
%TD*%
%TO.C,C27*%
X131598500Y-80772000D03*
X133323500Y-80772000D03*
%TD*%
%TO.C,C26*%
X135281500Y-82677000D03*
X137006500Y-82677000D03*
%TD*%
D12*
%TO.C,C25*%
X138811000Y-82576500D03*
X138811000Y-84301500D03*
%TD*%
D13*
%TO.C,C24*%
X133323500Y-84328000D03*
X131598500Y-84328000D03*
%TD*%
%TO.C,C23*%
X137006500Y-80772000D03*
X135281500Y-80772000D03*
%TD*%
%TO.C,C19*%
X119122000Y-96700000D03*
X117397000Y-96700000D03*
%TD*%
%TO.C,C18*%
X116622000Y-87700000D03*
X114897000Y-87700000D03*
%TD*%
D10*
%TO.C,C16*%
X114880000Y-91352500D03*
X114880000Y-89627500D03*
%TD*%
D13*
%TO.C,C15*%
X122302500Y-100640000D03*
X120577500Y-100640000D03*
%TD*%
D12*
%TO.C,C14*%
X104033100Y-104642502D03*
X104033100Y-106367502D03*
%TD*%
D10*
%TO.C,C13*%
X104033100Y-101730002D03*
X104033100Y-100005002D03*
%TD*%
D13*
%TO.C,C12*%
X112395600Y-100505002D03*
X110670600Y-100505002D03*
%TD*%
D10*
%TO.C,C11*%
X143912500Y-114932500D03*
X143912500Y-113207500D03*
%TD*%
D31*
%TO.C,C10*%
X146300000Y-110570000D03*
X148025000Y-110570000D03*
%TD*%
D10*
%TO.C,C9*%
X152300000Y-114932500D03*
X152300000Y-113207500D03*
%TD*%
D31*
%TO.C,C8*%
X124612500Y-111095000D03*
X126337500Y-111095000D03*
%TD*%
D12*
%TO.C,C7*%
X110562500Y-122732500D03*
X110562500Y-124457500D03*
%TD*%
D31*
%TO.C,C6*%
X106612500Y-125095000D03*
X108337500Y-125095000D03*
%TD*%
D12*
%TO.C,C5*%
X110562500Y-116732500D03*
X110562500Y-118457500D03*
%TD*%
D31*
%TO.C,C4*%
X106700000Y-119095000D03*
X108425000Y-119095000D03*
%TD*%
D12*
%TO.C,C3*%
X110475000Y-110732500D03*
X110475000Y-112457500D03*
%TD*%
D31*
%TO.C,C2*%
X106612500Y-113095000D03*
X108337500Y-113095000D03*
%TD*%
%TO.C,C1*%
X124612500Y-114095000D03*
X126337500Y-114095000D03*
%TD*%
D32*
%TO.C,BT1*%
X90030000Y-91010000D03*
D33*
X105830000Y-91010000D03*
%TD*%
M02*
