%TF.GenerationSoftware,KiCad,Pcbnew,9.0.0*%
%TF.CreationDate,2025-11-11T18:57:33-05:00*%
%TF.ProjectId,Agi_WSN,4167695f-5753-44e2-9e6b-696361645f70,rev?*%
%TF.SameCoordinates,Original*%
%TF.FileFunction,Legend,Top*%
%TF.FilePolarity,Positive*%
%FSLAX46Y46*%
G04 Gerber Fmt 4.6, Leading zero omitted, Abs format (unit mm)*
G04 Created by KiCad (PCBNEW 9.0.0) date 2025-11-11 18:57:33*
%MOMM*%
%LPD*%
G01*
G04 APERTURE LIST*
%ADD10C,0.150000*%
%ADD11C,0.120000*%
%ADD12C,0.127000*%
%ADD13C,0.200000*%
%ADD14C,0.152400*%
%ADD15C,0.000000*%
G04 APERTURE END LIST*
D10*
X80248360Y-79187704D02*
X80724550Y-79187704D01*
X80153122Y-79473419D02*
X80486455Y-78473419D01*
X80486455Y-78473419D02*
X80819788Y-79473419D01*
X81581693Y-78806752D02*
X81581693Y-79616276D01*
X81581693Y-79616276D02*
X81534074Y-79711514D01*
X81534074Y-79711514D02*
X81486455Y-79759133D01*
X81486455Y-79759133D02*
X81391217Y-79806752D01*
X81391217Y-79806752D02*
X81248360Y-79806752D01*
X81248360Y-79806752D02*
X81153122Y-79759133D01*
X81581693Y-79425800D02*
X81486455Y-79473419D01*
X81486455Y-79473419D02*
X81295979Y-79473419D01*
X81295979Y-79473419D02*
X81200741Y-79425800D01*
X81200741Y-79425800D02*
X81153122Y-79378180D01*
X81153122Y-79378180D02*
X81105503Y-79282942D01*
X81105503Y-79282942D02*
X81105503Y-78997228D01*
X81105503Y-78997228D02*
X81153122Y-78901990D01*
X81153122Y-78901990D02*
X81200741Y-78854371D01*
X81200741Y-78854371D02*
X81295979Y-78806752D01*
X81295979Y-78806752D02*
X81486455Y-78806752D01*
X81486455Y-78806752D02*
X81581693Y-78854371D01*
X82057884Y-79473419D02*
X82057884Y-78806752D01*
X82057884Y-78473419D02*
X82010265Y-78521038D01*
X82010265Y-78521038D02*
X82057884Y-78568657D01*
X82057884Y-78568657D02*
X82105503Y-78521038D01*
X82105503Y-78521038D02*
X82057884Y-78473419D01*
X82057884Y-78473419D02*
X82057884Y-78568657D01*
X82534074Y-79092466D02*
X83295979Y-79092466D01*
X84248359Y-79473419D02*
X83772169Y-79473419D01*
X83772169Y-79473419D02*
X83772169Y-78473419D01*
X84724550Y-79473419D02*
X84629312Y-79425800D01*
X84629312Y-79425800D02*
X84581693Y-79378180D01*
X84581693Y-79378180D02*
X84534074Y-79282942D01*
X84534074Y-79282942D02*
X84534074Y-78997228D01*
X84534074Y-78997228D02*
X84581693Y-78901990D01*
X84581693Y-78901990D02*
X84629312Y-78854371D01*
X84629312Y-78854371D02*
X84724550Y-78806752D01*
X84724550Y-78806752D02*
X84867407Y-78806752D01*
X84867407Y-78806752D02*
X84962645Y-78854371D01*
X84962645Y-78854371D02*
X85010264Y-78901990D01*
X85010264Y-78901990D02*
X85057883Y-78997228D01*
X85057883Y-78997228D02*
X85057883Y-79282942D01*
X85057883Y-79282942D02*
X85010264Y-79378180D01*
X85010264Y-79378180D02*
X84962645Y-79425800D01*
X84962645Y-79425800D02*
X84867407Y-79473419D01*
X84867407Y-79473419D02*
X84724550Y-79473419D01*
X85915026Y-78806752D02*
X85915026Y-79616276D01*
X85915026Y-79616276D02*
X85867407Y-79711514D01*
X85867407Y-79711514D02*
X85819788Y-79759133D01*
X85819788Y-79759133D02*
X85724550Y-79806752D01*
X85724550Y-79806752D02*
X85581693Y-79806752D01*
X85581693Y-79806752D02*
X85486455Y-79759133D01*
X85915026Y-79425800D02*
X85819788Y-79473419D01*
X85819788Y-79473419D02*
X85629312Y-79473419D01*
X85629312Y-79473419D02*
X85534074Y-79425800D01*
X85534074Y-79425800D02*
X85486455Y-79378180D01*
X85486455Y-79378180D02*
X85438836Y-79282942D01*
X85438836Y-79282942D02*
X85438836Y-78997228D01*
X85438836Y-78997228D02*
X85486455Y-78901990D01*
X85486455Y-78901990D02*
X85534074Y-78854371D01*
X85534074Y-78854371D02*
X85629312Y-78806752D01*
X85629312Y-78806752D02*
X85819788Y-78806752D01*
X85819788Y-78806752D02*
X85915026Y-78854371D01*
X86819788Y-78806752D02*
X86819788Y-79616276D01*
X86819788Y-79616276D02*
X86772169Y-79711514D01*
X86772169Y-79711514D02*
X86724550Y-79759133D01*
X86724550Y-79759133D02*
X86629312Y-79806752D01*
X86629312Y-79806752D02*
X86486455Y-79806752D01*
X86486455Y-79806752D02*
X86391217Y-79759133D01*
X86819788Y-79425800D02*
X86724550Y-79473419D01*
X86724550Y-79473419D02*
X86534074Y-79473419D01*
X86534074Y-79473419D02*
X86438836Y-79425800D01*
X86438836Y-79425800D02*
X86391217Y-79378180D01*
X86391217Y-79378180D02*
X86343598Y-79282942D01*
X86343598Y-79282942D02*
X86343598Y-78997228D01*
X86343598Y-78997228D02*
X86391217Y-78901990D01*
X86391217Y-78901990D02*
X86438836Y-78854371D01*
X86438836Y-78854371D02*
X86534074Y-78806752D01*
X86534074Y-78806752D02*
X86724550Y-78806752D01*
X86724550Y-78806752D02*
X86819788Y-78854371D01*
X87676931Y-79425800D02*
X87581693Y-79473419D01*
X87581693Y-79473419D02*
X87391217Y-79473419D01*
X87391217Y-79473419D02*
X87295979Y-79425800D01*
X87295979Y-79425800D02*
X87248360Y-79330561D01*
X87248360Y-79330561D02*
X87248360Y-78949609D01*
X87248360Y-78949609D02*
X87295979Y-78854371D01*
X87295979Y-78854371D02*
X87391217Y-78806752D01*
X87391217Y-78806752D02*
X87581693Y-78806752D01*
X87581693Y-78806752D02*
X87676931Y-78854371D01*
X87676931Y-78854371D02*
X87724550Y-78949609D01*
X87724550Y-78949609D02*
X87724550Y-79044847D01*
X87724550Y-79044847D02*
X87248360Y-79140085D01*
X88153122Y-79473419D02*
X88153122Y-78806752D01*
X88153122Y-78997228D02*
X88200741Y-78901990D01*
X88200741Y-78901990D02*
X88248360Y-78854371D01*
X88248360Y-78854371D02*
X88343598Y-78806752D01*
X88343598Y-78806752D02*
X88438836Y-78806752D01*
X88772170Y-79092466D02*
X89534075Y-79092466D01*
X90581693Y-79473419D02*
X90248360Y-78997228D01*
X90010265Y-79473419D02*
X90010265Y-78473419D01*
X90010265Y-78473419D02*
X90391217Y-78473419D01*
X90391217Y-78473419D02*
X90486455Y-78521038D01*
X90486455Y-78521038D02*
X90534074Y-78568657D01*
X90534074Y-78568657D02*
X90581693Y-78663895D01*
X90581693Y-78663895D02*
X90581693Y-78806752D01*
X90581693Y-78806752D02*
X90534074Y-78901990D01*
X90534074Y-78901990D02*
X90486455Y-78949609D01*
X90486455Y-78949609D02*
X90391217Y-78997228D01*
X90391217Y-78997228D02*
X90010265Y-78997228D01*
X90867408Y-78473419D02*
X91200741Y-79473419D01*
X91200741Y-79473419D02*
X91534074Y-78473419D01*
X91867408Y-79092466D02*
X92629313Y-79092466D01*
X93295979Y-78473419D02*
X93391217Y-78473419D01*
X93391217Y-78473419D02*
X93486455Y-78521038D01*
X93486455Y-78521038D02*
X93534074Y-78568657D01*
X93534074Y-78568657D02*
X93581693Y-78663895D01*
X93581693Y-78663895D02*
X93629312Y-78854371D01*
X93629312Y-78854371D02*
X93629312Y-79092466D01*
X93629312Y-79092466D02*
X93581693Y-79282942D01*
X93581693Y-79282942D02*
X93534074Y-79378180D01*
X93534074Y-79378180D02*
X93486455Y-79425800D01*
X93486455Y-79425800D02*
X93391217Y-79473419D01*
X93391217Y-79473419D02*
X93295979Y-79473419D01*
X93295979Y-79473419D02*
X93200741Y-79425800D01*
X93200741Y-79425800D02*
X93153122Y-79378180D01*
X93153122Y-79378180D02*
X93105503Y-79282942D01*
X93105503Y-79282942D02*
X93057884Y-79092466D01*
X93057884Y-79092466D02*
X93057884Y-78854371D01*
X93057884Y-78854371D02*
X93105503Y-78663895D01*
X93105503Y-78663895D02*
X93153122Y-78568657D01*
X93153122Y-78568657D02*
X93200741Y-78521038D01*
X93200741Y-78521038D02*
X93295979Y-78473419D01*
X94057884Y-79378180D02*
X94105503Y-79425800D01*
X94105503Y-79425800D02*
X94057884Y-79473419D01*
X94057884Y-79473419D02*
X94010265Y-79425800D01*
X94010265Y-79425800D02*
X94057884Y-79378180D01*
X94057884Y-79378180D02*
X94057884Y-79473419D01*
X95057883Y-79473419D02*
X94486455Y-79473419D01*
X94772169Y-79473419D02*
X94772169Y-78473419D01*
X94772169Y-78473419D02*
X94676931Y-78616276D01*
X94676931Y-78616276D02*
X94581693Y-78711514D01*
X94581693Y-78711514D02*
X94486455Y-78759133D01*
X137265580Y-87791357D02*
X137313200Y-87838976D01*
X137313200Y-87838976D02*
X137360819Y-87981833D01*
X137360819Y-87981833D02*
X137360819Y-88077071D01*
X137360819Y-88077071D02*
X137313200Y-88219928D01*
X137313200Y-88219928D02*
X137217961Y-88315166D01*
X137217961Y-88315166D02*
X137122723Y-88362785D01*
X137122723Y-88362785D02*
X136932247Y-88410404D01*
X136932247Y-88410404D02*
X136789390Y-88410404D01*
X136789390Y-88410404D02*
X136598914Y-88362785D01*
X136598914Y-88362785D02*
X136503676Y-88315166D01*
X136503676Y-88315166D02*
X136408438Y-88219928D01*
X136408438Y-88219928D02*
X136360819Y-88077071D01*
X136360819Y-88077071D02*
X136360819Y-87981833D01*
X136360819Y-87981833D02*
X136408438Y-87838976D01*
X136408438Y-87838976D02*
X136456057Y-87791357D01*
X136360819Y-87458023D02*
X136360819Y-86838976D01*
X136360819Y-86838976D02*
X136741771Y-87172309D01*
X136741771Y-87172309D02*
X136741771Y-87029452D01*
X136741771Y-87029452D02*
X136789390Y-86934214D01*
X136789390Y-86934214D02*
X136837009Y-86886595D01*
X136837009Y-86886595D02*
X136932247Y-86838976D01*
X136932247Y-86838976D02*
X137170342Y-86838976D01*
X137170342Y-86838976D02*
X137265580Y-86886595D01*
X137265580Y-86886595D02*
X137313200Y-86934214D01*
X137313200Y-86934214D02*
X137360819Y-87029452D01*
X137360819Y-87029452D02*
X137360819Y-87315166D01*
X137360819Y-87315166D02*
X137313200Y-87410404D01*
X137313200Y-87410404D02*
X137265580Y-87458023D01*
X137360819Y-85886595D02*
X137360819Y-86458023D01*
X137360819Y-86172309D02*
X136360819Y-86172309D01*
X136360819Y-86172309D02*
X136503676Y-86267547D01*
X136503676Y-86267547D02*
X136598914Y-86362785D01*
X136598914Y-86362785D02*
X136646533Y-86458023D01*
X128248580Y-87791357D02*
X128296200Y-87838976D01*
X128296200Y-87838976D02*
X128343819Y-87981833D01*
X128343819Y-87981833D02*
X128343819Y-88077071D01*
X128343819Y-88077071D02*
X128296200Y-88219928D01*
X128296200Y-88219928D02*
X128200961Y-88315166D01*
X128200961Y-88315166D02*
X128105723Y-88362785D01*
X128105723Y-88362785D02*
X127915247Y-88410404D01*
X127915247Y-88410404D02*
X127772390Y-88410404D01*
X127772390Y-88410404D02*
X127581914Y-88362785D01*
X127581914Y-88362785D02*
X127486676Y-88315166D01*
X127486676Y-88315166D02*
X127391438Y-88219928D01*
X127391438Y-88219928D02*
X127343819Y-88077071D01*
X127343819Y-88077071D02*
X127343819Y-87981833D01*
X127343819Y-87981833D02*
X127391438Y-87838976D01*
X127391438Y-87838976D02*
X127439057Y-87791357D01*
X127343819Y-87458023D02*
X127343819Y-86838976D01*
X127343819Y-86838976D02*
X127724771Y-87172309D01*
X127724771Y-87172309D02*
X127724771Y-87029452D01*
X127724771Y-87029452D02*
X127772390Y-86934214D01*
X127772390Y-86934214D02*
X127820009Y-86886595D01*
X127820009Y-86886595D02*
X127915247Y-86838976D01*
X127915247Y-86838976D02*
X128153342Y-86838976D01*
X128153342Y-86838976D02*
X128248580Y-86886595D01*
X128248580Y-86886595D02*
X128296200Y-86934214D01*
X128296200Y-86934214D02*
X128343819Y-87029452D01*
X128343819Y-87029452D02*
X128343819Y-87315166D01*
X128343819Y-87315166D02*
X128296200Y-87410404D01*
X128296200Y-87410404D02*
X128248580Y-87458023D01*
X127343819Y-86219928D02*
X127343819Y-86124690D01*
X127343819Y-86124690D02*
X127391438Y-86029452D01*
X127391438Y-86029452D02*
X127439057Y-85981833D01*
X127439057Y-85981833D02*
X127534295Y-85934214D01*
X127534295Y-85934214D02*
X127724771Y-85886595D01*
X127724771Y-85886595D02*
X127962866Y-85886595D01*
X127962866Y-85886595D02*
X128153342Y-85934214D01*
X128153342Y-85934214D02*
X128248580Y-85981833D01*
X128248580Y-85981833D02*
X128296200Y-86029452D01*
X128296200Y-86029452D02*
X128343819Y-86124690D01*
X128343819Y-86124690D02*
X128343819Y-86219928D01*
X128343819Y-86219928D02*
X128296200Y-86315166D01*
X128296200Y-86315166D02*
X128248580Y-86362785D01*
X128248580Y-86362785D02*
X128153342Y-86410404D01*
X128153342Y-86410404D02*
X127962866Y-86458023D01*
X127962866Y-86458023D02*
X127724771Y-86458023D01*
X127724771Y-86458023D02*
X127534295Y-86410404D01*
X127534295Y-86410404D02*
X127439057Y-86362785D01*
X127439057Y-86362785D02*
X127391438Y-86315166D01*
X127391438Y-86315166D02*
X127343819Y-86219928D01*
X132167333Y-87095319D02*
X131691143Y-87095319D01*
X131691143Y-87095319D02*
X131691143Y-86095319D01*
X132976857Y-86095319D02*
X132500667Y-86095319D01*
X132500667Y-86095319D02*
X132453048Y-86571509D01*
X132453048Y-86571509D02*
X132500667Y-86523890D01*
X132500667Y-86523890D02*
X132595905Y-86476271D01*
X132595905Y-86476271D02*
X132834000Y-86476271D01*
X132834000Y-86476271D02*
X132929238Y-86523890D01*
X132929238Y-86523890D02*
X132976857Y-86571509D01*
X132976857Y-86571509D02*
X133024476Y-86666747D01*
X133024476Y-86666747D02*
X133024476Y-86904842D01*
X133024476Y-86904842D02*
X132976857Y-87000080D01*
X132976857Y-87000080D02*
X132929238Y-87047700D01*
X132929238Y-87047700D02*
X132834000Y-87095319D01*
X132834000Y-87095319D02*
X132595905Y-87095319D01*
X132595905Y-87095319D02*
X132500667Y-87047700D01*
X132500667Y-87047700D02*
X132453048Y-87000080D01*
X113759580Y-94762857D02*
X113807200Y-94810476D01*
X113807200Y-94810476D02*
X113854819Y-94953333D01*
X113854819Y-94953333D02*
X113854819Y-95048571D01*
X113854819Y-95048571D02*
X113807200Y-95191428D01*
X113807200Y-95191428D02*
X113711961Y-95286666D01*
X113711961Y-95286666D02*
X113616723Y-95334285D01*
X113616723Y-95334285D02*
X113426247Y-95381904D01*
X113426247Y-95381904D02*
X113283390Y-95381904D01*
X113283390Y-95381904D02*
X113092914Y-95334285D01*
X113092914Y-95334285D02*
X112997676Y-95286666D01*
X112997676Y-95286666D02*
X112902438Y-95191428D01*
X112902438Y-95191428D02*
X112854819Y-95048571D01*
X112854819Y-95048571D02*
X112854819Y-94953333D01*
X112854819Y-94953333D02*
X112902438Y-94810476D01*
X112902438Y-94810476D02*
X112950057Y-94762857D01*
X112950057Y-94381904D02*
X112902438Y-94334285D01*
X112902438Y-94334285D02*
X112854819Y-94239047D01*
X112854819Y-94239047D02*
X112854819Y-94000952D01*
X112854819Y-94000952D02*
X112902438Y-93905714D01*
X112902438Y-93905714D02*
X112950057Y-93858095D01*
X112950057Y-93858095D02*
X113045295Y-93810476D01*
X113045295Y-93810476D02*
X113140533Y-93810476D01*
X113140533Y-93810476D02*
X113283390Y-93858095D01*
X113283390Y-93858095D02*
X113854819Y-94429523D01*
X113854819Y-94429523D02*
X113854819Y-93810476D01*
X112950057Y-93429523D02*
X112902438Y-93381904D01*
X112902438Y-93381904D02*
X112854819Y-93286666D01*
X112854819Y-93286666D02*
X112854819Y-93048571D01*
X112854819Y-93048571D02*
X112902438Y-92953333D01*
X112902438Y-92953333D02*
X112950057Y-92905714D01*
X112950057Y-92905714D02*
X113045295Y-92858095D01*
X113045295Y-92858095D02*
X113140533Y-92858095D01*
X113140533Y-92858095D02*
X113283390Y-92905714D01*
X113283390Y-92905714D02*
X113854819Y-93477142D01*
X113854819Y-93477142D02*
X113854819Y-92858095D01*
X124946580Y-82562857D02*
X124994200Y-82610476D01*
X124994200Y-82610476D02*
X125041819Y-82753333D01*
X125041819Y-82753333D02*
X125041819Y-82848571D01*
X125041819Y-82848571D02*
X124994200Y-82991428D01*
X124994200Y-82991428D02*
X124898961Y-83086666D01*
X124898961Y-83086666D02*
X124803723Y-83134285D01*
X124803723Y-83134285D02*
X124613247Y-83181904D01*
X124613247Y-83181904D02*
X124470390Y-83181904D01*
X124470390Y-83181904D02*
X124279914Y-83134285D01*
X124279914Y-83134285D02*
X124184676Y-83086666D01*
X124184676Y-83086666D02*
X124089438Y-82991428D01*
X124089438Y-82991428D02*
X124041819Y-82848571D01*
X124041819Y-82848571D02*
X124041819Y-82753333D01*
X124041819Y-82753333D02*
X124089438Y-82610476D01*
X124089438Y-82610476D02*
X124137057Y-82562857D01*
X125041819Y-81610476D02*
X125041819Y-82181904D01*
X125041819Y-81896190D02*
X124041819Y-81896190D01*
X124041819Y-81896190D02*
X124184676Y-81991428D01*
X124184676Y-81991428D02*
X124279914Y-82086666D01*
X124279914Y-82086666D02*
X124327533Y-82181904D01*
X124041819Y-81277142D02*
X124041819Y-80610476D01*
X124041819Y-80610476D02*
X125041819Y-81039047D01*
X115144580Y-84232857D02*
X115192200Y-84280476D01*
X115192200Y-84280476D02*
X115239819Y-84423333D01*
X115239819Y-84423333D02*
X115239819Y-84518571D01*
X115239819Y-84518571D02*
X115192200Y-84661428D01*
X115192200Y-84661428D02*
X115096961Y-84756666D01*
X115096961Y-84756666D02*
X115001723Y-84804285D01*
X115001723Y-84804285D02*
X114811247Y-84851904D01*
X114811247Y-84851904D02*
X114668390Y-84851904D01*
X114668390Y-84851904D02*
X114477914Y-84804285D01*
X114477914Y-84804285D02*
X114382676Y-84756666D01*
X114382676Y-84756666D02*
X114287438Y-84661428D01*
X114287438Y-84661428D02*
X114239819Y-84518571D01*
X114239819Y-84518571D02*
X114239819Y-84423333D01*
X114239819Y-84423333D02*
X114287438Y-84280476D01*
X114287438Y-84280476D02*
X114335057Y-84232857D01*
X114239819Y-83899523D02*
X114239819Y-83280476D01*
X114239819Y-83280476D02*
X114620771Y-83613809D01*
X114620771Y-83613809D02*
X114620771Y-83470952D01*
X114620771Y-83470952D02*
X114668390Y-83375714D01*
X114668390Y-83375714D02*
X114716009Y-83328095D01*
X114716009Y-83328095D02*
X114811247Y-83280476D01*
X114811247Y-83280476D02*
X115049342Y-83280476D01*
X115049342Y-83280476D02*
X115144580Y-83328095D01*
X115144580Y-83328095D02*
X115192200Y-83375714D01*
X115192200Y-83375714D02*
X115239819Y-83470952D01*
X115239819Y-83470952D02*
X115239819Y-83756666D01*
X115239819Y-83756666D02*
X115192200Y-83851904D01*
X115192200Y-83851904D02*
X115144580Y-83899523D01*
X114239819Y-82947142D02*
X114239819Y-82328095D01*
X114239819Y-82328095D02*
X114620771Y-82661428D01*
X114620771Y-82661428D02*
X114620771Y-82518571D01*
X114620771Y-82518571D02*
X114668390Y-82423333D01*
X114668390Y-82423333D02*
X114716009Y-82375714D01*
X114716009Y-82375714D02*
X114811247Y-82328095D01*
X114811247Y-82328095D02*
X115049342Y-82328095D01*
X115049342Y-82328095D02*
X115144580Y-82375714D01*
X115144580Y-82375714D02*
X115192200Y-82423333D01*
X115192200Y-82423333D02*
X115239819Y-82518571D01*
X115239819Y-82518571D02*
X115239819Y-82804285D01*
X115239819Y-82804285D02*
X115192200Y-82899523D01*
X115192200Y-82899523D02*
X115144580Y-82947142D01*
X115572142Y-80949580D02*
X115524523Y-80997200D01*
X115524523Y-80997200D02*
X115381666Y-81044819D01*
X115381666Y-81044819D02*
X115286428Y-81044819D01*
X115286428Y-81044819D02*
X115143571Y-80997200D01*
X115143571Y-80997200D02*
X115048333Y-80901961D01*
X115048333Y-80901961D02*
X115000714Y-80806723D01*
X115000714Y-80806723D02*
X114953095Y-80616247D01*
X114953095Y-80616247D02*
X114953095Y-80473390D01*
X114953095Y-80473390D02*
X115000714Y-80282914D01*
X115000714Y-80282914D02*
X115048333Y-80187676D01*
X115048333Y-80187676D02*
X115143571Y-80092438D01*
X115143571Y-80092438D02*
X115286428Y-80044819D01*
X115286428Y-80044819D02*
X115381666Y-80044819D01*
X115381666Y-80044819D02*
X115524523Y-80092438D01*
X115524523Y-80092438D02*
X115572142Y-80140057D01*
X115905476Y-80044819D02*
X116524523Y-80044819D01*
X116524523Y-80044819D02*
X116191190Y-80425771D01*
X116191190Y-80425771D02*
X116334047Y-80425771D01*
X116334047Y-80425771D02*
X116429285Y-80473390D01*
X116429285Y-80473390D02*
X116476904Y-80521009D01*
X116476904Y-80521009D02*
X116524523Y-80616247D01*
X116524523Y-80616247D02*
X116524523Y-80854342D01*
X116524523Y-80854342D02*
X116476904Y-80949580D01*
X116476904Y-80949580D02*
X116429285Y-80997200D01*
X116429285Y-80997200D02*
X116334047Y-81044819D01*
X116334047Y-81044819D02*
X116048333Y-81044819D01*
X116048333Y-81044819D02*
X115953095Y-80997200D01*
X115953095Y-80997200D02*
X115905476Y-80949580D01*
X116905476Y-80140057D02*
X116953095Y-80092438D01*
X116953095Y-80092438D02*
X117048333Y-80044819D01*
X117048333Y-80044819D02*
X117286428Y-80044819D01*
X117286428Y-80044819D02*
X117381666Y-80092438D01*
X117381666Y-80092438D02*
X117429285Y-80140057D01*
X117429285Y-80140057D02*
X117476904Y-80235295D01*
X117476904Y-80235295D02*
X117476904Y-80330533D01*
X117476904Y-80330533D02*
X117429285Y-80473390D01*
X117429285Y-80473390D02*
X116857857Y-81044819D01*
X116857857Y-81044819D02*
X117476904Y-81044819D01*
X121163809Y-85988628D02*
X121163809Y-86464819D01*
X120830476Y-85464819D02*
X121163809Y-85988628D01*
X121163809Y-85988628D02*
X121497142Y-85464819D01*
X121782857Y-85560057D02*
X121830476Y-85512438D01*
X121830476Y-85512438D02*
X121925714Y-85464819D01*
X121925714Y-85464819D02*
X122163809Y-85464819D01*
X122163809Y-85464819D02*
X122259047Y-85512438D01*
X122259047Y-85512438D02*
X122306666Y-85560057D01*
X122306666Y-85560057D02*
X122354285Y-85655295D01*
X122354285Y-85655295D02*
X122354285Y-85750533D01*
X122354285Y-85750533D02*
X122306666Y-85893390D01*
X122306666Y-85893390D02*
X121735238Y-86464819D01*
X121735238Y-86464819D02*
X122354285Y-86464819D01*
X137884819Y-108017857D02*
X137408628Y-108351190D01*
X137884819Y-108589285D02*
X136884819Y-108589285D01*
X136884819Y-108589285D02*
X136884819Y-108208333D01*
X136884819Y-108208333D02*
X136932438Y-108113095D01*
X136932438Y-108113095D02*
X136980057Y-108065476D01*
X136980057Y-108065476D02*
X137075295Y-108017857D01*
X137075295Y-108017857D02*
X137218152Y-108017857D01*
X137218152Y-108017857D02*
X137313390Y-108065476D01*
X137313390Y-108065476D02*
X137361009Y-108113095D01*
X137361009Y-108113095D02*
X137408628Y-108208333D01*
X137408628Y-108208333D02*
X137408628Y-108589285D01*
X137884819Y-107065476D02*
X137884819Y-107636904D01*
X137884819Y-107351190D02*
X136884819Y-107351190D01*
X136884819Y-107351190D02*
X137027676Y-107446428D01*
X137027676Y-107446428D02*
X137122914Y-107541666D01*
X137122914Y-107541666D02*
X137170533Y-107636904D01*
X136884819Y-106160714D02*
X136884819Y-106636904D01*
X136884819Y-106636904D02*
X137361009Y-106684523D01*
X137361009Y-106684523D02*
X137313390Y-106636904D01*
X137313390Y-106636904D02*
X137265771Y-106541666D01*
X137265771Y-106541666D02*
X137265771Y-106303571D01*
X137265771Y-106303571D02*
X137313390Y-106208333D01*
X137313390Y-106208333D02*
X137361009Y-106160714D01*
X137361009Y-106160714D02*
X137456247Y-106113095D01*
X137456247Y-106113095D02*
X137694342Y-106113095D01*
X137694342Y-106113095D02*
X137789580Y-106160714D01*
X137789580Y-106160714D02*
X137837200Y-106208333D01*
X137837200Y-106208333D02*
X137884819Y-106303571D01*
X137884819Y-106303571D02*
X137884819Y-106541666D01*
X137884819Y-106541666D02*
X137837200Y-106636904D01*
X137837200Y-106636904D02*
X137789580Y-106684523D01*
X136454819Y-115613094D02*
X135454819Y-115613094D01*
X135454819Y-115613094D02*
X135454819Y-115374999D01*
X135454819Y-115374999D02*
X135502438Y-115232142D01*
X135502438Y-115232142D02*
X135597676Y-115136904D01*
X135597676Y-115136904D02*
X135692914Y-115089285D01*
X135692914Y-115089285D02*
X135883390Y-115041666D01*
X135883390Y-115041666D02*
X136026247Y-115041666D01*
X136026247Y-115041666D02*
X136216723Y-115089285D01*
X136216723Y-115089285D02*
X136311961Y-115136904D01*
X136311961Y-115136904D02*
X136407200Y-115232142D01*
X136407200Y-115232142D02*
X136454819Y-115374999D01*
X136454819Y-115374999D02*
X136454819Y-115613094D01*
X135454819Y-114708332D02*
X135454819Y-114089285D01*
X135454819Y-114089285D02*
X135835771Y-114422618D01*
X135835771Y-114422618D02*
X135835771Y-114279761D01*
X135835771Y-114279761D02*
X135883390Y-114184523D01*
X135883390Y-114184523D02*
X135931009Y-114136904D01*
X135931009Y-114136904D02*
X136026247Y-114089285D01*
X136026247Y-114089285D02*
X136264342Y-114089285D01*
X136264342Y-114089285D02*
X136359580Y-114136904D01*
X136359580Y-114136904D02*
X136407200Y-114184523D01*
X136407200Y-114184523D02*
X136454819Y-114279761D01*
X136454819Y-114279761D02*
X136454819Y-114565475D01*
X136454819Y-114565475D02*
X136407200Y-114660713D01*
X136407200Y-114660713D02*
X136359580Y-114708332D01*
X120678095Y-107594819D02*
X120678095Y-108404342D01*
X120678095Y-108404342D02*
X120725714Y-108499580D01*
X120725714Y-108499580D02*
X120773333Y-108547200D01*
X120773333Y-108547200D02*
X120868571Y-108594819D01*
X120868571Y-108594819D02*
X121059047Y-108594819D01*
X121059047Y-108594819D02*
X121154285Y-108547200D01*
X121154285Y-108547200D02*
X121201904Y-108499580D01*
X121201904Y-108499580D02*
X121249523Y-108404342D01*
X121249523Y-108404342D02*
X121249523Y-107594819D01*
X122201904Y-107594819D02*
X121725714Y-107594819D01*
X121725714Y-107594819D02*
X121678095Y-108071009D01*
X121678095Y-108071009D02*
X121725714Y-108023390D01*
X121725714Y-108023390D02*
X121820952Y-107975771D01*
X121820952Y-107975771D02*
X122059047Y-107975771D01*
X122059047Y-107975771D02*
X122154285Y-108023390D01*
X122154285Y-108023390D02*
X122201904Y-108071009D01*
X122201904Y-108071009D02*
X122249523Y-108166247D01*
X122249523Y-108166247D02*
X122249523Y-108404342D01*
X122249523Y-108404342D02*
X122201904Y-108499580D01*
X122201904Y-108499580D02*
X122154285Y-108547200D01*
X122154285Y-108547200D02*
X122059047Y-108594819D01*
X122059047Y-108594819D02*
X121820952Y-108594819D01*
X121820952Y-108594819D02*
X121725714Y-108547200D01*
X121725714Y-108547200D02*
X121678095Y-108499580D01*
X118773000Y-100564219D02*
X118773000Y-100802314D01*
X118534905Y-100707076D02*
X118773000Y-100802314D01*
X118773000Y-100802314D02*
X119011095Y-100707076D01*
X118630143Y-100992790D02*
X118773000Y-100802314D01*
X118773000Y-100802314D02*
X118915857Y-100992790D01*
X118773000Y-100564219D02*
X118773000Y-100802314D01*
X118534905Y-100707076D02*
X118773000Y-100802314D01*
X118773000Y-100802314D02*
X119011095Y-100707076D01*
X118630143Y-100992790D02*
X118773000Y-100802314D01*
X118773000Y-100802314D02*
X118915857Y-100992790D01*
X106228338Y-100343514D02*
X106228338Y-100648276D01*
X106015005Y-100008276D02*
X106228338Y-100343514D01*
X106228338Y-100343514D02*
X106441672Y-100008276D01*
X106990243Y-100648276D02*
X106624528Y-100648276D01*
X106807385Y-100648276D02*
X106807385Y-100008276D01*
X106807385Y-100008276D02*
X106746433Y-100099704D01*
X106746433Y-100099704D02*
X106685481Y-100160657D01*
X106685481Y-100160657D02*
X106624528Y-100191133D01*
X121714319Y-91961904D02*
X122523842Y-91961904D01*
X122523842Y-91961904D02*
X122619080Y-91914285D01*
X122619080Y-91914285D02*
X122666700Y-91866666D01*
X122666700Y-91866666D02*
X122714319Y-91771428D01*
X122714319Y-91771428D02*
X122714319Y-91580952D01*
X122714319Y-91580952D02*
X122666700Y-91485714D01*
X122666700Y-91485714D02*
X122619080Y-91438095D01*
X122619080Y-91438095D02*
X122523842Y-91390476D01*
X122523842Y-91390476D02*
X121714319Y-91390476D01*
X122047652Y-90485714D02*
X122714319Y-90485714D01*
X121666700Y-90723809D02*
X122380985Y-90961904D01*
X122380985Y-90961904D02*
X122380985Y-90342857D01*
X119964319Y-94692499D02*
X120202414Y-94692499D01*
X120107176Y-94930594D02*
X120202414Y-94692499D01*
X120202414Y-94692499D02*
X120107176Y-94454404D01*
X120392890Y-94835356D02*
X120202414Y-94692499D01*
X120202414Y-94692499D02*
X120392890Y-94549642D01*
X119964319Y-94692499D02*
X120202414Y-94692499D01*
X120107176Y-94930594D02*
X120202414Y-94692499D01*
X120202414Y-94692499D02*
X120107176Y-94454404D01*
X120392890Y-94835356D02*
X120202414Y-94692499D01*
X120202414Y-94692499D02*
X120392890Y-94549642D01*
X113538095Y-104994819D02*
X113538095Y-105804342D01*
X113538095Y-105804342D02*
X113585714Y-105899580D01*
X113585714Y-105899580D02*
X113633333Y-105947200D01*
X113633333Y-105947200D02*
X113728571Y-105994819D01*
X113728571Y-105994819D02*
X113919047Y-105994819D01*
X113919047Y-105994819D02*
X114014285Y-105947200D01*
X114014285Y-105947200D02*
X114061904Y-105899580D01*
X114061904Y-105899580D02*
X114109523Y-105804342D01*
X114109523Y-105804342D02*
X114109523Y-104994819D01*
X114490476Y-104994819D02*
X115109523Y-104994819D01*
X115109523Y-104994819D02*
X114776190Y-105375771D01*
X114776190Y-105375771D02*
X114919047Y-105375771D01*
X114919047Y-105375771D02*
X115014285Y-105423390D01*
X115014285Y-105423390D02*
X115061904Y-105471009D01*
X115061904Y-105471009D02*
X115109523Y-105566247D01*
X115109523Y-105566247D02*
X115109523Y-105804342D01*
X115109523Y-105804342D02*
X115061904Y-105899580D01*
X115061904Y-105899580D02*
X115014285Y-105947200D01*
X115014285Y-105947200D02*
X114919047Y-105994819D01*
X114919047Y-105994819D02*
X114633333Y-105994819D01*
X114633333Y-105994819D02*
X114538095Y-105947200D01*
X114538095Y-105947200D02*
X114490476Y-105899580D01*
X146650595Y-115924819D02*
X146650595Y-116734342D01*
X146650595Y-116734342D02*
X146698214Y-116829580D01*
X146698214Y-116829580D02*
X146745833Y-116877200D01*
X146745833Y-116877200D02*
X146841071Y-116924819D01*
X146841071Y-116924819D02*
X147031547Y-116924819D01*
X147031547Y-116924819D02*
X147126785Y-116877200D01*
X147126785Y-116877200D02*
X147174404Y-116829580D01*
X147174404Y-116829580D02*
X147222023Y-116734342D01*
X147222023Y-116734342D02*
X147222023Y-115924819D01*
X147650595Y-116020057D02*
X147698214Y-115972438D01*
X147698214Y-115972438D02*
X147793452Y-115924819D01*
X147793452Y-115924819D02*
X148031547Y-115924819D01*
X148031547Y-115924819D02*
X148126785Y-115972438D01*
X148126785Y-115972438D02*
X148174404Y-116020057D01*
X148174404Y-116020057D02*
X148222023Y-116115295D01*
X148222023Y-116115295D02*
X148222023Y-116210533D01*
X148222023Y-116210533D02*
X148174404Y-116353390D01*
X148174404Y-116353390D02*
X147602976Y-116924819D01*
X147602976Y-116924819D02*
X148222023Y-116924819D01*
X117713095Y-111149819D02*
X117713095Y-111959342D01*
X117713095Y-111959342D02*
X117760714Y-112054580D01*
X117760714Y-112054580D02*
X117808333Y-112102200D01*
X117808333Y-112102200D02*
X117903571Y-112149819D01*
X117903571Y-112149819D02*
X118094047Y-112149819D01*
X118094047Y-112149819D02*
X118189285Y-112102200D01*
X118189285Y-112102200D02*
X118236904Y-112054580D01*
X118236904Y-112054580D02*
X118284523Y-111959342D01*
X118284523Y-111959342D02*
X118284523Y-111149819D01*
X119284523Y-112149819D02*
X118713095Y-112149819D01*
X118998809Y-112149819D02*
X118998809Y-111149819D01*
X118998809Y-111149819D02*
X118903571Y-111292676D01*
X118903571Y-111292676D02*
X118808333Y-111387914D01*
X118808333Y-111387914D02*
X118713095Y-111435533D01*
X102189286Y-123119819D02*
X102760714Y-123119819D01*
X102475000Y-124119819D02*
X102475000Y-123119819D01*
X103094048Y-124119819D02*
X103094048Y-123119819D01*
X103094048Y-123596009D02*
X103665476Y-123596009D01*
X103665476Y-124119819D02*
X103665476Y-123119819D01*
X104665476Y-124119819D02*
X104094048Y-124119819D01*
X104379762Y-124119819D02*
X104379762Y-123119819D01*
X104379762Y-123119819D02*
X104284524Y-123262676D01*
X104284524Y-123262676D02*
X104189286Y-123357914D01*
X104189286Y-123357914D02*
X104094048Y-123405533D01*
X136713333Y-103593200D02*
X136913333Y-103659866D01*
X136913333Y-103659866D02*
X137246667Y-103659866D01*
X137246667Y-103659866D02*
X137380000Y-103593200D01*
X137380000Y-103593200D02*
X137446667Y-103526533D01*
X137446667Y-103526533D02*
X137513333Y-103393200D01*
X137513333Y-103393200D02*
X137513333Y-103259866D01*
X137513333Y-103259866D02*
X137446667Y-103126533D01*
X137446667Y-103126533D02*
X137380000Y-103059866D01*
X137380000Y-103059866D02*
X137246667Y-102993200D01*
X137246667Y-102993200D02*
X136980000Y-102926533D01*
X136980000Y-102926533D02*
X136846667Y-102859866D01*
X136846667Y-102859866D02*
X136780000Y-102793200D01*
X136780000Y-102793200D02*
X136713333Y-102659866D01*
X136713333Y-102659866D02*
X136713333Y-102526533D01*
X136713333Y-102526533D02*
X136780000Y-102393200D01*
X136780000Y-102393200D02*
X136846667Y-102326533D01*
X136846667Y-102326533D02*
X136980000Y-102259866D01*
X136980000Y-102259866D02*
X137313333Y-102259866D01*
X137313333Y-102259866D02*
X137513333Y-102326533D01*
X138846666Y-103659866D02*
X138046666Y-103659866D01*
X138446666Y-103659866D02*
X138446666Y-102259866D01*
X138446666Y-102259866D02*
X138313333Y-102459866D01*
X138313333Y-102459866D02*
X138180000Y-102593200D01*
X138180000Y-102593200D02*
X138046666Y-102659866D01*
X87014819Y-88697857D02*
X86538628Y-89031190D01*
X87014819Y-89269285D02*
X86014819Y-89269285D01*
X86014819Y-89269285D02*
X86014819Y-88888333D01*
X86014819Y-88888333D02*
X86062438Y-88793095D01*
X86062438Y-88793095D02*
X86110057Y-88745476D01*
X86110057Y-88745476D02*
X86205295Y-88697857D01*
X86205295Y-88697857D02*
X86348152Y-88697857D01*
X86348152Y-88697857D02*
X86443390Y-88745476D01*
X86443390Y-88745476D02*
X86491009Y-88793095D01*
X86491009Y-88793095D02*
X86538628Y-88888333D01*
X86538628Y-88888333D02*
X86538628Y-89269285D01*
X87014819Y-87745476D02*
X87014819Y-88316904D01*
X87014819Y-88031190D02*
X86014819Y-88031190D01*
X86014819Y-88031190D02*
X86157676Y-88126428D01*
X86157676Y-88126428D02*
X86252914Y-88221666D01*
X86252914Y-88221666D02*
X86300533Y-88316904D01*
X86348152Y-86888333D02*
X87014819Y-86888333D01*
X85967200Y-87126428D02*
X86681485Y-87364523D01*
X86681485Y-87364523D02*
X86681485Y-86745476D01*
X127137142Y-118194819D02*
X126803809Y-117718628D01*
X126565714Y-118194819D02*
X126565714Y-117194819D01*
X126565714Y-117194819D02*
X126946666Y-117194819D01*
X126946666Y-117194819D02*
X127041904Y-117242438D01*
X127041904Y-117242438D02*
X127089523Y-117290057D01*
X127089523Y-117290057D02*
X127137142Y-117385295D01*
X127137142Y-117385295D02*
X127137142Y-117528152D01*
X127137142Y-117528152D02*
X127089523Y-117623390D01*
X127089523Y-117623390D02*
X127041904Y-117671009D01*
X127041904Y-117671009D02*
X126946666Y-117718628D01*
X126946666Y-117718628D02*
X126565714Y-117718628D01*
X128089523Y-118194819D02*
X127518095Y-118194819D01*
X127803809Y-118194819D02*
X127803809Y-117194819D01*
X127803809Y-117194819D02*
X127708571Y-117337676D01*
X127708571Y-117337676D02*
X127613333Y-117432914D01*
X127613333Y-117432914D02*
X127518095Y-117480533D01*
X128422857Y-117194819D02*
X129041904Y-117194819D01*
X129041904Y-117194819D02*
X128708571Y-117575771D01*
X128708571Y-117575771D02*
X128851428Y-117575771D01*
X128851428Y-117575771D02*
X128946666Y-117623390D01*
X128946666Y-117623390D02*
X128994285Y-117671009D01*
X128994285Y-117671009D02*
X129041904Y-117766247D01*
X129041904Y-117766247D02*
X129041904Y-118004342D01*
X129041904Y-118004342D02*
X128994285Y-118099580D01*
X128994285Y-118099580D02*
X128946666Y-118147200D01*
X128946666Y-118147200D02*
X128851428Y-118194819D01*
X128851428Y-118194819D02*
X128565714Y-118194819D01*
X128565714Y-118194819D02*
X128470476Y-118147200D01*
X128470476Y-118147200D02*
X128422857Y-118099580D01*
X110017142Y-107714819D02*
X109683809Y-107238628D01*
X109445714Y-107714819D02*
X109445714Y-106714819D01*
X109445714Y-106714819D02*
X109826666Y-106714819D01*
X109826666Y-106714819D02*
X109921904Y-106762438D01*
X109921904Y-106762438D02*
X109969523Y-106810057D01*
X109969523Y-106810057D02*
X110017142Y-106905295D01*
X110017142Y-106905295D02*
X110017142Y-107048152D01*
X110017142Y-107048152D02*
X109969523Y-107143390D01*
X109969523Y-107143390D02*
X109921904Y-107191009D01*
X109921904Y-107191009D02*
X109826666Y-107238628D01*
X109826666Y-107238628D02*
X109445714Y-107238628D01*
X110969523Y-107714819D02*
X110398095Y-107714819D01*
X110683809Y-107714819D02*
X110683809Y-106714819D01*
X110683809Y-106714819D02*
X110588571Y-106857676D01*
X110588571Y-106857676D02*
X110493333Y-106952914D01*
X110493333Y-106952914D02*
X110398095Y-107000533D01*
X111350476Y-106810057D02*
X111398095Y-106762438D01*
X111398095Y-106762438D02*
X111493333Y-106714819D01*
X111493333Y-106714819D02*
X111731428Y-106714819D01*
X111731428Y-106714819D02*
X111826666Y-106762438D01*
X111826666Y-106762438D02*
X111874285Y-106810057D01*
X111874285Y-106810057D02*
X111921904Y-106905295D01*
X111921904Y-106905295D02*
X111921904Y-107000533D01*
X111921904Y-107000533D02*
X111874285Y-107143390D01*
X111874285Y-107143390D02*
X111302857Y-107714819D01*
X111302857Y-107714819D02*
X111921904Y-107714819D01*
X113797142Y-108744819D02*
X113463809Y-108268628D01*
X113225714Y-108744819D02*
X113225714Y-107744819D01*
X113225714Y-107744819D02*
X113606666Y-107744819D01*
X113606666Y-107744819D02*
X113701904Y-107792438D01*
X113701904Y-107792438D02*
X113749523Y-107840057D01*
X113749523Y-107840057D02*
X113797142Y-107935295D01*
X113797142Y-107935295D02*
X113797142Y-108078152D01*
X113797142Y-108078152D02*
X113749523Y-108173390D01*
X113749523Y-108173390D02*
X113701904Y-108221009D01*
X113701904Y-108221009D02*
X113606666Y-108268628D01*
X113606666Y-108268628D02*
X113225714Y-108268628D01*
X114749523Y-108744819D02*
X114178095Y-108744819D01*
X114463809Y-108744819D02*
X114463809Y-107744819D01*
X114463809Y-107744819D02*
X114368571Y-107887676D01*
X114368571Y-107887676D02*
X114273333Y-107982914D01*
X114273333Y-107982914D02*
X114178095Y-108030533D01*
X115701904Y-108744819D02*
X115130476Y-108744819D01*
X115416190Y-108744819D02*
X115416190Y-107744819D01*
X115416190Y-107744819D02*
X115320952Y-107887676D01*
X115320952Y-107887676D02*
X115225714Y-107982914D01*
X115225714Y-107982914D02*
X115130476Y-108030533D01*
X130884819Y-108017857D02*
X130408628Y-108351190D01*
X130884819Y-108589285D02*
X129884819Y-108589285D01*
X129884819Y-108589285D02*
X129884819Y-108208333D01*
X129884819Y-108208333D02*
X129932438Y-108113095D01*
X129932438Y-108113095D02*
X129980057Y-108065476D01*
X129980057Y-108065476D02*
X130075295Y-108017857D01*
X130075295Y-108017857D02*
X130218152Y-108017857D01*
X130218152Y-108017857D02*
X130313390Y-108065476D01*
X130313390Y-108065476D02*
X130361009Y-108113095D01*
X130361009Y-108113095D02*
X130408628Y-108208333D01*
X130408628Y-108208333D02*
X130408628Y-108589285D01*
X130884819Y-107065476D02*
X130884819Y-107636904D01*
X130884819Y-107351190D02*
X129884819Y-107351190D01*
X129884819Y-107351190D02*
X130027676Y-107446428D01*
X130027676Y-107446428D02*
X130122914Y-107541666D01*
X130122914Y-107541666D02*
X130170533Y-107636904D01*
X129884819Y-106446428D02*
X129884819Y-106351190D01*
X129884819Y-106351190D02*
X129932438Y-106255952D01*
X129932438Y-106255952D02*
X129980057Y-106208333D01*
X129980057Y-106208333D02*
X130075295Y-106160714D01*
X130075295Y-106160714D02*
X130265771Y-106113095D01*
X130265771Y-106113095D02*
X130503866Y-106113095D01*
X130503866Y-106113095D02*
X130694342Y-106160714D01*
X130694342Y-106160714D02*
X130789580Y-106208333D01*
X130789580Y-106208333D02*
X130837200Y-106255952D01*
X130837200Y-106255952D02*
X130884819Y-106351190D01*
X130884819Y-106351190D02*
X130884819Y-106446428D01*
X130884819Y-106446428D02*
X130837200Y-106541666D01*
X130837200Y-106541666D02*
X130789580Y-106589285D01*
X130789580Y-106589285D02*
X130694342Y-106636904D01*
X130694342Y-106636904D02*
X130503866Y-106684523D01*
X130503866Y-106684523D02*
X130265771Y-106684523D01*
X130265771Y-106684523D02*
X130075295Y-106636904D01*
X130075295Y-106636904D02*
X129980057Y-106589285D01*
X129980057Y-106589285D02*
X129932438Y-106541666D01*
X129932438Y-106541666D02*
X129884819Y-106446428D01*
X107308333Y-121119819D02*
X106975000Y-120643628D01*
X106736905Y-121119819D02*
X106736905Y-120119819D01*
X106736905Y-120119819D02*
X107117857Y-120119819D01*
X107117857Y-120119819D02*
X107213095Y-120167438D01*
X107213095Y-120167438D02*
X107260714Y-120215057D01*
X107260714Y-120215057D02*
X107308333Y-120310295D01*
X107308333Y-120310295D02*
X107308333Y-120453152D01*
X107308333Y-120453152D02*
X107260714Y-120548390D01*
X107260714Y-120548390D02*
X107213095Y-120596009D01*
X107213095Y-120596009D02*
X107117857Y-120643628D01*
X107117857Y-120643628D02*
X106736905Y-120643628D01*
X107784524Y-121119819D02*
X107975000Y-121119819D01*
X107975000Y-121119819D02*
X108070238Y-121072200D01*
X108070238Y-121072200D02*
X108117857Y-121024580D01*
X108117857Y-121024580D02*
X108213095Y-120881723D01*
X108213095Y-120881723D02*
X108260714Y-120691247D01*
X108260714Y-120691247D02*
X108260714Y-120310295D01*
X108260714Y-120310295D02*
X108213095Y-120215057D01*
X108213095Y-120215057D02*
X108165476Y-120167438D01*
X108165476Y-120167438D02*
X108070238Y-120119819D01*
X108070238Y-120119819D02*
X107879762Y-120119819D01*
X107879762Y-120119819D02*
X107784524Y-120167438D01*
X107784524Y-120167438D02*
X107736905Y-120215057D01*
X107736905Y-120215057D02*
X107689286Y-120310295D01*
X107689286Y-120310295D02*
X107689286Y-120548390D01*
X107689286Y-120548390D02*
X107736905Y-120643628D01*
X107736905Y-120643628D02*
X107784524Y-120691247D01*
X107784524Y-120691247D02*
X107879762Y-120738866D01*
X107879762Y-120738866D02*
X108070238Y-120738866D01*
X108070238Y-120738866D02*
X108165476Y-120691247D01*
X108165476Y-120691247D02*
X108213095Y-120643628D01*
X108213095Y-120643628D02*
X108260714Y-120548390D01*
X134384819Y-107541666D02*
X133908628Y-107874999D01*
X134384819Y-108113094D02*
X133384819Y-108113094D01*
X133384819Y-108113094D02*
X133384819Y-107732142D01*
X133384819Y-107732142D02*
X133432438Y-107636904D01*
X133432438Y-107636904D02*
X133480057Y-107589285D01*
X133480057Y-107589285D02*
X133575295Y-107541666D01*
X133575295Y-107541666D02*
X133718152Y-107541666D01*
X133718152Y-107541666D02*
X133813390Y-107589285D01*
X133813390Y-107589285D02*
X133861009Y-107636904D01*
X133861009Y-107636904D02*
X133908628Y-107732142D01*
X133908628Y-107732142D02*
X133908628Y-108113094D01*
X133813390Y-106970237D02*
X133765771Y-107065475D01*
X133765771Y-107065475D02*
X133718152Y-107113094D01*
X133718152Y-107113094D02*
X133622914Y-107160713D01*
X133622914Y-107160713D02*
X133575295Y-107160713D01*
X133575295Y-107160713D02*
X133480057Y-107113094D01*
X133480057Y-107113094D02*
X133432438Y-107065475D01*
X133432438Y-107065475D02*
X133384819Y-106970237D01*
X133384819Y-106970237D02*
X133384819Y-106779761D01*
X133384819Y-106779761D02*
X133432438Y-106684523D01*
X133432438Y-106684523D02*
X133480057Y-106636904D01*
X133480057Y-106636904D02*
X133575295Y-106589285D01*
X133575295Y-106589285D02*
X133622914Y-106589285D01*
X133622914Y-106589285D02*
X133718152Y-106636904D01*
X133718152Y-106636904D02*
X133765771Y-106684523D01*
X133765771Y-106684523D02*
X133813390Y-106779761D01*
X133813390Y-106779761D02*
X133813390Y-106970237D01*
X133813390Y-106970237D02*
X133861009Y-107065475D01*
X133861009Y-107065475D02*
X133908628Y-107113094D01*
X133908628Y-107113094D02*
X134003866Y-107160713D01*
X134003866Y-107160713D02*
X134194342Y-107160713D01*
X134194342Y-107160713D02*
X134289580Y-107113094D01*
X134289580Y-107113094D02*
X134337200Y-107065475D01*
X134337200Y-107065475D02*
X134384819Y-106970237D01*
X134384819Y-106970237D02*
X134384819Y-106779761D01*
X134384819Y-106779761D02*
X134337200Y-106684523D01*
X134337200Y-106684523D02*
X134289580Y-106636904D01*
X134289580Y-106636904D02*
X134194342Y-106589285D01*
X134194342Y-106589285D02*
X134003866Y-106589285D01*
X134003866Y-106589285D02*
X133908628Y-106636904D01*
X133908628Y-106636904D02*
X133861009Y-106684523D01*
X133861009Y-106684523D02*
X133813390Y-106779761D01*
X103308333Y-121119819D02*
X102975000Y-120643628D01*
X102736905Y-121119819D02*
X102736905Y-120119819D01*
X102736905Y-120119819D02*
X103117857Y-120119819D01*
X103117857Y-120119819D02*
X103213095Y-120167438D01*
X103213095Y-120167438D02*
X103260714Y-120215057D01*
X103260714Y-120215057D02*
X103308333Y-120310295D01*
X103308333Y-120310295D02*
X103308333Y-120453152D01*
X103308333Y-120453152D02*
X103260714Y-120548390D01*
X103260714Y-120548390D02*
X103213095Y-120596009D01*
X103213095Y-120596009D02*
X103117857Y-120643628D01*
X103117857Y-120643628D02*
X102736905Y-120643628D01*
X103641667Y-120119819D02*
X104308333Y-120119819D01*
X104308333Y-120119819D02*
X103879762Y-121119819D01*
X107395833Y-115119819D02*
X107062500Y-114643628D01*
X106824405Y-115119819D02*
X106824405Y-114119819D01*
X106824405Y-114119819D02*
X107205357Y-114119819D01*
X107205357Y-114119819D02*
X107300595Y-114167438D01*
X107300595Y-114167438D02*
X107348214Y-114215057D01*
X107348214Y-114215057D02*
X107395833Y-114310295D01*
X107395833Y-114310295D02*
X107395833Y-114453152D01*
X107395833Y-114453152D02*
X107348214Y-114548390D01*
X107348214Y-114548390D02*
X107300595Y-114596009D01*
X107300595Y-114596009D02*
X107205357Y-114643628D01*
X107205357Y-114643628D02*
X106824405Y-114643628D01*
X108252976Y-114119819D02*
X108062500Y-114119819D01*
X108062500Y-114119819D02*
X107967262Y-114167438D01*
X107967262Y-114167438D02*
X107919643Y-114215057D01*
X107919643Y-114215057D02*
X107824405Y-114357914D01*
X107824405Y-114357914D02*
X107776786Y-114548390D01*
X107776786Y-114548390D02*
X107776786Y-114929342D01*
X107776786Y-114929342D02*
X107824405Y-115024580D01*
X107824405Y-115024580D02*
X107872024Y-115072200D01*
X107872024Y-115072200D02*
X107967262Y-115119819D01*
X107967262Y-115119819D02*
X108157738Y-115119819D01*
X108157738Y-115119819D02*
X108252976Y-115072200D01*
X108252976Y-115072200D02*
X108300595Y-115024580D01*
X108300595Y-115024580D02*
X108348214Y-114929342D01*
X108348214Y-114929342D02*
X108348214Y-114691247D01*
X108348214Y-114691247D02*
X108300595Y-114596009D01*
X108300595Y-114596009D02*
X108252976Y-114548390D01*
X108252976Y-114548390D02*
X108157738Y-114500771D01*
X108157738Y-114500771D02*
X107967262Y-114500771D01*
X107967262Y-114500771D02*
X107872024Y-114548390D01*
X107872024Y-114548390D02*
X107824405Y-114596009D01*
X107824405Y-114596009D02*
X107776786Y-114691247D01*
X103395833Y-118119819D02*
X103062500Y-117643628D01*
X102824405Y-118119819D02*
X102824405Y-117119819D01*
X102824405Y-117119819D02*
X103205357Y-117119819D01*
X103205357Y-117119819D02*
X103300595Y-117167438D01*
X103300595Y-117167438D02*
X103348214Y-117215057D01*
X103348214Y-117215057D02*
X103395833Y-117310295D01*
X103395833Y-117310295D02*
X103395833Y-117453152D01*
X103395833Y-117453152D02*
X103348214Y-117548390D01*
X103348214Y-117548390D02*
X103300595Y-117596009D01*
X103300595Y-117596009D02*
X103205357Y-117643628D01*
X103205357Y-117643628D02*
X102824405Y-117643628D01*
X104300595Y-117119819D02*
X103824405Y-117119819D01*
X103824405Y-117119819D02*
X103776786Y-117596009D01*
X103776786Y-117596009D02*
X103824405Y-117548390D01*
X103824405Y-117548390D02*
X103919643Y-117500771D01*
X103919643Y-117500771D02*
X104157738Y-117500771D01*
X104157738Y-117500771D02*
X104252976Y-117548390D01*
X104252976Y-117548390D02*
X104300595Y-117596009D01*
X104300595Y-117596009D02*
X104348214Y-117691247D01*
X104348214Y-117691247D02*
X104348214Y-117929342D01*
X104348214Y-117929342D02*
X104300595Y-118024580D01*
X104300595Y-118024580D02*
X104252976Y-118072200D01*
X104252976Y-118072200D02*
X104157738Y-118119819D01*
X104157738Y-118119819D02*
X103919643Y-118119819D01*
X103919643Y-118119819D02*
X103824405Y-118072200D01*
X103824405Y-118072200D02*
X103776786Y-118024580D01*
X103395833Y-115119819D02*
X103062500Y-114643628D01*
X102824405Y-115119819D02*
X102824405Y-114119819D01*
X102824405Y-114119819D02*
X103205357Y-114119819D01*
X103205357Y-114119819D02*
X103300595Y-114167438D01*
X103300595Y-114167438D02*
X103348214Y-114215057D01*
X103348214Y-114215057D02*
X103395833Y-114310295D01*
X103395833Y-114310295D02*
X103395833Y-114453152D01*
X103395833Y-114453152D02*
X103348214Y-114548390D01*
X103348214Y-114548390D02*
X103300595Y-114596009D01*
X103300595Y-114596009D02*
X103205357Y-114643628D01*
X103205357Y-114643628D02*
X102824405Y-114643628D01*
X104252976Y-114453152D02*
X104252976Y-115119819D01*
X104014881Y-114072200D02*
X103776786Y-114786485D01*
X103776786Y-114786485D02*
X104395833Y-114786485D01*
X107308333Y-109094819D02*
X106975000Y-108618628D01*
X106736905Y-109094819D02*
X106736905Y-108094819D01*
X106736905Y-108094819D02*
X107117857Y-108094819D01*
X107117857Y-108094819D02*
X107213095Y-108142438D01*
X107213095Y-108142438D02*
X107260714Y-108190057D01*
X107260714Y-108190057D02*
X107308333Y-108285295D01*
X107308333Y-108285295D02*
X107308333Y-108428152D01*
X107308333Y-108428152D02*
X107260714Y-108523390D01*
X107260714Y-108523390D02*
X107213095Y-108571009D01*
X107213095Y-108571009D02*
X107117857Y-108618628D01*
X107117857Y-108618628D02*
X106736905Y-108618628D01*
X107641667Y-108094819D02*
X108260714Y-108094819D01*
X108260714Y-108094819D02*
X107927381Y-108475771D01*
X107927381Y-108475771D02*
X108070238Y-108475771D01*
X108070238Y-108475771D02*
X108165476Y-108523390D01*
X108165476Y-108523390D02*
X108213095Y-108571009D01*
X108213095Y-108571009D02*
X108260714Y-108666247D01*
X108260714Y-108666247D02*
X108260714Y-108904342D01*
X108260714Y-108904342D02*
X108213095Y-108999580D01*
X108213095Y-108999580D02*
X108165476Y-109047200D01*
X108165476Y-109047200D02*
X108070238Y-109094819D01*
X108070238Y-109094819D02*
X107784524Y-109094819D01*
X107784524Y-109094819D02*
X107689286Y-109047200D01*
X107689286Y-109047200D02*
X107641667Y-108999580D01*
X103308333Y-112119819D02*
X102975000Y-111643628D01*
X102736905Y-112119819D02*
X102736905Y-111119819D01*
X102736905Y-111119819D02*
X103117857Y-111119819D01*
X103117857Y-111119819D02*
X103213095Y-111167438D01*
X103213095Y-111167438D02*
X103260714Y-111215057D01*
X103260714Y-111215057D02*
X103308333Y-111310295D01*
X103308333Y-111310295D02*
X103308333Y-111453152D01*
X103308333Y-111453152D02*
X103260714Y-111548390D01*
X103260714Y-111548390D02*
X103213095Y-111596009D01*
X103213095Y-111596009D02*
X103117857Y-111643628D01*
X103117857Y-111643628D02*
X102736905Y-111643628D01*
X103689286Y-111215057D02*
X103736905Y-111167438D01*
X103736905Y-111167438D02*
X103832143Y-111119819D01*
X103832143Y-111119819D02*
X104070238Y-111119819D01*
X104070238Y-111119819D02*
X104165476Y-111167438D01*
X104165476Y-111167438D02*
X104213095Y-111215057D01*
X104213095Y-111215057D02*
X104260714Y-111310295D01*
X104260714Y-111310295D02*
X104260714Y-111405533D01*
X104260714Y-111405533D02*
X104213095Y-111548390D01*
X104213095Y-111548390D02*
X103641667Y-112119819D01*
X103641667Y-112119819D02*
X104260714Y-112119819D01*
X103463333Y-109074819D02*
X103130000Y-108598628D01*
X102891905Y-109074819D02*
X102891905Y-108074819D01*
X102891905Y-108074819D02*
X103272857Y-108074819D01*
X103272857Y-108074819D02*
X103368095Y-108122438D01*
X103368095Y-108122438D02*
X103415714Y-108170057D01*
X103415714Y-108170057D02*
X103463333Y-108265295D01*
X103463333Y-108265295D02*
X103463333Y-108408152D01*
X103463333Y-108408152D02*
X103415714Y-108503390D01*
X103415714Y-108503390D02*
X103368095Y-108551009D01*
X103368095Y-108551009D02*
X103272857Y-108598628D01*
X103272857Y-108598628D02*
X102891905Y-108598628D01*
X104415714Y-109074819D02*
X103844286Y-109074819D01*
X104130000Y-109074819D02*
X104130000Y-108074819D01*
X104130000Y-108074819D02*
X104034762Y-108217676D01*
X104034762Y-108217676D02*
X103939524Y-108312914D01*
X103939524Y-108312914D02*
X103844286Y-108360533D01*
X154915476Y-117194819D02*
X154915476Y-117909104D01*
X154915476Y-117909104D02*
X154867857Y-118051961D01*
X154867857Y-118051961D02*
X154772619Y-118147200D01*
X154772619Y-118147200D02*
X154629762Y-118194819D01*
X154629762Y-118194819D02*
X154534524Y-118194819D01*
X155915476Y-118194819D02*
X155344048Y-118194819D01*
X155629762Y-118194819D02*
X155629762Y-117194819D01*
X155629762Y-117194819D02*
X155534524Y-117337676D01*
X155534524Y-117337676D02*
X155439286Y-117432914D01*
X155439286Y-117432914D02*
X155344048Y-117480533D01*
X156534524Y-117194819D02*
X156629762Y-117194819D01*
X156629762Y-117194819D02*
X156725000Y-117242438D01*
X156725000Y-117242438D02*
X156772619Y-117290057D01*
X156772619Y-117290057D02*
X156820238Y-117385295D01*
X156820238Y-117385295D02*
X156867857Y-117575771D01*
X156867857Y-117575771D02*
X156867857Y-117813866D01*
X156867857Y-117813866D02*
X156820238Y-118004342D01*
X156820238Y-118004342D02*
X156772619Y-118099580D01*
X156772619Y-118099580D02*
X156725000Y-118147200D01*
X156725000Y-118147200D02*
X156629762Y-118194819D01*
X156629762Y-118194819D02*
X156534524Y-118194819D01*
X156534524Y-118194819D02*
X156439286Y-118147200D01*
X156439286Y-118147200D02*
X156391667Y-118099580D01*
X156391667Y-118099580D02*
X156344048Y-118004342D01*
X156344048Y-118004342D02*
X156296429Y-117813866D01*
X156296429Y-117813866D02*
X156296429Y-117575771D01*
X156296429Y-117575771D02*
X156344048Y-117385295D01*
X156344048Y-117385295D02*
X156391667Y-117290057D01*
X156391667Y-117290057D02*
X156439286Y-117242438D01*
X156439286Y-117242438D02*
X156534524Y-117194819D01*
X145391666Y-117194819D02*
X145391666Y-117909104D01*
X145391666Y-117909104D02*
X145344047Y-118051961D01*
X145344047Y-118051961D02*
X145248809Y-118147200D01*
X145248809Y-118147200D02*
X145105952Y-118194819D01*
X145105952Y-118194819D02*
X145010714Y-118194819D01*
X145915476Y-118194819D02*
X146105952Y-118194819D01*
X146105952Y-118194819D02*
X146201190Y-118147200D01*
X146201190Y-118147200D02*
X146248809Y-118099580D01*
X146248809Y-118099580D02*
X146344047Y-117956723D01*
X146344047Y-117956723D02*
X146391666Y-117766247D01*
X146391666Y-117766247D02*
X146391666Y-117385295D01*
X146391666Y-117385295D02*
X146344047Y-117290057D01*
X146344047Y-117290057D02*
X146296428Y-117242438D01*
X146296428Y-117242438D02*
X146201190Y-117194819D01*
X146201190Y-117194819D02*
X146010714Y-117194819D01*
X146010714Y-117194819D02*
X145915476Y-117242438D01*
X145915476Y-117242438D02*
X145867857Y-117290057D01*
X145867857Y-117290057D02*
X145820238Y-117385295D01*
X145820238Y-117385295D02*
X145820238Y-117623390D01*
X145820238Y-117623390D02*
X145867857Y-117718628D01*
X145867857Y-117718628D02*
X145915476Y-117766247D01*
X145915476Y-117766247D02*
X146010714Y-117813866D01*
X146010714Y-117813866D02*
X146201190Y-117813866D01*
X146201190Y-117813866D02*
X146296428Y-117766247D01*
X146296428Y-117766247D02*
X146344047Y-117718628D01*
X146344047Y-117718628D02*
X146391666Y-117623390D01*
X81584439Y-84494960D02*
X82259355Y-84494960D01*
X82259355Y-84494960D02*
X82394338Y-84539955D01*
X82394338Y-84539955D02*
X82484327Y-84629943D01*
X82484327Y-84629943D02*
X82529321Y-84764927D01*
X82529321Y-84764927D02*
X82529321Y-84854915D01*
X81989388Y-83910033D02*
X81944394Y-84000022D01*
X81944394Y-84000022D02*
X81899400Y-84045017D01*
X81899400Y-84045017D02*
X81809411Y-84090011D01*
X81809411Y-84090011D02*
X81764416Y-84090011D01*
X81764416Y-84090011D02*
X81674428Y-84045017D01*
X81674428Y-84045017D02*
X81629433Y-84000022D01*
X81629433Y-84000022D02*
X81584439Y-83910033D01*
X81584439Y-83910033D02*
X81584439Y-83730056D01*
X81584439Y-83730056D02*
X81629433Y-83640067D01*
X81629433Y-83640067D02*
X81674428Y-83595073D01*
X81674428Y-83595073D02*
X81764416Y-83550078D01*
X81764416Y-83550078D02*
X81809411Y-83550078D01*
X81809411Y-83550078D02*
X81899400Y-83595073D01*
X81899400Y-83595073D02*
X81944394Y-83640067D01*
X81944394Y-83640067D02*
X81989388Y-83730056D01*
X81989388Y-83730056D02*
X81989388Y-83910033D01*
X81989388Y-83910033D02*
X82034383Y-84000022D01*
X82034383Y-84000022D02*
X82079377Y-84045017D01*
X82079377Y-84045017D02*
X82169366Y-84090011D01*
X82169366Y-84090011D02*
X82349343Y-84090011D01*
X82349343Y-84090011D02*
X82439332Y-84045017D01*
X82439332Y-84045017D02*
X82484327Y-84000022D01*
X82484327Y-84000022D02*
X82529321Y-83910033D01*
X82529321Y-83910033D02*
X82529321Y-83730056D01*
X82529321Y-83730056D02*
X82484327Y-83640067D01*
X82484327Y-83640067D02*
X82439332Y-83595073D01*
X82439332Y-83595073D02*
X82349343Y-83550078D01*
X82349343Y-83550078D02*
X82169366Y-83550078D01*
X82169366Y-83550078D02*
X82079377Y-83595073D01*
X82079377Y-83595073D02*
X82034383Y-83640067D01*
X82034383Y-83640067D02*
X81989388Y-83730056D01*
X85124439Y-122034960D02*
X85799355Y-122034960D01*
X85799355Y-122034960D02*
X85934338Y-122079955D01*
X85934338Y-122079955D02*
X86024327Y-122169943D01*
X86024327Y-122169943D02*
X86069321Y-122304927D01*
X86069321Y-122304927D02*
X86069321Y-122394915D01*
X85124439Y-121675005D02*
X85124439Y-121045084D01*
X85124439Y-121045084D02*
X86069321Y-121450033D01*
X85104439Y-109714960D02*
X85779355Y-109714960D01*
X85779355Y-109714960D02*
X85914338Y-109759955D01*
X85914338Y-109759955D02*
X86004327Y-109849943D01*
X86004327Y-109849943D02*
X86049321Y-109984927D01*
X86049321Y-109984927D02*
X86049321Y-110074915D01*
X85104439Y-108860067D02*
X85104439Y-109040045D01*
X85104439Y-109040045D02*
X85149433Y-109130033D01*
X85149433Y-109130033D02*
X85194428Y-109175028D01*
X85194428Y-109175028D02*
X85329411Y-109265017D01*
X85329411Y-109265017D02*
X85509388Y-109310011D01*
X85509388Y-109310011D02*
X85869343Y-109310011D01*
X85869343Y-109310011D02*
X85959332Y-109265017D01*
X85959332Y-109265017D02*
X86004327Y-109220022D01*
X86004327Y-109220022D02*
X86049321Y-109130033D01*
X86049321Y-109130033D02*
X86049321Y-108950056D01*
X86049321Y-108950056D02*
X86004327Y-108860067D01*
X86004327Y-108860067D02*
X85959332Y-108815073D01*
X85959332Y-108815073D02*
X85869343Y-108770078D01*
X85869343Y-108770078D02*
X85644371Y-108770078D01*
X85644371Y-108770078D02*
X85554383Y-108815073D01*
X85554383Y-108815073D02*
X85509388Y-108860067D01*
X85509388Y-108860067D02*
X85464394Y-108950056D01*
X85464394Y-108950056D02*
X85464394Y-109130033D01*
X85464394Y-109130033D02*
X85509388Y-109220022D01*
X85509388Y-109220022D02*
X85554383Y-109265017D01*
X85554383Y-109265017D02*
X85644371Y-109310011D01*
X89384439Y-111014960D02*
X90059355Y-111014960D01*
X90059355Y-111014960D02*
X90194338Y-111059955D01*
X90194338Y-111059955D02*
X90284327Y-111149943D01*
X90284327Y-111149943D02*
X90329321Y-111284927D01*
X90329321Y-111284927D02*
X90329321Y-111374915D01*
X89384439Y-110115073D02*
X89384439Y-110565017D01*
X89384439Y-110565017D02*
X89834383Y-110610011D01*
X89834383Y-110610011D02*
X89789388Y-110565017D01*
X89789388Y-110565017D02*
X89744394Y-110475028D01*
X89744394Y-110475028D02*
X89744394Y-110250056D01*
X89744394Y-110250056D02*
X89789388Y-110160067D01*
X89789388Y-110160067D02*
X89834383Y-110115073D01*
X89834383Y-110115073D02*
X89924371Y-110070078D01*
X89924371Y-110070078D02*
X90149343Y-110070078D01*
X90149343Y-110070078D02*
X90239332Y-110115073D01*
X90239332Y-110115073D02*
X90284327Y-110160067D01*
X90284327Y-110160067D02*
X90329321Y-110250056D01*
X90329321Y-110250056D02*
X90329321Y-110475028D01*
X90329321Y-110475028D02*
X90284327Y-110565017D01*
X90284327Y-110565017D02*
X90239332Y-110610011D01*
X131905039Y-117934439D02*
X131905039Y-118609355D01*
X131905039Y-118609355D02*
X131860044Y-118744338D01*
X131860044Y-118744338D02*
X131770056Y-118834327D01*
X131770056Y-118834327D02*
X131635072Y-118879321D01*
X131635072Y-118879321D02*
X131545084Y-118879321D01*
X132264994Y-117934439D02*
X132849921Y-117934439D01*
X132849921Y-117934439D02*
X132534960Y-118294394D01*
X132534960Y-118294394D02*
X132669943Y-118294394D01*
X132669943Y-118294394D02*
X132759932Y-118339388D01*
X132759932Y-118339388D02*
X132804926Y-118384383D01*
X132804926Y-118384383D02*
X132849921Y-118474371D01*
X132849921Y-118474371D02*
X132849921Y-118699343D01*
X132849921Y-118699343D02*
X132804926Y-118789332D01*
X132804926Y-118789332D02*
X132759932Y-118834327D01*
X132759932Y-118834327D02*
X132669943Y-118879321D01*
X132669943Y-118879321D02*
X132399977Y-118879321D01*
X132399977Y-118879321D02*
X132309988Y-118834327D01*
X132309988Y-118834327D02*
X132264994Y-118789332D01*
X155204819Y-113903333D02*
X155919104Y-113903333D01*
X155919104Y-113903333D02*
X156061961Y-113950952D01*
X156061961Y-113950952D02*
X156157200Y-114046190D01*
X156157200Y-114046190D02*
X156204819Y-114189047D01*
X156204819Y-114189047D02*
X156204819Y-114284285D01*
X155300057Y-113474761D02*
X155252438Y-113427142D01*
X155252438Y-113427142D02*
X155204819Y-113331904D01*
X155204819Y-113331904D02*
X155204819Y-113093809D01*
X155204819Y-113093809D02*
X155252438Y-112998571D01*
X155252438Y-112998571D02*
X155300057Y-112950952D01*
X155300057Y-112950952D02*
X155395295Y-112903333D01*
X155395295Y-112903333D02*
X155490533Y-112903333D01*
X155490533Y-112903333D02*
X155633390Y-112950952D01*
X155633390Y-112950952D02*
X156204819Y-113522380D01*
X156204819Y-113522380D02*
X156204819Y-112903333D01*
X143938666Y-84417819D02*
X143938666Y-85132104D01*
X143938666Y-85132104D02*
X143891047Y-85274961D01*
X143891047Y-85274961D02*
X143795809Y-85370200D01*
X143795809Y-85370200D02*
X143652952Y-85417819D01*
X143652952Y-85417819D02*
X143557714Y-85417819D01*
X144938666Y-85417819D02*
X144367238Y-85417819D01*
X144652952Y-85417819D02*
X144652952Y-84417819D01*
X144652952Y-84417819D02*
X144557714Y-84560676D01*
X144557714Y-84560676D02*
X144462476Y-84655914D01*
X144462476Y-84655914D02*
X144367238Y-84703533D01*
X129454819Y-115613094D02*
X128454819Y-115613094D01*
X128454819Y-115613094D02*
X128454819Y-115374999D01*
X128454819Y-115374999D02*
X128502438Y-115232142D01*
X128502438Y-115232142D02*
X128597676Y-115136904D01*
X128597676Y-115136904D02*
X128692914Y-115089285D01*
X128692914Y-115089285D02*
X128883390Y-115041666D01*
X128883390Y-115041666D02*
X129026247Y-115041666D01*
X129026247Y-115041666D02*
X129216723Y-115089285D01*
X129216723Y-115089285D02*
X129311961Y-115136904D01*
X129311961Y-115136904D02*
X129407200Y-115232142D01*
X129407200Y-115232142D02*
X129454819Y-115374999D01*
X129454819Y-115374999D02*
X129454819Y-115613094D01*
X128550057Y-114660713D02*
X128502438Y-114613094D01*
X128502438Y-114613094D02*
X128454819Y-114517856D01*
X128454819Y-114517856D02*
X128454819Y-114279761D01*
X128454819Y-114279761D02*
X128502438Y-114184523D01*
X128502438Y-114184523D02*
X128550057Y-114136904D01*
X128550057Y-114136904D02*
X128645295Y-114089285D01*
X128645295Y-114089285D02*
X128740533Y-114089285D01*
X128740533Y-114089285D02*
X128883390Y-114136904D01*
X128883390Y-114136904D02*
X129454819Y-114708332D01*
X129454819Y-114708332D02*
X129454819Y-114089285D01*
X132954819Y-115613094D02*
X131954819Y-115613094D01*
X131954819Y-115613094D02*
X131954819Y-115374999D01*
X131954819Y-115374999D02*
X132002438Y-115232142D01*
X132002438Y-115232142D02*
X132097676Y-115136904D01*
X132097676Y-115136904D02*
X132192914Y-115089285D01*
X132192914Y-115089285D02*
X132383390Y-115041666D01*
X132383390Y-115041666D02*
X132526247Y-115041666D01*
X132526247Y-115041666D02*
X132716723Y-115089285D01*
X132716723Y-115089285D02*
X132811961Y-115136904D01*
X132811961Y-115136904D02*
X132907200Y-115232142D01*
X132907200Y-115232142D02*
X132954819Y-115374999D01*
X132954819Y-115374999D02*
X132954819Y-115613094D01*
X132954819Y-114089285D02*
X132954819Y-114660713D01*
X132954819Y-114374999D02*
X131954819Y-114374999D01*
X131954819Y-114374999D02*
X132097676Y-114470237D01*
X132097676Y-114470237D02*
X132192914Y-114565475D01*
X132192914Y-114565475D02*
X132240533Y-114660713D01*
X138607142Y-117859580D02*
X138559523Y-117907200D01*
X138559523Y-117907200D02*
X138416666Y-117954819D01*
X138416666Y-117954819D02*
X138321428Y-117954819D01*
X138321428Y-117954819D02*
X138178571Y-117907200D01*
X138178571Y-117907200D02*
X138083333Y-117811961D01*
X138083333Y-117811961D02*
X138035714Y-117716723D01*
X138035714Y-117716723D02*
X137988095Y-117526247D01*
X137988095Y-117526247D02*
X137988095Y-117383390D01*
X137988095Y-117383390D02*
X138035714Y-117192914D01*
X138035714Y-117192914D02*
X138083333Y-117097676D01*
X138083333Y-117097676D02*
X138178571Y-117002438D01*
X138178571Y-117002438D02*
X138321428Y-116954819D01*
X138321428Y-116954819D02*
X138416666Y-116954819D01*
X138416666Y-116954819D02*
X138559523Y-117002438D01*
X138559523Y-117002438D02*
X138607142Y-117050057D01*
X138940476Y-116954819D02*
X139559523Y-116954819D01*
X139559523Y-116954819D02*
X139226190Y-117335771D01*
X139226190Y-117335771D02*
X139369047Y-117335771D01*
X139369047Y-117335771D02*
X139464285Y-117383390D01*
X139464285Y-117383390D02*
X139511904Y-117431009D01*
X139511904Y-117431009D02*
X139559523Y-117526247D01*
X139559523Y-117526247D02*
X139559523Y-117764342D01*
X139559523Y-117764342D02*
X139511904Y-117859580D01*
X139511904Y-117859580D02*
X139464285Y-117907200D01*
X139464285Y-117907200D02*
X139369047Y-117954819D01*
X139369047Y-117954819D02*
X139083333Y-117954819D01*
X139083333Y-117954819D02*
X138988095Y-117907200D01*
X138988095Y-117907200D02*
X138940476Y-117859580D01*
X140416666Y-117288152D02*
X140416666Y-117954819D01*
X140178571Y-116907200D02*
X139940476Y-117621485D01*
X139940476Y-117621485D02*
X140559523Y-117621485D01*
X139297580Y-80779857D02*
X139345200Y-80827476D01*
X139345200Y-80827476D02*
X139392819Y-80970333D01*
X139392819Y-80970333D02*
X139392819Y-81065571D01*
X139392819Y-81065571D02*
X139345200Y-81208428D01*
X139345200Y-81208428D02*
X139249961Y-81303666D01*
X139249961Y-81303666D02*
X139154723Y-81351285D01*
X139154723Y-81351285D02*
X138964247Y-81398904D01*
X138964247Y-81398904D02*
X138821390Y-81398904D01*
X138821390Y-81398904D02*
X138630914Y-81351285D01*
X138630914Y-81351285D02*
X138535676Y-81303666D01*
X138535676Y-81303666D02*
X138440438Y-81208428D01*
X138440438Y-81208428D02*
X138392819Y-81065571D01*
X138392819Y-81065571D02*
X138392819Y-80970333D01*
X138392819Y-80970333D02*
X138440438Y-80827476D01*
X138440438Y-80827476D02*
X138488057Y-80779857D01*
X138488057Y-80398904D02*
X138440438Y-80351285D01*
X138440438Y-80351285D02*
X138392819Y-80256047D01*
X138392819Y-80256047D02*
X138392819Y-80017952D01*
X138392819Y-80017952D02*
X138440438Y-79922714D01*
X138440438Y-79922714D02*
X138488057Y-79875095D01*
X138488057Y-79875095D02*
X138583295Y-79827476D01*
X138583295Y-79827476D02*
X138678533Y-79827476D01*
X138678533Y-79827476D02*
X138821390Y-79875095D01*
X138821390Y-79875095D02*
X139392819Y-80446523D01*
X139392819Y-80446523D02*
X139392819Y-79827476D01*
X138392819Y-78922714D02*
X138392819Y-79398904D01*
X138392819Y-79398904D02*
X138869009Y-79446523D01*
X138869009Y-79446523D02*
X138821390Y-79398904D01*
X138821390Y-79398904D02*
X138773771Y-79303666D01*
X138773771Y-79303666D02*
X138773771Y-79065571D01*
X138773771Y-79065571D02*
X138821390Y-78970333D01*
X138821390Y-78970333D02*
X138869009Y-78922714D01*
X138869009Y-78922714D02*
X138964247Y-78875095D01*
X138964247Y-78875095D02*
X139202342Y-78875095D01*
X139202342Y-78875095D02*
X139297580Y-78922714D01*
X139297580Y-78922714D02*
X139345200Y-78970333D01*
X139345200Y-78970333D02*
X139392819Y-79065571D01*
X139392819Y-79065571D02*
X139392819Y-79303666D01*
X139392819Y-79303666D02*
X139345200Y-79398904D01*
X139345200Y-79398904D02*
X139297580Y-79446523D01*
X117616642Y-98489580D02*
X117569023Y-98537200D01*
X117569023Y-98537200D02*
X117426166Y-98584819D01*
X117426166Y-98584819D02*
X117330928Y-98584819D01*
X117330928Y-98584819D02*
X117188071Y-98537200D01*
X117188071Y-98537200D02*
X117092833Y-98441961D01*
X117092833Y-98441961D02*
X117045214Y-98346723D01*
X117045214Y-98346723D02*
X116997595Y-98156247D01*
X116997595Y-98156247D02*
X116997595Y-98013390D01*
X116997595Y-98013390D02*
X117045214Y-97822914D01*
X117045214Y-97822914D02*
X117092833Y-97727676D01*
X117092833Y-97727676D02*
X117188071Y-97632438D01*
X117188071Y-97632438D02*
X117330928Y-97584819D01*
X117330928Y-97584819D02*
X117426166Y-97584819D01*
X117426166Y-97584819D02*
X117569023Y-97632438D01*
X117569023Y-97632438D02*
X117616642Y-97680057D01*
X118569023Y-98584819D02*
X117997595Y-98584819D01*
X118283309Y-98584819D02*
X118283309Y-97584819D01*
X118283309Y-97584819D02*
X118188071Y-97727676D01*
X118188071Y-97727676D02*
X118092833Y-97822914D01*
X118092833Y-97822914D02*
X117997595Y-97870533D01*
X119045214Y-98584819D02*
X119235690Y-98584819D01*
X119235690Y-98584819D02*
X119330928Y-98537200D01*
X119330928Y-98537200D02*
X119378547Y-98489580D01*
X119378547Y-98489580D02*
X119473785Y-98346723D01*
X119473785Y-98346723D02*
X119521404Y-98156247D01*
X119521404Y-98156247D02*
X119521404Y-97775295D01*
X119521404Y-97775295D02*
X119473785Y-97680057D01*
X119473785Y-97680057D02*
X119426166Y-97632438D01*
X119426166Y-97632438D02*
X119330928Y-97584819D01*
X119330928Y-97584819D02*
X119140452Y-97584819D01*
X119140452Y-97584819D02*
X119045214Y-97632438D01*
X119045214Y-97632438D02*
X118997595Y-97680057D01*
X118997595Y-97680057D02*
X118949976Y-97775295D01*
X118949976Y-97775295D02*
X118949976Y-98013390D01*
X118949976Y-98013390D02*
X118997595Y-98108628D01*
X118997595Y-98108628D02*
X119045214Y-98156247D01*
X119045214Y-98156247D02*
X119140452Y-98203866D01*
X119140452Y-98203866D02*
X119330928Y-98203866D01*
X119330928Y-98203866D02*
X119426166Y-98156247D01*
X119426166Y-98156247D02*
X119473785Y-98108628D01*
X119473785Y-98108628D02*
X119521404Y-98013390D01*
X111616642Y-88059580D02*
X111569023Y-88107200D01*
X111569023Y-88107200D02*
X111426166Y-88154819D01*
X111426166Y-88154819D02*
X111330928Y-88154819D01*
X111330928Y-88154819D02*
X111188071Y-88107200D01*
X111188071Y-88107200D02*
X111092833Y-88011961D01*
X111092833Y-88011961D02*
X111045214Y-87916723D01*
X111045214Y-87916723D02*
X110997595Y-87726247D01*
X110997595Y-87726247D02*
X110997595Y-87583390D01*
X110997595Y-87583390D02*
X111045214Y-87392914D01*
X111045214Y-87392914D02*
X111092833Y-87297676D01*
X111092833Y-87297676D02*
X111188071Y-87202438D01*
X111188071Y-87202438D02*
X111330928Y-87154819D01*
X111330928Y-87154819D02*
X111426166Y-87154819D01*
X111426166Y-87154819D02*
X111569023Y-87202438D01*
X111569023Y-87202438D02*
X111616642Y-87250057D01*
X112569023Y-88154819D02*
X111997595Y-88154819D01*
X112283309Y-88154819D02*
X112283309Y-87154819D01*
X112283309Y-87154819D02*
X112188071Y-87297676D01*
X112188071Y-87297676D02*
X112092833Y-87392914D01*
X112092833Y-87392914D02*
X111997595Y-87440533D01*
X113140452Y-87583390D02*
X113045214Y-87535771D01*
X113045214Y-87535771D02*
X112997595Y-87488152D01*
X112997595Y-87488152D02*
X112949976Y-87392914D01*
X112949976Y-87392914D02*
X112949976Y-87345295D01*
X112949976Y-87345295D02*
X112997595Y-87250057D01*
X112997595Y-87250057D02*
X113045214Y-87202438D01*
X113045214Y-87202438D02*
X113140452Y-87154819D01*
X113140452Y-87154819D02*
X113330928Y-87154819D01*
X113330928Y-87154819D02*
X113426166Y-87202438D01*
X113426166Y-87202438D02*
X113473785Y-87250057D01*
X113473785Y-87250057D02*
X113521404Y-87345295D01*
X113521404Y-87345295D02*
X113521404Y-87392914D01*
X113521404Y-87392914D02*
X113473785Y-87488152D01*
X113473785Y-87488152D02*
X113426166Y-87535771D01*
X113426166Y-87535771D02*
X113330928Y-87583390D01*
X113330928Y-87583390D02*
X113140452Y-87583390D01*
X113140452Y-87583390D02*
X113045214Y-87631009D01*
X113045214Y-87631009D02*
X112997595Y-87678628D01*
X112997595Y-87678628D02*
X112949976Y-87773866D01*
X112949976Y-87773866D02*
X112949976Y-87964342D01*
X112949976Y-87964342D02*
X112997595Y-88059580D01*
X112997595Y-88059580D02*
X113045214Y-88107200D01*
X113045214Y-88107200D02*
X113140452Y-88154819D01*
X113140452Y-88154819D02*
X113330928Y-88154819D01*
X113330928Y-88154819D02*
X113426166Y-88107200D01*
X113426166Y-88107200D02*
X113473785Y-88059580D01*
X113473785Y-88059580D02*
X113521404Y-87964342D01*
X113521404Y-87964342D02*
X113521404Y-87773866D01*
X113521404Y-87773866D02*
X113473785Y-87678628D01*
X113473785Y-87678628D02*
X113426166Y-87631009D01*
X113426166Y-87631009D02*
X113330928Y-87583390D01*
X113809580Y-91132857D02*
X113857200Y-91180476D01*
X113857200Y-91180476D02*
X113904819Y-91323333D01*
X113904819Y-91323333D02*
X113904819Y-91418571D01*
X113904819Y-91418571D02*
X113857200Y-91561428D01*
X113857200Y-91561428D02*
X113761961Y-91656666D01*
X113761961Y-91656666D02*
X113666723Y-91704285D01*
X113666723Y-91704285D02*
X113476247Y-91751904D01*
X113476247Y-91751904D02*
X113333390Y-91751904D01*
X113333390Y-91751904D02*
X113142914Y-91704285D01*
X113142914Y-91704285D02*
X113047676Y-91656666D01*
X113047676Y-91656666D02*
X112952438Y-91561428D01*
X112952438Y-91561428D02*
X112904819Y-91418571D01*
X112904819Y-91418571D02*
X112904819Y-91323333D01*
X112904819Y-91323333D02*
X112952438Y-91180476D01*
X112952438Y-91180476D02*
X113000057Y-91132857D01*
X113904819Y-90180476D02*
X113904819Y-90751904D01*
X113904819Y-90466190D02*
X112904819Y-90466190D01*
X112904819Y-90466190D02*
X113047676Y-90561428D01*
X113047676Y-90561428D02*
X113142914Y-90656666D01*
X113142914Y-90656666D02*
X113190533Y-90751904D01*
X112904819Y-89323333D02*
X112904819Y-89513809D01*
X112904819Y-89513809D02*
X112952438Y-89609047D01*
X112952438Y-89609047D02*
X113000057Y-89656666D01*
X113000057Y-89656666D02*
X113142914Y-89751904D01*
X113142914Y-89751904D02*
X113333390Y-89799523D01*
X113333390Y-89799523D02*
X113714342Y-89799523D01*
X113714342Y-89799523D02*
X113809580Y-89751904D01*
X113809580Y-89751904D02*
X113857200Y-89704285D01*
X113857200Y-89704285D02*
X113904819Y-89609047D01*
X113904819Y-89609047D02*
X113904819Y-89418571D01*
X113904819Y-89418571D02*
X113857200Y-89323333D01*
X113857200Y-89323333D02*
X113809580Y-89275714D01*
X113809580Y-89275714D02*
X113714342Y-89228095D01*
X113714342Y-89228095D02*
X113476247Y-89228095D01*
X113476247Y-89228095D02*
X113381009Y-89275714D01*
X113381009Y-89275714D02*
X113333390Y-89323333D01*
X113333390Y-89323333D02*
X113285771Y-89418571D01*
X113285771Y-89418571D02*
X113285771Y-89609047D01*
X113285771Y-89609047D02*
X113333390Y-89704285D01*
X113333390Y-89704285D02*
X113381009Y-89751904D01*
X113381009Y-89751904D02*
X113476247Y-89799523D01*
X120797142Y-99499580D02*
X120749523Y-99547200D01*
X120749523Y-99547200D02*
X120606666Y-99594819D01*
X120606666Y-99594819D02*
X120511428Y-99594819D01*
X120511428Y-99594819D02*
X120368571Y-99547200D01*
X120368571Y-99547200D02*
X120273333Y-99451961D01*
X120273333Y-99451961D02*
X120225714Y-99356723D01*
X120225714Y-99356723D02*
X120178095Y-99166247D01*
X120178095Y-99166247D02*
X120178095Y-99023390D01*
X120178095Y-99023390D02*
X120225714Y-98832914D01*
X120225714Y-98832914D02*
X120273333Y-98737676D01*
X120273333Y-98737676D02*
X120368571Y-98642438D01*
X120368571Y-98642438D02*
X120511428Y-98594819D01*
X120511428Y-98594819D02*
X120606666Y-98594819D01*
X120606666Y-98594819D02*
X120749523Y-98642438D01*
X120749523Y-98642438D02*
X120797142Y-98690057D01*
X121749523Y-99594819D02*
X121178095Y-99594819D01*
X121463809Y-99594819D02*
X121463809Y-98594819D01*
X121463809Y-98594819D02*
X121368571Y-98737676D01*
X121368571Y-98737676D02*
X121273333Y-98832914D01*
X121273333Y-98832914D02*
X121178095Y-98880533D01*
X122654285Y-98594819D02*
X122178095Y-98594819D01*
X122178095Y-98594819D02*
X122130476Y-99071009D01*
X122130476Y-99071009D02*
X122178095Y-99023390D01*
X122178095Y-99023390D02*
X122273333Y-98975771D01*
X122273333Y-98975771D02*
X122511428Y-98975771D01*
X122511428Y-98975771D02*
X122606666Y-99023390D01*
X122606666Y-99023390D02*
X122654285Y-99071009D01*
X122654285Y-99071009D02*
X122701904Y-99166247D01*
X122701904Y-99166247D02*
X122701904Y-99404342D01*
X122701904Y-99404342D02*
X122654285Y-99499580D01*
X122654285Y-99499580D02*
X122606666Y-99547200D01*
X122606666Y-99547200D02*
X122511428Y-99594819D01*
X122511428Y-99594819D02*
X122273333Y-99594819D01*
X122273333Y-99594819D02*
X122178095Y-99547200D01*
X122178095Y-99547200D02*
X122130476Y-99499580D01*
X102892680Y-106147859D02*
X102940300Y-106195478D01*
X102940300Y-106195478D02*
X102987919Y-106338335D01*
X102987919Y-106338335D02*
X102987919Y-106433573D01*
X102987919Y-106433573D02*
X102940300Y-106576430D01*
X102940300Y-106576430D02*
X102845061Y-106671668D01*
X102845061Y-106671668D02*
X102749823Y-106719287D01*
X102749823Y-106719287D02*
X102559347Y-106766906D01*
X102559347Y-106766906D02*
X102416490Y-106766906D01*
X102416490Y-106766906D02*
X102226014Y-106719287D01*
X102226014Y-106719287D02*
X102130776Y-106671668D01*
X102130776Y-106671668D02*
X102035538Y-106576430D01*
X102035538Y-106576430D02*
X101987919Y-106433573D01*
X101987919Y-106433573D02*
X101987919Y-106338335D01*
X101987919Y-106338335D02*
X102035538Y-106195478D01*
X102035538Y-106195478D02*
X102083157Y-106147859D01*
X102987919Y-105195478D02*
X102987919Y-105766906D01*
X102987919Y-105481192D02*
X101987919Y-105481192D01*
X101987919Y-105481192D02*
X102130776Y-105576430D01*
X102130776Y-105576430D02*
X102226014Y-105671668D01*
X102226014Y-105671668D02*
X102273633Y-105766906D01*
X102321252Y-104338335D02*
X102987919Y-104338335D01*
X101940300Y-104576430D02*
X102654585Y-104814525D01*
X102654585Y-104814525D02*
X102654585Y-104195478D01*
X102962680Y-101510359D02*
X103010300Y-101557978D01*
X103010300Y-101557978D02*
X103057919Y-101700835D01*
X103057919Y-101700835D02*
X103057919Y-101796073D01*
X103057919Y-101796073D02*
X103010300Y-101938930D01*
X103010300Y-101938930D02*
X102915061Y-102034168D01*
X102915061Y-102034168D02*
X102819823Y-102081787D01*
X102819823Y-102081787D02*
X102629347Y-102129406D01*
X102629347Y-102129406D02*
X102486490Y-102129406D01*
X102486490Y-102129406D02*
X102296014Y-102081787D01*
X102296014Y-102081787D02*
X102200776Y-102034168D01*
X102200776Y-102034168D02*
X102105538Y-101938930D01*
X102105538Y-101938930D02*
X102057919Y-101796073D01*
X102057919Y-101796073D02*
X102057919Y-101700835D01*
X102057919Y-101700835D02*
X102105538Y-101557978D01*
X102105538Y-101557978D02*
X102153157Y-101510359D01*
X103057919Y-100557978D02*
X103057919Y-101129406D01*
X103057919Y-100843692D02*
X102057919Y-100843692D01*
X102057919Y-100843692D02*
X102200776Y-100938930D01*
X102200776Y-100938930D02*
X102296014Y-101034168D01*
X102296014Y-101034168D02*
X102343633Y-101129406D01*
X102057919Y-100224644D02*
X102057919Y-99605597D01*
X102057919Y-99605597D02*
X102438871Y-99938930D01*
X102438871Y-99938930D02*
X102438871Y-99796073D01*
X102438871Y-99796073D02*
X102486490Y-99700835D01*
X102486490Y-99700835D02*
X102534109Y-99653216D01*
X102534109Y-99653216D02*
X102629347Y-99605597D01*
X102629347Y-99605597D02*
X102867442Y-99605597D01*
X102867442Y-99605597D02*
X102962680Y-99653216D01*
X102962680Y-99653216D02*
X103010300Y-99700835D01*
X103010300Y-99700835D02*
X103057919Y-99796073D01*
X103057919Y-99796073D02*
X103057919Y-100081787D01*
X103057919Y-100081787D02*
X103010300Y-100177025D01*
X103010300Y-100177025D02*
X102962680Y-100224644D01*
X114384142Y-100864580D02*
X114336523Y-100912200D01*
X114336523Y-100912200D02*
X114193666Y-100959819D01*
X114193666Y-100959819D02*
X114098428Y-100959819D01*
X114098428Y-100959819D02*
X113955571Y-100912200D01*
X113955571Y-100912200D02*
X113860333Y-100816961D01*
X113860333Y-100816961D02*
X113812714Y-100721723D01*
X113812714Y-100721723D02*
X113765095Y-100531247D01*
X113765095Y-100531247D02*
X113765095Y-100388390D01*
X113765095Y-100388390D02*
X113812714Y-100197914D01*
X113812714Y-100197914D02*
X113860333Y-100102676D01*
X113860333Y-100102676D02*
X113955571Y-100007438D01*
X113955571Y-100007438D02*
X114098428Y-99959819D01*
X114098428Y-99959819D02*
X114193666Y-99959819D01*
X114193666Y-99959819D02*
X114336523Y-100007438D01*
X114336523Y-100007438D02*
X114384142Y-100055057D01*
X115336523Y-100959819D02*
X114765095Y-100959819D01*
X115050809Y-100959819D02*
X115050809Y-99959819D01*
X115050809Y-99959819D02*
X114955571Y-100102676D01*
X114955571Y-100102676D02*
X114860333Y-100197914D01*
X114860333Y-100197914D02*
X114765095Y-100245533D01*
X115717476Y-100055057D02*
X115765095Y-100007438D01*
X115765095Y-100007438D02*
X115860333Y-99959819D01*
X115860333Y-99959819D02*
X116098428Y-99959819D01*
X116098428Y-99959819D02*
X116193666Y-100007438D01*
X116193666Y-100007438D02*
X116241285Y-100055057D01*
X116241285Y-100055057D02*
X116288904Y-100150295D01*
X116288904Y-100150295D02*
X116288904Y-100245533D01*
X116288904Y-100245533D02*
X116241285Y-100388390D01*
X116241285Y-100388390D02*
X115669857Y-100959819D01*
X115669857Y-100959819D02*
X116288904Y-100959819D01*
X142842080Y-114712857D02*
X142889700Y-114760476D01*
X142889700Y-114760476D02*
X142937319Y-114903333D01*
X142937319Y-114903333D02*
X142937319Y-114998571D01*
X142937319Y-114998571D02*
X142889700Y-115141428D01*
X142889700Y-115141428D02*
X142794461Y-115236666D01*
X142794461Y-115236666D02*
X142699223Y-115284285D01*
X142699223Y-115284285D02*
X142508747Y-115331904D01*
X142508747Y-115331904D02*
X142365890Y-115331904D01*
X142365890Y-115331904D02*
X142175414Y-115284285D01*
X142175414Y-115284285D02*
X142080176Y-115236666D01*
X142080176Y-115236666D02*
X141984938Y-115141428D01*
X141984938Y-115141428D02*
X141937319Y-114998571D01*
X141937319Y-114998571D02*
X141937319Y-114903333D01*
X141937319Y-114903333D02*
X141984938Y-114760476D01*
X141984938Y-114760476D02*
X142032557Y-114712857D01*
X142937319Y-113760476D02*
X142937319Y-114331904D01*
X142937319Y-114046190D02*
X141937319Y-114046190D01*
X141937319Y-114046190D02*
X142080176Y-114141428D01*
X142080176Y-114141428D02*
X142175414Y-114236666D01*
X142175414Y-114236666D02*
X142223033Y-114331904D01*
X142937319Y-112808095D02*
X142937319Y-113379523D01*
X142937319Y-113093809D02*
X141937319Y-113093809D01*
X141937319Y-113093809D02*
X142080176Y-113189047D01*
X142080176Y-113189047D02*
X142175414Y-113284285D01*
X142175414Y-113284285D02*
X142223033Y-113379523D01*
X146519642Y-109499580D02*
X146472023Y-109547200D01*
X146472023Y-109547200D02*
X146329166Y-109594819D01*
X146329166Y-109594819D02*
X146233928Y-109594819D01*
X146233928Y-109594819D02*
X146091071Y-109547200D01*
X146091071Y-109547200D02*
X145995833Y-109451961D01*
X145995833Y-109451961D02*
X145948214Y-109356723D01*
X145948214Y-109356723D02*
X145900595Y-109166247D01*
X145900595Y-109166247D02*
X145900595Y-109023390D01*
X145900595Y-109023390D02*
X145948214Y-108832914D01*
X145948214Y-108832914D02*
X145995833Y-108737676D01*
X145995833Y-108737676D02*
X146091071Y-108642438D01*
X146091071Y-108642438D02*
X146233928Y-108594819D01*
X146233928Y-108594819D02*
X146329166Y-108594819D01*
X146329166Y-108594819D02*
X146472023Y-108642438D01*
X146472023Y-108642438D02*
X146519642Y-108690057D01*
X147472023Y-109594819D02*
X146900595Y-109594819D01*
X147186309Y-109594819D02*
X147186309Y-108594819D01*
X147186309Y-108594819D02*
X147091071Y-108737676D01*
X147091071Y-108737676D02*
X146995833Y-108832914D01*
X146995833Y-108832914D02*
X146900595Y-108880533D01*
X148091071Y-108594819D02*
X148186309Y-108594819D01*
X148186309Y-108594819D02*
X148281547Y-108642438D01*
X148281547Y-108642438D02*
X148329166Y-108690057D01*
X148329166Y-108690057D02*
X148376785Y-108785295D01*
X148376785Y-108785295D02*
X148424404Y-108975771D01*
X148424404Y-108975771D02*
X148424404Y-109213866D01*
X148424404Y-109213866D02*
X148376785Y-109404342D01*
X148376785Y-109404342D02*
X148329166Y-109499580D01*
X148329166Y-109499580D02*
X148281547Y-109547200D01*
X148281547Y-109547200D02*
X148186309Y-109594819D01*
X148186309Y-109594819D02*
X148091071Y-109594819D01*
X148091071Y-109594819D02*
X147995833Y-109547200D01*
X147995833Y-109547200D02*
X147948214Y-109499580D01*
X147948214Y-109499580D02*
X147900595Y-109404342D01*
X147900595Y-109404342D02*
X147852976Y-109213866D01*
X147852976Y-109213866D02*
X147852976Y-108975771D01*
X147852976Y-108975771D02*
X147900595Y-108785295D01*
X147900595Y-108785295D02*
X147948214Y-108690057D01*
X147948214Y-108690057D02*
X147995833Y-108642438D01*
X147995833Y-108642438D02*
X148091071Y-108594819D01*
X151229580Y-114236666D02*
X151277200Y-114284285D01*
X151277200Y-114284285D02*
X151324819Y-114427142D01*
X151324819Y-114427142D02*
X151324819Y-114522380D01*
X151324819Y-114522380D02*
X151277200Y-114665237D01*
X151277200Y-114665237D02*
X151181961Y-114760475D01*
X151181961Y-114760475D02*
X151086723Y-114808094D01*
X151086723Y-114808094D02*
X150896247Y-114855713D01*
X150896247Y-114855713D02*
X150753390Y-114855713D01*
X150753390Y-114855713D02*
X150562914Y-114808094D01*
X150562914Y-114808094D02*
X150467676Y-114760475D01*
X150467676Y-114760475D02*
X150372438Y-114665237D01*
X150372438Y-114665237D02*
X150324819Y-114522380D01*
X150324819Y-114522380D02*
X150324819Y-114427142D01*
X150324819Y-114427142D02*
X150372438Y-114284285D01*
X150372438Y-114284285D02*
X150420057Y-114236666D01*
X151324819Y-113760475D02*
X151324819Y-113569999D01*
X151324819Y-113569999D02*
X151277200Y-113474761D01*
X151277200Y-113474761D02*
X151229580Y-113427142D01*
X151229580Y-113427142D02*
X151086723Y-113331904D01*
X151086723Y-113331904D02*
X150896247Y-113284285D01*
X150896247Y-113284285D02*
X150515295Y-113284285D01*
X150515295Y-113284285D02*
X150420057Y-113331904D01*
X150420057Y-113331904D02*
X150372438Y-113379523D01*
X150372438Y-113379523D02*
X150324819Y-113474761D01*
X150324819Y-113474761D02*
X150324819Y-113665237D01*
X150324819Y-113665237D02*
X150372438Y-113760475D01*
X150372438Y-113760475D02*
X150420057Y-113808094D01*
X150420057Y-113808094D02*
X150515295Y-113855713D01*
X150515295Y-113855713D02*
X150753390Y-113855713D01*
X150753390Y-113855713D02*
X150848628Y-113808094D01*
X150848628Y-113808094D02*
X150896247Y-113760475D01*
X150896247Y-113760475D02*
X150943866Y-113665237D01*
X150943866Y-113665237D02*
X150943866Y-113474761D01*
X150943866Y-113474761D02*
X150896247Y-113379523D01*
X150896247Y-113379523D02*
X150848628Y-113331904D01*
X150848628Y-113331904D02*
X150753390Y-113284285D01*
X125308333Y-112954580D02*
X125260714Y-113002200D01*
X125260714Y-113002200D02*
X125117857Y-113049819D01*
X125117857Y-113049819D02*
X125022619Y-113049819D01*
X125022619Y-113049819D02*
X124879762Y-113002200D01*
X124879762Y-113002200D02*
X124784524Y-112906961D01*
X124784524Y-112906961D02*
X124736905Y-112811723D01*
X124736905Y-112811723D02*
X124689286Y-112621247D01*
X124689286Y-112621247D02*
X124689286Y-112478390D01*
X124689286Y-112478390D02*
X124736905Y-112287914D01*
X124736905Y-112287914D02*
X124784524Y-112192676D01*
X124784524Y-112192676D02*
X124879762Y-112097438D01*
X124879762Y-112097438D02*
X125022619Y-112049819D01*
X125022619Y-112049819D02*
X125117857Y-112049819D01*
X125117857Y-112049819D02*
X125260714Y-112097438D01*
X125260714Y-112097438D02*
X125308333Y-112145057D01*
X125879762Y-112478390D02*
X125784524Y-112430771D01*
X125784524Y-112430771D02*
X125736905Y-112383152D01*
X125736905Y-112383152D02*
X125689286Y-112287914D01*
X125689286Y-112287914D02*
X125689286Y-112240295D01*
X125689286Y-112240295D02*
X125736905Y-112145057D01*
X125736905Y-112145057D02*
X125784524Y-112097438D01*
X125784524Y-112097438D02*
X125879762Y-112049819D01*
X125879762Y-112049819D02*
X126070238Y-112049819D01*
X126070238Y-112049819D02*
X126165476Y-112097438D01*
X126165476Y-112097438D02*
X126213095Y-112145057D01*
X126213095Y-112145057D02*
X126260714Y-112240295D01*
X126260714Y-112240295D02*
X126260714Y-112287914D01*
X126260714Y-112287914D02*
X126213095Y-112383152D01*
X126213095Y-112383152D02*
X126165476Y-112430771D01*
X126165476Y-112430771D02*
X126070238Y-112478390D01*
X126070238Y-112478390D02*
X125879762Y-112478390D01*
X125879762Y-112478390D02*
X125784524Y-112526009D01*
X125784524Y-112526009D02*
X125736905Y-112573628D01*
X125736905Y-112573628D02*
X125689286Y-112668866D01*
X125689286Y-112668866D02*
X125689286Y-112859342D01*
X125689286Y-112859342D02*
X125736905Y-112954580D01*
X125736905Y-112954580D02*
X125784524Y-113002200D01*
X125784524Y-113002200D02*
X125879762Y-113049819D01*
X125879762Y-113049819D02*
X126070238Y-113049819D01*
X126070238Y-113049819D02*
X126165476Y-113002200D01*
X126165476Y-113002200D02*
X126213095Y-112954580D01*
X126213095Y-112954580D02*
X126260714Y-112859342D01*
X126260714Y-112859342D02*
X126260714Y-112668866D01*
X126260714Y-112668866D02*
X126213095Y-112573628D01*
X126213095Y-112573628D02*
X126165476Y-112526009D01*
X126165476Y-112526009D02*
X126070238Y-112478390D01*
X112352080Y-123761666D02*
X112399700Y-123809285D01*
X112399700Y-123809285D02*
X112447319Y-123952142D01*
X112447319Y-123952142D02*
X112447319Y-124047380D01*
X112447319Y-124047380D02*
X112399700Y-124190237D01*
X112399700Y-124190237D02*
X112304461Y-124285475D01*
X112304461Y-124285475D02*
X112209223Y-124333094D01*
X112209223Y-124333094D02*
X112018747Y-124380713D01*
X112018747Y-124380713D02*
X111875890Y-124380713D01*
X111875890Y-124380713D02*
X111685414Y-124333094D01*
X111685414Y-124333094D02*
X111590176Y-124285475D01*
X111590176Y-124285475D02*
X111494938Y-124190237D01*
X111494938Y-124190237D02*
X111447319Y-124047380D01*
X111447319Y-124047380D02*
X111447319Y-123952142D01*
X111447319Y-123952142D02*
X111494938Y-123809285D01*
X111494938Y-123809285D02*
X111542557Y-123761666D01*
X111447319Y-123428332D02*
X111447319Y-122761666D01*
X111447319Y-122761666D02*
X112447319Y-123190237D01*
X107308333Y-124024580D02*
X107260714Y-124072200D01*
X107260714Y-124072200D02*
X107117857Y-124119819D01*
X107117857Y-124119819D02*
X107022619Y-124119819D01*
X107022619Y-124119819D02*
X106879762Y-124072200D01*
X106879762Y-124072200D02*
X106784524Y-123976961D01*
X106784524Y-123976961D02*
X106736905Y-123881723D01*
X106736905Y-123881723D02*
X106689286Y-123691247D01*
X106689286Y-123691247D02*
X106689286Y-123548390D01*
X106689286Y-123548390D02*
X106736905Y-123357914D01*
X106736905Y-123357914D02*
X106784524Y-123262676D01*
X106784524Y-123262676D02*
X106879762Y-123167438D01*
X106879762Y-123167438D02*
X107022619Y-123119819D01*
X107022619Y-123119819D02*
X107117857Y-123119819D01*
X107117857Y-123119819D02*
X107260714Y-123167438D01*
X107260714Y-123167438D02*
X107308333Y-123215057D01*
X108165476Y-123119819D02*
X107975000Y-123119819D01*
X107975000Y-123119819D02*
X107879762Y-123167438D01*
X107879762Y-123167438D02*
X107832143Y-123215057D01*
X107832143Y-123215057D02*
X107736905Y-123357914D01*
X107736905Y-123357914D02*
X107689286Y-123548390D01*
X107689286Y-123548390D02*
X107689286Y-123929342D01*
X107689286Y-123929342D02*
X107736905Y-124024580D01*
X107736905Y-124024580D02*
X107784524Y-124072200D01*
X107784524Y-124072200D02*
X107879762Y-124119819D01*
X107879762Y-124119819D02*
X108070238Y-124119819D01*
X108070238Y-124119819D02*
X108165476Y-124072200D01*
X108165476Y-124072200D02*
X108213095Y-124024580D01*
X108213095Y-124024580D02*
X108260714Y-123929342D01*
X108260714Y-123929342D02*
X108260714Y-123691247D01*
X108260714Y-123691247D02*
X108213095Y-123596009D01*
X108213095Y-123596009D02*
X108165476Y-123548390D01*
X108165476Y-123548390D02*
X108070238Y-123500771D01*
X108070238Y-123500771D02*
X107879762Y-123500771D01*
X107879762Y-123500771D02*
X107784524Y-123548390D01*
X107784524Y-123548390D02*
X107736905Y-123596009D01*
X107736905Y-123596009D02*
X107689286Y-123691247D01*
X112352080Y-117761666D02*
X112399700Y-117809285D01*
X112399700Y-117809285D02*
X112447319Y-117952142D01*
X112447319Y-117952142D02*
X112447319Y-118047380D01*
X112447319Y-118047380D02*
X112399700Y-118190237D01*
X112399700Y-118190237D02*
X112304461Y-118285475D01*
X112304461Y-118285475D02*
X112209223Y-118333094D01*
X112209223Y-118333094D02*
X112018747Y-118380713D01*
X112018747Y-118380713D02*
X111875890Y-118380713D01*
X111875890Y-118380713D02*
X111685414Y-118333094D01*
X111685414Y-118333094D02*
X111590176Y-118285475D01*
X111590176Y-118285475D02*
X111494938Y-118190237D01*
X111494938Y-118190237D02*
X111447319Y-118047380D01*
X111447319Y-118047380D02*
X111447319Y-117952142D01*
X111447319Y-117952142D02*
X111494938Y-117809285D01*
X111494938Y-117809285D02*
X111542557Y-117761666D01*
X111447319Y-116856904D02*
X111447319Y-117333094D01*
X111447319Y-117333094D02*
X111923509Y-117380713D01*
X111923509Y-117380713D02*
X111875890Y-117333094D01*
X111875890Y-117333094D02*
X111828271Y-117237856D01*
X111828271Y-117237856D02*
X111828271Y-116999761D01*
X111828271Y-116999761D02*
X111875890Y-116904523D01*
X111875890Y-116904523D02*
X111923509Y-116856904D01*
X111923509Y-116856904D02*
X112018747Y-116809285D01*
X112018747Y-116809285D02*
X112256842Y-116809285D01*
X112256842Y-116809285D02*
X112352080Y-116856904D01*
X112352080Y-116856904D02*
X112399700Y-116904523D01*
X112399700Y-116904523D02*
X112447319Y-116999761D01*
X112447319Y-116999761D02*
X112447319Y-117237856D01*
X112447319Y-117237856D02*
X112399700Y-117333094D01*
X112399700Y-117333094D02*
X112352080Y-117380713D01*
X107395833Y-118024580D02*
X107348214Y-118072200D01*
X107348214Y-118072200D02*
X107205357Y-118119819D01*
X107205357Y-118119819D02*
X107110119Y-118119819D01*
X107110119Y-118119819D02*
X106967262Y-118072200D01*
X106967262Y-118072200D02*
X106872024Y-117976961D01*
X106872024Y-117976961D02*
X106824405Y-117881723D01*
X106824405Y-117881723D02*
X106776786Y-117691247D01*
X106776786Y-117691247D02*
X106776786Y-117548390D01*
X106776786Y-117548390D02*
X106824405Y-117357914D01*
X106824405Y-117357914D02*
X106872024Y-117262676D01*
X106872024Y-117262676D02*
X106967262Y-117167438D01*
X106967262Y-117167438D02*
X107110119Y-117119819D01*
X107110119Y-117119819D02*
X107205357Y-117119819D01*
X107205357Y-117119819D02*
X107348214Y-117167438D01*
X107348214Y-117167438D02*
X107395833Y-117215057D01*
X108252976Y-117453152D02*
X108252976Y-118119819D01*
X108014881Y-117072200D02*
X107776786Y-117786485D01*
X107776786Y-117786485D02*
X108395833Y-117786485D01*
X112264580Y-111761666D02*
X112312200Y-111809285D01*
X112312200Y-111809285D02*
X112359819Y-111952142D01*
X112359819Y-111952142D02*
X112359819Y-112047380D01*
X112359819Y-112047380D02*
X112312200Y-112190237D01*
X112312200Y-112190237D02*
X112216961Y-112285475D01*
X112216961Y-112285475D02*
X112121723Y-112333094D01*
X112121723Y-112333094D02*
X111931247Y-112380713D01*
X111931247Y-112380713D02*
X111788390Y-112380713D01*
X111788390Y-112380713D02*
X111597914Y-112333094D01*
X111597914Y-112333094D02*
X111502676Y-112285475D01*
X111502676Y-112285475D02*
X111407438Y-112190237D01*
X111407438Y-112190237D02*
X111359819Y-112047380D01*
X111359819Y-112047380D02*
X111359819Y-111952142D01*
X111359819Y-111952142D02*
X111407438Y-111809285D01*
X111407438Y-111809285D02*
X111455057Y-111761666D01*
X111359819Y-111428332D02*
X111359819Y-110809285D01*
X111359819Y-110809285D02*
X111740771Y-111142618D01*
X111740771Y-111142618D02*
X111740771Y-110999761D01*
X111740771Y-110999761D02*
X111788390Y-110904523D01*
X111788390Y-110904523D02*
X111836009Y-110856904D01*
X111836009Y-110856904D02*
X111931247Y-110809285D01*
X111931247Y-110809285D02*
X112169342Y-110809285D01*
X112169342Y-110809285D02*
X112264580Y-110856904D01*
X112264580Y-110856904D02*
X112312200Y-110904523D01*
X112312200Y-110904523D02*
X112359819Y-110999761D01*
X112359819Y-110999761D02*
X112359819Y-111285475D01*
X112359819Y-111285475D02*
X112312200Y-111380713D01*
X112312200Y-111380713D02*
X112264580Y-111428332D01*
X107308333Y-112024580D02*
X107260714Y-112072200D01*
X107260714Y-112072200D02*
X107117857Y-112119819D01*
X107117857Y-112119819D02*
X107022619Y-112119819D01*
X107022619Y-112119819D02*
X106879762Y-112072200D01*
X106879762Y-112072200D02*
X106784524Y-111976961D01*
X106784524Y-111976961D02*
X106736905Y-111881723D01*
X106736905Y-111881723D02*
X106689286Y-111691247D01*
X106689286Y-111691247D02*
X106689286Y-111548390D01*
X106689286Y-111548390D02*
X106736905Y-111357914D01*
X106736905Y-111357914D02*
X106784524Y-111262676D01*
X106784524Y-111262676D02*
X106879762Y-111167438D01*
X106879762Y-111167438D02*
X107022619Y-111119819D01*
X107022619Y-111119819D02*
X107117857Y-111119819D01*
X107117857Y-111119819D02*
X107260714Y-111167438D01*
X107260714Y-111167438D02*
X107308333Y-111215057D01*
X107689286Y-111215057D02*
X107736905Y-111167438D01*
X107736905Y-111167438D02*
X107832143Y-111119819D01*
X107832143Y-111119819D02*
X108070238Y-111119819D01*
X108070238Y-111119819D02*
X108165476Y-111167438D01*
X108165476Y-111167438D02*
X108213095Y-111215057D01*
X108213095Y-111215057D02*
X108260714Y-111310295D01*
X108260714Y-111310295D02*
X108260714Y-111405533D01*
X108260714Y-111405533D02*
X108213095Y-111548390D01*
X108213095Y-111548390D02*
X107641667Y-112119819D01*
X107641667Y-112119819D02*
X108260714Y-112119819D01*
X125308333Y-115954580D02*
X125260714Y-116002200D01*
X125260714Y-116002200D02*
X125117857Y-116049819D01*
X125117857Y-116049819D02*
X125022619Y-116049819D01*
X125022619Y-116049819D02*
X124879762Y-116002200D01*
X124879762Y-116002200D02*
X124784524Y-115906961D01*
X124784524Y-115906961D02*
X124736905Y-115811723D01*
X124736905Y-115811723D02*
X124689286Y-115621247D01*
X124689286Y-115621247D02*
X124689286Y-115478390D01*
X124689286Y-115478390D02*
X124736905Y-115287914D01*
X124736905Y-115287914D02*
X124784524Y-115192676D01*
X124784524Y-115192676D02*
X124879762Y-115097438D01*
X124879762Y-115097438D02*
X125022619Y-115049819D01*
X125022619Y-115049819D02*
X125117857Y-115049819D01*
X125117857Y-115049819D02*
X125260714Y-115097438D01*
X125260714Y-115097438D02*
X125308333Y-115145057D01*
X126260714Y-116049819D02*
X125689286Y-116049819D01*
X125975000Y-116049819D02*
X125975000Y-115049819D01*
X125975000Y-115049819D02*
X125879762Y-115192676D01*
X125879762Y-115192676D02*
X125784524Y-115287914D01*
X125784524Y-115287914D02*
X125689286Y-115335533D01*
X90945000Y-82027533D02*
X91145000Y-82094200D01*
X91145000Y-82094200D02*
X91211666Y-82160866D01*
X91211666Y-82160866D02*
X91278333Y-82294200D01*
X91278333Y-82294200D02*
X91278333Y-82494200D01*
X91278333Y-82494200D02*
X91211666Y-82627533D01*
X91211666Y-82627533D02*
X91145000Y-82694200D01*
X91145000Y-82694200D02*
X91011666Y-82760866D01*
X91011666Y-82760866D02*
X90478333Y-82760866D01*
X90478333Y-82760866D02*
X90478333Y-81360866D01*
X90478333Y-81360866D02*
X90945000Y-81360866D01*
X90945000Y-81360866D02*
X91078333Y-81427533D01*
X91078333Y-81427533D02*
X91145000Y-81494200D01*
X91145000Y-81494200D02*
X91211666Y-81627533D01*
X91211666Y-81627533D02*
X91211666Y-81760866D01*
X91211666Y-81760866D02*
X91145000Y-81894200D01*
X91145000Y-81894200D02*
X91078333Y-81960866D01*
X91078333Y-81960866D02*
X90945000Y-82027533D01*
X90945000Y-82027533D02*
X90478333Y-82027533D01*
X91678333Y-81360866D02*
X92478333Y-81360866D01*
X92078333Y-82760866D02*
X92078333Y-81360866D01*
X93678333Y-82760866D02*
X92878333Y-82760866D01*
X93278333Y-82760866D02*
X93278333Y-81360866D01*
X93278333Y-81360866D02*
X93145000Y-81560866D01*
X93145000Y-81560866D02*
X93011667Y-81694200D01*
X93011667Y-81694200D02*
X92878333Y-81760866D01*
X108115667Y-91878533D02*
X109182334Y-91878533D01*
X108649000Y-92411866D02*
X108649000Y-91345200D01*
X85382667Y-91751533D02*
X86449334Y-91751533D01*
X89359439Y-123514960D02*
X90034355Y-123514960D01*
X90034355Y-123514960D02*
X90169338Y-123559955D01*
X90169338Y-123559955D02*
X90259327Y-123649943D01*
X90259327Y-123649943D02*
X90304321Y-123784927D01*
X90304321Y-123784927D02*
X90304321Y-123874915D01*
X89674400Y-122660067D02*
X90304321Y-122660067D01*
X89314445Y-122885039D02*
X89989360Y-123110011D01*
X89989360Y-123110011D02*
X89989360Y-122525084D01*
X153719439Y-96454904D02*
X154394355Y-96454904D01*
X154394355Y-96454904D02*
X154529338Y-96499899D01*
X154529338Y-96499899D02*
X154619327Y-96589887D01*
X154619327Y-96589887D02*
X154664321Y-96724871D01*
X154664321Y-96724871D02*
X154664321Y-96814859D01*
X154664321Y-95510022D02*
X154664321Y-96049955D01*
X154664321Y-95779989D02*
X153719439Y-95779989D01*
X153719439Y-95779989D02*
X153854422Y-95869977D01*
X153854422Y-95869977D02*
X153944411Y-95959966D01*
X153944411Y-95959966D02*
X153989405Y-96049955D01*
X154664321Y-94610134D02*
X154664321Y-95150067D01*
X154664321Y-94880101D02*
X153719439Y-94880101D01*
X153719439Y-94880101D02*
X153854422Y-94970089D01*
X153854422Y-94970089D02*
X153944411Y-95060078D01*
X153944411Y-95060078D02*
X153989405Y-95150067D01*
D11*
%TO.C,C31*%
X135765000Y-87294767D02*
X135765000Y-87002233D01*
X134745000Y-87294767D02*
X134745000Y-87002233D01*
%TO.C,C30*%
X128903000Y-87294767D02*
X128903000Y-87002233D01*
X129923000Y-87294767D02*
X129923000Y-87002233D01*
%TO.C,L5*%
X132162733Y-88547500D02*
X132505267Y-88547500D01*
X132162733Y-87527500D02*
X132505267Y-87527500D01*
%TO.C,C22*%
X115370000Y-93973733D02*
X115370000Y-94266267D01*
X114350000Y-93973733D02*
X114350000Y-94266267D01*
%TO.C,C17*%
X123675000Y-82136267D02*
X123675000Y-81843733D01*
X122655000Y-82136267D02*
X122655000Y-81843733D01*
%TO.C,C33*%
X116725000Y-83736267D02*
X116725000Y-83443733D01*
X115705000Y-83736267D02*
X115705000Y-83443733D01*
%TO.C,C32*%
X119861267Y-80080000D02*
X119568733Y-80080000D01*
X119861267Y-81100000D02*
X119568733Y-81100000D01*
D12*
%TO.C,Y2*%
X119935000Y-84950000D02*
X119495000Y-84950000D01*
X119935000Y-82230000D02*
X119495000Y-82230000D01*
D13*
X121176000Y-81522000D02*
G75*
G02*
X120976000Y-81522000I-100000J0D01*
G01*
X120976000Y-81522000D02*
G75*
G02*
X121176000Y-81522000I100000J0D01*
G01*
D11*
%TO.C,R15*%
X136522500Y-107120276D02*
X136522500Y-107629724D01*
X135477500Y-107120276D02*
X135477500Y-107629724D01*
%TO.C,D3*%
X135265000Y-113535000D02*
X136735000Y-113535000D01*
X136735000Y-113535000D02*
X136735000Y-111075000D01*
X135265000Y-111075000D02*
X135265000Y-113535000D01*
D14*
%TO.C,U5*%
X123573600Y-102011100D02*
X119306400Y-102011100D01*
X119306400Y-107268900D02*
X123573600Y-107268900D01*
D12*
%TO.C,Y1*%
X107283100Y-102625002D02*
X107283100Y-103385002D01*
X105783100Y-102625002D02*
X105783100Y-103385002D01*
D15*
%TO.C,U4*%
G36*
X125472600Y-92640500D02*
G01*
X125218600Y-92640500D01*
X125218600Y-92259500D01*
X125472600Y-92259500D01*
X125472600Y-92640500D01*
G37*
G36*
X122700000Y-88240900D02*
G01*
X122318999Y-88240900D01*
X122318999Y-87986900D01*
X122700000Y-87986900D01*
X122700000Y-88240900D01*
G37*
G36*
X119300400Y-92140501D02*
G01*
X119046400Y-92140501D01*
X119046400Y-91759501D01*
X119300400Y-91759501D01*
X119300400Y-92140501D01*
G37*
D14*
X124888400Y-93828900D02*
X124888400Y-93409739D01*
X124888400Y-88571100D02*
X124469239Y-88571100D01*
X119630600Y-88571100D02*
X119630600Y-88990261D01*
X119630600Y-93828900D02*
X120049761Y-93828900D01*
X124469239Y-93828900D02*
X124888400Y-93828900D01*
X124888400Y-88990261D02*
X124888400Y-88571100D01*
X120049761Y-88571100D02*
X119630600Y-88571100D01*
X119630600Y-93409739D02*
X119630600Y-93828900D01*
D15*
%TO.C,U3*%
G36*
X114644600Y-102695500D02*
G01*
X114390600Y-102695500D01*
X114390600Y-102314500D01*
X114644600Y-102314500D01*
X114644600Y-102695500D01*
G37*
D14*
X109907500Y-105130601D02*
X113158700Y-105130601D01*
X113158700Y-101879401D02*
X109907500Y-101879401D01*
D11*
%TO.C,U2*%
X147412500Y-115630000D02*
X148212500Y-115630000D01*
X147412500Y-115630000D02*
X146612500Y-115630000D01*
X147412500Y-112510000D02*
X148212500Y-112510000D01*
X147412500Y-112510000D02*
X146612500Y-112510000D01*
X148952500Y-115910000D02*
X148472500Y-115910000D01*
X148712500Y-115580000D01*
X148952500Y-115910000D01*
G36*
X148952500Y-115910000D02*
G01*
X148472500Y-115910000D01*
X148712500Y-115580000D01*
X148952500Y-115910000D01*
G37*
%TO.C,U1*%
X118475000Y-112535000D02*
X116525000Y-112535000D01*
X118475000Y-112535000D02*
X120425000Y-112535000D01*
X118475000Y-122655000D02*
X116525000Y-122655000D01*
X118475000Y-122655000D02*
X120425000Y-122655000D01*
X115775000Y-112590000D02*
X115535000Y-112260000D01*
X116015000Y-112260000D01*
X115775000Y-112590000D01*
G36*
X115775000Y-112590000D02*
G01*
X115535000Y-112260000D01*
X116015000Y-112260000D01*
X115775000Y-112590000D01*
G37*
%TO.C,TH1*%
X103220276Y-124572500D02*
X103729724Y-124572500D01*
X103220276Y-125617500D02*
X103729724Y-125617500D01*
D12*
%TO.C,S1*%
X139550000Y-107840000D02*
X139550000Y-97940000D01*
X139550000Y-97940000D02*
X153670000Y-97940000D01*
X153670000Y-97940000D02*
X153670000Y-107840000D01*
X153670000Y-107840000D02*
X139550000Y-107840000D01*
D13*
X141610000Y-108590000D02*
G75*
G02*
X141410000Y-108590000I-100000J0D01*
G01*
X141410000Y-108590000D02*
G75*
G02*
X141610000Y-108590000I100000J0D01*
G01*
D11*
%TO.C,R14*%
X86007500Y-91462224D02*
X86007500Y-90952776D01*
X87052500Y-91462224D02*
X87052500Y-90952776D01*
%TO.C,R13*%
X124824724Y-118222500D02*
X124315276Y-118222500D01*
X124824724Y-117177500D02*
X124315276Y-117177500D01*
%TO.C,R12*%
X107385276Y-106487500D02*
X107894724Y-106487500D01*
X107385276Y-107532500D02*
X107894724Y-107532500D01*
%TO.C,R11*%
X117415276Y-107837500D02*
X117924724Y-107837500D01*
X117415276Y-108882500D02*
X117924724Y-108882500D01*
%TO.C,R10*%
X129522500Y-107120276D02*
X129522500Y-107629724D01*
X128477500Y-107120276D02*
X128477500Y-107629724D01*
%TO.C,R9*%
X107220276Y-121572500D02*
X107729724Y-121572500D01*
X107220276Y-122617500D02*
X107729724Y-122617500D01*
%TO.C,R8*%
X133022500Y-107120276D02*
X133022500Y-107629724D01*
X131977500Y-107120276D02*
X131977500Y-107629724D01*
%TO.C,R7*%
X103220276Y-121572500D02*
X103729724Y-121572500D01*
X103220276Y-122617500D02*
X103729724Y-122617500D01*
%TO.C,R6*%
X107307776Y-115572500D02*
X107817224Y-115572500D01*
X107307776Y-116617500D02*
X107817224Y-116617500D01*
%TO.C,R5*%
X103307776Y-118572500D02*
X103817224Y-118572500D01*
X103307776Y-119617500D02*
X103817224Y-119617500D01*
%TO.C,R4*%
X103307776Y-115572500D02*
X103817224Y-115572500D01*
X103307776Y-116617500D02*
X103817224Y-116617500D01*
%TO.C,R3*%
X107220276Y-109572500D02*
X107729724Y-109572500D01*
X107220276Y-110617500D02*
X107729724Y-110617500D01*
%TO.C,R2*%
X103220276Y-112572500D02*
X103729724Y-112572500D01*
X103220276Y-113617500D02*
X103729724Y-113617500D01*
%TO.C,R1*%
X103220276Y-109572500D02*
X103729724Y-109572500D01*
X103220276Y-110617500D02*
X103729724Y-110617500D01*
%TO.C,L4*%
X127125000Y-81832267D02*
X127125000Y-81489733D01*
X128145000Y-81832267D02*
X128145000Y-81489733D01*
%TO.C,L3*%
X128903000Y-83737267D02*
X128903000Y-83394733D01*
X129923000Y-83737267D02*
X129923000Y-83394733D01*
%TO.C,L2*%
X132289733Y-82167000D02*
X132632267Y-82167000D01*
X132289733Y-83187000D02*
X132632267Y-83187000D01*
%TO.C,L1*%
X135972733Y-83818000D02*
X136315267Y-83818000D01*
X135972733Y-84838000D02*
X136315267Y-84838000D01*
D12*
%TO.C,J10*%
X160200000Y-119625000D02*
X160200000Y-125375000D01*
X160200000Y-125375000D02*
X152800000Y-125375000D01*
X152800000Y-125375000D02*
X152800000Y-119625000D01*
X152800000Y-119625000D02*
X160200000Y-119625000D01*
D13*
X161040000Y-123025000D02*
G75*
G02*
X160840000Y-123025000I-100000J0D01*
G01*
X160840000Y-123025000D02*
G75*
G02*
X161040000Y-123025000I100000J0D01*
G01*
D12*
%TO.C,J9*%
X150200000Y-119625000D02*
X150200000Y-125375000D01*
X150200000Y-125375000D02*
X142800000Y-125375000D01*
X142800000Y-125375000D02*
X142800000Y-119625000D01*
X142800000Y-119625000D02*
X150200000Y-119625000D01*
D13*
X151040000Y-123025000D02*
G75*
G02*
X150840000Y-123025000I-100000J0D01*
G01*
X150840000Y-123025000D02*
G75*
G02*
X151040000Y-123025000I100000J0D01*
G01*
D12*
%TO.C,J8*%
X84990000Y-85410000D02*
X84990000Y-100310000D01*
X84990000Y-100310000D02*
X79240000Y-100310000D01*
X79240000Y-100310000D02*
X79240000Y-85410000D01*
X79240000Y-85410000D02*
X84990000Y-85410000D01*
D13*
X81690000Y-101110000D02*
G75*
G02*
X81490000Y-101110000I-100000J0D01*
G01*
X81490000Y-101110000D02*
G75*
G02*
X81690000Y-101110000I100000J0D01*
G01*
D12*
%TO.C,J7*%
X78850000Y-125950000D02*
X78850000Y-116050000D01*
X78850000Y-116050000D02*
X84600000Y-116050000D01*
X84600000Y-116050000D02*
X84600000Y-125950000D01*
X84600000Y-125950000D02*
X78850000Y-125950000D01*
D13*
X82350000Y-115250000D02*
G75*
G02*
X82150000Y-115250000I-100000J0D01*
G01*
X82150000Y-115250000D02*
G75*
G02*
X82350000Y-115250000I100000J0D01*
G01*
D12*
%TO.C,J6*%
X78850000Y-112740000D02*
X78850000Y-102840000D01*
X78850000Y-102840000D02*
X84600000Y-102840000D01*
X84600000Y-102840000D02*
X84600000Y-112740000D01*
X84600000Y-112740000D02*
X78850000Y-112740000D01*
D13*
X82350000Y-102040000D02*
G75*
G02*
X82150000Y-102040000I-100000J0D01*
G01*
X82150000Y-102040000D02*
G75*
G02*
X82350000Y-102040000I100000J0D01*
G01*
D12*
%TO.C,J5*%
X91625000Y-113450000D02*
X91625000Y-103550000D01*
X91625000Y-103550000D02*
X97375000Y-103550000D01*
X97375000Y-103550000D02*
X97375000Y-113450000D01*
X97375000Y-113450000D02*
X91625000Y-113450000D01*
D13*
X95125000Y-102750000D02*
G75*
G02*
X94925000Y-102750000I-100000J0D01*
G01*
X94925000Y-102750000D02*
G75*
G02*
X95125000Y-102750000I100000J0D01*
G01*
D12*
%TO.C,J3*%
X125050000Y-119625000D02*
X139950000Y-119625000D01*
X139950000Y-119625000D02*
X139950000Y-125375000D01*
X139950000Y-125375000D02*
X125050000Y-125375000D01*
X125050000Y-125375000D02*
X125050000Y-119625000D01*
D13*
X140850000Y-123025000D02*
G75*
G02*
X140650000Y-123025000I-100000J0D01*
G01*
X140650000Y-123025000D02*
G75*
G02*
X140850000Y-123025000I100000J0D01*
G01*
D11*
%TO.C,J2*%
X157280000Y-117440000D02*
X159350000Y-117440000D01*
X157280000Y-117440000D02*
X157280000Y-116570000D01*
X157280000Y-110570000D02*
X157280000Y-109700000D01*
X157280000Y-109700000D02*
X159350000Y-109700000D01*
X156940000Y-112270000D02*
X156470000Y-112610000D01*
X156470000Y-111930000D01*
X156940000Y-112270000D01*
G36*
X156940000Y-112270000D02*
G01*
X156470000Y-112610000D01*
X156470000Y-111930000D01*
X156940000Y-112270000D01*
G37*
D14*
%TO.C,J1*%
X140639800Y-88595200D02*
X141021789Y-88595200D01*
X147904200Y-88595200D02*
X147904200Y-88213211D01*
X147904200Y-81330800D02*
X147522211Y-81330800D01*
X140639800Y-81330800D02*
X140639800Y-81712789D01*
X141021789Y-81330800D02*
X140639800Y-81330800D01*
X140639800Y-83107811D02*
X140639800Y-86818189D01*
X142416811Y-88595200D02*
X146127189Y-88595200D01*
X140639800Y-88213211D02*
X140639800Y-88595200D01*
X147904200Y-86818189D02*
X147904200Y-83107811D01*
X147522211Y-88595200D02*
X147904200Y-88595200D01*
X146127189Y-81330800D02*
X142416811Y-81330800D01*
X147904200Y-81712789D02*
X147904200Y-81330800D01*
D11*
%TO.C,D2*%
X128265000Y-113535000D02*
X129735000Y-113535000D01*
X129735000Y-113535000D02*
X129735000Y-111075000D01*
X128265000Y-111075000D02*
X128265000Y-113535000D01*
%TO.C,D1*%
X131765000Y-113535000D02*
X133235000Y-113535000D01*
X133235000Y-113535000D02*
X133235000Y-111075000D01*
X131765000Y-111075000D02*
X131765000Y-113535000D01*
%TO.C,C34*%
X135603733Y-116990000D02*
X135896267Y-116990000D01*
X135603733Y-118010000D02*
X135896267Y-118010000D01*
%TO.C,C29*%
X128377733Y-78484000D02*
X128670267Y-78484000D01*
X128377733Y-79504000D02*
X128670267Y-79504000D01*
%TO.C,C28*%
X132328733Y-78484000D02*
X132621267Y-78484000D01*
X132328733Y-79504000D02*
X132621267Y-79504000D01*
%TO.C,C27*%
X132314733Y-80262000D02*
X132607267Y-80262000D01*
X132314733Y-81282000D02*
X132607267Y-81282000D01*
%TO.C,C26*%
X135997733Y-82167000D02*
X136290267Y-82167000D01*
X135997733Y-83187000D02*
X136290267Y-83187000D01*
%TO.C,C25*%
X139321000Y-83292733D02*
X139321000Y-83585267D01*
X138301000Y-83292733D02*
X138301000Y-83585267D01*
%TO.C,C24*%
X132607267Y-84838000D02*
X132314733Y-84838000D01*
X132607267Y-83818000D02*
X132314733Y-83818000D01*
%TO.C,C23*%
X136290267Y-81282000D02*
X135997733Y-81282000D01*
X136290267Y-80262000D02*
X135997733Y-80262000D01*
%TO.C,C19*%
X118405767Y-97210000D02*
X118113233Y-97210000D01*
X118405767Y-96190000D02*
X118113233Y-96190000D01*
%TO.C,C18*%
X115905767Y-88210000D02*
X115613233Y-88210000D01*
X115905767Y-87190000D02*
X115613233Y-87190000D01*
%TO.C,C16*%
X114370000Y-90636267D02*
X114370000Y-90343733D01*
X115390000Y-90636267D02*
X115390000Y-90343733D01*
%TO.C,C15*%
X121586267Y-101150000D02*
X121293733Y-101150000D01*
X121586267Y-100130000D02*
X121293733Y-100130000D01*
%TO.C,C14*%
X104543100Y-105358735D02*
X104543100Y-105651269D01*
X103523100Y-105358735D02*
X103523100Y-105651269D01*
%TO.C,C13*%
X103523100Y-101013769D02*
X103523100Y-100721235D01*
X104543100Y-101013769D02*
X104543100Y-100721235D01*
%TO.C,C12*%
X111679367Y-101015002D02*
X111386833Y-101015002D01*
X111679367Y-99995002D02*
X111386833Y-99995002D01*
%TO.C,C11*%
X143402500Y-114216267D02*
X143402500Y-113923733D01*
X144422500Y-114216267D02*
X144422500Y-113923733D01*
%TO.C,C10*%
X147016233Y-110060000D02*
X147308767Y-110060000D01*
X147016233Y-111080000D02*
X147308767Y-111080000D01*
%TO.C,C9*%
X151790000Y-114216267D02*
X151790000Y-113923733D01*
X152810000Y-114216267D02*
X152810000Y-113923733D01*
%TO.C,C8*%
X125328733Y-110585000D02*
X125621267Y-110585000D01*
X125328733Y-111605000D02*
X125621267Y-111605000D01*
%TO.C,C7*%
X111072500Y-123448733D02*
X111072500Y-123741267D01*
X110052500Y-123448733D02*
X110052500Y-123741267D01*
%TO.C,C6*%
X107328733Y-124585000D02*
X107621267Y-124585000D01*
X107328733Y-125605000D02*
X107621267Y-125605000D01*
%TO.C,C5*%
X111072500Y-117448733D02*
X111072500Y-117741267D01*
X110052500Y-117448733D02*
X110052500Y-117741267D01*
%TO.C,C4*%
X107416233Y-118585000D02*
X107708767Y-118585000D01*
X107416233Y-119605000D02*
X107708767Y-119605000D01*
%TO.C,C3*%
X110985000Y-111448733D02*
X110985000Y-111741267D01*
X109965000Y-111448733D02*
X109965000Y-111741267D01*
%TO.C,C2*%
X107328733Y-112585000D02*
X107621267Y-112585000D01*
X107328733Y-113605000D02*
X107621267Y-113605000D01*
%TO.C,C1*%
X125328733Y-113585000D02*
X125621267Y-113585000D01*
X125328733Y-114605000D02*
X125621267Y-114605000D01*
D12*
%TO.C,BT1*%
X104785000Y-83810000D02*
X104785000Y-89390000D01*
X104785000Y-98210000D02*
X102270000Y-98210000D01*
X104785000Y-83810000D02*
X102270000Y-83810000D01*
X102270000Y-83810000D02*
X101300000Y-84510000D01*
X102270000Y-98210000D02*
X101300000Y-97510000D01*
X90280001Y-89390000D02*
G75*
G02*
X101300000Y-84510000I7309580J-1623807D01*
G01*
X104785000Y-92630000D02*
X104785000Y-98210000D01*
X101300001Y-97510000D02*
G75*
G02*
X90280000Y-92630000I-3710420J6503807D01*
G01*
%TO.C,J4*%
X91600000Y-125950000D02*
X91600000Y-116050000D01*
X91600000Y-116050000D02*
X97350000Y-116050000D01*
X97350000Y-116050000D02*
X97350000Y-125950000D01*
X97350000Y-125950000D02*
X91600000Y-125950000D01*
D13*
X95100000Y-115250000D02*
G75*
G02*
X94900000Y-115250000I-100000J0D01*
G01*
X94900000Y-115250000D02*
G75*
G02*
X95100000Y-115250000I100000J0D01*
G01*
D12*
%TO.C,J11*%
X161310000Y-94920000D02*
X161310000Y-107320000D01*
X161310000Y-107320000D02*
X155560000Y-107320000D01*
X155560000Y-107320000D02*
X155560000Y-94920000D01*
X155560000Y-94920000D02*
X161310000Y-94920000D01*
D13*
X158010000Y-108120000D02*
G75*
G02*
X157810000Y-108120000I-100000J0D01*
G01*
X157810000Y-108120000D02*
G75*
G02*
X158010000Y-108120000I100000J0D01*
G01*
%TD*%
M02*
