M48
; DRILL file {KiCad 9.0.0} date 2025-11-11T18:57:30-0500
; FORMAT={-:-/ absolute / metric / decimal}
; #@! TF.CreationDate,2025-11-11T18:57:30-05:00
; #@! TF.GenerationSoftware,Kicad,Pcbnew,9.0.0
; #@! TF.FileFunction,Plated,1,4,PTH
FMAT,2
METRIC
; #@! TA.AperFunction,Plated,PTH,ViaDrill
T1C0.300
; #@! TA.AperFunction,Plated,PTH,ComponentDrill
T2C0.600
; #@! TA.AperFunction,Plated,PTH,ComponentDrill
T3C0.650
; #@! TA.AperFunction,Plated,PTH,ComponentDrill
T4C1.000
; #@! TA.AperFunction,Plated,PTH,ComponentDrill
T5C1.050
; #@! TA.AperFunction,Plated,PTH,ComponentDrill
T6C1.397
; #@! TA.AperFunction,Plated,PTH,ComponentDrill
T7C1.499
%
G90
G05
T1
X86.53Y-93.39
X89.15Y-93.07
X101.0Y-122.5
X104.387Y-126.387
X105.5Y-114.5
X105.527Y-99.505
X105.527Y-106.505
X105.75Y-117.75
X106.76Y-105.68
X108.337Y-126.337
X109.25Y-117.5
X109.5Y-91.2
X109.5Y-114.5
X109.527Y-100.505
X109.527Y-106.005
X110.562Y-126.062
X110.96Y-103.93
X111.072Y-102.898
X112.396Y-99.136
X112.43Y-95.02
X112.49Y-91.46
X113.0Y-122.5
X113.235Y-82.78
X113.5Y-116.5
X113.879Y-86.45
X115.02Y-97.73
X115.2Y-107.07
X115.28Y-103.0
X115.777Y-109.505
X115.84Y-97.01
X116.027Y-104.005
X116.22Y-90.08
X116.53Y-93.61
X116.91Y-89.29
X116.91Y-100.3
X117.277Y-106.505
X117.33Y-103.19
X117.899Y-87.73
X117.9Y-93.41
X118.036Y-99.786
X118.24Y-95.7
X118.68Y-119.52
X118.71Y-85.87
X118.795Y-79.09
X119.14Y-95.58
X119.21Y-87.75
X119.27Y-94.64
X119.31Y-101.5
X119.36Y-118.24
X119.92Y-86.24
X120.67Y-98.0
X120.74Y-95.36
X120.853Y-89.764
X120.955Y-92.558
X121.41Y-105.18
X121.564Y-102.057
X121.64Y-97.72
X122.259Y-91.2
X122.97Y-97.39
X123.0Y-99.28
X123.0Y-122.0
X123.17Y-79.69
X123.19Y-115.69
X123.6Y-120.02
X123.698Y-92.558
X124.24Y-83.95
X124.257Y-115.926
X125.5Y-109.75
X125.53Y-99.14
X125.603Y-79.121
X125.603Y-80.01
X125.603Y-81.026
X125.603Y-82.042
X125.603Y-83.058
X125.603Y-83.947
X125.603Y-87.122
X125.603Y-88.011
X125.604Y-78.23
X126.14Y-88.79
X126.52Y-102.59
X127.0Y-112.5
X127.0Y-115.5
X127.5Y-106.5
X127.508Y-89.916
X128.524Y-89.916
X128.905Y-80.772
X129.54Y-89.916
X129.921Y-80.264
X130.048Y-81.28
X130.5Y-112.75
X130.556Y-89.916
X130.962Y-85.852
X131.572Y-89.916
X132.588Y-89.916
X133.604Y-89.916
X133.807Y-86.309
X134.0Y-112.75
X134.62Y-89.916
X134.75Y-115.75
X135.128Y-78.994
X135.636Y-89.916
X135.93Y-104.99
X136.63Y-118.75
X136.652Y-89.916
X137.5Y-112.75
X137.668Y-89.916
X138.684Y-89.916
X139.7Y-89.916
X140.716Y-89.916
X141.732Y-89.916
X142.748Y-89.916
X143.764Y-89.916
X143.815Y-111.811
X144.78Y-89.916
X145.796Y-89.916
X146.812Y-89.916
X147.828Y-89.916
X148.844Y-89.916
X149.412Y-110.57
X149.86Y-89.916
X150.05Y-114.02
X151.003Y-89.916
X152.019Y-89.916
X152.3Y-111.77
X153.035Y-89.916
X154.051Y-89.916
X155.194Y-89.916
X156.21Y-89.916
X156.972Y-109.22
X157.226Y-89.916
X158.242Y-89.916
X159.385Y-89.916
X160.401Y-89.916
T4
X81.59Y-87.86
X81.59Y-90.36
X81.59Y-92.86
X81.59Y-95.36
X81.59Y-97.86
X82.25Y-105.29
X82.25Y-107.79
X82.25Y-110.29
X82.25Y-118.5
X82.25Y-121.0
X82.25Y-123.5
X95.0Y-118.5
X95.0Y-121.0
X95.0Y-123.5
X95.025Y-106.0
X95.025Y-108.5
X95.025Y-111.0
X127.5Y-123.025
X130.0Y-123.025
X132.5Y-123.025
X135.0Y-123.025
X137.5Y-123.025
X141.53Y-99.08
X141.53Y-106.7
X144.07Y-99.08
X144.07Y-106.7
X146.61Y-99.08
X146.61Y-106.7
X149.15Y-99.08
X149.15Y-106.7
X151.69Y-99.08
X151.69Y-106.7
X157.91Y-97.37
X157.91Y-99.87
X157.91Y-102.37
X157.91Y-104.87
T5
X145.25Y-123.025
X147.75Y-123.025
X155.25Y-123.025
X157.75Y-123.025
T6
X141.719Y-82.41
X141.719Y-87.516
X146.825Y-82.41
X146.825Y-87.516
T7
X144.272Y-84.963
T2
G00X160.2Y-109.395
M15
G01X160.9Y-109.395
M16
G05
G00X160.2Y-117.745
M15
G01X160.9Y-117.745
M16
G05
T3
G00X157.45Y-111.345
M15
G01X157.65Y-111.345
M16
G05
G00X157.45Y-115.795
M15
G01X157.65Y-115.795
M16
G05
M30
