%TF.GenerationSoftware,KiCad,Pcbnew,9.0.0*%
%TF.CreationDate,2025-11-11T18:57:33-05:00*%
%TF.ProjectId,Agi_WSN,4167695f-5753-44e2-9e6b-696361645f70,rev?*%
%TF.SameCoordinates,Original*%
%TF.FileFunction,Copper,L1,Top*%
%TF.FilePolarity,Positive*%
%FSLAX46Y46*%
G04 Gerber Fmt 4.6, Leading zero omitted, Abs format (unit mm)*
G04 Created by KiCad (PCBNEW 9.0.0) date 2025-11-11 18:57:33*
%MOMM*%
%LPD*%
G01*
G04 APERTURE LIST*
G04 Aperture macros list*
%AMRoundRect*
0 Rectangle with rounded corners*
0 $1 Rounding radius*
0 $2 $3 $4 $5 $6 $7 $8 $9 X,Y pos of 4 corners*
0 Add a 4 corners polygon primitive as box body*
4,1,4,$2,$3,$4,$5,$6,$7,$8,$9,$2,$3,0*
0 Add four circle primitives for the rounded corners*
1,1,$1+$1,$2,$3*
1,1,$1+$1,$4,$5*
1,1,$1+$1,$6,$7*
1,1,$1+$1,$8,$9*
0 Add four rect primitives between the rounded corners*
20,1,$1+$1,$2,$3,$4,$5,0*
20,1,$1+$1,$4,$5,$6,$7,0*
20,1,$1+$1,$6,$7,$8,$9,0*
20,1,$1+$1,$8,$9,$2,$3,0*%
G04 Aperture macros list end*
%TA.AperFunction,SMDPad,CuDef*%
%ADD10RoundRect,0.237500X0.237500X-0.300000X0.237500X0.300000X-0.237500X0.300000X-0.237500X-0.300000X0*%
%TD*%
%TA.AperFunction,SMDPad,CuDef*%
%ADD11RoundRect,0.237500X-0.287500X-0.237500X0.287500X-0.237500X0.287500X0.237500X-0.287500X0.237500X0*%
%TD*%
%TA.AperFunction,SMDPad,CuDef*%
%ADD12RoundRect,0.237500X-0.237500X0.300000X-0.237500X-0.300000X0.237500X-0.300000X0.237500X0.300000X0*%
%TD*%
%TA.AperFunction,SMDPad,CuDef*%
%ADD13RoundRect,0.237500X0.300000X0.237500X-0.300000X0.237500X-0.300000X-0.237500X0.300000X-0.237500X0*%
%TD*%
%TA.AperFunction,SMDPad,CuDef*%
%ADD14R,1.220000X0.970000*%
%TD*%
%TA.AperFunction,SMDPad,CuDef*%
%ADD15RoundRect,0.237500X-0.237500X0.250000X-0.237500X-0.250000X0.237500X-0.250000X0.237500X0.250000X0*%
%TD*%
%TA.AperFunction,SMDPad,CuDef*%
%ADD16RoundRect,0.237500X0.237500X-0.287500X0.237500X0.287500X-0.237500X0.287500X-0.237500X-0.287500X0*%
%TD*%
%TA.AperFunction,SMDPad,CuDef*%
%ADD17R,1.676400X0.482600*%
%TD*%
%TA.AperFunction,SMDPad,CuDef*%
%ADD18R,1.900000X1.100000*%
%TD*%
%TA.AperFunction,SMDPad,CuDef*%
%ADD19R,0.254000X0.711200*%
%TD*%
%TA.AperFunction,SMDPad,CuDef*%
%ADD20R,0.711200X0.254000*%
%TD*%
%TA.AperFunction,SMDPad,CuDef*%
%ADD21R,3.606800X3.606800*%
%TD*%
%TA.AperFunction,SMDPad,CuDef*%
%ADD22R,1.219200X0.279400*%
%TD*%
%TA.AperFunction,SMDPad,CuDef*%
%ADD23RoundRect,0.150000X0.512500X0.150000X-0.512500X0.150000X-0.512500X-0.150000X0.512500X-0.150000X0*%
%TD*%
%TA.AperFunction,SMDPad,CuDef*%
%ADD24RoundRect,0.150000X-0.825000X-0.150000X0.825000X-0.150000X0.825000X0.150000X-0.825000X0.150000X0*%
%TD*%
%TA.AperFunction,SMDPad,CuDef*%
%ADD25RoundRect,0.237500X-0.250000X-0.237500X0.250000X-0.237500X0.250000X0.237500X-0.250000X0.237500X0*%
%TD*%
%TA.AperFunction,ComponentPad*%
%ADD26R,1.580000X1.580000*%
%TD*%
%TA.AperFunction,ComponentPad*%
%ADD27C,1.580000*%
%TD*%
%TA.AperFunction,SMDPad,CuDef*%
%ADD28RoundRect,0.237500X0.237500X-0.250000X0.237500X0.250000X-0.237500X0.250000X-0.237500X-0.250000X0*%
%TD*%
%TA.AperFunction,SMDPad,CuDef*%
%ADD29RoundRect,0.237500X0.250000X0.237500X-0.250000X0.237500X-0.250000X-0.237500X0.250000X-0.237500X0*%
%TD*%
%TA.AperFunction,ComponentPad*%
%ADD30C,1.575000*%
%TD*%
%TA.AperFunction,ComponentPad*%
%ADD31R,1.575000X1.575000*%
%TD*%
%TA.AperFunction,ComponentPad*%
%ADD32C,1.508000*%
%TD*%
%TA.AperFunction,ComponentPad*%
%ADD33R,1.508000X1.508000*%
%TD*%
%TA.AperFunction,SMDPad,CuDef*%
%ADD34RoundRect,0.100000X0.575000X-0.100000X0.575000X0.100000X-0.575000X0.100000X-0.575000X-0.100000X0*%
%TD*%
%TA.AperFunction,HeatsinkPad*%
%ADD35O,1.900000X1.000000*%
%TD*%
%TA.AperFunction,SMDPad,CuDef*%
%ADD36R,1.900000X0.875000*%
%TD*%
%TA.AperFunction,HeatsinkPad*%
%ADD37O,1.250000X1.050000*%
%TD*%
%TA.AperFunction,SMDPad,CuDef*%
%ADD38RoundRect,0.250000X0.700000X-1.200000X0.700000X1.200000X-0.700000X1.200000X-0.700000X-1.200000X0*%
%TD*%
%TA.AperFunction,ComponentPad*%
%ADD39C,2.006600*%
%TD*%
%TA.AperFunction,ComponentPad*%
%ADD40C,1.905000*%
%TD*%
%TA.AperFunction,SMDPad,CuDef*%
%ADD41RoundRect,0.237500X-0.300000X-0.237500X0.300000X-0.237500X0.300000X0.237500X-0.300000X0.237500X0*%
%TD*%
%TA.AperFunction,SMDPad,CuDef*%
%ADD42R,3.660000X2.600000*%
%TD*%
%TA.AperFunction,SMDPad,CuDef*%
%ADD43R,3.540000X2.600000*%
%TD*%
%TA.AperFunction,ViaPad*%
%ADD44C,0.600000*%
%TD*%
%TA.AperFunction,Conductor*%
%ADD45C,0.200000*%
%TD*%
%TA.AperFunction,Conductor*%
%ADD46C,0.321500*%
%TD*%
G04 APERTURE END LIST*
D10*
%TO.P,C31,2*%
%TO.N,GND*%
X135255000Y-86286000D03*
%TO.P,C31,1*%
%TO.N,Net-(C25-Pad2)*%
X135255000Y-88011000D03*
%TD*%
%TO.P,C30,1*%
%TO.N,Net-(U4-RX)*%
X129413000Y-88011000D03*
%TO.P,C30,2*%
%TO.N,GND*%
X129413000Y-86286000D03*
%TD*%
D11*
%TO.P,L5,2,2*%
%TO.N,Net-(C25-Pad2)*%
X133209000Y-88037500D03*
%TO.P,L5,1,1*%
%TO.N,Net-(U4-RX)*%
X131459000Y-88037500D03*
%TD*%
D12*
%TO.P,C22,1*%
%TO.N,Net-(U4-VCAP)*%
X114860000Y-93257500D03*
%TO.P,C22,2*%
%TO.N,GND*%
X114860000Y-94982500D03*
%TD*%
D10*
%TO.P,C17,2*%
%TO.N,GND*%
X123165000Y-81127500D03*
%TO.P,C17,1*%
%TO.N,+3.3V*%
X123165000Y-82852500D03*
%TD*%
%TO.P,C33,2*%
%TO.N,GND*%
X116215000Y-82727500D03*
%TO.P,C33,1*%
%TO.N,Net-(U4-OSCIN)*%
X116215000Y-84452500D03*
%TD*%
D13*
%TO.P,C32,2*%
%TO.N,GND*%
X118852500Y-80590000D03*
%TO.P,C32,1*%
%TO.N,Net-(U4-OSCOUT)*%
X120577500Y-80590000D03*
%TD*%
D14*
%TO.P,Y2,4,GND__1*%
%TO.N,GND*%
X120860000Y-84510000D03*
%TO.P,Y2,3*%
%TO.N,Net-(U4-OSCIN)*%
X118570000Y-84510000D03*
%TO.P,Y2,2,GND*%
%TO.N,GND*%
X118570000Y-82670000D03*
%TO.P,Y2,1*%
%TO.N,Net-(U4-OSCOUT)*%
X120860000Y-82670000D03*
%TD*%
D15*
%TO.P,R15,1*%
%TO.N,/MCU/LED*%
X136000000Y-106462500D03*
%TO.P,R15,2*%
%TO.N,Net-(D3-A)*%
X136000000Y-108287500D03*
%TD*%
D16*
%TO.P,D3,1,K*%
%TO.N,GND*%
X136000000Y-112750000D03*
%TO.P,D3,2,A*%
%TO.N,Net-(D3-A)*%
X136000000Y-111000000D03*
%TD*%
D17*
%TO.P,U5,8,VCC*%
%TO.N,+3.3V*%
X123853000Y-102735000D03*
%TO.P,U5,7,\u002AHOLD*%
%TO.N,HOLD*%
X123853000Y-104005000D03*
%TO.P,U5,6,C*%
%TO.N,SCK*%
X123853000Y-105275000D03*
%TO.P,U5,5,D*%
%TO.N,SI*%
X123853000Y-106545000D03*
%TO.P,U5,4,VSS*%
%TO.N,GND*%
X119027000Y-106545000D03*
%TO.P,U5,3,\u002AW*%
%TO.N,!W*%
X119027000Y-105275000D03*
%TO.P,U5,2,Q*%
%TO.N,SO*%
X119027000Y-104005000D03*
%TO.P,U5,1,\u002AS*%
%TO.N,EEPROM_CS*%
X119027000Y-102735000D03*
%TD*%
D18*
%TO.P,Y1,1*%
%TO.N,Net-(U3-X1)*%
X106533100Y-101755002D03*
%TO.P,Y1,2*%
%TO.N,Net-(U3-X2)*%
X106533100Y-104255002D03*
%TD*%
D19*
%TO.P,U4,1,PA2*%
%TO.N,SWDIO*%
X120509501Y-93549500D03*
%TO.P,U4,2,PA3*%
%TO.N,SWCLK*%
X121009500Y-93549500D03*
%TO.P,U4,3,VDD_1*%
%TO.N,+3.3V*%
X121509499Y-93549500D03*
%TO.P,U4,4,PA0*%
%TO.N,RTC_CS*%
X122009500Y-93549500D03*
%TO.P,U4,5,PA11*%
%TO.N,SI*%
X122509500Y-93549500D03*
%TO.P,U4,6,PA10*%
%TO.N,MFP*%
X123009501Y-93549500D03*
%TO.P,U4,7,PA9*%
%TO.N,/MCU/LED*%
X123509500Y-93549500D03*
%TO.P,U4,8,PA8*%
%TO.N,SO*%
X124009499Y-93549500D03*
D20*
%TO.P,U4,9,PB6*%
%TO.N,SCK*%
X124609000Y-92949999D03*
%TO.P,U4,10,PB12*%
%TO.N,/MCU/DIP0*%
X124609000Y-92450000D03*
%TO.P,U4,11,PB13*%
%TO.N,/MCU/DIP1*%
X124609000Y-91950001D03*
%TO.P,U4,12,PB14*%
%TO.N,UART_RX*%
X124609000Y-91450000D03*
%TO.P,U4,13,PB15*%
%TO.N,UART_TX*%
X124609000Y-90950000D03*
%TO.P,U4,14,NC*%
%TO.N,unconnected-(U4-NC-Pad14)*%
X124609000Y-90449999D03*
%TO.P,U4,15,RX*%
%TO.N,Net-(U4-RX)*%
X124609000Y-89950000D03*
%TO.P,U4,16,EXTGND*%
%TO.N,GND*%
X124609000Y-89450001D03*
D19*
%TO.P,U4,17,TX_HP*%
%TO.N,Net-(U4-TX_HP)*%
X124009499Y-88850500D03*
%TO.P,U4,18,TX*%
%TO.N,unconnected-(U4-TX-Pad18)*%
X123509500Y-88850500D03*
%TO.P,U4,19,VDDRF*%
%TO.N,+3.3V*%
X123009501Y-88850500D03*
%TO.P,U4,20,OSCOUT*%
%TO.N,Net-(U4-OSCOUT)*%
X122509500Y-88850500D03*
%TO.P,U4,21,OSCIN*%
%TO.N,Net-(U4-OSCIN)*%
X122009500Y-88850500D03*
%TO.P,U4,22,PA1*%
%TO.N,!W*%
X121509499Y-88850500D03*
%TO.P,U4,23,PB7*%
%TO.N,HOLD*%
X121009500Y-88850500D03*
%TO.P,U4,24,NRST*%
%TO.N,NRST*%
X120509501Y-88850500D03*
D20*
%TO.P,U4,25,VDDSD*%
%TO.N,+3.3V*%
X119910000Y-89450001D03*
%TO.P,U4,26,VLXSD*%
%TO.N,unconnected-(U4-VLXSD-Pad26)*%
X119910000Y-89950000D03*
%TO.P,U4,27,VSSSD*%
%TO.N,GND*%
X119910000Y-90449999D03*
%TO.P,U4,28,VFBSD*%
%TO.N,+3.3V*%
X119910000Y-90950000D03*
%TO.P,U4,29,VCAP*%
%TO.N,Net-(U4-VCAP)*%
X119910000Y-91450000D03*
%TO.P,U4,30,PB0*%
%TO.N,EEPROM_CS*%
X119910000Y-91950001D03*
%TO.P,U4,31,PB1*%
%TO.N,EXT_CS*%
X119910000Y-92450000D03*
%TO.P,U4,32,PB2*%
%TO.N,ADC_CS*%
X119910000Y-92949999D03*
D21*
%TO.P,U4,33,EPAD*%
%TO.N,GND*%
X122259500Y-91200000D03*
%TD*%
D22*
%TO.P,U3,1,X1*%
%TO.N,Net-(U3-X1)*%
X109539200Y-102505000D03*
%TO.P,U3,2,X2*%
%TO.N,Net-(U3-X2)*%
X109539200Y-103005002D03*
%TO.P,U3,3,VBAT*%
%TO.N,Net-(U3-VBAT)*%
X109539200Y-103505001D03*
%TO.P,U3,4,\u002ACS*%
%TO.N,RTC_CS*%
X109539200Y-104005000D03*
%TO.P,U3,5,VSS*%
%TO.N,GND*%
X109539200Y-104505002D03*
%TO.P,U3,6,SI*%
%TO.N,SI*%
X113527000Y-104505002D03*
%TO.P,U3,7,SO*%
%TO.N,SO*%
X113527000Y-104005000D03*
%TO.P,U3,8,SCK*%
%TO.N,SCK*%
X113527000Y-103505001D03*
%TO.P,U3,9,MFP*%
%TO.N,MFP*%
X113527000Y-103005002D03*
%TO.P,U3,10,VCC*%
%TO.N,+3.3V*%
X113527000Y-102505000D03*
%TD*%
D23*
%TO.P,U2,1,IN*%
%TO.N,+5V*%
X148550000Y-115020000D03*
%TO.P,U2,2,GND*%
%TO.N,GND*%
X148550000Y-114070000D03*
%TO.P,U2,3,EN*%
%TO.N,+5V*%
X148550000Y-113120000D03*
%TO.P,U2,4,BP*%
%TO.N,Net-(U2-BP)*%
X146275000Y-113120000D03*
%TO.P,U2,5,OUT*%
%TO.N,+3.3V*%
X146275000Y-115020000D03*
%TD*%
D24*
%TO.P,U1,1,CH0*%
%TO.N,/Sensors/A*%
X116000000Y-113150000D03*
%TO.P,U1,2,CH1*%
%TO.N,/Sensors/B*%
X116000000Y-114420000D03*
%TO.P,U1,3,CH2*%
%TO.N,/Sensors/Therm*%
X116000000Y-115690000D03*
%TO.P,U1,4,CH3*%
%TO.N,Sensor C(5V)*%
X116000000Y-116960000D03*
%TO.P,U1,5,CH4*%
%TO.N,Sensor C(3.3V)*%
X116000000Y-118230000D03*
%TO.P,U1,6,CH5*%
%TO.N,unconnected-(U1-CH5-Pad6)*%
X116000000Y-119500000D03*
%TO.P,U1,7,CH6*%
%TO.N,unconnected-(U1-CH6-Pad7)*%
X116000000Y-120770000D03*
%TO.P,U1,8,CH7*%
%TO.N,unconnected-(U1-CH7-Pad8)*%
X116000000Y-122040000D03*
%TO.P,U1,9,DGND*%
%TO.N,GND*%
X120950000Y-122040000D03*
%TO.P,U1,10,~{CS}/SHDN*%
%TO.N,ADC_CS*%
X120950000Y-120770000D03*
%TO.P,U1,11,Din*%
%TO.N,SI*%
X120950000Y-119500000D03*
%TO.P,U1,12,Dout*%
%TO.N,SO*%
X120950000Y-118230000D03*
%TO.P,U1,13,CLK*%
%TO.N,SCK*%
X120950000Y-116960000D03*
%TO.P,U1,14,AGND*%
%TO.N,GND*%
X120950000Y-115690000D03*
%TO.P,U1,15,Vref*%
%TO.N,+3.3V*%
X120950000Y-114420000D03*
%TO.P,U1,16,Vdd*%
X120950000Y-113150000D03*
%TD*%
D25*
%TO.P,TH1,1*%
%TO.N,Net-(C6-Pad1)*%
X102562500Y-125095000D03*
%TO.P,TH1,2*%
%TO.N,GND*%
X104387500Y-125095000D03*
%TD*%
D26*
%TO.P,S1,1A*%
%TO.N,/MCU/DIP0*%
X141530000Y-106700000D03*
D27*
%TO.P,S1,1B*%
%TO.N,GND*%
X141530000Y-99080000D03*
%TO.P,S1,2A*%
%TO.N,/MCU/DIP1*%
X144070000Y-106700000D03*
%TO.P,S1,2B*%
%TO.N,GND*%
X144070000Y-99080000D03*
%TO.P,S1,3A*%
%TO.N,unconnected-(S1-Pad3A)*%
X146610000Y-106700000D03*
%TO.P,S1,3B*%
%TO.N,GND*%
X146610000Y-99080000D03*
%TO.P,S1,4A*%
%TO.N,unconnected-(S1-Pad4A)*%
X149150000Y-106700000D03*
%TO.P,S1,4B*%
%TO.N,GND*%
X149150000Y-99080000D03*
%TO.P,S1,5A*%
%TO.N,unconnected-(S1-Pad5A)*%
X151690000Y-106700000D03*
%TO.P,S1,5B*%
%TO.N,GND*%
X151690000Y-99080000D03*
%TD*%
D28*
%TO.P,R14,1*%
%TO.N,+3.3V*%
X86530000Y-92120000D03*
%TO.P,R14,2*%
%TO.N,EXT_CS*%
X86530000Y-90295000D03*
%TD*%
D29*
%TO.P,R13,1*%
%TO.N,+3.3V*%
X125482500Y-117700000D03*
%TO.P,R13,2*%
%TO.N,ADC_CS*%
X123657500Y-117700000D03*
%TD*%
D25*
%TO.P,R12,1*%
%TO.N,+3.3V*%
X106727500Y-107010000D03*
%TO.P,R12,2*%
%TO.N,RTC_CS*%
X108552500Y-107010000D03*
%TD*%
%TO.P,R11,1*%
%TO.N,+3.3V*%
X116757500Y-108360000D03*
%TO.P,R11,2*%
%TO.N,EEPROM_CS*%
X118582500Y-108360000D03*
%TD*%
D15*
%TO.P,R10,1*%
%TO.N,+3.3V*%
X129000000Y-106462500D03*
%TO.P,R10,2*%
%TO.N,Net-(D2-A)*%
X129000000Y-108287500D03*
%TD*%
D25*
%TO.P,R9,1*%
%TO.N,Net-(C6-Pad1)*%
X106562500Y-122095000D03*
%TO.P,R9,2*%
%TO.N,/Sensors/Therm*%
X108387500Y-122095000D03*
%TD*%
D15*
%TO.P,R8,1*%
%TO.N,+5V*%
X132500000Y-106462500D03*
%TO.P,R8,2*%
%TO.N,Net-(D1-A)*%
X132500000Y-108287500D03*
%TD*%
D25*
%TO.P,R7,1*%
%TO.N,+3.3V*%
X102562500Y-122095000D03*
%TO.P,R7,2*%
%TO.N,Net-(C6-Pad1)*%
X104387500Y-122095000D03*
%TD*%
%TO.P,R6,1*%
%TO.N,Net-(C4-Pad1)*%
X106650000Y-116095000D03*
%TO.P,R6,2*%
%TO.N,/Sensors/B*%
X108475000Y-116095000D03*
%TD*%
%TO.P,R5,1*%
%TO.N,Net-(C4-Pad1)*%
X102650000Y-119095000D03*
%TO.P,R5,2*%
%TO.N,GND*%
X104475000Y-119095000D03*
%TD*%
%TO.P,R4,1*%
%TO.N,Input A*%
X102650000Y-116095000D03*
%TO.P,R4,2*%
%TO.N,Net-(C4-Pad1)*%
X104475000Y-116095000D03*
%TD*%
%TO.P,R3,1*%
%TO.N,Net-(C2-Pad1)*%
X106562500Y-110095000D03*
%TO.P,R3,2*%
%TO.N,/Sensors/A*%
X108387500Y-110095000D03*
%TD*%
%TO.P,R2,1*%
%TO.N,Net-(C2-Pad1)*%
X102562500Y-113095000D03*
%TO.P,R2,2*%
%TO.N,GND*%
X104387500Y-113095000D03*
%TD*%
%TO.P,R1,1*%
%TO.N,Input B*%
X102562500Y-110095000D03*
%TO.P,R1,2*%
%TO.N,Net-(C2-Pad1)*%
X104387500Y-110095000D03*
%TD*%
D16*
%TO.P,L4,1,1*%
%TO.N,Net-(U4-TX_HP)*%
X127635000Y-82536000D03*
%TO.P,L4,2,2*%
%TO.N,+3.3V*%
X127635000Y-80786000D03*
%TD*%
%TO.P,L3,1,1*%
%TO.N,Net-(U4-TX_HP)*%
X129413000Y-84441000D03*
%TO.P,L3,2,2*%
%TO.N,Net-(C27-Pad1)*%
X129413000Y-82691000D03*
%TD*%
D11*
%TO.P,L2,1,1*%
%TO.N,Net-(C27-Pad1)*%
X131586000Y-82677000D03*
%TO.P,L2,2,2*%
%TO.N,Net-(C24-Pad1)*%
X133336000Y-82677000D03*
%TD*%
%TO.P,L1,1,1*%
%TO.N,Net-(C24-Pad1)*%
X135269000Y-84328000D03*
%TO.P,L1,2,2*%
%TO.N,Net-(C23-Pad1)*%
X137019000Y-84328000D03*
%TD*%
D30*
%TO.P,J10,2,2*%
%TO.N,GND*%
X155250000Y-123025000D03*
D31*
%TO.P,J10,1,1*%
%TO.N,+5V*%
X157750000Y-123025000D03*
%TD*%
D30*
%TO.P,J9,2,2*%
%TO.N,GND*%
X145250000Y-123025000D03*
D31*
%TO.P,J9,1,1*%
%TO.N,+3.3V*%
X147750000Y-123025000D03*
%TD*%
D32*
%TO.P,J8,3,3*%
%TO.N,SO*%
X81590000Y-92860000D03*
%TO.P,J8,4,4*%
%TO.N,EXT_CS*%
X81590000Y-90360000D03*
%TO.P,J8,2,2*%
%TO.N,SCK*%
X81590000Y-95360000D03*
D33*
%TO.P,J8,1,1*%
%TO.N,SI*%
X81590000Y-97860000D03*
D32*
%TO.P,J8,5,5*%
%TO.N,GND*%
X81590000Y-87860000D03*
%TD*%
%TO.P,J7,3,3*%
%TO.N,GND*%
X82250000Y-123500000D03*
%TO.P,J7,2,2*%
%TO.N,Sensor C(5V)*%
X82250000Y-121000000D03*
D33*
%TO.P,J7,1,1*%
%TO.N,+5V*%
X82250000Y-118500000D03*
%TD*%
D32*
%TO.P,J6,3,3*%
%TO.N,GND*%
X82250000Y-110290000D03*
%TO.P,J6,2,2*%
%TO.N,Input A*%
X82250000Y-107790000D03*
D33*
%TO.P,J6,1,1*%
%TO.N,+3.3V*%
X82250000Y-105290000D03*
%TD*%
D32*
%TO.P,J5,3,3*%
%TO.N,GND*%
X95025000Y-111000000D03*
%TO.P,J5,2,2*%
%TO.N,Input B*%
X95025000Y-108500000D03*
D33*
%TO.P,J5,1,1*%
%TO.N,+3.3V*%
X95025000Y-106000000D03*
%TD*%
D32*
%TO.P,J3,3,3*%
%TO.N,SWDIO*%
X132500000Y-123025000D03*
%TO.P,J3,4,4*%
%TO.N,SWCLK*%
X130000000Y-123025000D03*
%TO.P,J3,2,2*%
%TO.N,NRST*%
X135000000Y-123025000D03*
D33*
%TO.P,J3,1,1*%
%TO.N,+3.3V*%
X137500000Y-123025000D03*
D32*
%TO.P,J3,5,5*%
%TO.N,GND*%
X127500000Y-123025000D03*
%TD*%
D34*
%TO.P,J2,1,VBUS*%
%TO.N,+5V*%
X157875000Y-112270000D03*
%TO.P,J2,2,D-*%
%TO.N,unconnected-(J2-D--Pad2)*%
X157875000Y-112920000D03*
%TO.P,J2,3,D+*%
%TO.N,unconnected-(J2-D+-Pad3)*%
X157875000Y-113570000D03*
%TO.P,J2,4,ID*%
%TO.N,unconnected-(J2-ID-Pad4)*%
X157875000Y-114220000D03*
%TO.P,J2,5,GND*%
%TO.N,GND*%
X157875000Y-114870000D03*
D35*
%TO.P,J2,6,Shield*%
X160550000Y-117745000D03*
D36*
X160550000Y-117307500D03*
D37*
X157550000Y-115795000D03*
D38*
X160550000Y-113570000D03*
D37*
X157550000Y-111345000D03*
D36*
X160550000Y-109832500D03*
D35*
X160550000Y-109395000D03*
%TD*%
D39*
%TO.P,J1,1,1*%
%TO.N,Net-(C25-Pad2)*%
X144272000Y-84963000D03*
D40*
%TO.P,J1,2*%
%TO.N,GND*%
X141719300Y-82410300D03*
%TO.P,J1,3*%
X141719300Y-87515700D03*
%TO.P,J1,4*%
X146824700Y-87515700D03*
%TO.P,J1,5*%
X146824700Y-82410300D03*
%TD*%
D16*
%TO.P,D2,1,K*%
%TO.N,GND*%
X129000000Y-112750000D03*
%TO.P,D2,2,A*%
%TO.N,Net-(D2-A)*%
X129000000Y-111000000D03*
%TD*%
%TO.P,D1,1,K*%
%TO.N,GND*%
X132500000Y-112750000D03*
%TO.P,D1,2,A*%
%TO.N,Net-(D1-A)*%
X132500000Y-111000000D03*
%TD*%
D41*
%TO.P,C34,1*%
%TO.N,NRST*%
X134887500Y-117500000D03*
%TO.P,C34,2*%
%TO.N,GND*%
X136612500Y-117500000D03*
%TD*%
%TO.P,C29,1*%
%TO.N,+3.3V*%
X127661500Y-78994000D03*
%TO.P,C29,2*%
%TO.N,GND*%
X129386500Y-78994000D03*
%TD*%
%TO.P,C28,1*%
%TO.N,+3.3V*%
X131612500Y-78994000D03*
%TO.P,C28,2*%
%TO.N,GND*%
X133337500Y-78994000D03*
%TD*%
%TO.P,C27,1*%
%TO.N,Net-(C27-Pad1)*%
X131598500Y-80772000D03*
%TO.P,C27,2*%
%TO.N,GND*%
X133323500Y-80772000D03*
%TD*%
%TO.P,C26,1*%
%TO.N,Net-(C24-Pad1)*%
X135281500Y-82677000D03*
%TO.P,C26,2*%
%TO.N,Net-(C23-Pad1)*%
X137006500Y-82677000D03*
%TD*%
D12*
%TO.P,C25,1*%
%TO.N,Net-(C23-Pad1)*%
X138811000Y-82576500D03*
%TO.P,C25,2*%
%TO.N,Net-(C25-Pad2)*%
X138811000Y-84301500D03*
%TD*%
D13*
%TO.P,C24,1*%
%TO.N,Net-(C24-Pad1)*%
X133323500Y-84328000D03*
%TO.P,C24,2*%
%TO.N,GND*%
X131598500Y-84328000D03*
%TD*%
%TO.P,C23,1*%
%TO.N,Net-(C23-Pad1)*%
X137006500Y-80772000D03*
%TO.P,C23,2*%
%TO.N,GND*%
X135281500Y-80772000D03*
%TD*%
%TO.P,C19,1*%
%TO.N,+3.3V*%
X119122000Y-96700000D03*
%TO.P,C19,2*%
%TO.N,GND*%
X117397000Y-96700000D03*
%TD*%
%TO.P,C18,1*%
%TO.N,+3.3V*%
X116622000Y-87700000D03*
%TO.P,C18,2*%
%TO.N,GND*%
X114897000Y-87700000D03*
%TD*%
D10*
%TO.P,C16,1*%
%TO.N,+3.3V*%
X114880000Y-91352500D03*
%TO.P,C16,2*%
%TO.N,GND*%
X114880000Y-89627500D03*
%TD*%
D13*
%TO.P,C15,1*%
%TO.N,+3.3V*%
X122302500Y-100640000D03*
%TO.P,C15,2*%
%TO.N,GND*%
X120577500Y-100640000D03*
%TD*%
D12*
%TO.P,C14,1*%
%TO.N,Net-(U3-X2)*%
X104033100Y-104642502D03*
%TO.P,C14,2*%
%TO.N,GND*%
X104033100Y-106367502D03*
%TD*%
D10*
%TO.P,C13,1*%
%TO.N,Net-(U3-X1)*%
X104033100Y-101730002D03*
%TO.P,C13,2*%
%TO.N,GND*%
X104033100Y-100005002D03*
%TD*%
D13*
%TO.P,C12,1*%
%TO.N,+3.3V*%
X112395600Y-100505002D03*
%TO.P,C12,2*%
%TO.N,GND*%
X110670600Y-100505002D03*
%TD*%
D10*
%TO.P,C11,1*%
%TO.N,+3.3V*%
X143912500Y-114932500D03*
%TO.P,C11,2*%
%TO.N,GND*%
X143912500Y-113207500D03*
%TD*%
D41*
%TO.P,C10,1*%
%TO.N,Net-(U2-BP)*%
X146300000Y-110570000D03*
%TO.P,C10,2*%
%TO.N,GND*%
X148025000Y-110570000D03*
%TD*%
D10*
%TO.P,C9,1*%
%TO.N,+5V*%
X152300000Y-114932500D03*
%TO.P,C9,2*%
%TO.N,GND*%
X152300000Y-113207500D03*
%TD*%
D41*
%TO.P,C8,1*%
%TO.N,+3.3V*%
X124612500Y-111095000D03*
%TO.P,C8,2*%
%TO.N,GND*%
X126337500Y-111095000D03*
%TD*%
D12*
%TO.P,C7,1*%
%TO.N,/Sensors/Therm*%
X110562500Y-122732500D03*
%TO.P,C7,2*%
%TO.N,GND*%
X110562500Y-124457500D03*
%TD*%
D41*
%TO.P,C6,1*%
%TO.N,Net-(C6-Pad1)*%
X106612500Y-125095000D03*
%TO.P,C6,2*%
%TO.N,GND*%
X108337500Y-125095000D03*
%TD*%
D12*
%TO.P,C5,1*%
%TO.N,/Sensors/B*%
X110562500Y-116732500D03*
%TO.P,C5,2*%
%TO.N,GND*%
X110562500Y-118457500D03*
%TD*%
D41*
%TO.P,C4,1*%
%TO.N,Net-(C4-Pad1)*%
X106700000Y-119095000D03*
%TO.P,C4,2*%
%TO.N,GND*%
X108425000Y-119095000D03*
%TD*%
D12*
%TO.P,C3,1*%
%TO.N,/Sensors/A*%
X110475000Y-110732500D03*
%TO.P,C3,2*%
%TO.N,GND*%
X110475000Y-112457500D03*
%TD*%
D41*
%TO.P,C2,1*%
%TO.N,Net-(C2-Pad1)*%
X106612500Y-113095000D03*
%TO.P,C2,2*%
%TO.N,GND*%
X108337500Y-113095000D03*
%TD*%
%TO.P,C1,1*%
%TO.N,+3.3V*%
X124612500Y-114095000D03*
%TO.P,C1,2*%
%TO.N,GND*%
X126337500Y-114095000D03*
%TD*%
D42*
%TO.P,BT1,N*%
%TO.N,GND*%
X90030000Y-91010000D03*
D43*
%TO.P,BT1,P*%
%TO.N,Net-(U3-VBAT)*%
X105830000Y-91010000D03*
%TD*%
D32*
%TO.P,J4,3,3*%
%TO.N,GND*%
X95000000Y-123500000D03*
%TO.P,J4,2,2*%
%TO.N,Sensor C(3.3V)*%
X95000000Y-121000000D03*
D33*
%TO.P,J4,1,1*%
%TO.N,+3.3V*%
X95000000Y-118500000D03*
%TD*%
D32*
%TO.P,J11,3,3*%
%TO.N,UART_TX*%
X157910000Y-99870000D03*
%TO.P,J11,4,4*%
%TO.N,GND*%
X157910000Y-97370000D03*
%TO.P,J11,2,2*%
%TO.N,UART_RX*%
X157910000Y-102370000D03*
D33*
%TO.P,J11,1,1*%
%TO.N,+3.3V*%
X157910000Y-104870000D03*
%TD*%
D44*
%TO.N,GND*%
X125603518Y-78230272D03*
X120954800Y-92557600D03*
X120853200Y-89763600D03*
X123698000Y-92557600D03*
X122259500Y-91200000D03*
%TO.N,+3.3V*%
X121564400Y-102057200D03*
X124256800Y-115925600D03*
%TO.N,GND*%
X143814800Y-111810800D03*
X133807200Y-86309200D03*
X130962400Y-85852000D03*
X135128000Y-78994000D03*
%TO.N,+3.3V*%
X130048000Y-81280000D03*
%TO.N,GND*%
X129921000Y-80264000D03*
%TO.N,+3.3V*%
X128905000Y-80772000D03*
%TO.N,GND*%
X159385000Y-89916000D03*
X160401000Y-89916000D03*
X155194000Y-89916000D03*
X158242000Y-89916000D03*
X156210000Y-89916000D03*
X157226000Y-89916000D03*
X151003000Y-89916000D03*
X154051000Y-89916000D03*
X152019000Y-89916000D03*
X153035000Y-89916000D03*
X146812000Y-89916000D03*
X149860000Y-89916000D03*
X147828000Y-89916000D03*
X148844000Y-89916000D03*
X142748000Y-89916000D03*
X145796000Y-89916000D03*
X143764000Y-89916000D03*
X144780000Y-89916000D03*
X138684000Y-89916000D03*
X141732000Y-89916000D03*
X139700000Y-89916000D03*
X140716000Y-89916000D03*
X134620000Y-89916000D03*
X137668000Y-89916000D03*
X135636000Y-89916000D03*
X136652000Y-89916000D03*
X130556000Y-89916000D03*
X133604000Y-89916000D03*
X131572000Y-89916000D03*
X132588000Y-89916000D03*
X128524000Y-89916000D03*
X129540000Y-89916000D03*
X127508000Y-89916000D03*
X125603000Y-88011000D03*
X125603000Y-83058000D03*
X125603000Y-87122000D03*
X125603000Y-83947000D03*
X125603000Y-82042000D03*
X125603000Y-81026000D03*
X125603000Y-80010000D03*
X125603000Y-79121000D03*
X156972000Y-109220000D03*
X136630000Y-118750000D03*
%TO.N,+3.3V*%
X115200000Y-107070000D03*
%TO.N,ADC_CS*%
X117330000Y-103190000D03*
X116910000Y-100300000D03*
%TO.N,Net-(U3-VBAT)*%
X111071734Y-102898266D03*
%TO.N,GND*%
X89150000Y-93070000D03*
%TO.N,Net-(U3-VBAT)*%
X109500000Y-91200000D03*
%TO.N,+3.3V*%
X124240000Y-83950000D03*
X112490000Y-91460000D03*
%TO.N,/MCU/LED*%
X126520000Y-102590000D03*
X135930000Y-104990000D03*
X123000000Y-99280000D03*
%TO.N,GND*%
X123170000Y-79690000D03*
%TO.N,+3.3V*%
X106760000Y-105680000D03*
X86530000Y-93390000D03*
%TO.N,GND*%
X126140000Y-88790000D03*
%TO.N,!W*%
X121410000Y-105180000D03*
%TO.N,HOLD*%
X125530000Y-99140000D03*
%TO.N,SO*%
X116027000Y-104005000D03*
X119360000Y-118240000D03*
%TO.N,SI*%
X118680000Y-119520000D03*
%TO.N,ADC_CS*%
X123600000Y-120020000D03*
%TO.N,EEPROM_CS*%
X118035735Y-99785735D03*
X116530000Y-93610000D03*
%TO.N,EXT_CS*%
X117900000Y-93410000D03*
%TO.N,ADC_CS*%
X115840000Y-97010000D03*
%TO.N,GND*%
X118240000Y-95700000D03*
%TO.N,RTC_CS*%
X110960000Y-103930000D03*
%TO.N,MFP*%
X115280000Y-103000000D03*
%TO.N,RTC_CS*%
X115020000Y-97730000D03*
%TO.N,SI*%
X120670000Y-98000000D03*
%TO.N,MFP*%
X121640000Y-97720000D03*
%TO.N,/MCU/LED*%
X122970000Y-97390000D03*
%TO.N,SWDIO*%
X119270000Y-94640000D03*
%TO.N,SWCLK*%
X120740000Y-95360000D03*
%TO.N,+3.3V*%
X119140000Y-95580000D03*
%TO.N,GND*%
X112430000Y-95020000D03*
X116220000Y-90080000D03*
X116910000Y-89290000D03*
%TO.N,NRST*%
X119210000Y-87750000D03*
%TO.N,HOLD*%
X118710000Y-85870000D03*
%TO.N,!W*%
X119920000Y-86240000D03*
%TO.N,GND*%
X113235000Y-82780000D03*
X118795000Y-79090000D03*
%TO.N,+3.3V*%
X117899500Y-87730000D03*
%TO.N,GND*%
X113879500Y-86450000D03*
%TO.N,SI*%
X115777000Y-109505000D03*
%TO.N,+3.3V*%
X125500000Y-109750000D03*
%TO.N,GND*%
X117277000Y-106505000D03*
X119310000Y-101500000D03*
%TO.N,NRST*%
X134750000Y-115750000D03*
%TO.N,+3.3V*%
X127500000Y-106500000D03*
%TO.N,GND*%
X149412500Y-110570000D03*
X150050000Y-114020000D03*
X152300000Y-111770000D03*
X137500000Y-112750000D03*
X134000000Y-112750000D03*
X130500000Y-112750000D03*
X127000000Y-112500000D03*
X127000000Y-115500000D03*
X123190000Y-115690000D03*
X123000000Y-122000000D03*
%TO.N,+3.3V*%
X112395600Y-99136400D03*
%TO.N,GND*%
X109527000Y-106005000D03*
X109527000Y-100505000D03*
X105527000Y-99505000D03*
X105527000Y-106505000D03*
X109500000Y-114500000D03*
X105500000Y-114500000D03*
X110562500Y-126062500D03*
X104387500Y-126387500D03*
%TO.N,+3.3V*%
X101000000Y-122500000D03*
%TO.N,GND*%
X105750000Y-117750000D03*
X109250000Y-117500000D03*
%TO.N,/Sensors/Therm*%
X113000000Y-122500000D03*
X113500000Y-116500000D03*
%TO.N,GND*%
X108337500Y-126337500D03*
%TD*%
D45*
%TO.N,+5V*%
X157875000Y-112270000D02*
X156516800Y-112270000D01*
%TO.N,+3.3V*%
X125482500Y-117151300D02*
X124256800Y-115925600D01*
X125482500Y-117700000D02*
X125482500Y-117151300D01*
X122302500Y-101319100D02*
X121564400Y-102057200D01*
X122302500Y-100640000D02*
X122302500Y-101319100D01*
X124612500Y-115569900D02*
X124256800Y-115925600D01*
X124612500Y-114095000D02*
X124612500Y-115569900D01*
%TO.N,GND*%
X143912500Y-111908500D02*
X143814800Y-111810800D01*
X143912500Y-113207500D02*
X143912500Y-111908500D01*
X133830400Y-86286000D02*
X133807200Y-86309200D01*
X135255000Y-86286000D02*
X133830400Y-86286000D01*
X130528400Y-86286000D02*
X130962400Y-85852000D01*
X129413000Y-86286000D02*
X130528400Y-86286000D01*
X131598500Y-85215900D02*
X130962400Y-85852000D01*
X131598500Y-84328000D02*
X131598500Y-85215900D01*
D46*
X133337500Y-78994000D02*
X135128000Y-78994000D01*
D45*
%TO.N,+3.3V*%
X130048000Y-80986943D02*
X130048000Y-81280000D01*
X131612500Y-79422443D02*
X130048000Y-80986943D01*
X131612500Y-78994000D02*
X131612500Y-79422443D01*
%TO.N,GND*%
X129386500Y-79729500D02*
X129921000Y-80264000D01*
X129386500Y-78994000D02*
X129386500Y-79729500D01*
D46*
%TO.N,+3.3V*%
X128891000Y-80786000D02*
X128905000Y-80772000D01*
X127635000Y-80786000D02*
X128891000Y-80786000D01*
X127635000Y-79057977D02*
G75*
G02*
X127661507Y-78994007I90500J-23D01*
G01*
X127635000Y-80786000D02*
X127635000Y-79057977D01*
%TO.N,Net-(U4-TX_HP)*%
X127724803Y-82752802D02*
X129413000Y-84441000D01*
X127635000Y-82536000D02*
G75*
G03*
X127724804Y-82752801I306600J0D01*
G01*
X125100849Y-86227152D02*
X124587000Y-86741000D01*
X129413000Y-84441000D02*
G75*
G03*
X125100849Y-86227152I0J-6098300D01*
G01*
%TO.N,GND*%
X133323500Y-79027799D02*
G75*
G02*
X133337500Y-78994000I47800J-1D01*
G01*
X133323500Y-80772000D02*
X133323500Y-79027799D01*
X135281500Y-80772000D02*
X133323500Y-80772000D01*
%TO.N,Net-(C25-Pad2)*%
X140408002Y-84963000D02*
X144272000Y-84963000D01*
X138811000Y-84301500D02*
G75*
G03*
X140408002Y-84962999I1597000J1597000D01*
G01*
X139319000Y-86106000D02*
G75*
G02*
X142078446Y-84963019I2759400J-2759400D01*
G01*
X138940643Y-86484356D02*
X139319000Y-86106000D01*
X142078446Y-84963000D02*
X144272000Y-84963000D01*
X135255000Y-88011000D02*
G75*
G03*
X138940646Y-86484359I0J5212300D01*
G01*
%TO.N,Net-(C23-Pad1)*%
X137006500Y-82677000D02*
X138837500Y-82677000D01*
X137019000Y-82707178D02*
G75*
G03*
X137006493Y-82677007I-42700J-22D01*
G01*
X137019000Y-84328000D02*
X137019000Y-82707178D01*
X137006500Y-80772000D02*
X137006500Y-82677000D01*
%TO.N,Net-(C24-Pad1)*%
X135269000Y-82707178D02*
G75*
G02*
X135281507Y-82677007I42700J-22D01*
G01*
X135269000Y-84328000D02*
X135269000Y-82707178D01*
X133323500Y-84328000D02*
X135269000Y-84328000D01*
X133336000Y-84297822D02*
G75*
G02*
X133323493Y-84327993I-42700J22D01*
G01*
X133336000Y-82677000D02*
X133336000Y-84297822D01*
%TO.N,Net-(C27-Pad1)*%
X131598500Y-82646822D02*
G75*
G02*
X131585993Y-82676993I-42700J22D01*
G01*
X131598500Y-80772000D02*
X131598500Y-82646822D01*
X131552201Y-82691000D02*
G75*
G03*
X131586000Y-82677000I-1J47800D01*
G01*
X129413000Y-82691000D02*
X131552201Y-82691000D01*
%TO.N,Net-(U4-TX_HP)*%
X124009499Y-88850500D02*
X124009499Y-88135211D01*
X124009499Y-88135211D02*
G75*
G02*
X124586997Y-86740997I1971701J11D01*
G01*
%TO.N,Net-(C25-Pad2)*%
X135255000Y-88011000D02*
X135324108Y-88011000D01*
X135228500Y-88037500D02*
X135255000Y-88011000D01*
X133209000Y-88037500D02*
X135228500Y-88037500D01*
%TO.N,Net-(U4-RX)*%
X131432500Y-88011000D02*
X131459000Y-88037500D01*
X129413000Y-88011000D02*
X131432500Y-88011000D01*
X128477144Y-88011000D02*
X129413000Y-88011000D01*
X126538144Y-89950000D02*
X128477144Y-88011000D01*
X124609000Y-89950000D02*
X126538144Y-89950000D01*
D45*
%TO.N,/MCU/DIP0*%
X128518000Y-92450000D02*
X141530000Y-105462000D01*
X141530000Y-105462000D02*
X141530000Y-106700000D01*
X124609000Y-92450000D02*
X128518000Y-92450000D01*
%TO.N,UART_TX*%
X130828000Y-90950000D02*
X124609000Y-90950000D01*
X152278550Y-96393000D02*
X136271000Y-96393000D01*
X136271000Y-96393000D02*
X130828000Y-90950000D01*
X155755550Y-99870000D02*
X152278550Y-96393000D01*
X157910000Y-99870000D02*
X155755550Y-99870000D01*
%TO.N,UART_RX*%
X157440000Y-102370000D02*
X157910000Y-102370000D01*
X135636000Y-97028000D02*
X152098000Y-97028000D01*
X152098000Y-97028000D02*
X157440000Y-102370000D01*
X125265600Y-91549001D02*
X130157001Y-91549001D01*
X125265600Y-91522001D02*
X125265600Y-91549001D01*
X124681001Y-91522001D02*
X125265600Y-91522001D01*
X124609000Y-91450000D02*
X124681001Y-91522001D01*
X130157001Y-91549001D02*
X135636000Y-97028000D01*
%TO.N,GND*%
X157550000Y-109798000D02*
X156972000Y-109220000D01*
X157550000Y-111345000D02*
X157550000Y-109798000D01*
X160628618Y-110146475D02*
X160654912Y-110169000D01*
X160550000Y-110067857D02*
X160628618Y-110146475D01*
X160550000Y-109832500D02*
X160550000Y-110067857D01*
X159062500Y-109832500D02*
X157550000Y-111345000D01*
X160550000Y-109832500D02*
X159062500Y-109832500D01*
X158325000Y-111345000D02*
X157550000Y-111345000D01*
X160550000Y-113570000D02*
X158325000Y-111345000D01*
X157875000Y-114870000D02*
X159250000Y-114870000D01*
X159250000Y-114870000D02*
X160550000Y-113570000D01*
X157875000Y-115470000D02*
X157550000Y-115795000D01*
X157875000Y-114870000D02*
X157875000Y-115470000D01*
X158600000Y-115795000D02*
X157550000Y-115795000D01*
X160550000Y-117745000D02*
X158600000Y-115795000D01*
%TO.N,+5V*%
X135190000Y-114570000D02*
X138970000Y-114570000D01*
X134750000Y-114130000D02*
X135190000Y-114570000D01*
X134750000Y-108712500D02*
X134750000Y-114130000D01*
X138970000Y-114570000D02*
X144550000Y-108990000D01*
X132500000Y-106462500D02*
X134750000Y-108712500D01*
X144550000Y-108990000D02*
X150980000Y-108990000D01*
X152300000Y-115120000D02*
X152300000Y-114932500D01*
%TO.N,GND*%
X136612500Y-118732500D02*
X136630000Y-118750000D01*
X136612500Y-117500000D02*
X136612500Y-118732500D01*
%TO.N,+3.3V*%
X116490000Y-108360000D02*
X115200000Y-107070000D01*
X116757500Y-108360000D02*
X116490000Y-108360000D01*
%TO.N,ADC_CS*%
X116910000Y-100300000D02*
X116910000Y-102770000D01*
X116910000Y-102770000D02*
X117330000Y-103190000D01*
%TO.N,EEPROM_CS*%
X118460000Y-102168000D02*
X119027000Y-102735000D01*
X118035735Y-99785735D02*
X118460000Y-100210000D01*
X118460000Y-100210000D02*
X118460000Y-102168000D01*
%TO.N,ADC_CS*%
X119580001Y-92949999D02*
X119910000Y-92949999D01*
X115840000Y-96690000D02*
X119580001Y-92949999D01*
X115840000Y-97010000D02*
X115840000Y-96690000D01*
%TO.N,SCK*%
X111145000Y-101755000D02*
X112526999Y-103136999D01*
X109527000Y-101755000D02*
X111145000Y-101755000D01*
X103132000Y-95360000D02*
X109527000Y-101755000D01*
X112526999Y-103136999D02*
X112526999Y-103505001D01*
X81590000Y-95360000D02*
X103132000Y-95360000D01*
%TO.N,Net-(U3-VBAT)*%
X110464999Y-103505001D02*
X109539200Y-103505001D01*
X111071734Y-102898266D02*
X110464999Y-103505001D01*
%TO.N,GND*%
X90030000Y-92190000D02*
X89150000Y-93070000D01*
X90030000Y-91010000D02*
X90030000Y-92190000D01*
%TO.N,Net-(U3-VBAT)*%
X109310000Y-91010000D02*
X109500000Y-91200000D01*
X105830000Y-91010000D02*
X109310000Y-91010000D01*
%TO.N,+3.3V*%
X123165000Y-82875000D02*
X124240000Y-83950000D01*
X123165000Y-82852500D02*
X123165000Y-82875000D01*
X112597500Y-91352500D02*
X112490000Y-91460000D01*
X114880000Y-91352500D02*
X112597500Y-91352500D01*
%TO.N,/MCU/LED*%
X135930000Y-104990000D02*
X135930000Y-106392500D01*
X126640000Y-102480000D02*
X126530000Y-102590000D01*
X126640000Y-98540000D02*
X126640000Y-102480000D01*
X126020000Y-97920000D02*
X126640000Y-98540000D01*
X125970000Y-97870000D02*
X126020000Y-97920000D01*
X124700000Y-97870000D02*
X125970000Y-97870000D01*
X123000000Y-99280000D02*
X123290000Y-99280000D01*
X126530000Y-102590000D02*
X126520000Y-102590000D01*
X123290000Y-99280000D02*
X124700000Y-97870000D01*
X135930000Y-106392500D02*
X136000000Y-106462500D01*
%TO.N,GND*%
X123165000Y-79695000D02*
X123170000Y-79690000D01*
X123165000Y-81127500D02*
X123165000Y-79695000D01*
%TO.N,RTC_CS*%
X122009500Y-95747600D02*
X122009500Y-93549500D01*
X120027100Y-97730000D02*
X122009500Y-95747600D01*
X115020000Y-97730000D02*
X120027100Y-97730000D01*
%TO.N,EEPROM_CS*%
X121495000Y-102735000D02*
X119027000Y-102735000D01*
X122340000Y-103580000D02*
X121495000Y-102735000D01*
X122340000Y-106240000D02*
X122340000Y-103580000D01*
X120220000Y-108360000D02*
X122340000Y-106240000D01*
X118582500Y-108360000D02*
X120220000Y-108360000D01*
%TO.N,+3.3V*%
X106727500Y-105712500D02*
X106760000Y-105680000D01*
X106727500Y-107010000D02*
X106727500Y-105712500D01*
%TO.N,RTC_CS*%
X108775000Y-104005000D02*
X109539200Y-104005000D01*
X108190000Y-104590000D02*
X108775000Y-104005000D01*
X108190000Y-105550000D02*
X108190000Y-104590000D01*
X108552500Y-105912500D02*
X108190000Y-105550000D01*
X108552500Y-107010000D02*
X108552500Y-105912500D01*
%TO.N,+3.3V*%
X86530000Y-92120000D02*
X86530000Y-93390000D01*
%TO.N,EXT_CS*%
X86230000Y-90360000D02*
X86560000Y-90030000D01*
X81590000Y-90360000D02*
X86230000Y-90360000D01*
%TO.N,ADC_CS*%
X123657500Y-119962500D02*
X123657500Y-117700000D01*
X123600000Y-120020000D02*
X123657500Y-119962500D01*
%TO.N,GND*%
X125479999Y-89450001D02*
X126140000Y-88790000D01*
X124609000Y-89450001D02*
X125479999Y-89450001D01*
%TO.N,!W*%
X121315000Y-105275000D02*
X119027000Y-105275000D01*
X121410000Y-105180000D02*
X121315000Y-105275000D01*
%TO.N,HOLD*%
X125530000Y-102924900D02*
X124449900Y-104005000D01*
X125530000Y-99140000D02*
X125530000Y-102924900D01*
X124449900Y-104005000D02*
X123853000Y-104005000D01*
%TO.N,SO*%
X119370000Y-118230000D02*
X119360000Y-118240000D01*
X120950000Y-118230000D02*
X119370000Y-118230000D01*
%TO.N,SCK*%
X119230000Y-111330000D02*
X119210000Y-111310000D01*
X119230000Y-116214999D02*
X119230000Y-111330000D01*
X120950000Y-116960000D02*
X119975001Y-116960000D01*
X119210000Y-111310000D02*
X122450000Y-111310000D01*
X119975001Y-116960000D02*
X119230000Y-116214999D01*
%TO.N,SI*%
X118700000Y-119500000D02*
X118680000Y-119520000D01*
X120950000Y-119500000D02*
X118700000Y-119500000D01*
%TO.N,ADC_CS*%
X122850000Y-120770000D02*
X123600000Y-120020000D01*
X120950000Y-120770000D02*
X122850000Y-120770000D01*
%TO.N,EEPROM_CS*%
X118189999Y-91950001D02*
X116530000Y-93610000D01*
X119910000Y-91950001D02*
X118189999Y-91950001D01*
%TO.N,EXT_CS*%
X118860000Y-92450000D02*
X117900000Y-93410000D01*
X119910000Y-92450000D02*
X118860000Y-92450000D01*
%TO.N,GND*%
X114822500Y-95020000D02*
X114860000Y-94982500D01*
X112430000Y-95020000D02*
X114822500Y-95020000D01*
X117397000Y-96543000D02*
X118240000Y-95700000D01*
X117397000Y-96700000D02*
X117397000Y-96543000D01*
%TO.N,RTC_CS*%
X110960000Y-103930000D02*
X110885000Y-104005000D01*
X110885000Y-104005000D02*
X109539200Y-104005000D01*
%TO.N,MFP*%
X113532002Y-103000000D02*
X113527000Y-103005002D01*
X115280000Y-103000000D02*
X113532002Y-103000000D01*
%TO.N,SI*%
X120670000Y-97668526D02*
X120670000Y-98000000D01*
X122509500Y-95829026D02*
X120670000Y-97668526D01*
X122509500Y-93549500D02*
X122509500Y-95829026D01*
%TO.N,MFP*%
X123009501Y-96350499D02*
X121640000Y-97720000D01*
X123009501Y-93549500D02*
X123009501Y-96350499D01*
%TO.N,/MCU/LED*%
X123509500Y-96850500D02*
X122970000Y-97390000D01*
X123509500Y-93549500D02*
X123509500Y-96850500D01*
%TO.N,SO*%
X117242000Y-98790000D02*
X116027000Y-100005000D01*
X122620000Y-98790000D02*
X117242000Y-98790000D01*
X124009499Y-97400501D02*
X122620000Y-98790000D01*
X124009499Y-93549500D02*
X124009499Y-97400501D01*
%TO.N,SCK*%
X125719999Y-92949999D02*
X124609000Y-92949999D01*
X127330000Y-103242000D02*
X127330000Y-94560000D01*
X127330000Y-94560000D02*
X125719999Y-92949999D01*
X125297000Y-105275000D02*
X127330000Y-103242000D01*
%TO.N,SWDIO*%
X120080000Y-94640000D02*
X119270000Y-94640000D01*
X120509501Y-94210499D02*
X120080000Y-94640000D01*
X120509501Y-93549500D02*
X120509501Y-94210499D01*
%TO.N,SWCLK*%
X121009500Y-95090500D02*
X120740000Y-95360000D01*
X121009500Y-93549500D02*
X121009500Y-95090500D01*
%TO.N,+3.3V*%
X119140000Y-95580000D02*
X119140000Y-96682000D01*
X119140000Y-96682000D02*
X119122000Y-96700000D01*
%TO.N,GND*%
X119310000Y-101492000D02*
X120162000Y-100640000D01*
X120162000Y-100640000D02*
X120577500Y-100640000D01*
X119310000Y-101500000D02*
X119310000Y-101492000D01*
%TO.N,+3.3V*%
X121509499Y-95680501D02*
X121509499Y-93549500D01*
X120490000Y-96700000D02*
X121509499Y-95680501D01*
X119122000Y-96700000D02*
X120490000Y-96700000D01*
%TO.N,Net-(U4-VCAP)*%
X114860000Y-93257500D02*
X116667500Y-91450000D01*
X116667500Y-91450000D02*
X119910000Y-91450000D01*
%TO.N,GND*%
X115332500Y-90080000D02*
X114880000Y-89627500D01*
X116220000Y-90080000D02*
X115332500Y-90080000D01*
%TO.N,+3.3V*%
X115282500Y-90950000D02*
X119910000Y-90950000D01*
X114880000Y-91352500D02*
X115282500Y-90950000D01*
%TO.N,GND*%
X118069999Y-90449999D02*
X116910000Y-89290000D01*
X119910000Y-90449999D02*
X118069999Y-90449999D01*
%TO.N,NRST*%
X120310500Y-88850500D02*
X119210000Y-87750000D01*
X120509501Y-88850500D02*
X120310500Y-88850500D01*
%TO.N,HOLD*%
X118710000Y-86120000D02*
X118710000Y-85870000D01*
X121009500Y-88419500D02*
X118710000Y-86120000D01*
X121009500Y-88850500D02*
X121009500Y-88419500D01*
%TO.N,!W*%
X121509499Y-87829499D02*
X119920000Y-86240000D01*
X121509499Y-88850500D02*
X121509499Y-87829499D01*
%TO.N,Net-(U4-OSCIN)*%
X122009500Y-88850500D02*
X122009500Y-87356500D01*
X122009500Y-87356500D02*
X119163000Y-84510000D01*
X119163000Y-84510000D02*
X118570000Y-84510000D01*
%TO.N,+3.3V*%
X123009501Y-83007999D02*
X123165000Y-82852500D01*
X123009501Y-88850500D02*
X123009501Y-83007999D01*
%TO.N,Net-(U4-OSCOUT)*%
X122509500Y-84319500D02*
X122509500Y-88850500D01*
X120860000Y-82670000D02*
X122509500Y-84319500D01*
%TO.N,GND*%
X119020000Y-82670000D02*
X120860000Y-84510000D01*
X118570000Y-82670000D02*
X119020000Y-82670000D01*
X118852500Y-80590000D02*
X118852500Y-79147500D01*
X116215000Y-82727500D02*
X113287500Y-82727500D01*
%TO.N,Net-(U4-OSCOUT)*%
X120860000Y-80872500D02*
X120577500Y-80590000D01*
%TO.N,Net-(U4-OSCIN)*%
X116215000Y-84452500D02*
X118512500Y-84452500D01*
%TO.N,Net-(U4-OSCOUT)*%
X120860000Y-82670000D02*
X120860000Y-80872500D01*
%TO.N,GND*%
X116215000Y-82727500D02*
X118512500Y-82727500D01*
%TO.N,+3.3V*%
X117869500Y-87700000D02*
X117899500Y-87730000D01*
X116622000Y-87700000D02*
X117869500Y-87700000D01*
X118372001Y-89450001D02*
X116622000Y-87700000D01*
X119910000Y-89450001D02*
X118372001Y-89450001D01*
%TO.N,GND*%
X114897000Y-87467500D02*
X113879500Y-86450000D01*
X114897000Y-87700000D02*
X114897000Y-87467500D01*
%TO.N,+3.3V*%
X123009501Y-88870001D02*
X123019500Y-88880000D01*
X123009501Y-88850500D02*
X123009501Y-88870001D01*
%TO.N,Net-(U4-OSCOUT)*%
X122483500Y-88824500D02*
X122509500Y-88850500D01*
%TO.N,/MCU/LED*%
X123509500Y-93549500D02*
X123509500Y-93730000D01*
%TO.N,SCK*%
X125870000Y-105848000D02*
X125766000Y-105744000D01*
X125870000Y-107920000D02*
X125870000Y-105848000D01*
X125840000Y-107920000D02*
X125870000Y-107920000D01*
X122450000Y-111310000D02*
X125840000Y-107920000D01*
X115630000Y-111310000D02*
X119210000Y-111310000D01*
X111527000Y-107207000D02*
X115630000Y-111310000D01*
X112526999Y-103505001D02*
X111527000Y-104505000D01*
X111527000Y-104505000D02*
X111527000Y-107207000D01*
X125766000Y-105744000D02*
X125297000Y-105275000D01*
%TO.N,SO*%
X116027000Y-100005000D02*
X116027000Y-104005000D01*
X110312000Y-94290000D02*
X116027000Y-100005000D01*
X83020000Y-94290000D02*
X110312000Y-94290000D01*
X81590000Y-92860000D02*
X83020000Y-94290000D01*
%TO.N,Input A*%
X94095000Y-116095000D02*
X102650000Y-116095000D01*
X85790000Y-107790000D02*
X94095000Y-116095000D01*
X82250000Y-107790000D02*
X85790000Y-107790000D01*
%TO.N,Sensor C(5V)*%
X100200000Y-119700000D02*
X100500000Y-120000000D01*
X83550000Y-119700000D02*
X100200000Y-119700000D01*
X100500000Y-120000000D02*
X110500000Y-120000000D01*
X82250000Y-121000000D02*
X83550000Y-119700000D01*
%TO.N,GND*%
X109250000Y-117500000D02*
X109250000Y-118270000D01*
X109250000Y-118270000D02*
X108425000Y-119095000D01*
X104595000Y-119095000D02*
X104475000Y-119095000D01*
X105750000Y-117750000D02*
X105750000Y-117940000D01*
X105750000Y-117940000D02*
X104595000Y-119095000D01*
%TO.N,SO*%
X113527000Y-104005000D02*
X116027000Y-104005000D01*
X116027000Y-104005000D02*
X119027000Y-104005000D01*
%TO.N,+3.3V*%
X124612500Y-110637500D02*
X124612500Y-111095000D01*
X125500000Y-109750000D02*
X124612500Y-110637500D01*
X124287500Y-114420000D02*
X124612500Y-114095000D01*
X120950000Y-114420000D02*
X124287500Y-114420000D01*
X122557500Y-113150000D02*
X124612500Y-111095000D01*
X120950000Y-113150000D02*
X122557500Y-113150000D01*
X124612500Y-111095000D02*
X124612500Y-114095000D01*
%TO.N,SCK*%
X125297000Y-105275000D02*
X123853000Y-105275000D01*
X113527000Y-103505001D02*
X112526999Y-103505001D01*
%TO.N,SI*%
X123853000Y-107929000D02*
X123853000Y-106545000D01*
X122277000Y-109505000D02*
X123853000Y-107929000D01*
X113527000Y-107255000D02*
X115777000Y-109505000D01*
X115777000Y-109505000D02*
X122277000Y-109505000D01*
X113527000Y-104505002D02*
X113527000Y-107255000D01*
X113776998Y-104505002D02*
X113777000Y-104505000D01*
X113527000Y-104505002D02*
X113776998Y-104505002D01*
%TO.N,GND*%
X117317000Y-106545000D02*
X117277000Y-106505000D01*
X119027000Y-106545000D02*
X117317000Y-106545000D01*
%TO.N,+3.3V*%
X123412000Y-100640000D02*
X123853000Y-101081000D01*
X122302500Y-100640000D02*
X123412000Y-100640000D01*
X123853000Y-101081000D02*
X123853000Y-102735000D01*
%TO.N,NRST*%
X134887500Y-115887500D02*
X134750000Y-115750000D01*
X134887500Y-117500000D02*
X134887500Y-115887500D01*
%TO.N,+3.3V*%
X127537500Y-106462500D02*
X127500000Y-106500000D01*
X129000000Y-106462500D02*
X127537500Y-106462500D01*
%TO.N,Net-(D2-A)*%
X129000000Y-111000000D02*
X129000000Y-108287500D01*
%TO.N,Net-(D1-A)*%
X132500000Y-111000000D02*
X132500000Y-108287500D01*
%TO.N,Net-(D3-A)*%
X136000000Y-111000000D02*
X136000000Y-108287500D01*
X136037500Y-108287500D02*
X136250000Y-108500000D01*
X136000000Y-108287500D02*
X136037500Y-108287500D01*
%TO.N,NRST*%
X134887500Y-122912500D02*
X135000000Y-123025000D01*
X134887500Y-117500000D02*
X134887500Y-122912500D01*
%TO.N,GND*%
X148025000Y-110570000D02*
X149412500Y-110570000D01*
%TO.N,Net-(U2-BP)*%
X146275000Y-110845000D02*
X146550000Y-110570000D01*
X146275000Y-113120000D02*
X146275000Y-110845000D01*
X146212500Y-113120000D02*
X146162500Y-113070000D01*
X146275000Y-113120000D02*
X146212500Y-113120000D01*
%TO.N,GND*%
X152300000Y-113207500D02*
X152300000Y-111770000D01*
X150000000Y-114070000D02*
X150050000Y-114020000D01*
X148550000Y-114070000D02*
X150000000Y-114070000D01*
X136000000Y-112750000D02*
X137500000Y-112750000D01*
X132500000Y-112750000D02*
X134000000Y-112750000D01*
X130500000Y-112750000D02*
X129000000Y-112750000D01*
X126337500Y-111837500D02*
X127000000Y-112500000D01*
X126337500Y-111095000D02*
X126337500Y-111837500D01*
X126337500Y-114837500D02*
X127000000Y-115500000D01*
X126337500Y-114095000D02*
X126337500Y-114837500D01*
X123190000Y-115690000D02*
X120950000Y-115690000D01*
X120950000Y-115550000D02*
X121000000Y-115500000D01*
X120950000Y-115690000D02*
X120950000Y-115550000D01*
X122960000Y-122040000D02*
X123000000Y-122000000D01*
X120950000Y-122040000D02*
X122960000Y-122040000D01*
%TO.N,+3.3V*%
X112395600Y-99136400D02*
X112395600Y-100505002D01*
X113527000Y-101005000D02*
X113527000Y-102505000D01*
X113027002Y-100505002D02*
X113527000Y-101005000D01*
X112395600Y-100505002D02*
X113027002Y-100505002D01*
%TO.N,GND*%
X109539200Y-105992800D02*
X109527000Y-106005000D01*
X109539200Y-104505002D02*
X109539200Y-105992800D01*
X109527002Y-100505002D02*
X109527000Y-100505000D01*
X110670600Y-100505002D02*
X109527002Y-100505002D01*
X105026998Y-100005002D02*
X105527000Y-99505000D01*
X104033100Y-100005002D02*
X105026998Y-100005002D01*
X105389502Y-106367502D02*
X105527000Y-106505000D01*
X104033100Y-106367502D02*
X105389502Y-106367502D01*
%TO.N,Net-(U3-X2)*%
X104420600Y-104255002D02*
X104033100Y-104642502D01*
X106533100Y-104255002D02*
X104420600Y-104255002D01*
%TO.N,Net-(U3-X1)*%
X104058100Y-101755002D02*
X104033100Y-101730002D01*
X106533100Y-101755002D02*
X104058100Y-101755002D01*
X108527000Y-102505000D02*
X109539200Y-102505000D01*
X107777002Y-101755002D02*
X108527000Y-102505000D01*
X106533100Y-101755002D02*
X107777002Y-101755002D01*
%TO.N,Net-(U3-X2)*%
X108526998Y-103005002D02*
X109539200Y-103005002D01*
X107276998Y-104255002D02*
X108526998Y-103005002D01*
X106533100Y-104255002D02*
X107276998Y-104255002D01*
%TO.N,GND*%
X108337500Y-113337500D02*
X109500000Y-114500000D01*
X108337500Y-113095000D02*
X108337500Y-113337500D01*
X109837500Y-113095000D02*
X110475000Y-112457500D01*
X108337500Y-113095000D02*
X109837500Y-113095000D01*
X104387500Y-113387500D02*
X105500000Y-114500000D01*
X104387500Y-113095000D02*
X104387500Y-113387500D01*
X104387500Y-126387500D02*
X104387500Y-125095000D01*
X108337500Y-126337500D02*
X108337500Y-125095000D01*
X110562500Y-126062500D02*
X110562500Y-124457500D01*
%TO.N,+3.3V*%
X101405000Y-122095000D02*
X101000000Y-122500000D01*
X102562500Y-122095000D02*
X101405000Y-122095000D01*
%TO.N,GND*%
X109905000Y-119095000D02*
X108425000Y-119095000D01*
X110542500Y-118457500D02*
X109905000Y-119095000D01*
X110562500Y-118457500D02*
X110542500Y-118457500D01*
%TO.N,Sensor C(5V)*%
X110500000Y-120000000D02*
X111432900Y-120000000D01*
X114472900Y-116960000D02*
X116000000Y-116960000D01*
X111432900Y-120000000D02*
X114472900Y-116960000D01*
%TO.N,/Sensors/Therm*%
X114310000Y-115690000D02*
X116000000Y-115690000D01*
X113500000Y-116500000D02*
X114310000Y-115690000D01*
X110562500Y-122732500D02*
X112767500Y-122732500D01*
X112767500Y-122732500D02*
X113000000Y-122500000D01*
X109500000Y-122732500D02*
X110562500Y-122732500D01*
X108767500Y-122000000D02*
X109500000Y-122732500D01*
X108405000Y-122095000D02*
X108500000Y-122000000D01*
X108387500Y-122095000D02*
X108405000Y-122095000D01*
X108500000Y-122000000D02*
X108767500Y-122000000D01*
%TO.N,/Sensors/B*%
X109732500Y-116732500D02*
X110562500Y-116732500D01*
X109095000Y-116095000D02*
X109732500Y-116732500D01*
X108475000Y-116095000D02*
X109095000Y-116095000D01*
X114580000Y-114420000D02*
X116000000Y-114420000D01*
X112267500Y-116732500D02*
X114580000Y-114420000D01*
X110562500Y-116732500D02*
X112267500Y-116732500D01*
%TO.N,/Sensors/A*%
X114771250Y-113150000D02*
X112353750Y-110732500D01*
X112353750Y-110732500D02*
X110475000Y-110732500D01*
X116000000Y-113150000D02*
X114771250Y-113150000D01*
X109837500Y-110095000D02*
X110475000Y-110732500D01*
X108387500Y-110095000D02*
X109837500Y-110095000D01*
%TO.N,Sensor C(3.3V)*%
X113770000Y-118230000D02*
X116000000Y-118230000D01*
X111000000Y-121000000D02*
X113770000Y-118230000D01*
X95000000Y-121000000D02*
X111000000Y-121000000D01*
%TO.N,Input B*%
X96620000Y-110095000D02*
X95025000Y-108500000D01*
X102562500Y-110095000D02*
X96620000Y-110095000D01*
%TO.N,Net-(C2-Pad1)*%
X106562500Y-110095000D02*
X104387500Y-110095000D01*
X106562500Y-113045000D02*
X106612500Y-113095000D01*
X106562500Y-110095000D02*
X106562500Y-113045000D01*
X102562500Y-111920000D02*
X104387500Y-110095000D01*
X102562500Y-113095000D02*
X102562500Y-111920000D01*
%TO.N,Net-(C4-Pad1)*%
X106650000Y-119045000D02*
X106700000Y-119095000D01*
X106650000Y-116095000D02*
X106650000Y-119045000D01*
X104475000Y-116095000D02*
X106650000Y-116095000D01*
X102650000Y-119095000D02*
X102650000Y-117920000D01*
X102650000Y-117920000D02*
X104475000Y-116095000D01*
%TO.N,Net-(C6-Pad1)*%
X106612500Y-122145000D02*
X106562500Y-122095000D01*
X106612500Y-125095000D02*
X106612500Y-122145000D01*
X106562500Y-122095000D02*
X104387500Y-122095000D01*
X102562500Y-124937500D02*
X104387500Y-123112500D01*
X102562500Y-125095000D02*
X102562500Y-124937500D01*
X104387500Y-123112500D02*
X104387500Y-122095000D01*
%TO.N,/MCU/DIP1*%
X129320001Y-91950001D02*
X124609000Y-91950001D01*
X144070000Y-106700000D02*
X129320001Y-91950001D01*
%TD*%
%TA.AperFunction,Conductor*%
%TO.N,+3.3V*%
G36*
X145273234Y-114168021D02*
G01*
X145295439Y-114169609D01*
X145306123Y-114177606D01*
X145318938Y-114181342D01*
X145333551Y-114198139D01*
X145351373Y-114211480D01*
X145356037Y-114223985D01*
X145364798Y-114234055D01*
X145368010Y-114256085D01*
X145375790Y-114276944D01*
X145372953Y-114289985D01*
X145374879Y-114303194D01*
X145365669Y-114323465D01*
X145360938Y-114345217D01*
X145347837Y-114362718D01*
X145345980Y-114366807D01*
X145339788Y-114373472D01*
X145244818Y-114468442D01*
X145244814Y-114468447D01*
X145161218Y-114609801D01*
X145130947Y-114713995D01*
X145116002Y-114770000D01*
X146151000Y-114770000D01*
X146218039Y-114789685D01*
X146263794Y-114842489D01*
X146275000Y-114894000D01*
X146275000Y-115020000D01*
X146401000Y-115020000D01*
X146468039Y-115039685D01*
X146513794Y-115092489D01*
X146525000Y-115144000D01*
X146525000Y-115820000D01*
X146853134Y-115820000D01*
X146853149Y-115819999D01*
X146889989Y-115817100D01*
X146889995Y-115817099D01*
X146991459Y-115787621D01*
X147061328Y-115787820D01*
X147119998Y-115825762D01*
X147148842Y-115889400D01*
X147150053Y-115906207D01*
X147154024Y-116910957D01*
X147164713Y-117012387D01*
X147174898Y-117061111D01*
X147174900Y-117061119D01*
X147205732Y-117158337D01*
X147281054Y-117280926D01*
X147325731Y-117334645D01*
X147371583Y-117376030D01*
X147408159Y-117435558D01*
X147412500Y-117468079D01*
X147412500Y-119320000D01*
X150356142Y-119281615D01*
X150423433Y-119300423D01*
X150469872Y-119352626D01*
X150481747Y-119403855D01*
X150568224Y-125534116D01*
X150549487Y-125601426D01*
X150497333Y-125647922D01*
X150444104Y-125659865D01*
X141332900Y-125650131D01*
X141265881Y-125630375D01*
X141220183Y-125577522D01*
X141209036Y-125527105D01*
X141188625Y-122923632D01*
X143962000Y-122923632D01*
X143962000Y-123126367D01*
X143993715Y-123326608D01*
X144056361Y-123519417D01*
X144056362Y-123519420D01*
X144148405Y-123700062D01*
X144267562Y-123864069D01*
X144267566Y-123864074D01*
X144410925Y-124007433D01*
X144410930Y-124007437D01*
X144553986Y-124111372D01*
X144574941Y-124126597D01*
X144659516Y-124169690D01*
X144755579Y-124218637D01*
X144755582Y-124218638D01*
X144851986Y-124249961D01*
X144948393Y-124281285D01*
X145148632Y-124313000D01*
X145148633Y-124313000D01*
X145351367Y-124313000D01*
X145351368Y-124313000D01*
X145551607Y-124281285D01*
X145744420Y-124218637D01*
X145925059Y-124126597D01*
X146089076Y-124007432D01*
X146232432Y-123864076D01*
X146243993Y-123848164D01*
X146299321Y-123805496D01*
X146368934Y-123799515D01*
X146430730Y-123832119D01*
X146465090Y-123892957D01*
X146467602Y-123907787D01*
X146468901Y-123919874D01*
X146468903Y-123919879D01*
X146519145Y-124054586D01*
X146519149Y-124054593D01*
X146605309Y-124169687D01*
X146605312Y-124169690D01*
X146720406Y-124255850D01*
X146720413Y-124255854D01*
X146855120Y-124306096D01*
X146855127Y-124306098D01*
X146914655Y-124312499D01*
X146914672Y-124312500D01*
X147500000Y-124312500D01*
X147500000Y-123486879D01*
X147547358Y-123514222D01*
X147680882Y-123550000D01*
X147819118Y-123550000D01*
X147952642Y-123514222D01*
X148000000Y-123486879D01*
X148000000Y-124312500D01*
X148585328Y-124312500D01*
X148585344Y-124312499D01*
X148644872Y-124306098D01*
X148644879Y-124306096D01*
X148779586Y-124255854D01*
X148779593Y-124255850D01*
X148894687Y-124169690D01*
X148894690Y-124169687D01*
X148980850Y-124054593D01*
X148980854Y-124054586D01*
X149031096Y-123919879D01*
X149031098Y-123919872D01*
X149037499Y-123860344D01*
X149037500Y-123860327D01*
X149037500Y-123275000D01*
X148211880Y-123275000D01*
X148239222Y-123227642D01*
X148275000Y-123094118D01*
X148275000Y-122955882D01*
X148239222Y-122822358D01*
X148211880Y-122775000D01*
X149037500Y-122775000D01*
X149037500Y-122189672D01*
X149037499Y-122189655D01*
X149031098Y-122130127D01*
X149031096Y-122130120D01*
X148980854Y-121995413D01*
X148980850Y-121995406D01*
X148894690Y-121880312D01*
X148894687Y-121880309D01*
X148779593Y-121794149D01*
X148779586Y-121794145D01*
X148644879Y-121743903D01*
X148644872Y-121743901D01*
X148585344Y-121737500D01*
X148000000Y-121737500D01*
X148000000Y-122563120D01*
X147952642Y-122535778D01*
X147819118Y-122500000D01*
X147680882Y-122500000D01*
X147547358Y-122535778D01*
X147500000Y-122563120D01*
X147500000Y-121737500D01*
X146914655Y-121737500D01*
X146855127Y-121743901D01*
X146855120Y-121743903D01*
X146720413Y-121794145D01*
X146720406Y-121794149D01*
X146605312Y-121880309D01*
X146605309Y-121880312D01*
X146519149Y-121995406D01*
X146519145Y-121995413D01*
X146468903Y-122130120D01*
X146468901Y-122130126D01*
X146467602Y-122142212D01*
X146440862Y-122206763D01*
X146383468Y-122246609D01*
X146313643Y-122249100D01*
X146253555Y-122213446D01*
X146243994Y-122201838D01*
X146235155Y-122189672D01*
X146232432Y-122185924D01*
X146089076Y-122042568D01*
X146089074Y-122042566D01*
X146089069Y-122042562D01*
X145925062Y-121923405D01*
X145925061Y-121923404D01*
X145925059Y-121923403D01*
X145840488Y-121880312D01*
X145744420Y-121831362D01*
X145744417Y-121831361D01*
X145551608Y-121768715D01*
X145394951Y-121743903D01*
X145351368Y-121737000D01*
X145148632Y-121737000D01*
X145105049Y-121743903D01*
X144948391Y-121768715D01*
X144755582Y-121831361D01*
X144755579Y-121831362D01*
X144574937Y-121923405D01*
X144410930Y-122042562D01*
X144410925Y-122042566D01*
X144267566Y-122185925D01*
X144267562Y-122185930D01*
X144148405Y-122349937D01*
X144056362Y-122530579D01*
X144056361Y-122530582D01*
X143993715Y-122723391D01*
X143962000Y-122923632D01*
X141188625Y-122923632D01*
X141128714Y-115281654D01*
X142937501Y-115281654D01*
X142947819Y-115382652D01*
X143002046Y-115546300D01*
X143002051Y-115546311D01*
X143092552Y-115693034D01*
X143092555Y-115693038D01*
X143214461Y-115814944D01*
X143214465Y-115814947D01*
X143361188Y-115905448D01*
X143361199Y-115905453D01*
X143524847Y-115959680D01*
X143625852Y-115969999D01*
X143662500Y-115969999D01*
X144162500Y-115969999D01*
X144199140Y-115969999D01*
X144199154Y-115969998D01*
X144300152Y-115959680D01*
X144463800Y-115905453D01*
X144463811Y-115905448D01*
X144610534Y-115814947D01*
X144610538Y-115814944D01*
X144732444Y-115693038D01*
X144732447Y-115693034D01*
X144822948Y-115546311D01*
X144822953Y-115546300D01*
X144877181Y-115382651D01*
X144882346Y-115332087D01*
X144882600Y-115325437D01*
X145130781Y-115325437D01*
X145161216Y-115430193D01*
X145161217Y-115430196D01*
X145244814Y-115571552D01*
X145244821Y-115571561D01*
X145360938Y-115687678D01*
X145360947Y-115687685D01*
X145502303Y-115771282D01*
X145502306Y-115771283D01*
X145660004Y-115817099D01*
X145660010Y-115817100D01*
X145696850Y-115819999D01*
X145696866Y-115820000D01*
X146025000Y-115820000D01*
X146025000Y-115270000D01*
X145132899Y-115270000D01*
X145130781Y-115325437D01*
X144882600Y-115325437D01*
X144887500Y-115197135D01*
X144887500Y-115182500D01*
X144162500Y-115182500D01*
X144162500Y-115969999D01*
X143662500Y-115969999D01*
X143662500Y-115182500D01*
X142937501Y-115182500D01*
X142937501Y-115281654D01*
X141128714Y-115281654D01*
X141120977Y-114294721D01*
X141140135Y-114227532D01*
X141192579Y-114181365D01*
X141244725Y-114169752D01*
X142880515Y-114166502D01*
X142947591Y-114186054D01*
X142993451Y-114238767D01*
X143003532Y-114307905D01*
X142998465Y-114329505D01*
X142947819Y-114482346D01*
X142937500Y-114583345D01*
X142937500Y-114682500D01*
X144882674Y-114682500D01*
X144887499Y-114664418D01*
X144887499Y-114583360D01*
X144887498Y-114583345D01*
X144877180Y-114482347D01*
X144825177Y-114325410D01*
X144822775Y-114255581D01*
X144858507Y-114195540D01*
X144921028Y-114164347D01*
X144942631Y-114162406D01*
X145251862Y-114161792D01*
X145273234Y-114168021D01*
G37*
%TD.AperFunction*%
%TD*%
%TA.AperFunction,Conductor*%
%TO.N,+5V*%
G36*
X161375749Y-108088557D02*
G01*
X161442747Y-108108375D01*
X161488397Y-108161270D01*
X161499500Y-108212557D01*
X161499500Y-108333387D01*
X161479815Y-108400426D01*
X161427011Y-108446181D01*
X161357853Y-108456125D01*
X161328049Y-108447949D01*
X161315774Y-108442865D01*
X161291835Y-108432949D01*
X161291833Y-108432948D01*
X161291829Y-108432947D01*
X161098543Y-108394500D01*
X161098541Y-108394500D01*
X160001459Y-108394500D01*
X160001457Y-108394500D01*
X159808170Y-108432947D01*
X159808160Y-108432950D01*
X159626092Y-108508364D01*
X159626079Y-108508371D01*
X159462218Y-108617860D01*
X159462214Y-108617863D01*
X159322863Y-108757214D01*
X159322860Y-108757218D01*
X159213371Y-108921079D01*
X159213364Y-108921092D01*
X159137950Y-109103160D01*
X159137947Y-109103172D01*
X159132175Y-109132190D01*
X159099790Y-109194101D01*
X159039074Y-109228675D01*
X159010558Y-109231999D01*
X158983443Y-109231999D01*
X158876087Y-109260765D01*
X158830710Y-109272924D01*
X158830709Y-109272925D01*
X158785451Y-109299056D01*
X158785450Y-109299057D01*
X158761059Y-109313139D01*
X158693785Y-109351979D01*
X158693782Y-109351981D01*
X158339629Y-109706135D01*
X158278306Y-109739620D01*
X158208614Y-109734636D01*
X158152681Y-109692764D01*
X158132173Y-109650547D01*
X158119922Y-109604826D01*
X158109577Y-109566216D01*
X158050440Y-109463786D01*
X158030524Y-109429290D01*
X158030521Y-109429286D01*
X158030520Y-109429284D01*
X157918716Y-109317480D01*
X157918715Y-109317479D01*
X157914385Y-109313149D01*
X157914374Y-109313139D01*
X157806574Y-109205339D01*
X157773089Y-109144016D01*
X157772638Y-109141849D01*
X157741738Y-108986510D01*
X157741737Y-108986503D01*
X157714638Y-108921079D01*
X157681397Y-108840827D01*
X157681390Y-108840814D01*
X157593789Y-108709711D01*
X157593786Y-108709707D01*
X157482292Y-108598213D01*
X157482288Y-108598210D01*
X157351185Y-108510609D01*
X157351172Y-108510602D01*
X157205501Y-108450264D01*
X157205489Y-108450261D01*
X157050845Y-108419500D01*
X157050842Y-108419500D01*
X156893158Y-108419500D01*
X156893155Y-108419500D01*
X156738510Y-108450261D01*
X156738498Y-108450264D01*
X156592827Y-108510602D01*
X156592814Y-108510609D01*
X156461711Y-108598210D01*
X156461707Y-108598213D01*
X156350213Y-108709707D01*
X156350210Y-108709711D01*
X156262609Y-108840814D01*
X156262602Y-108840827D01*
X156202264Y-108986498D01*
X156202261Y-108986510D01*
X156171500Y-109141153D01*
X156171500Y-109298846D01*
X156202261Y-109453489D01*
X156202264Y-109453501D01*
X156262602Y-109599172D01*
X156262609Y-109599185D01*
X156350210Y-109730288D01*
X156350213Y-109730292D01*
X156461707Y-109841786D01*
X156461711Y-109841789D01*
X156592814Y-109929390D01*
X156592827Y-109929397D01*
X156738498Y-109989735D01*
X156738503Y-109989737D01*
X156814425Y-110004838D01*
X156849691Y-110011854D01*
X156877814Y-110026564D01*
X156906703Y-110039758D01*
X156908560Y-110042647D01*
X156911602Y-110044239D01*
X156927308Y-110071821D01*
X156944477Y-110098536D01*
X156945137Y-110103130D01*
X156946176Y-110104954D01*
X156949500Y-110133471D01*
X156949500Y-110379785D01*
X156929815Y-110446824D01*
X156894391Y-110482887D01*
X156796282Y-110548441D01*
X156796278Y-110548444D01*
X156653441Y-110691281D01*
X156541217Y-110859237D01*
X156541212Y-110859247D01*
X156463909Y-111045872D01*
X156463907Y-111045880D01*
X156424500Y-111243992D01*
X156424500Y-111446007D01*
X156463907Y-111644119D01*
X156463909Y-111644127D01*
X156541212Y-111830752D01*
X156541217Y-111830762D01*
X156653441Y-111998718D01*
X156666693Y-112011970D01*
X156666694Y-112011970D01*
X156761044Y-112106320D01*
X156796278Y-112141555D01*
X156796286Y-112141561D01*
X156866991Y-112188805D01*
X156911797Y-112242417D01*
X156920504Y-112311742D01*
X156891190Y-112373824D01*
X156883189Y-112382915D01*
X156871718Y-112391718D01*
X156846343Y-112424787D01*
X156843589Y-112427917D01*
X156817435Y-112444444D01*
X156792447Y-112462690D01*
X156787081Y-112463625D01*
X156784524Y-112465241D01*
X156778091Y-112465191D01*
X156750500Y-112470000D01*
X156707990Y-112470000D01*
X156707988Y-112470001D01*
X156715441Y-112526622D01*
X156715445Y-112526634D01*
X156723837Y-112546895D01*
X156731304Y-112616364D01*
X156723838Y-112641794D01*
X156714956Y-112663238D01*
X156714955Y-112663239D01*
X156699500Y-112780638D01*
X156699500Y-113059363D01*
X156714953Y-113176753D01*
X156714957Y-113176765D01*
X156723566Y-113197550D01*
X156731033Y-113267019D01*
X156723566Y-113292450D01*
X156714957Y-113313234D01*
X156714955Y-113313239D01*
X156699500Y-113430638D01*
X156699500Y-113709363D01*
X156714953Y-113826753D01*
X156714957Y-113826765D01*
X156723566Y-113847550D01*
X156731033Y-113917019D01*
X156723566Y-113942450D01*
X156714957Y-113963234D01*
X156714955Y-113963239D01*
X156699500Y-114080638D01*
X156699500Y-114359363D01*
X156714953Y-114476753D01*
X156714957Y-114476765D01*
X156723566Y-114497550D01*
X156731033Y-114567019D01*
X156723566Y-114592450D01*
X156714957Y-114613234D01*
X156714955Y-114613239D01*
X156699500Y-114730638D01*
X156699500Y-115009361D01*
X156701508Y-115024608D01*
X156690742Y-115093643D01*
X156666253Y-115128471D01*
X156653441Y-115141283D01*
X156541217Y-115309237D01*
X156541212Y-115309247D01*
X156463909Y-115495872D01*
X156463907Y-115495880D01*
X156424500Y-115693992D01*
X156424500Y-115896007D01*
X156463907Y-116094119D01*
X156463909Y-116094127D01*
X156541212Y-116280752D01*
X156541217Y-116280762D01*
X156653441Y-116448718D01*
X156796281Y-116591558D01*
X156964237Y-116703782D01*
X156964241Y-116703784D01*
X156964244Y-116703786D01*
X157150873Y-116781091D01*
X157348992Y-116820499D01*
X157348996Y-116820500D01*
X157348997Y-116820500D01*
X157751004Y-116820500D01*
X157751005Y-116820499D01*
X157949127Y-116781091D01*
X158135756Y-116703786D01*
X158303718Y-116591558D01*
X158337839Y-116557435D01*
X158399159Y-116523951D01*
X158468851Y-116528934D01*
X158513201Y-116557436D01*
X159063181Y-117107416D01*
X159096666Y-117168739D01*
X159099500Y-117195097D01*
X159099500Y-117646454D01*
X159099500Y-117646459D01*
X159099500Y-117843541D01*
X159099500Y-117843543D01*
X159099499Y-117843543D01*
X159137947Y-118036829D01*
X159137950Y-118036839D01*
X159213364Y-118218907D01*
X159213371Y-118218920D01*
X159322860Y-118382781D01*
X159322863Y-118382785D01*
X159462214Y-118522136D01*
X159462218Y-118522139D01*
X159626079Y-118631628D01*
X159626092Y-118631635D01*
X159808160Y-118707049D01*
X159808165Y-118707051D01*
X159808169Y-118707051D01*
X159808170Y-118707052D01*
X160001456Y-118745500D01*
X160001459Y-118745500D01*
X161098543Y-118745500D01*
X161228582Y-118719632D01*
X161291835Y-118707051D01*
X161328049Y-118692050D01*
X161397516Y-118684582D01*
X161459995Y-118715857D01*
X161495648Y-118775945D01*
X161499500Y-118806612D01*
X161499500Y-125697373D01*
X161479815Y-125764412D01*
X161427011Y-125810167D01*
X161375761Y-125821373D01*
X152635551Y-125839736D01*
X152568470Y-125820192D01*
X152522604Y-125767484D01*
X152511297Y-125714455D01*
X152525778Y-124313000D01*
X152540134Y-122923632D01*
X153962000Y-122923632D01*
X153962000Y-123126367D01*
X153993715Y-123326608D01*
X154056361Y-123519417D01*
X154056362Y-123519420D01*
X154148405Y-123700062D01*
X154267562Y-123864069D01*
X154267566Y-123864074D01*
X154410925Y-124007433D01*
X154410930Y-124007437D01*
X154476163Y-124054831D01*
X154574941Y-124126597D01*
X154659516Y-124169690D01*
X154755579Y-124218637D01*
X154755582Y-124218638D01*
X154851986Y-124249961D01*
X154948393Y-124281285D01*
X155148632Y-124313000D01*
X155148633Y-124313000D01*
X155351367Y-124313000D01*
X155351368Y-124313000D01*
X155551607Y-124281285D01*
X155744420Y-124218637D01*
X155925059Y-124126597D01*
X156089076Y-124007432D01*
X156232432Y-123864076D01*
X156243993Y-123848164D01*
X156299321Y-123805496D01*
X156368934Y-123799515D01*
X156430730Y-123832119D01*
X156465090Y-123892957D01*
X156467602Y-123907787D01*
X156468901Y-123919874D01*
X156468903Y-123919879D01*
X156519145Y-124054586D01*
X156519149Y-124054593D01*
X156605309Y-124169687D01*
X156605312Y-124169690D01*
X156720406Y-124255850D01*
X156720413Y-124255854D01*
X156855120Y-124306096D01*
X156855127Y-124306098D01*
X156914655Y-124312499D01*
X156914672Y-124312500D01*
X157500000Y-124312500D01*
X157500000Y-123486879D01*
X157547358Y-123514222D01*
X157680882Y-123550000D01*
X157819118Y-123550000D01*
X157952642Y-123514222D01*
X158000000Y-123486879D01*
X158000000Y-124312500D01*
X158585328Y-124312500D01*
X158585344Y-124312499D01*
X158644872Y-124306098D01*
X158644879Y-124306096D01*
X158779586Y-124255854D01*
X158779593Y-124255850D01*
X158894687Y-124169690D01*
X158894690Y-124169687D01*
X158980850Y-124054593D01*
X158980854Y-124054586D01*
X159031096Y-123919879D01*
X159031098Y-123919872D01*
X159037499Y-123860344D01*
X159037500Y-123860327D01*
X159037500Y-123275000D01*
X158211880Y-123275000D01*
X158239222Y-123227642D01*
X158275000Y-123094118D01*
X158275000Y-122955882D01*
X158239222Y-122822358D01*
X158211880Y-122775000D01*
X159037500Y-122775000D01*
X159037500Y-122189672D01*
X159037499Y-122189655D01*
X159031098Y-122130127D01*
X159031096Y-122130120D01*
X158980854Y-121995413D01*
X158980850Y-121995406D01*
X158894690Y-121880312D01*
X158894687Y-121880309D01*
X158779593Y-121794149D01*
X158779586Y-121794145D01*
X158644879Y-121743903D01*
X158644872Y-121743901D01*
X158585344Y-121737500D01*
X158000000Y-121737500D01*
X158000000Y-122563120D01*
X157952642Y-122535778D01*
X157819118Y-122500000D01*
X157680882Y-122500000D01*
X157547358Y-122535778D01*
X157500000Y-122563120D01*
X157500000Y-121737500D01*
X156914655Y-121737500D01*
X156855127Y-121743901D01*
X156855120Y-121743903D01*
X156720413Y-121794145D01*
X156720406Y-121794149D01*
X156605312Y-121880309D01*
X156605309Y-121880312D01*
X156519149Y-121995406D01*
X156519145Y-121995413D01*
X156468903Y-122130120D01*
X156468901Y-122130126D01*
X156467602Y-122142212D01*
X156440862Y-122206763D01*
X156383468Y-122246609D01*
X156313643Y-122249100D01*
X156253555Y-122213446D01*
X156243994Y-122201838D01*
X156235155Y-122189672D01*
X156232432Y-122185924D01*
X156089076Y-122042568D01*
X156089074Y-122042566D01*
X156089069Y-122042562D01*
X155925062Y-121923405D01*
X155925061Y-121923404D01*
X155925059Y-121923403D01*
X155840488Y-121880312D01*
X155744420Y-121831362D01*
X155744417Y-121831361D01*
X155551608Y-121768715D01*
X155394951Y-121743903D01*
X155351368Y-121737000D01*
X155148632Y-121737000D01*
X155105049Y-121743903D01*
X154948391Y-121768715D01*
X154755582Y-121831361D01*
X154755579Y-121831362D01*
X154574937Y-121923405D01*
X154410930Y-122042562D01*
X154410925Y-122042566D01*
X154267566Y-122185925D01*
X154267562Y-122185930D01*
X154148405Y-122349937D01*
X154056362Y-122530579D01*
X154056361Y-122530582D01*
X153993715Y-122723391D01*
X153962000Y-122923632D01*
X152540134Y-122923632D01*
X152600000Y-117130000D01*
X147781010Y-117032449D01*
X147714383Y-117011411D01*
X147669706Y-116957692D01*
X147659521Y-116908966D01*
X147655539Y-115901546D01*
X147674958Y-115834432D01*
X147727581Y-115788469D01*
X147796700Y-115778252D01*
X147814133Y-115781983D01*
X147935004Y-115817099D01*
X147935010Y-115817100D01*
X147971850Y-115819999D01*
X147971866Y-115820000D01*
X148300000Y-115820000D01*
X148800000Y-115820000D01*
X149128134Y-115820000D01*
X149128149Y-115819999D01*
X149164989Y-115817100D01*
X149164995Y-115817099D01*
X149322693Y-115771283D01*
X149322696Y-115771282D01*
X149464052Y-115687685D01*
X149464061Y-115687678D01*
X149580178Y-115571561D01*
X149580185Y-115571552D01*
X149663781Y-115430198D01*
X149706936Y-115281654D01*
X151325001Y-115281654D01*
X151335319Y-115382652D01*
X151389546Y-115546300D01*
X151389551Y-115546311D01*
X151480052Y-115693034D01*
X151480055Y-115693038D01*
X151601961Y-115814944D01*
X151601965Y-115814947D01*
X151748688Y-115905448D01*
X151748699Y-115905453D01*
X151912347Y-115959680D01*
X152013352Y-115969999D01*
X152050000Y-115969999D01*
X152550000Y-115969999D01*
X152586640Y-115969999D01*
X152586654Y-115969998D01*
X152687652Y-115959680D01*
X152851300Y-115905453D01*
X152851311Y-115905448D01*
X152998034Y-115814947D01*
X152998038Y-115814944D01*
X153119944Y-115693038D01*
X153119947Y-115693034D01*
X153210448Y-115546311D01*
X153210453Y-115546300D01*
X153264680Y-115382652D01*
X153274999Y-115281654D01*
X153275000Y-115281641D01*
X153275000Y-115182500D01*
X152550000Y-115182500D01*
X152550000Y-115969999D01*
X152050000Y-115969999D01*
X152050000Y-115182500D01*
X151325001Y-115182500D01*
X151325001Y-115281654D01*
X149706936Y-115281654D01*
X149709600Y-115272486D01*
X149709795Y-115270001D01*
X149709795Y-115270000D01*
X148800000Y-115270000D01*
X148800000Y-115820000D01*
X148300000Y-115820000D01*
X148300000Y-115144000D01*
X148319685Y-115076961D01*
X148372489Y-115031206D01*
X148424000Y-115020000D01*
X148550000Y-115020000D01*
X148550000Y-114994500D01*
X148569685Y-114927461D01*
X148622489Y-114881706D01*
X148674000Y-114870500D01*
X149128186Y-114870500D01*
X149128194Y-114870500D01*
X149165069Y-114867598D01*
X149165071Y-114867597D01*
X149165073Y-114867597D01*
X149206691Y-114855505D01*
X149322898Y-114821744D01*
X149381194Y-114787268D01*
X149444315Y-114770000D01*
X149744189Y-114770000D01*
X149791640Y-114779438D01*
X149816503Y-114789737D01*
X149971153Y-114820499D01*
X149971156Y-114820500D01*
X149971158Y-114820500D01*
X150128844Y-114820500D01*
X150128845Y-114820499D01*
X150283497Y-114789737D01*
X150408207Y-114738081D01*
X150429172Y-114729397D01*
X150429172Y-114729396D01*
X150429179Y-114729394D01*
X150560289Y-114641789D01*
X150671789Y-114530289D01*
X150759394Y-114399179D01*
X150819737Y-114253497D01*
X150850500Y-114098842D01*
X150850500Y-113941158D01*
X150850500Y-113941155D01*
X150850499Y-113941153D01*
X150845698Y-113917019D01*
X150819737Y-113786503D01*
X150787784Y-113709360D01*
X150759397Y-113640827D01*
X150759390Y-113640814D01*
X150671789Y-113509711D01*
X150671786Y-113509707D01*
X150560292Y-113398213D01*
X150560288Y-113398210D01*
X150429185Y-113310609D01*
X150429172Y-113310602D01*
X150283501Y-113250264D01*
X150283489Y-113250261D01*
X150128845Y-113219500D01*
X150128842Y-113219500D01*
X149971158Y-113219500D01*
X149971155Y-113219500D01*
X149816510Y-113250261D01*
X149816498Y-113250264D01*
X149670827Y-113310602D01*
X149670820Y-113310606D01*
X149645446Y-113327561D01*
X149613206Y-113349102D01*
X149595160Y-113354753D01*
X149579252Y-113364977D01*
X149548294Y-113369428D01*
X149546532Y-113369980D01*
X149544317Y-113370000D01*
X149444315Y-113370000D01*
X149381194Y-113352732D01*
X149322896Y-113318255D01*
X149322893Y-113318254D01*
X149165073Y-113272402D01*
X149165067Y-113272401D01*
X149128201Y-113269500D01*
X149128194Y-113269500D01*
X148674000Y-113269500D01*
X148606961Y-113249815D01*
X148561206Y-113197011D01*
X148550000Y-113145500D01*
X148550000Y-113120000D01*
X148424000Y-113120000D01*
X148356961Y-113100315D01*
X148311206Y-113047511D01*
X148300000Y-112996000D01*
X148300000Y-112870000D01*
X148800000Y-112870000D01*
X149709795Y-112870000D01*
X149709795Y-112869999D01*
X149709600Y-112867512D01*
X149706928Y-112858315D01*
X151324500Y-112858315D01*
X151324500Y-113556669D01*
X151324501Y-113556687D01*
X151334825Y-113657752D01*
X151351927Y-113709360D01*
X151387738Y-113817431D01*
X151389092Y-113821515D01*
X151389093Y-113821518D01*
X151405150Y-113847550D01*
X151479659Y-113968349D01*
X151479661Y-113968351D01*
X151493982Y-113982672D01*
X151527467Y-114043995D01*
X151522483Y-114113687D01*
X151493985Y-114158032D01*
X151480052Y-114171965D01*
X151389551Y-114318688D01*
X151389546Y-114318699D01*
X151335319Y-114482347D01*
X151325000Y-114583345D01*
X151325000Y-114682500D01*
X153274999Y-114682500D01*
X153274999Y-114583360D01*
X153274998Y-114583345D01*
X153264680Y-114482347D01*
X153210453Y-114318699D01*
X153210448Y-114318688D01*
X153119947Y-114171965D01*
X153119944Y-114171961D01*
X153106017Y-114158034D01*
X153072532Y-114096711D01*
X153077516Y-114027019D01*
X153106017Y-113982672D01*
X153120340Y-113968350D01*
X153210908Y-113821516D01*
X153265174Y-113657753D01*
X153275500Y-113556677D01*
X153275499Y-112858324D01*
X153267563Y-112780639D01*
X153265174Y-112757247D01*
X153249452Y-112709801D01*
X153210908Y-112593484D01*
X153120340Y-112446650D01*
X153006640Y-112332950D01*
X152973155Y-112271627D01*
X152978139Y-112201935D01*
X152991215Y-112176384D01*
X153009394Y-112149179D01*
X153069737Y-112003497D01*
X153100500Y-111848842D01*
X153100500Y-111691158D01*
X153100500Y-111691155D01*
X153100499Y-111691153D01*
X153073239Y-111554108D01*
X153069737Y-111536503D01*
X153069187Y-111535174D01*
X153009397Y-111390827D01*
X153009390Y-111390814D01*
X152921789Y-111259711D01*
X152921786Y-111259707D01*
X152810292Y-111148213D01*
X152810288Y-111148210D01*
X152679185Y-111060609D01*
X152679172Y-111060602D01*
X152533501Y-111000264D01*
X152533489Y-111000261D01*
X152378845Y-110969500D01*
X152378842Y-110969500D01*
X152221158Y-110969500D01*
X152221155Y-110969500D01*
X152066510Y-111000261D01*
X152066498Y-111000264D01*
X151920827Y-111060602D01*
X151920814Y-111060609D01*
X151789711Y-111148210D01*
X151789707Y-111148213D01*
X151678213Y-111259707D01*
X151678210Y-111259711D01*
X151590609Y-111390814D01*
X151590602Y-111390827D01*
X151530264Y-111536498D01*
X151530261Y-111536510D01*
X151499500Y-111691153D01*
X151499500Y-111848846D01*
X151530261Y-112003489D01*
X151530264Y-112003501D01*
X151590604Y-112149176D01*
X151590605Y-112149178D01*
X151590606Y-112149179D01*
X151608778Y-112176376D01*
X151608780Y-112176378D01*
X151629658Y-112243055D01*
X151611174Y-112310435D01*
X151593360Y-112332950D01*
X151479659Y-112446651D01*
X151389093Y-112593481D01*
X151389091Y-112593486D01*
X151365978Y-112663238D01*
X151334826Y-112757247D01*
X151334826Y-112757248D01*
X151334825Y-112757248D01*
X151324500Y-112858315D01*
X149706928Y-112858315D01*
X149663781Y-112709801D01*
X149580185Y-112568447D01*
X149580178Y-112568438D01*
X149464061Y-112452321D01*
X149464052Y-112452314D01*
X149322696Y-112368717D01*
X149322693Y-112368716D01*
X149164995Y-112322900D01*
X149164989Y-112322899D01*
X149128149Y-112320000D01*
X148800000Y-112320000D01*
X148800000Y-112870000D01*
X148300000Y-112870000D01*
X148300000Y-112320000D01*
X147971850Y-112320000D01*
X147935010Y-112322899D01*
X147799674Y-112362218D01*
X147729805Y-112362018D01*
X147671135Y-112324075D01*
X147642292Y-112260437D01*
X147641081Y-112243639D01*
X147640495Y-112095481D01*
X147659914Y-112028369D01*
X147712537Y-111982405D01*
X147765478Y-111970999D01*
X150150000Y-111990000D01*
X150144512Y-110919877D01*
X150153948Y-110871792D01*
X150182237Y-110803497D01*
X150213000Y-110648842D01*
X150213000Y-110491158D01*
X150213000Y-110491155D01*
X150212999Y-110491153D01*
X150182239Y-110336511D01*
X150182236Y-110336501D01*
X150150322Y-110259453D01*
X150140885Y-110212637D01*
X150140333Y-110104954D01*
X150130632Y-108213342D01*
X150149972Y-108146204D01*
X150202541Y-108100179D01*
X150253336Y-108088715D01*
X152049266Y-108070007D01*
X152050658Y-108070001D01*
X161375749Y-108088557D01*
G37*
%TD.AperFunction*%
%TD*%
%TA.AperFunction,Conductor*%
%TO.N,GND*%
G36*
X129009010Y-89033293D02*
G01*
X129025247Y-89038674D01*
X129126323Y-89049000D01*
X129699676Y-89048999D01*
X129699684Y-89048998D01*
X129699687Y-89048998D01*
X129755030Y-89043344D01*
X129800753Y-89038674D01*
X129816989Y-89033293D01*
X129855993Y-89027000D01*
X134812007Y-89027000D01*
X134851010Y-89033293D01*
X134867247Y-89038674D01*
X134968323Y-89049000D01*
X135541676Y-89048999D01*
X135541684Y-89048998D01*
X135541687Y-89048998D01*
X135597030Y-89043344D01*
X135642753Y-89038674D01*
X135658989Y-89033293D01*
X135697993Y-89027000D01*
X161375500Y-89027000D01*
X161442539Y-89046685D01*
X161488294Y-89099489D01*
X161499500Y-89151000D01*
X161499500Y-90427000D01*
X161479815Y-90494039D01*
X161427011Y-90539794D01*
X161375500Y-90551000D01*
X131329598Y-90551000D01*
X131262559Y-90531315D01*
X131256524Y-90527180D01*
X131248733Y-90521497D01*
X131196716Y-90469480D01*
X131109904Y-90419360D01*
X131059785Y-90390423D01*
X130907057Y-90349499D01*
X130748943Y-90349499D01*
X130741347Y-90349499D01*
X130741331Y-90349500D01*
X127373155Y-90349500D01*
X127306116Y-90329815D01*
X127260361Y-90277011D01*
X127250417Y-90207853D01*
X127279442Y-90144297D01*
X127285474Y-90137819D01*
X128359973Y-89063319D01*
X128421296Y-89029834D01*
X128447654Y-89027000D01*
X128970007Y-89027000D01*
X129009010Y-89033293D01*
G37*
%TD.AperFunction*%
%TA.AperFunction,Conductor*%
G36*
X126560167Y-85998640D02*
G01*
X126606857Y-86050619D01*
X126619000Y-86104135D01*
X126619000Y-88882632D01*
X126599315Y-88949671D01*
X126582681Y-88970313D01*
X126300564Y-89252431D01*
X126239241Y-89285916D01*
X126212883Y-89288750D01*
X125571567Y-89288750D01*
X125504528Y-89269065D01*
X125458773Y-89216261D01*
X125455385Y-89208083D01*
X125407954Y-89080914D01*
X125407950Y-89080907D01*
X125321790Y-88965813D01*
X125321787Y-88965810D01*
X125206693Y-88879650D01*
X125206686Y-88879646D01*
X125071979Y-88829404D01*
X125071972Y-88829402D01*
X125012444Y-88823001D01*
X124794749Y-88823001D01*
X124727710Y-88803316D01*
X124681955Y-88750512D01*
X124670749Y-88699001D01*
X124670749Y-88140080D01*
X124671131Y-88130352D01*
X124679013Y-88030199D01*
X124686116Y-87939928D01*
X124689158Y-87920721D01*
X124732610Y-87739731D01*
X124738618Y-87721242D01*
X124809845Y-87549280D01*
X124818673Y-87531954D01*
X124915923Y-87373256D01*
X124927358Y-87357518D01*
X125051380Y-87212305D01*
X125057965Y-87205182D01*
X125566724Y-86696425D01*
X125570183Y-86693099D01*
X125878355Y-86408227D01*
X125885721Y-86401936D01*
X126213369Y-86143639D01*
X126221216Y-86137938D01*
X126426110Y-86001032D01*
X126492787Y-85980155D01*
X126560167Y-85998640D01*
G37*
%TD.AperFunction*%
%TA.AperFunction,Conductor*%
G36*
X126562039Y-77329785D02*
G01*
X126607794Y-77382589D01*
X126619000Y-77434100D01*
X126619000Y-84304505D01*
X126599315Y-84371544D01*
X126546511Y-84417299D01*
X126385390Y-84490879D01*
X126385383Y-84490883D01*
X125961610Y-84722281D01*
X125555416Y-84983325D01*
X125555411Y-84983328D01*
X125168893Y-85272671D01*
X124803986Y-85588866D01*
X124803975Y-85588876D01*
X124768602Y-85624250D01*
X124679329Y-85713523D01*
X124679327Y-85713525D01*
X124671676Y-85721176D01*
X124610350Y-85754657D01*
X124540659Y-85749668D01*
X124484728Y-85707793D01*
X124460315Y-85642327D01*
X124460000Y-85633489D01*
X124460000Y-84808182D01*
X124479685Y-84741143D01*
X124532489Y-84695388D01*
X124536548Y-84693621D01*
X124619172Y-84659397D01*
X124619172Y-84659396D01*
X124619179Y-84659394D01*
X124750289Y-84571789D01*
X124861789Y-84460289D01*
X124949394Y-84329179D01*
X125009737Y-84183497D01*
X125040500Y-84028842D01*
X125040500Y-83871158D01*
X125040500Y-83871155D01*
X125040499Y-83871153D01*
X125034200Y-83839484D01*
X125009737Y-83716503D01*
X124989129Y-83666750D01*
X124949397Y-83570827D01*
X124949390Y-83570814D01*
X124861789Y-83439711D01*
X124861786Y-83439707D01*
X124750292Y-83328213D01*
X124750288Y-83328210D01*
X124619185Y-83240609D01*
X124619175Y-83240604D01*
X124536547Y-83206378D01*
X124482143Y-83162537D01*
X124460079Y-83096242D01*
X124460000Y-83091817D01*
X124460000Y-77434100D01*
X124479685Y-77367061D01*
X124532489Y-77321306D01*
X124584000Y-77310100D01*
X126495000Y-77310100D01*
X126562039Y-77329785D01*
G37*
%TD.AperFunction*%
%TD*%
M02*
