%TF.GenerationSoftware,KiCad,Pcbnew,9.0.0*%
%TF.CreationDate,2025-11-11T18:57:33-05:00*%
%TF.ProjectId,Agi_WSN,4167695f-5753-44e2-9e6b-696361645f70,rev?*%
%TF.SameCoordinates,Original*%
%TF.FileFunction,Soldermask,Bot*%
%TF.FilePolarity,Negative*%
%FSLAX46Y46*%
G04 Gerber Fmt 4.6, Leading zero omitted, Abs format (unit mm)*
G04 Created by KiCad (PCBNEW 9.0.0) date 2025-11-11 18:57:33*
%MOMM*%
%LPD*%
G01*
G04 APERTURE LIST*
%ADD10R,1.580000X1.580000*%
%ADD11C,1.580000*%
%ADD12C,1.575000*%
%ADD13R,1.575000X1.575000*%
%ADD14C,1.508000*%
%ADD15R,1.508000X1.508000*%
%ADD16O,1.900000X1.000000*%
%ADD17O,1.250000X1.050000*%
%ADD18C,2.006600*%
%ADD19C,1.905000*%
%ADD20C,1.000000*%
%ADD21C,1.300000*%
G04 APERTURE END LIST*
D10*
%TO.C,S1*%
X141530000Y-106700000D03*
D11*
X141530000Y-99080000D03*
X144070000Y-106700000D03*
X144070000Y-99080000D03*
X146610000Y-106700000D03*
X146610000Y-99080000D03*
X149150000Y-106700000D03*
X149150000Y-99080000D03*
X151690000Y-106700000D03*
X151690000Y-99080000D03*
%TD*%
D12*
%TO.C,J10*%
X155250000Y-123025000D03*
D13*
X157750000Y-123025000D03*
%TD*%
D12*
%TO.C,J9*%
X145250000Y-123025000D03*
D13*
X147750000Y-123025000D03*
%TD*%
D14*
%TO.C,J8*%
X81590000Y-92860000D03*
X81590000Y-90360000D03*
X81590000Y-95360000D03*
D15*
X81590000Y-97860000D03*
D14*
X81590000Y-87860000D03*
%TD*%
%TO.C,J7*%
X82250000Y-123500000D03*
X82250000Y-121000000D03*
D15*
X82250000Y-118500000D03*
%TD*%
D14*
%TO.C,J6*%
X82250000Y-110290000D03*
X82250000Y-107790000D03*
D15*
X82250000Y-105290000D03*
%TD*%
D14*
%TO.C,J5*%
X95025000Y-111000000D03*
X95025000Y-108500000D03*
D15*
X95025000Y-106000000D03*
%TD*%
D14*
%TO.C,J3*%
X132500000Y-123025000D03*
X130000000Y-123025000D03*
X135000000Y-123025000D03*
D15*
X137500000Y-123025000D03*
D14*
X127500000Y-123025000D03*
%TD*%
D16*
%TO.C,J2*%
X160550000Y-117745000D03*
D17*
X157550000Y-115795000D03*
X157550000Y-111345000D03*
D16*
X160550000Y-109395000D03*
%TD*%
D18*
%TO.C,J1*%
X144272000Y-84963000D03*
D19*
X141719300Y-82410300D03*
X141719300Y-87515700D03*
X146824700Y-87515700D03*
X146824700Y-82410300D03*
%TD*%
D20*
%TO.C,BT1*%
X94100000Y-91010000D03*
D21*
X101600000Y-91010000D03*
%TD*%
D14*
%TO.C,J4*%
X95000000Y-123500000D03*
X95000000Y-121000000D03*
D15*
X95000000Y-118500000D03*
%TD*%
D14*
%TO.C,J11*%
X157910000Y-99870000D03*
X157910000Y-97370000D03*
X157910000Y-102370000D03*
D15*
X157910000Y-104870000D03*
%TD*%
M02*
