%TF.GenerationSoftware,KiCad,Pcbnew,9.0.0*%
%TF.CreationDate,2025-11-11T18:57:33-05:00*%
%TF.ProjectId,Agi_WSN,4167695f-5753-44e2-9e6b-696361645f70,rev?*%
%TF.SameCoordinates,Original*%
%TF.FileFunction,Copper,L2,Inr*%
%TF.FilePolarity,Positive*%
%FSLAX46Y46*%
G04 Gerber Fmt 4.6, Leading zero omitted, Abs format (unit mm)*
G04 Created by KiCad (PCBNEW 9.0.0) date 2025-11-11 18:57:33*
%MOMM*%
%LPD*%
G01*
G04 APERTURE LIST*
%TA.AperFunction,ComponentPad*%
%ADD10R,1.580000X1.580000*%
%TD*%
%TA.AperFunction,ComponentPad*%
%ADD11C,1.580000*%
%TD*%
%TA.AperFunction,ComponentPad*%
%ADD12C,1.575000*%
%TD*%
%TA.AperFunction,ComponentPad*%
%ADD13R,1.575000X1.575000*%
%TD*%
%TA.AperFunction,ComponentPad*%
%ADD14C,1.508000*%
%TD*%
%TA.AperFunction,ComponentPad*%
%ADD15R,1.508000X1.508000*%
%TD*%
%TA.AperFunction,HeatsinkPad*%
%ADD16O,1.900000X1.000000*%
%TD*%
%TA.AperFunction,HeatsinkPad*%
%ADD17O,1.250000X1.050000*%
%TD*%
%TA.AperFunction,ComponentPad*%
%ADD18C,2.006600*%
%TD*%
%TA.AperFunction,ComponentPad*%
%ADD19C,1.905000*%
%TD*%
%TA.AperFunction,ViaPad*%
%ADD20C,0.600000*%
%TD*%
G04 APERTURE END LIST*
D10*
%TO.N,/MCU/DIP0*%
%TO.C,S1*%
X141530000Y-106700000D03*
D11*
%TO.N,GND*%
X141530000Y-99080000D03*
%TO.N,/MCU/DIP1*%
X144070000Y-106700000D03*
%TO.N,GND*%
X144070000Y-99080000D03*
%TO.N,unconnected-(S1-Pad3A)*%
X146610000Y-106700000D03*
%TO.N,GND*%
X146610000Y-99080000D03*
%TO.N,unconnected-(S1-Pad4A)*%
X149150000Y-106700000D03*
%TO.N,GND*%
X149150000Y-99080000D03*
%TO.N,unconnected-(S1-Pad5A)*%
X151690000Y-106700000D03*
%TO.N,GND*%
X151690000Y-99080000D03*
%TD*%
D12*
%TO.N,GND*%
%TO.C,J10*%
X155250000Y-123025000D03*
D13*
%TO.N,+5V*%
X157750000Y-123025000D03*
%TD*%
D12*
%TO.N,GND*%
%TO.C,J9*%
X145250000Y-123025000D03*
D13*
%TO.N,+3.3V*%
X147750000Y-123025000D03*
%TD*%
D14*
%TO.N,SO*%
%TO.C,J8*%
X81590000Y-92860000D03*
%TO.N,EXT_CS*%
X81590000Y-90360000D03*
%TO.N,SCK*%
X81590000Y-95360000D03*
D15*
%TO.N,SI*%
X81590000Y-97860000D03*
D14*
%TO.N,GND*%
X81590000Y-87860000D03*
%TD*%
%TO.N,GND*%
%TO.C,J7*%
X82250000Y-123500000D03*
%TO.N,Sensor C(5V)*%
X82250000Y-121000000D03*
D15*
%TO.N,+5V*%
X82250000Y-118500000D03*
%TD*%
D14*
%TO.N,GND*%
%TO.C,J6*%
X82250000Y-110290000D03*
%TO.N,Input A*%
X82250000Y-107790000D03*
D15*
%TO.N,+3.3V*%
X82250000Y-105290000D03*
%TD*%
D14*
%TO.N,GND*%
%TO.C,J5*%
X95025000Y-111000000D03*
%TO.N,Input B*%
X95025000Y-108500000D03*
D15*
%TO.N,+3.3V*%
X95025000Y-106000000D03*
%TD*%
D14*
%TO.N,SWDIO*%
%TO.C,J3*%
X132500000Y-123025000D03*
%TO.N,SWCLK*%
X130000000Y-123025000D03*
%TO.N,NRST*%
X135000000Y-123025000D03*
D15*
%TO.N,+3.3V*%
X137500000Y-123025000D03*
D14*
%TO.N,GND*%
X127500000Y-123025000D03*
%TD*%
D16*
%TO.N,GND*%
%TO.C,J2*%
X160550000Y-117745000D03*
D17*
X157550000Y-115795000D03*
X157550000Y-111345000D03*
D16*
X160550000Y-109395000D03*
%TD*%
D18*
%TO.N,Net-(C25-Pad2)*%
%TO.C,J1*%
X144272000Y-84963000D03*
D19*
%TO.N,GND*%
X141719300Y-82410300D03*
X141719300Y-87515700D03*
X146824700Y-87515700D03*
X146824700Y-82410300D03*
%TD*%
D14*
%TO.N,GND*%
%TO.C,J4*%
X95000000Y-123500000D03*
%TO.N,Sensor C(3.3V)*%
X95000000Y-121000000D03*
D15*
%TO.N,+3.3V*%
X95000000Y-118500000D03*
%TD*%
D14*
%TO.N,UART_TX*%
%TO.C,J11*%
X157910000Y-99870000D03*
%TO.N,GND*%
X157910000Y-97370000D03*
%TO.N,UART_RX*%
X157910000Y-102370000D03*
D15*
%TO.N,+3.3V*%
X157910000Y-104870000D03*
%TD*%
D20*
%TO.N,GND*%
X125603518Y-78230272D03*
X120954800Y-92557600D03*
X120853200Y-89763600D03*
X123698000Y-92557600D03*
X122259500Y-91200000D03*
%TO.N,+3.3V*%
X121564400Y-102057200D03*
X124256800Y-115925600D03*
%TO.N,GND*%
X143814800Y-111810800D03*
X133807200Y-86309200D03*
X130962400Y-85852000D03*
X135128000Y-78994000D03*
%TO.N,+3.3V*%
X130048000Y-81280000D03*
%TO.N,GND*%
X129921000Y-80264000D03*
%TO.N,+3.3V*%
X128905000Y-80772000D03*
%TO.N,GND*%
X159385000Y-89916000D03*
X160401000Y-89916000D03*
X155194000Y-89916000D03*
X158242000Y-89916000D03*
X156210000Y-89916000D03*
X157226000Y-89916000D03*
X151003000Y-89916000D03*
X154051000Y-89916000D03*
X152019000Y-89916000D03*
X153035000Y-89916000D03*
X146812000Y-89916000D03*
X149860000Y-89916000D03*
X147828000Y-89916000D03*
X148844000Y-89916000D03*
X142748000Y-89916000D03*
X145796000Y-89916000D03*
X143764000Y-89916000D03*
X144780000Y-89916000D03*
X138684000Y-89916000D03*
X141732000Y-89916000D03*
X139700000Y-89916000D03*
X140716000Y-89916000D03*
X134620000Y-89916000D03*
X137668000Y-89916000D03*
X135636000Y-89916000D03*
X136652000Y-89916000D03*
X130556000Y-89916000D03*
X133604000Y-89916000D03*
X131572000Y-89916000D03*
X132588000Y-89916000D03*
X128524000Y-89916000D03*
X129540000Y-89916000D03*
X127508000Y-89916000D03*
X125603000Y-88011000D03*
X125603000Y-83058000D03*
X125603000Y-87122000D03*
X125603000Y-83947000D03*
X125603000Y-82042000D03*
X125603000Y-81026000D03*
X125603000Y-80010000D03*
X125603000Y-79121000D03*
X156972000Y-109220000D03*
X136630000Y-118750000D03*
%TO.N,+3.3V*%
X115200000Y-107070000D03*
%TO.N,ADC_CS*%
X117330000Y-103190000D03*
X116910000Y-100300000D03*
%TO.N,Net-(U3-VBAT)*%
X111071734Y-102898266D03*
%TO.N,GND*%
X89150000Y-93070000D03*
%TO.N,Net-(U3-VBAT)*%
X109500000Y-91200000D03*
%TO.N,+3.3V*%
X124240000Y-83950000D03*
X112490000Y-91460000D03*
%TO.N,/MCU/LED*%
X126520000Y-102590000D03*
X135930000Y-104990000D03*
X123000000Y-99280000D03*
%TO.N,GND*%
X123170000Y-79690000D03*
%TO.N,+3.3V*%
X106760000Y-105680000D03*
X86530000Y-93390000D03*
%TO.N,GND*%
X126140000Y-88790000D03*
%TO.N,!W*%
X121410000Y-105180000D03*
%TO.N,HOLD*%
X125530000Y-99140000D03*
%TO.N,SO*%
X116027000Y-104005000D03*
X119360000Y-118240000D03*
%TO.N,SI*%
X118680000Y-119520000D03*
%TO.N,ADC_CS*%
X123600000Y-120020000D03*
%TO.N,EEPROM_CS*%
X118035735Y-99785735D03*
X116530000Y-93610000D03*
%TO.N,EXT_CS*%
X117900000Y-93410000D03*
%TO.N,ADC_CS*%
X115840000Y-97010000D03*
%TO.N,GND*%
X118240000Y-95700000D03*
%TO.N,RTC_CS*%
X110960000Y-103930000D03*
%TO.N,MFP*%
X115280000Y-103000000D03*
%TO.N,RTC_CS*%
X115020000Y-97730000D03*
%TO.N,SI*%
X120670000Y-98000000D03*
%TO.N,MFP*%
X121640000Y-97720000D03*
%TO.N,/MCU/LED*%
X122970000Y-97390000D03*
%TO.N,SWDIO*%
X119270000Y-94640000D03*
%TO.N,SWCLK*%
X120740000Y-95360000D03*
%TO.N,+3.3V*%
X119140000Y-95580000D03*
%TO.N,GND*%
X112430000Y-95020000D03*
X116220000Y-90080000D03*
X116910000Y-89290000D03*
%TO.N,NRST*%
X119210000Y-87750000D03*
%TO.N,HOLD*%
X118710000Y-85870000D03*
%TO.N,!W*%
X119920000Y-86240000D03*
%TO.N,GND*%
X113235000Y-82780000D03*
X118795000Y-79090000D03*
%TO.N,+3.3V*%
X117899500Y-87730000D03*
%TO.N,GND*%
X113879500Y-86450000D03*
%TO.N,SI*%
X115777000Y-109505000D03*
%TO.N,+3.3V*%
X125500000Y-109750000D03*
%TO.N,GND*%
X117277000Y-106505000D03*
X119310000Y-101500000D03*
%TO.N,NRST*%
X134750000Y-115750000D03*
%TO.N,+3.3V*%
X127500000Y-106500000D03*
%TO.N,GND*%
X149412500Y-110570000D03*
X150050000Y-114020000D03*
X152300000Y-111770000D03*
X137500000Y-112750000D03*
X134000000Y-112750000D03*
X130500000Y-112750000D03*
X127000000Y-112500000D03*
X127000000Y-115500000D03*
X123190000Y-115690000D03*
X123000000Y-122000000D03*
%TO.N,+3.3V*%
X112395600Y-99136400D03*
%TO.N,GND*%
X109527000Y-106005000D03*
X109527000Y-100505000D03*
X105527000Y-99505000D03*
X105527000Y-106505000D03*
X109500000Y-114500000D03*
X105500000Y-114500000D03*
X110562500Y-126062500D03*
X104387500Y-126387500D03*
%TO.N,+3.3V*%
X101000000Y-122500000D03*
%TO.N,GND*%
X105750000Y-117750000D03*
X109250000Y-117500000D03*
%TO.N,/Sensors/Therm*%
X113000000Y-122500000D03*
X113500000Y-116500000D03*
%TO.N,GND*%
X108337500Y-126337500D03*
%TD*%
%TA.AperFunction,Conductor*%
%TO.N,GND*%
G36*
X151281062Y-77329785D02*
G01*
X151304718Y-77349540D01*
X161466196Y-88248602D01*
X161497515Y-88311059D01*
X161499500Y-88333160D01*
X161499500Y-108333928D01*
X161479815Y-108400967D01*
X161427011Y-108446722D01*
X161357853Y-108456666D01*
X161328048Y-108448489D01*
X161291693Y-108433430D01*
X161291681Y-108433427D01*
X161098495Y-108395000D01*
X160800000Y-108395000D01*
X160800000Y-109095000D01*
X160300000Y-109095000D01*
X160300000Y-108395000D01*
X160001504Y-108395000D01*
X159808318Y-108433427D01*
X159808306Y-108433430D01*
X159626328Y-108508807D01*
X159626315Y-108508814D01*
X159462537Y-108618248D01*
X159462533Y-108618251D01*
X159323251Y-108757533D01*
X159323248Y-108757537D01*
X159213814Y-108921315D01*
X159213807Y-108921328D01*
X159138430Y-109103307D01*
X159138430Y-109103309D01*
X159130138Y-109145000D01*
X160033012Y-109145000D01*
X160015795Y-109154940D01*
X159959940Y-109210795D01*
X159920444Y-109279204D01*
X159900000Y-109355504D01*
X159900000Y-109434496D01*
X159920444Y-109510796D01*
X159959940Y-109579205D01*
X160015795Y-109635060D01*
X160033012Y-109645000D01*
X159130138Y-109645000D01*
X159138430Y-109686690D01*
X159138430Y-109686692D01*
X159213807Y-109868671D01*
X159213814Y-109868684D01*
X159323248Y-110032462D01*
X159323251Y-110032466D01*
X159462533Y-110171748D01*
X159462537Y-110171751D01*
X159626315Y-110281185D01*
X159626328Y-110281192D01*
X159740280Y-110328392D01*
X159794684Y-110372233D01*
X159816749Y-110438527D01*
X159799470Y-110506226D01*
X159780510Y-110530634D01*
X159706115Y-110605029D01*
X159706113Y-110605032D01*
X159604833Y-110756608D01*
X159604831Y-110756612D01*
X159535068Y-110925037D01*
X159535065Y-110925047D01*
X159499500Y-111103843D01*
X159499500Y-111103846D01*
X159499500Y-111286154D01*
X159499500Y-111286156D01*
X159499499Y-111286156D01*
X159535065Y-111464952D01*
X159535068Y-111464962D01*
X159604831Y-111633387D01*
X159604833Y-111633391D01*
X159706113Y-111784967D01*
X159706119Y-111784975D01*
X159835024Y-111913880D01*
X159835032Y-111913886D01*
X159986608Y-112015166D01*
X159986612Y-112015168D01*
X160125074Y-112072520D01*
X160155042Y-112084933D01*
X160155046Y-112084933D01*
X160155047Y-112084934D01*
X160333843Y-112120500D01*
X160333846Y-112120500D01*
X160359108Y-112120500D01*
X161375500Y-112120500D01*
X161442539Y-112140185D01*
X161488294Y-112192989D01*
X161499500Y-112244500D01*
X161499500Y-114895500D01*
X161479815Y-114962539D01*
X161427011Y-115008294D01*
X161375500Y-115019500D01*
X160333844Y-115019500D01*
X160155047Y-115055065D01*
X160155037Y-115055068D01*
X159986612Y-115124831D01*
X159986608Y-115124833D01*
X159835032Y-115226113D01*
X159835024Y-115226119D01*
X159706119Y-115355024D01*
X159706113Y-115355032D01*
X159604833Y-115506608D01*
X159604831Y-115506612D01*
X159535068Y-115675037D01*
X159535065Y-115675047D01*
X159499500Y-115853843D01*
X159499500Y-115853846D01*
X159499500Y-116036154D01*
X159499500Y-116036156D01*
X159499499Y-116036156D01*
X159535065Y-116214952D01*
X159535068Y-116214962D01*
X159604831Y-116383387D01*
X159604833Y-116383391D01*
X159706113Y-116534967D01*
X159706119Y-116534975D01*
X159780509Y-116609365D01*
X159813994Y-116670688D01*
X159809010Y-116740380D01*
X159767138Y-116796313D01*
X159740281Y-116811607D01*
X159626325Y-116858809D01*
X159626315Y-116858814D01*
X159462537Y-116968248D01*
X159462533Y-116968251D01*
X159323251Y-117107533D01*
X159323248Y-117107537D01*
X159213814Y-117271315D01*
X159213807Y-117271328D01*
X159138430Y-117453307D01*
X159138430Y-117453309D01*
X159130138Y-117495000D01*
X160033012Y-117495000D01*
X160015795Y-117504940D01*
X159959940Y-117560795D01*
X159920444Y-117629204D01*
X159900000Y-117705504D01*
X159900000Y-117784496D01*
X159920444Y-117860796D01*
X159959940Y-117929205D01*
X160015795Y-117985060D01*
X160033012Y-117995000D01*
X159130138Y-117995000D01*
X159138430Y-118036690D01*
X159138430Y-118036692D01*
X159213807Y-118218671D01*
X159213814Y-118218684D01*
X159323248Y-118382462D01*
X159323251Y-118382466D01*
X159462533Y-118521748D01*
X159462537Y-118521751D01*
X159626315Y-118631185D01*
X159626328Y-118631192D01*
X159808306Y-118706569D01*
X159808318Y-118706572D01*
X160001504Y-118744999D01*
X160001508Y-118745000D01*
X160300000Y-118745000D01*
X160300000Y-118045000D01*
X160800000Y-118045000D01*
X160800000Y-118745000D01*
X161098492Y-118745000D01*
X161098495Y-118744999D01*
X161291681Y-118706572D01*
X161291690Y-118706570D01*
X161328045Y-118691511D01*
X161397515Y-118684041D01*
X161459994Y-118715315D01*
X161495648Y-118775403D01*
X161499500Y-118806071D01*
X161499500Y-126284289D01*
X161479815Y-126351328D01*
X161463221Y-126371930D01*
X160509119Y-127326899D01*
X160447811Y-127360412D01*
X160421474Y-127363258D01*
X78704176Y-127413515D01*
X78637125Y-127393872D01*
X78591337Y-127341096D01*
X78580100Y-127289515D01*
X78580100Y-117698135D01*
X80995500Y-117698135D01*
X80995500Y-119301870D01*
X80995501Y-119301876D01*
X81001908Y-119361483D01*
X81052202Y-119496328D01*
X81052206Y-119496335D01*
X81138452Y-119611544D01*
X81138455Y-119611547D01*
X81253664Y-119697793D01*
X81253671Y-119697797D01*
X81298618Y-119714561D01*
X81388517Y-119748091D01*
X81448127Y-119754500D01*
X81448336Y-119754499D01*
X81448381Y-119754513D01*
X81451453Y-119754678D01*
X81451414Y-119755402D01*
X81515378Y-119774165D01*
X81561148Y-119826956D01*
X81571111Y-119896112D01*
X81542104Y-119959675D01*
X81521254Y-119978817D01*
X81432749Y-120043119D01*
X81293115Y-120182753D01*
X81177058Y-120342495D01*
X81087408Y-120518441D01*
X81026389Y-120706236D01*
X80995500Y-120901263D01*
X80995500Y-121098736D01*
X81026389Y-121293763D01*
X81087408Y-121481558D01*
X81087409Y-121481561D01*
X81177056Y-121657501D01*
X81177058Y-121657504D01*
X81293115Y-121817246D01*
X81432753Y-121956884D01*
X81582234Y-122065486D01*
X81592499Y-122072944D01*
X81723702Y-122139796D01*
X81774497Y-122187770D01*
X81791292Y-122255591D01*
X81768754Y-122321726D01*
X81723701Y-122360765D01*
X81592762Y-122427482D01*
X81592760Y-122427483D01*
X81557010Y-122453456D01*
X81557010Y-122453457D01*
X82120591Y-123017037D01*
X82057007Y-123034075D01*
X81942993Y-123099901D01*
X81849901Y-123192993D01*
X81784075Y-123307007D01*
X81767037Y-123370590D01*
X81203457Y-122807010D01*
X81203456Y-122807010D01*
X81177483Y-122842760D01*
X81177482Y-122842762D01*
X81087873Y-123018626D01*
X81026876Y-123206353D01*
X80996000Y-123401302D01*
X80996000Y-123598697D01*
X81026876Y-123793646D01*
X81087873Y-123981373D01*
X81177483Y-124157239D01*
X81203457Y-124192988D01*
X81203457Y-124192989D01*
X81767037Y-123629409D01*
X81784075Y-123692993D01*
X81849901Y-123807007D01*
X81942993Y-123900099D01*
X82057007Y-123965925D01*
X82120590Y-123982962D01*
X81557009Y-124546541D01*
X81557010Y-124546542D01*
X81592755Y-124572512D01*
X81592768Y-124572520D01*
X81768626Y-124662126D01*
X81956353Y-124723123D01*
X82151303Y-124754000D01*
X82348697Y-124754000D01*
X82543646Y-124723123D01*
X82731373Y-124662126D01*
X82907241Y-124572516D01*
X82942988Y-124546543D01*
X82942988Y-124546541D01*
X82379410Y-123982962D01*
X82442993Y-123965925D01*
X82557007Y-123900099D01*
X82650099Y-123807007D01*
X82715925Y-123692993D01*
X82732962Y-123629409D01*
X83296541Y-124192988D01*
X83296543Y-124192988D01*
X83322516Y-124157241D01*
X83412126Y-123981373D01*
X83473123Y-123793646D01*
X83504000Y-123598697D01*
X83504000Y-123401302D01*
X83473123Y-123206353D01*
X83412126Y-123018626D01*
X83322520Y-122842768D01*
X83322512Y-122842755D01*
X83296542Y-122807010D01*
X83296541Y-122807009D01*
X82732962Y-123370589D01*
X82715925Y-123307007D01*
X82650099Y-123192993D01*
X82557007Y-123099901D01*
X82442993Y-123034075D01*
X82379409Y-123017037D01*
X82942989Y-122453457D01*
X82907239Y-122427483D01*
X82776298Y-122360765D01*
X82725502Y-122312790D01*
X82708707Y-122244969D01*
X82731245Y-122178834D01*
X82776294Y-122139797D01*
X82907501Y-122072944D01*
X82927912Y-122058114D01*
X83067246Y-121956884D01*
X83067248Y-121956881D01*
X83067252Y-121956879D01*
X83206879Y-121817252D01*
X83206881Y-121817248D01*
X83206884Y-121817246D01*
X83292430Y-121699500D01*
X83322944Y-121657501D01*
X83412591Y-121481561D01*
X83473610Y-121293763D01*
X83504500Y-121098736D01*
X83504500Y-120901263D01*
X83473610Y-120706236D01*
X83416441Y-120530289D01*
X83412591Y-120518439D01*
X83322944Y-120342499D01*
X83306960Y-120320499D01*
X83206884Y-120182753D01*
X83067250Y-120043119D01*
X83067245Y-120043115D01*
X82978746Y-119978817D01*
X82936080Y-119923487D01*
X82930101Y-119853874D01*
X82962706Y-119792079D01*
X83023545Y-119757722D01*
X83048573Y-119754849D01*
X83048564Y-119754676D01*
X83051421Y-119754523D01*
X83051631Y-119754499D01*
X83051871Y-119754499D01*
X83051872Y-119754499D01*
X83111483Y-119748091D01*
X83246331Y-119697796D01*
X83361546Y-119611546D01*
X83447796Y-119496331D01*
X83498091Y-119361483D01*
X83504500Y-119301873D01*
X83504499Y-117698135D01*
X93745500Y-117698135D01*
X93745500Y-119301870D01*
X93745501Y-119301876D01*
X93751908Y-119361483D01*
X93802202Y-119496328D01*
X93802206Y-119496335D01*
X93888452Y-119611544D01*
X93888455Y-119611547D01*
X94003664Y-119697793D01*
X94003671Y-119697797D01*
X94048618Y-119714561D01*
X94138517Y-119748091D01*
X94198127Y-119754500D01*
X94198336Y-119754499D01*
X94198381Y-119754513D01*
X94201453Y-119754678D01*
X94201414Y-119755402D01*
X94265378Y-119774165D01*
X94311148Y-119826956D01*
X94321111Y-119896112D01*
X94292104Y-119959675D01*
X94271254Y-119978817D01*
X94182749Y-120043119D01*
X94043115Y-120182753D01*
X93927058Y-120342495D01*
X93837408Y-120518441D01*
X93776389Y-120706236D01*
X93745500Y-120901263D01*
X93745500Y-121098736D01*
X93776389Y-121293763D01*
X93837408Y-121481558D01*
X93837409Y-121481561D01*
X93927056Y-121657501D01*
X93927058Y-121657504D01*
X94043115Y-121817246D01*
X94182753Y-121956884D01*
X94332234Y-122065486D01*
X94342499Y-122072944D01*
X94473702Y-122139796D01*
X94524497Y-122187770D01*
X94541292Y-122255591D01*
X94518754Y-122321726D01*
X94473701Y-122360765D01*
X94342762Y-122427482D01*
X94342760Y-122427483D01*
X94307010Y-122453456D01*
X94307010Y-122453457D01*
X94870591Y-123017037D01*
X94807007Y-123034075D01*
X94692993Y-123099901D01*
X94599901Y-123192993D01*
X94534075Y-123307007D01*
X94517037Y-123370590D01*
X93953457Y-122807010D01*
X93953456Y-122807010D01*
X93927483Y-122842760D01*
X93927482Y-122842762D01*
X93837873Y-123018626D01*
X93776876Y-123206353D01*
X93746000Y-123401302D01*
X93746000Y-123598697D01*
X93776876Y-123793646D01*
X93837873Y-123981373D01*
X93927483Y-124157239D01*
X93953457Y-124192988D01*
X93953457Y-124192989D01*
X94517037Y-123629408D01*
X94534075Y-123692993D01*
X94599901Y-123807007D01*
X94692993Y-123900099D01*
X94807007Y-123965925D01*
X94870590Y-123982962D01*
X94307009Y-124546541D01*
X94307010Y-124546542D01*
X94342755Y-124572512D01*
X94342768Y-124572520D01*
X94518626Y-124662126D01*
X94706353Y-124723123D01*
X94901303Y-124754000D01*
X95098697Y-124754000D01*
X95293646Y-124723123D01*
X95481373Y-124662126D01*
X95657241Y-124572516D01*
X95692988Y-124546543D01*
X95692988Y-124546541D01*
X95129410Y-123982962D01*
X95192993Y-123965925D01*
X95307007Y-123900099D01*
X95400099Y-123807007D01*
X95465925Y-123692993D01*
X95482962Y-123629409D01*
X96046541Y-124192988D01*
X96046543Y-124192988D01*
X96072516Y-124157241D01*
X96162126Y-123981371D01*
X96223122Y-123793646D01*
X96254000Y-123598697D01*
X96254000Y-123401302D01*
X96223123Y-123206353D01*
X96162126Y-123018626D01*
X96072520Y-122842768D01*
X96072512Y-122842755D01*
X96046542Y-122807010D01*
X96046541Y-122807009D01*
X95482962Y-123370589D01*
X95465925Y-123307007D01*
X95400099Y-123192993D01*
X95307007Y-123099901D01*
X95192993Y-123034075D01*
X95129409Y-123017037D01*
X95692988Y-122453458D01*
X95692988Y-122453457D01*
X95657239Y-122427483D01*
X95644816Y-122421153D01*
X100199500Y-122421153D01*
X100199500Y-122578846D01*
X100230261Y-122733489D01*
X100230264Y-122733501D01*
X100290602Y-122879172D01*
X100290609Y-122879185D01*
X100378210Y-123010288D01*
X100378213Y-123010292D01*
X100489707Y-123121786D01*
X100489711Y-123121789D01*
X100620814Y-123209390D01*
X100620827Y-123209397D01*
X100766498Y-123269735D01*
X100766503Y-123269737D01*
X100921153Y-123300499D01*
X100921156Y-123300500D01*
X100921158Y-123300500D01*
X101078844Y-123300500D01*
X101078845Y-123300499D01*
X101233497Y-123269737D01*
X101379179Y-123209394D01*
X101510289Y-123121789D01*
X101621789Y-123010289D01*
X101709394Y-122879179D01*
X101769737Y-122733497D01*
X101800500Y-122578842D01*
X101800500Y-122421158D01*
X101800500Y-122421155D01*
X101800499Y-122421153D01*
X112199500Y-122421153D01*
X112199500Y-122578846D01*
X112230261Y-122733489D01*
X112230264Y-122733501D01*
X112290602Y-122879172D01*
X112290609Y-122879185D01*
X112378210Y-123010288D01*
X112378213Y-123010292D01*
X112489707Y-123121786D01*
X112489711Y-123121789D01*
X112620814Y-123209390D01*
X112620827Y-123209397D01*
X112766498Y-123269735D01*
X112766503Y-123269737D01*
X112921153Y-123300499D01*
X112921156Y-123300500D01*
X112921158Y-123300500D01*
X113078844Y-123300500D01*
X113078845Y-123300499D01*
X113233497Y-123269737D01*
X113379179Y-123209394D01*
X113510289Y-123121789D01*
X113621789Y-123010289D01*
X113677907Y-122926302D01*
X126246000Y-122926302D01*
X126246000Y-123123697D01*
X126276876Y-123318646D01*
X126337873Y-123506373D01*
X126427483Y-123682239D01*
X126453457Y-123717988D01*
X126453457Y-123717989D01*
X127017037Y-123154409D01*
X127034075Y-123217993D01*
X127099901Y-123332007D01*
X127192993Y-123425099D01*
X127307007Y-123490925D01*
X127370590Y-123507962D01*
X126807009Y-124071541D01*
X126807010Y-124071542D01*
X126842755Y-124097512D01*
X126842768Y-124097520D01*
X127018626Y-124187126D01*
X127206353Y-124248123D01*
X127401303Y-124279000D01*
X127598697Y-124279000D01*
X127793646Y-124248123D01*
X127981373Y-124187126D01*
X128157241Y-124097516D01*
X128192988Y-124071543D01*
X128192988Y-124071541D01*
X127629410Y-123507962D01*
X127692993Y-123490925D01*
X127807007Y-123425099D01*
X127900099Y-123332007D01*
X127965925Y-123217993D01*
X127982962Y-123154409D01*
X128546541Y-123717988D01*
X128546543Y-123717988D01*
X128572516Y-123682241D01*
X128639235Y-123551298D01*
X128687209Y-123500502D01*
X128755030Y-123483707D01*
X128821165Y-123506244D01*
X128860202Y-123551294D01*
X128924782Y-123678039D01*
X128927058Y-123682505D01*
X129043115Y-123842246D01*
X129182753Y-123981884D01*
X129306158Y-124071541D01*
X129342499Y-124097944D01*
X129518439Y-124187591D01*
X129643637Y-124228270D01*
X129706236Y-124248610D01*
X129901264Y-124279500D01*
X129901269Y-124279500D01*
X130098736Y-124279500D01*
X130293763Y-124248610D01*
X130295262Y-124248123D01*
X130481561Y-124187591D01*
X130657501Y-124097944D01*
X130785521Y-124004933D01*
X130817246Y-123981884D01*
X130817248Y-123981881D01*
X130817252Y-123981879D01*
X130956879Y-123842252D01*
X130956881Y-123842248D01*
X130956884Y-123842246D01*
X131072941Y-123682505D01*
X131072940Y-123682505D01*
X131072944Y-123682501D01*
X131139516Y-123551846D01*
X131187490Y-123501052D01*
X131255311Y-123484257D01*
X131321446Y-123506794D01*
X131360482Y-123551845D01*
X131424166Y-123676830D01*
X131427058Y-123682505D01*
X131543115Y-123842246D01*
X131682753Y-123981884D01*
X131806158Y-124071541D01*
X131842499Y-124097944D01*
X132018439Y-124187591D01*
X132143637Y-124228270D01*
X132206236Y-124248610D01*
X132401264Y-124279500D01*
X132401269Y-124279500D01*
X132598736Y-124279500D01*
X132793763Y-124248610D01*
X132795262Y-124248123D01*
X132981561Y-124187591D01*
X133157501Y-124097944D01*
X133285521Y-124004933D01*
X133317246Y-123981884D01*
X133317248Y-123981881D01*
X133317252Y-123981879D01*
X133456879Y-123842252D01*
X133456881Y-123842248D01*
X133456884Y-123842246D01*
X133572941Y-123682505D01*
X133572940Y-123682505D01*
X133572944Y-123682501D01*
X133639516Y-123551846D01*
X133687490Y-123501052D01*
X133755311Y-123484257D01*
X133821446Y-123506794D01*
X133860482Y-123551845D01*
X133924166Y-123676830D01*
X133927058Y-123682505D01*
X134043115Y-123842246D01*
X134182753Y-123981884D01*
X134306158Y-124071541D01*
X134342499Y-124097944D01*
X134518439Y-124187591D01*
X134643637Y-124228270D01*
X134706236Y-124248610D01*
X134901264Y-124279500D01*
X134901269Y-124279500D01*
X135098736Y-124279500D01*
X135293763Y-124248610D01*
X135295262Y-124248123D01*
X135481561Y-124187591D01*
X135657501Y-124097944D01*
X135785521Y-124004933D01*
X135817246Y-123981884D01*
X135817248Y-123981881D01*
X135817252Y-123981879D01*
X135956879Y-123842252D01*
X136021182Y-123753744D01*
X136076510Y-123711080D01*
X136146123Y-123705099D01*
X136207919Y-123737704D01*
X136242277Y-123798543D01*
X136245152Y-123823573D01*
X136245324Y-123823564D01*
X136245474Y-123826371D01*
X136245500Y-123826595D01*
X136245500Y-123826852D01*
X136245501Y-123826876D01*
X136251908Y-123886483D01*
X136302202Y-124021328D01*
X136302206Y-124021335D01*
X136388452Y-124136544D01*
X136388455Y-124136547D01*
X136503664Y-124222793D01*
X136503671Y-124222797D01*
X136638517Y-124273091D01*
X136638516Y-124273091D01*
X136645444Y-124273835D01*
X136698127Y-124279500D01*
X138301872Y-124279499D01*
X138361483Y-124273091D01*
X138496331Y-124222796D01*
X138611546Y-124136546D01*
X138697796Y-124021331D01*
X138748091Y-123886483D01*
X138754500Y-123826873D01*
X138754499Y-122923672D01*
X143962500Y-122923672D01*
X143962500Y-123126327D01*
X143994203Y-123326491D01*
X144056825Y-123519225D01*
X144056827Y-123519228D01*
X144148831Y-123699797D01*
X144179473Y-123741971D01*
X144179474Y-123741972D01*
X144746624Y-123174821D01*
X144760778Y-123227642D01*
X144829896Y-123347357D01*
X144927643Y-123445104D01*
X145047358Y-123514222D01*
X145100178Y-123528375D01*
X144533026Y-124095525D01*
X144575202Y-124126168D01*
X144755771Y-124218172D01*
X144755774Y-124218174D01*
X144948508Y-124280796D01*
X145148673Y-124312500D01*
X145351327Y-124312500D01*
X145551491Y-124280796D01*
X145744225Y-124218174D01*
X145744228Y-124218172D01*
X145924797Y-124126168D01*
X145966971Y-124095526D01*
X145966971Y-124095525D01*
X145399821Y-123528375D01*
X145452642Y-123514222D01*
X145572357Y-123445104D01*
X145670104Y-123347357D01*
X145739222Y-123227642D01*
X145753375Y-123174821D01*
X146320525Y-123741971D01*
X146328340Y-123741356D01*
X146396717Y-123755720D01*
X146446474Y-123804772D01*
X146461531Y-123857083D01*
X146461646Y-123857071D01*
X146461716Y-123857725D01*
X146461891Y-123858332D01*
X146462000Y-123860364D01*
X146468408Y-123919983D01*
X146518702Y-124054828D01*
X146518706Y-124054835D01*
X146604952Y-124170044D01*
X146604955Y-124170047D01*
X146720164Y-124256293D01*
X146720171Y-124256297D01*
X146855017Y-124306591D01*
X146855016Y-124306591D01*
X146861944Y-124307335D01*
X146914627Y-124313000D01*
X148585372Y-124312999D01*
X148644983Y-124306591D01*
X148779831Y-124256296D01*
X148895046Y-124170046D01*
X148981296Y-124054831D01*
X149008504Y-123981884D01*
X149031591Y-123919982D01*
X149038000Y-123860373D01*
X149037999Y-122923672D01*
X153962500Y-122923672D01*
X153962500Y-123126327D01*
X153994203Y-123326491D01*
X154056825Y-123519225D01*
X154056827Y-123519228D01*
X154148831Y-123699797D01*
X154179473Y-123741971D01*
X154179474Y-123741972D01*
X154746624Y-123174821D01*
X154760778Y-123227642D01*
X154829896Y-123347357D01*
X154927643Y-123445104D01*
X155047358Y-123514222D01*
X155100178Y-123528375D01*
X154533026Y-124095525D01*
X154575202Y-124126168D01*
X154755771Y-124218172D01*
X154755774Y-124218174D01*
X154948508Y-124280796D01*
X155148673Y-124312500D01*
X155351327Y-124312500D01*
X155551491Y-124280796D01*
X155744225Y-124218174D01*
X155744228Y-124218172D01*
X155924797Y-124126168D01*
X155966971Y-124095526D01*
X155966971Y-124095525D01*
X155399821Y-123528375D01*
X155452642Y-123514222D01*
X155572357Y-123445104D01*
X155670104Y-123347357D01*
X155739222Y-123227642D01*
X155753375Y-123174821D01*
X156320525Y-123741971D01*
X156328340Y-123741356D01*
X156396717Y-123755720D01*
X156446474Y-123804772D01*
X156461531Y-123857083D01*
X156461646Y-123857071D01*
X156461716Y-123857725D01*
X156461891Y-123858332D01*
X156462000Y-123860364D01*
X156468408Y-123919983D01*
X156518702Y-124054828D01*
X156518706Y-124054835D01*
X156604952Y-124170044D01*
X156604955Y-124170047D01*
X156720164Y-124256293D01*
X156720171Y-124256297D01*
X156855017Y-124306591D01*
X156855016Y-124306591D01*
X156861944Y-124307335D01*
X156914627Y-124313000D01*
X158585372Y-124312999D01*
X158644983Y-124306591D01*
X158779831Y-124256296D01*
X158895046Y-124170046D01*
X158981296Y-124054831D01*
X159031591Y-123919983D01*
X159038000Y-123860373D01*
X159037999Y-122189628D01*
X159031591Y-122130017D01*
X159028163Y-122120827D01*
X158981297Y-121995171D01*
X158981293Y-121995164D01*
X158895047Y-121879955D01*
X158895044Y-121879952D01*
X158779835Y-121793706D01*
X158779828Y-121793702D01*
X158644982Y-121743408D01*
X158644983Y-121743408D01*
X158585383Y-121737001D01*
X158585381Y-121737000D01*
X158585373Y-121737000D01*
X158585364Y-121737000D01*
X156914629Y-121737000D01*
X156914623Y-121737001D01*
X156855016Y-121743408D01*
X156720171Y-121793702D01*
X156720164Y-121793706D01*
X156604955Y-121879952D01*
X156604952Y-121879955D01*
X156518706Y-121995164D01*
X156518702Y-121995171D01*
X156468408Y-122130017D01*
X156461999Y-122189626D01*
X156461889Y-122191688D01*
X156461729Y-122192138D01*
X156461645Y-122192928D01*
X156461458Y-122192907D01*
X156438629Y-122257573D01*
X156383442Y-122300423D01*
X156328341Y-122308641D01*
X156320526Y-122308026D01*
X155753375Y-122875177D01*
X155739222Y-122822358D01*
X155670104Y-122702643D01*
X155572357Y-122604896D01*
X155452642Y-122535778D01*
X155399822Y-122521624D01*
X155966972Y-121954474D01*
X155966971Y-121954473D01*
X155924797Y-121923831D01*
X155744228Y-121831827D01*
X155744225Y-121831825D01*
X155551491Y-121769203D01*
X155351327Y-121737500D01*
X155148673Y-121737500D01*
X154948508Y-121769203D01*
X154755774Y-121831825D01*
X154755771Y-121831826D01*
X154575204Y-121923830D01*
X154533027Y-121954473D01*
X155100178Y-122521624D01*
X155047358Y-122535778D01*
X154927643Y-122604896D01*
X154829896Y-122702643D01*
X154760778Y-122822358D01*
X154746624Y-122875178D01*
X154179473Y-122308027D01*
X154148830Y-122350204D01*
X154056826Y-122530771D01*
X154056825Y-122530774D01*
X153994203Y-122723508D01*
X153962500Y-122923672D01*
X149037999Y-122923672D01*
X149037999Y-122189628D01*
X149031591Y-122130017D01*
X149028163Y-122120827D01*
X148999906Y-122045065D01*
X148999905Y-122045063D01*
X148981298Y-121995173D01*
X148981293Y-121995164D01*
X148895047Y-121879955D01*
X148895044Y-121879952D01*
X148779835Y-121793706D01*
X148779828Y-121793702D01*
X148644982Y-121743408D01*
X148644983Y-121743408D01*
X148585383Y-121737001D01*
X148585381Y-121737000D01*
X148585373Y-121737000D01*
X148585364Y-121737000D01*
X146914629Y-121737000D01*
X146914623Y-121737001D01*
X146855016Y-121743408D01*
X146720171Y-121793702D01*
X146720164Y-121793706D01*
X146604955Y-121879952D01*
X146604952Y-121879955D01*
X146518706Y-121995164D01*
X146518702Y-121995171D01*
X146468408Y-122130017D01*
X146461999Y-122189626D01*
X146461889Y-122191688D01*
X146461729Y-122192138D01*
X146461645Y-122192928D01*
X146461458Y-122192907D01*
X146438629Y-122257573D01*
X146383442Y-122300423D01*
X146328341Y-122308641D01*
X146320526Y-122308026D01*
X145753375Y-122875177D01*
X145739222Y-122822358D01*
X145670104Y-122702643D01*
X145572357Y-122604896D01*
X145452642Y-122535778D01*
X145399822Y-122521624D01*
X145966972Y-121954474D01*
X145966971Y-121954473D01*
X145924797Y-121923831D01*
X145744228Y-121831827D01*
X145744225Y-121831825D01*
X145551491Y-121769203D01*
X145351327Y-121737500D01*
X145148673Y-121737500D01*
X144948508Y-121769203D01*
X144755774Y-121831825D01*
X144755771Y-121831826D01*
X144575204Y-121923830D01*
X144533027Y-121954473D01*
X145100178Y-122521624D01*
X145047358Y-122535778D01*
X144927643Y-122604896D01*
X144829896Y-122702643D01*
X144760778Y-122822358D01*
X144746624Y-122875178D01*
X144179473Y-122308027D01*
X144148830Y-122350204D01*
X144056826Y-122530771D01*
X144056825Y-122530774D01*
X143994203Y-122723508D01*
X143962500Y-122923672D01*
X138754499Y-122923672D01*
X138754499Y-122223128D01*
X138748091Y-122163517D01*
X138747746Y-122162591D01*
X138703912Y-122045065D01*
X138699934Y-122034402D01*
X138697796Y-122028669D01*
X138697794Y-122028666D01*
X138697793Y-122028664D01*
X138611547Y-121913455D01*
X138611544Y-121913452D01*
X138496335Y-121827206D01*
X138496328Y-121827202D01*
X138361482Y-121776908D01*
X138361483Y-121776908D01*
X138301883Y-121770501D01*
X138301881Y-121770500D01*
X138301873Y-121770500D01*
X138301864Y-121770500D01*
X136698129Y-121770500D01*
X136698123Y-121770501D01*
X136638516Y-121776908D01*
X136503671Y-121827202D01*
X136503664Y-121827206D01*
X136388455Y-121913452D01*
X136388452Y-121913455D01*
X136302206Y-122028664D01*
X136302202Y-122028671D01*
X136251908Y-122163517D01*
X136247153Y-122207748D01*
X136245501Y-122223123D01*
X136245500Y-122223135D01*
X136245500Y-122223368D01*
X136245484Y-122223420D01*
X136245322Y-122226452D01*
X136244605Y-122226413D01*
X136225815Y-122290407D01*
X136173011Y-122336162D01*
X136103853Y-122346106D01*
X136040297Y-122317081D01*
X136021182Y-122296253D01*
X135956884Y-122207753D01*
X135817246Y-122068115D01*
X135657504Y-121952058D01*
X135657503Y-121952057D01*
X135657501Y-121952056D01*
X135481561Y-121862409D01*
X135481558Y-121862408D01*
X135293763Y-121801389D01*
X135098736Y-121770500D01*
X135098731Y-121770500D01*
X134901269Y-121770500D01*
X134901264Y-121770500D01*
X134706236Y-121801389D01*
X134518441Y-121862408D01*
X134342495Y-121952058D01*
X134182753Y-122068115D01*
X134043115Y-122207753D01*
X133927058Y-122367495D01*
X133860485Y-122498151D01*
X133812510Y-122548947D01*
X133744689Y-122565742D01*
X133678554Y-122543204D01*
X133639515Y-122498151D01*
X133572944Y-122367499D01*
X133547159Y-122332009D01*
X133456884Y-122207753D01*
X133317246Y-122068115D01*
X133157504Y-121952058D01*
X133157503Y-121952057D01*
X133157501Y-121952056D01*
X132981561Y-121862409D01*
X132981558Y-121862408D01*
X132793763Y-121801389D01*
X132598736Y-121770500D01*
X132598731Y-121770500D01*
X132401269Y-121770500D01*
X132401264Y-121770500D01*
X132206236Y-121801389D01*
X132018441Y-121862408D01*
X131842495Y-121952058D01*
X131682753Y-122068115D01*
X131543115Y-122207753D01*
X131427058Y-122367495D01*
X131360485Y-122498151D01*
X131312510Y-122548947D01*
X131244689Y-122565742D01*
X131178554Y-122543204D01*
X131139515Y-122498151D01*
X131072944Y-122367499D01*
X131047159Y-122332009D01*
X130956884Y-122207753D01*
X130817246Y-122068115D01*
X130657504Y-121952058D01*
X130657503Y-121952057D01*
X130657501Y-121952056D01*
X130481561Y-121862409D01*
X130481558Y-121862408D01*
X130293763Y-121801389D01*
X130098736Y-121770500D01*
X130098731Y-121770500D01*
X129901269Y-121770500D01*
X129901264Y-121770500D01*
X129706236Y-121801389D01*
X129518441Y-121862408D01*
X129342495Y-121952058D01*
X129182753Y-122068115D01*
X129043115Y-122207753D01*
X128927056Y-122367497D01*
X128860203Y-122498702D01*
X128812229Y-122549497D01*
X128744407Y-122566292D01*
X128678273Y-122543754D01*
X128639234Y-122498701D01*
X128572520Y-122367768D01*
X128572512Y-122367755D01*
X128546542Y-122332010D01*
X128546541Y-122332009D01*
X127982962Y-122895589D01*
X127965925Y-122832007D01*
X127900099Y-122717993D01*
X127807007Y-122624901D01*
X127692993Y-122559075D01*
X127629409Y-122542037D01*
X128192989Y-121978457D01*
X128157239Y-121952483D01*
X127981373Y-121862873D01*
X127793646Y-121801876D01*
X127598697Y-121771000D01*
X127401303Y-121771000D01*
X127206353Y-121801876D01*
X127018626Y-121862873D01*
X126842762Y-121952482D01*
X126842760Y-121952483D01*
X126807010Y-121978456D01*
X126807010Y-121978457D01*
X127370591Y-122542037D01*
X127307007Y-122559075D01*
X127192993Y-122624901D01*
X127099901Y-122717993D01*
X127034075Y-122832007D01*
X127017037Y-122895590D01*
X126453457Y-122332010D01*
X126453456Y-122332010D01*
X126427483Y-122367760D01*
X126427482Y-122367762D01*
X126337873Y-122543626D01*
X126276876Y-122731353D01*
X126246000Y-122926302D01*
X113677907Y-122926302D01*
X113709394Y-122879179D01*
X113769737Y-122733497D01*
X113800500Y-122578842D01*
X113800500Y-122421158D01*
X113800500Y-122421155D01*
X113800499Y-122421153D01*
X113782767Y-122332009D01*
X113769737Y-122266503D01*
X113764765Y-122254500D01*
X113709397Y-122120827D01*
X113709390Y-122120814D01*
X113691879Y-122094607D01*
X113621789Y-121989711D01*
X113621786Y-121989707D01*
X113510292Y-121878213D01*
X113510288Y-121878210D01*
X113379185Y-121790609D01*
X113379172Y-121790602D01*
X113233501Y-121730264D01*
X113233489Y-121730261D01*
X113078845Y-121699500D01*
X113078842Y-121699500D01*
X112921158Y-121699500D01*
X112921155Y-121699500D01*
X112766510Y-121730261D01*
X112766498Y-121730264D01*
X112620827Y-121790602D01*
X112620814Y-121790609D01*
X112489711Y-121878210D01*
X112489707Y-121878213D01*
X112378213Y-121989707D01*
X112378210Y-121989711D01*
X112290609Y-122120814D01*
X112290602Y-122120827D01*
X112230264Y-122266498D01*
X112230261Y-122266510D01*
X112199500Y-122421153D01*
X101800499Y-122421153D01*
X101782767Y-122332009D01*
X101769737Y-122266503D01*
X101764765Y-122254500D01*
X101709397Y-122120827D01*
X101709390Y-122120814D01*
X101621789Y-121989711D01*
X101621786Y-121989707D01*
X101510292Y-121878213D01*
X101510288Y-121878210D01*
X101379185Y-121790609D01*
X101379172Y-121790602D01*
X101233501Y-121730264D01*
X101233489Y-121730261D01*
X101078845Y-121699500D01*
X101078842Y-121699500D01*
X100921158Y-121699500D01*
X100921155Y-121699500D01*
X100766510Y-121730261D01*
X100766498Y-121730264D01*
X100620827Y-121790602D01*
X100620814Y-121790609D01*
X100489711Y-121878210D01*
X100489707Y-121878213D01*
X100378213Y-121989707D01*
X100378210Y-121989711D01*
X100290609Y-122120814D01*
X100290602Y-122120827D01*
X100230264Y-122266498D01*
X100230261Y-122266510D01*
X100199500Y-122421153D01*
X95644816Y-122421153D01*
X95526298Y-122360765D01*
X95475502Y-122312790D01*
X95458707Y-122244969D01*
X95481245Y-122178834D01*
X95526294Y-122139797D01*
X95657501Y-122072944D01*
X95677912Y-122058114D01*
X95817246Y-121956884D01*
X95817248Y-121956881D01*
X95817252Y-121956879D01*
X95956879Y-121817252D01*
X95956881Y-121817248D01*
X95956884Y-121817246D01*
X96042430Y-121699500D01*
X96072944Y-121657501D01*
X96162591Y-121481561D01*
X96223610Y-121293763D01*
X96254500Y-121098736D01*
X96254500Y-120901263D01*
X96223610Y-120706236D01*
X96166441Y-120530289D01*
X96162591Y-120518439D01*
X96072944Y-120342499D01*
X96056960Y-120320499D01*
X95956884Y-120182753D01*
X95817250Y-120043119D01*
X95817245Y-120043115D01*
X95728746Y-119978817D01*
X95686080Y-119923487D01*
X95680101Y-119853874D01*
X95712706Y-119792079D01*
X95773545Y-119757722D01*
X95798573Y-119754849D01*
X95798564Y-119754676D01*
X95801421Y-119754523D01*
X95801631Y-119754499D01*
X95801871Y-119754499D01*
X95801872Y-119754499D01*
X95861483Y-119748091D01*
X95996331Y-119697796D01*
X96111546Y-119611546D01*
X96197796Y-119496331D01*
X96218374Y-119441158D01*
X96218376Y-119441153D01*
X117879500Y-119441153D01*
X117879500Y-119598846D01*
X117910261Y-119753489D01*
X117910264Y-119753501D01*
X117970602Y-119899172D01*
X117970609Y-119899185D01*
X118058210Y-120030288D01*
X118058213Y-120030292D01*
X118169707Y-120141786D01*
X118169711Y-120141789D01*
X118300814Y-120229390D01*
X118300827Y-120229397D01*
X118446498Y-120289735D01*
X118446503Y-120289737D01*
X118601153Y-120320499D01*
X118601156Y-120320500D01*
X118601158Y-120320500D01*
X118758844Y-120320500D01*
X118758845Y-120320499D01*
X118913497Y-120289737D01*
X119059179Y-120229394D01*
X119190289Y-120141789D01*
X119301789Y-120030289D01*
X119361348Y-119941153D01*
X122799500Y-119941153D01*
X122799500Y-120098846D01*
X122830261Y-120253489D01*
X122830264Y-120253501D01*
X122890602Y-120399172D01*
X122890609Y-120399185D01*
X122978210Y-120530288D01*
X122978213Y-120530292D01*
X123089707Y-120641786D01*
X123089711Y-120641789D01*
X123220814Y-120729390D01*
X123220827Y-120729397D01*
X123366498Y-120789735D01*
X123366503Y-120789737D01*
X123521153Y-120820499D01*
X123521156Y-120820500D01*
X123521158Y-120820500D01*
X123678844Y-120820500D01*
X123678845Y-120820499D01*
X123833497Y-120789737D01*
X123979179Y-120729394D01*
X124110289Y-120641789D01*
X124221789Y-120530289D01*
X124309394Y-120399179D01*
X124369737Y-120253497D01*
X124400500Y-120098842D01*
X124400500Y-119941158D01*
X124400500Y-119941155D01*
X124400499Y-119941153D01*
X124379863Y-119837409D01*
X124369737Y-119786503D01*
X124365548Y-119776390D01*
X124309397Y-119640827D01*
X124309390Y-119640814D01*
X124221789Y-119509711D01*
X124221786Y-119509707D01*
X124110292Y-119398213D01*
X124110288Y-119398210D01*
X123979185Y-119310609D01*
X123979172Y-119310602D01*
X123833501Y-119250264D01*
X123833489Y-119250261D01*
X123678845Y-119219500D01*
X123678842Y-119219500D01*
X123521158Y-119219500D01*
X123521155Y-119219500D01*
X123366510Y-119250261D01*
X123366498Y-119250264D01*
X123220827Y-119310602D01*
X123220814Y-119310609D01*
X123089711Y-119398210D01*
X123089707Y-119398213D01*
X122978213Y-119509707D01*
X122978210Y-119509711D01*
X122890609Y-119640814D01*
X122890602Y-119640827D01*
X122830264Y-119786498D01*
X122830261Y-119786510D01*
X122799500Y-119941153D01*
X119361348Y-119941153D01*
X119389394Y-119899179D01*
X119449737Y-119753497D01*
X119480500Y-119598842D01*
X119480500Y-119441158D01*
X119480500Y-119441155D01*
X119480499Y-119441153D01*
X119464652Y-119361485D01*
X119449737Y-119286503D01*
X119412586Y-119196813D01*
X119405118Y-119127348D01*
X119436393Y-119064869D01*
X119496481Y-119029216D01*
X119502957Y-119027747D01*
X119536774Y-119021019D01*
X119593497Y-119009737D01*
X119739179Y-118949394D01*
X119870289Y-118861789D01*
X119981789Y-118750289D01*
X120069394Y-118619179D01*
X120129737Y-118473497D01*
X120160500Y-118318842D01*
X120160500Y-118161158D01*
X120160500Y-118161155D01*
X120160499Y-118161153D01*
X120129737Y-118006503D01*
X120129734Y-118006495D01*
X120069397Y-117860827D01*
X120069390Y-117860814D01*
X119981789Y-117729711D01*
X119981786Y-117729707D01*
X119870292Y-117618213D01*
X119870288Y-117618210D01*
X119739185Y-117530609D01*
X119739172Y-117530602D01*
X119593501Y-117470264D01*
X119593489Y-117470261D01*
X119438845Y-117439500D01*
X119438842Y-117439500D01*
X119281158Y-117439500D01*
X119281155Y-117439500D01*
X119126510Y-117470261D01*
X119126498Y-117470264D01*
X118980827Y-117530602D01*
X118980814Y-117530609D01*
X118849711Y-117618210D01*
X118849707Y-117618213D01*
X118738213Y-117729707D01*
X118738210Y-117729711D01*
X118650609Y-117860814D01*
X118650602Y-117860827D01*
X118590264Y-118006498D01*
X118590261Y-118006510D01*
X118559500Y-118161153D01*
X118559500Y-118318846D01*
X118590261Y-118473489D01*
X118590263Y-118473497D01*
X118627412Y-118563183D01*
X118634881Y-118632652D01*
X118603606Y-118695131D01*
X118543517Y-118730783D01*
X118537044Y-118732252D01*
X118446507Y-118750261D01*
X118446498Y-118750264D01*
X118300827Y-118810602D01*
X118300814Y-118810609D01*
X118169711Y-118898210D01*
X118169707Y-118898213D01*
X118058213Y-119009707D01*
X118058210Y-119009711D01*
X117970609Y-119140814D01*
X117970602Y-119140827D01*
X117910264Y-119286498D01*
X117910261Y-119286510D01*
X117879500Y-119441153D01*
X96218376Y-119441153D01*
X96236809Y-119391733D01*
X96236809Y-119391732D01*
X96248090Y-119361485D01*
X96248091Y-119361483D01*
X96248091Y-119361482D01*
X96254500Y-119301873D01*
X96254499Y-117698128D01*
X96248091Y-117638517D01*
X96244617Y-117629204D01*
X96197797Y-117503671D01*
X96197793Y-117503664D01*
X96111547Y-117388455D01*
X96111544Y-117388452D01*
X95996335Y-117302206D01*
X95996328Y-117302202D01*
X95861482Y-117251908D01*
X95861483Y-117251908D01*
X95801883Y-117245501D01*
X95801881Y-117245500D01*
X95801873Y-117245500D01*
X95801864Y-117245500D01*
X94198129Y-117245500D01*
X94198123Y-117245501D01*
X94138516Y-117251908D01*
X94003671Y-117302202D01*
X94003664Y-117302206D01*
X93888455Y-117388452D01*
X93888452Y-117388455D01*
X93802206Y-117503664D01*
X93802202Y-117503671D01*
X93751908Y-117638517D01*
X93745501Y-117698116D01*
X93745501Y-117698123D01*
X93745500Y-117698135D01*
X83504499Y-117698135D01*
X83504499Y-117698128D01*
X83498091Y-117638517D01*
X83494617Y-117629204D01*
X83447797Y-117503671D01*
X83447793Y-117503664D01*
X83361547Y-117388455D01*
X83361544Y-117388452D01*
X83246335Y-117302206D01*
X83246328Y-117302202D01*
X83111482Y-117251908D01*
X83111483Y-117251908D01*
X83051883Y-117245501D01*
X83051881Y-117245500D01*
X83051873Y-117245500D01*
X83051864Y-117245500D01*
X81448129Y-117245500D01*
X81448123Y-117245501D01*
X81388516Y-117251908D01*
X81253671Y-117302202D01*
X81253664Y-117302206D01*
X81138455Y-117388452D01*
X81138452Y-117388455D01*
X81052206Y-117503664D01*
X81052202Y-117503671D01*
X81001908Y-117638517D01*
X80995501Y-117698116D01*
X80995501Y-117698123D01*
X80995500Y-117698135D01*
X78580100Y-117698135D01*
X78580100Y-116421153D01*
X112699500Y-116421153D01*
X112699500Y-116578846D01*
X112730261Y-116733489D01*
X112730264Y-116733501D01*
X112790602Y-116879172D01*
X112790609Y-116879185D01*
X112878210Y-117010288D01*
X112878213Y-117010292D01*
X112989707Y-117121786D01*
X112989711Y-117121789D01*
X113120814Y-117209390D01*
X113120827Y-117209397D01*
X113223462Y-117251909D01*
X113266503Y-117269737D01*
X113421153Y-117300499D01*
X113421156Y-117300500D01*
X113421158Y-117300500D01*
X113578844Y-117300500D01*
X113578845Y-117300499D01*
X113733497Y-117269737D01*
X113879179Y-117209394D01*
X114010289Y-117121789D01*
X114121789Y-117010289D01*
X114209394Y-116879179D01*
X114217832Y-116858809D01*
X114237383Y-116811607D01*
X114269737Y-116733497D01*
X114300500Y-116578842D01*
X114300500Y-116421158D01*
X114300500Y-116421155D01*
X114300499Y-116421153D01*
X114277352Y-116304785D01*
X114269737Y-116266503D01*
X114225250Y-116159101D01*
X114209397Y-116120827D01*
X114209390Y-116120814D01*
X114121789Y-115989711D01*
X114121786Y-115989707D01*
X114010292Y-115878213D01*
X114010288Y-115878210D01*
X113963210Y-115846753D01*
X123456300Y-115846753D01*
X123456300Y-116004446D01*
X123487061Y-116159089D01*
X123487064Y-116159101D01*
X123547402Y-116304772D01*
X123547409Y-116304785D01*
X123635010Y-116435888D01*
X123635013Y-116435892D01*
X123746507Y-116547386D01*
X123746511Y-116547389D01*
X123877614Y-116634990D01*
X123877627Y-116634997D01*
X124023298Y-116695335D01*
X124023303Y-116695337D01*
X124177953Y-116726099D01*
X124177956Y-116726100D01*
X124177958Y-116726100D01*
X124335644Y-116726100D01*
X124335645Y-116726099D01*
X124490297Y-116695337D01*
X124635979Y-116634994D01*
X124767089Y-116547389D01*
X124878589Y-116435889D01*
X124966194Y-116304779D01*
X125026537Y-116159097D01*
X125057300Y-116004442D01*
X125057300Y-115846758D01*
X125057300Y-115846755D01*
X125026537Y-115692104D01*
X125026535Y-115692098D01*
X125017859Y-115671153D01*
X133949500Y-115671153D01*
X133949500Y-115828846D01*
X133980261Y-115983489D01*
X133980264Y-115983501D01*
X134040602Y-116129172D01*
X134040609Y-116129185D01*
X134128210Y-116260288D01*
X134128213Y-116260292D01*
X134239707Y-116371786D01*
X134239711Y-116371789D01*
X134370814Y-116459390D01*
X134370827Y-116459397D01*
X134516498Y-116519735D01*
X134516503Y-116519737D01*
X134655503Y-116547386D01*
X134671153Y-116550499D01*
X134671156Y-116550500D01*
X134671158Y-116550500D01*
X134828844Y-116550500D01*
X134828845Y-116550499D01*
X134983497Y-116519737D01*
X135129179Y-116459394D01*
X135260289Y-116371789D01*
X135371789Y-116260289D01*
X135459394Y-116129179D01*
X135462854Y-116120827D01*
X135497926Y-116036154D01*
X135519737Y-115983497D01*
X135535118Y-115906169D01*
X135550500Y-115828844D01*
X135550500Y-115671155D01*
X135550499Y-115671153D01*
X135536848Y-115602521D01*
X135525406Y-115545000D01*
X156454647Y-115545000D01*
X157240382Y-115545000D01*
X157189936Y-115595446D01*
X157147149Y-115669555D01*
X157125000Y-115752213D01*
X157125000Y-115837787D01*
X157147149Y-115920445D01*
X157189936Y-115994554D01*
X157240382Y-116045000D01*
X156454647Y-116045000D01*
X156464387Y-116093974D01*
X156464390Y-116093983D01*
X156541652Y-116280513D01*
X156541659Y-116280526D01*
X156653829Y-116448399D01*
X156653832Y-116448403D01*
X156796596Y-116591167D01*
X156796600Y-116591170D01*
X156964473Y-116703340D01*
X156964486Y-116703347D01*
X157151016Y-116780609D01*
X157151025Y-116780612D01*
X157300000Y-116810244D01*
X157300000Y-116083674D01*
X157324555Y-116097851D01*
X157407213Y-116120000D01*
X157692787Y-116120000D01*
X157775445Y-116097851D01*
X157800000Y-116083674D01*
X157800000Y-116810243D01*
X157948974Y-116780612D01*
X157948983Y-116780609D01*
X158135513Y-116703347D01*
X158135526Y-116703340D01*
X158303399Y-116591170D01*
X158303403Y-116591167D01*
X158446167Y-116448403D01*
X158446170Y-116448399D01*
X158558340Y-116280526D01*
X158558347Y-116280513D01*
X158635609Y-116093983D01*
X158635612Y-116093974D01*
X158645353Y-116045000D01*
X157859618Y-116045000D01*
X157910064Y-115994554D01*
X157952851Y-115920445D01*
X157975000Y-115837787D01*
X157975000Y-115752213D01*
X157952851Y-115669555D01*
X157910064Y-115595446D01*
X157859618Y-115545000D01*
X158645353Y-115545000D01*
X158635612Y-115496025D01*
X158635609Y-115496016D01*
X158558347Y-115309486D01*
X158558340Y-115309473D01*
X158446170Y-115141600D01*
X158446167Y-115141596D01*
X158303403Y-114998832D01*
X158303399Y-114998829D01*
X158135526Y-114886659D01*
X158135513Y-114886652D01*
X157948986Y-114809391D01*
X157948976Y-114809388D01*
X157800000Y-114779754D01*
X157800000Y-115506325D01*
X157775445Y-115492149D01*
X157692787Y-115470000D01*
X157407213Y-115470000D01*
X157324555Y-115492149D01*
X157300000Y-115506325D01*
X157300000Y-114779755D01*
X157299999Y-114779754D01*
X157151023Y-114809388D01*
X157151013Y-114809391D01*
X156964486Y-114886652D01*
X156964473Y-114886659D01*
X156796600Y-114998829D01*
X156796596Y-114998832D01*
X156653832Y-115141596D01*
X156653829Y-115141600D01*
X156541659Y-115309473D01*
X156541652Y-115309486D01*
X156464390Y-115496016D01*
X156464387Y-115496025D01*
X156454647Y-115545000D01*
X135525406Y-115545000D01*
X135519738Y-115516508D01*
X135519737Y-115516507D01*
X135519737Y-115516503D01*
X135500475Y-115470000D01*
X135459397Y-115370827D01*
X135459390Y-115370814D01*
X135371789Y-115239711D01*
X135371786Y-115239707D01*
X135260292Y-115128213D01*
X135260288Y-115128210D01*
X135129185Y-115040609D01*
X135129172Y-115040602D01*
X134983501Y-114980264D01*
X134983489Y-114980261D01*
X134828845Y-114949500D01*
X134828842Y-114949500D01*
X134671158Y-114949500D01*
X134671155Y-114949500D01*
X134516510Y-114980261D01*
X134516498Y-114980264D01*
X134370827Y-115040602D01*
X134370814Y-115040609D01*
X134239711Y-115128210D01*
X134239707Y-115128213D01*
X134128213Y-115239707D01*
X134128210Y-115239711D01*
X134040609Y-115370814D01*
X134040602Y-115370827D01*
X133980264Y-115516498D01*
X133980261Y-115516510D01*
X133949500Y-115671153D01*
X125017859Y-115671153D01*
X124966197Y-115546427D01*
X124966190Y-115546414D01*
X124878589Y-115415311D01*
X124878586Y-115415307D01*
X124767092Y-115303813D01*
X124767088Y-115303810D01*
X124635985Y-115216209D01*
X124635972Y-115216202D01*
X124490301Y-115155864D01*
X124490289Y-115155861D01*
X124335645Y-115125100D01*
X124335642Y-115125100D01*
X124177958Y-115125100D01*
X124177955Y-115125100D01*
X124023310Y-115155861D01*
X124023298Y-115155864D01*
X123877627Y-115216202D01*
X123877614Y-115216209D01*
X123746511Y-115303810D01*
X123746507Y-115303813D01*
X123635013Y-115415307D01*
X123635010Y-115415311D01*
X123547409Y-115546414D01*
X123547402Y-115546427D01*
X123487064Y-115692098D01*
X123487061Y-115692110D01*
X123456300Y-115846753D01*
X113963210Y-115846753D01*
X113879185Y-115790609D01*
X113879172Y-115790602D01*
X113733501Y-115730264D01*
X113733489Y-115730261D01*
X113578845Y-115699500D01*
X113578842Y-115699500D01*
X113421158Y-115699500D01*
X113421155Y-115699500D01*
X113266510Y-115730261D01*
X113266498Y-115730264D01*
X113120827Y-115790602D01*
X113120814Y-115790609D01*
X112989711Y-115878210D01*
X112989707Y-115878213D01*
X112878213Y-115989707D01*
X112878210Y-115989711D01*
X112790609Y-116120814D01*
X112790602Y-116120827D01*
X112730264Y-116266498D01*
X112730261Y-116266510D01*
X112699500Y-116421153D01*
X78580100Y-116421153D01*
X78580100Y-104488135D01*
X80995500Y-104488135D01*
X80995500Y-106091870D01*
X80995501Y-106091876D01*
X81001908Y-106151483D01*
X81052202Y-106286328D01*
X81052206Y-106286335D01*
X81138452Y-106401544D01*
X81138455Y-106401547D01*
X81253664Y-106487793D01*
X81253671Y-106487797D01*
X81298618Y-106504561D01*
X81388517Y-106538091D01*
X81448127Y-106544500D01*
X81448336Y-106544499D01*
X81448381Y-106544513D01*
X81451453Y-106544678D01*
X81451414Y-106545402D01*
X81515378Y-106564165D01*
X81561148Y-106616956D01*
X81571111Y-106686112D01*
X81542104Y-106749675D01*
X81521254Y-106768817D01*
X81432749Y-106833119D01*
X81293115Y-106972753D01*
X81177058Y-107132495D01*
X81087408Y-107308441D01*
X81026389Y-107496236D01*
X80995500Y-107691263D01*
X80995500Y-107888736D01*
X81026389Y-108083763D01*
X81066184Y-108206237D01*
X81087409Y-108271561D01*
X81177056Y-108447501D01*
X81177058Y-108447504D01*
X81293115Y-108607246D01*
X81432753Y-108746884D01*
X81582234Y-108855486D01*
X81592499Y-108862944D01*
X81723702Y-108929796D01*
X81774497Y-108977770D01*
X81791292Y-109045591D01*
X81768754Y-109111726D01*
X81723701Y-109150765D01*
X81592762Y-109217482D01*
X81592760Y-109217483D01*
X81557010Y-109243456D01*
X81557010Y-109243457D01*
X82120591Y-109807037D01*
X82057007Y-109824075D01*
X81942993Y-109889901D01*
X81849901Y-109982993D01*
X81784075Y-110097007D01*
X81767037Y-110160590D01*
X81203457Y-109597010D01*
X81203456Y-109597010D01*
X81177483Y-109632760D01*
X81177482Y-109632762D01*
X81087873Y-109808626D01*
X81026876Y-109996353D01*
X80996000Y-110191302D01*
X80996000Y-110388697D01*
X81026876Y-110583646D01*
X81087873Y-110771373D01*
X81177483Y-110947239D01*
X81203457Y-110982988D01*
X81203457Y-110982989D01*
X81767037Y-110419409D01*
X81784075Y-110482993D01*
X81849901Y-110597007D01*
X81942993Y-110690099D01*
X82057007Y-110755925D01*
X82120590Y-110772962D01*
X81557009Y-111336541D01*
X81557010Y-111336542D01*
X81592755Y-111362512D01*
X81592768Y-111362520D01*
X81768626Y-111452126D01*
X81956353Y-111513123D01*
X82151303Y-111544000D01*
X82348697Y-111544000D01*
X82543646Y-111513123D01*
X82731373Y-111452126D01*
X82907241Y-111362516D01*
X82942988Y-111336543D01*
X82942988Y-111336541D01*
X82379410Y-110772962D01*
X82442993Y-110755925D01*
X82557007Y-110690099D01*
X82650099Y-110597007D01*
X82715925Y-110482993D01*
X82732962Y-110419409D01*
X83296541Y-110982988D01*
X83296543Y-110982988D01*
X83322516Y-110947241D01*
X83377087Y-110840141D01*
X83412126Y-110771373D01*
X83473123Y-110583646D01*
X83504000Y-110388697D01*
X83504000Y-110191302D01*
X83473123Y-109996353D01*
X83412126Y-109808626D01*
X83322520Y-109632768D01*
X83322512Y-109632755D01*
X83296542Y-109597010D01*
X83296541Y-109597009D01*
X82732962Y-110160589D01*
X82715925Y-110097007D01*
X82650099Y-109982993D01*
X82557007Y-109889901D01*
X82442993Y-109824075D01*
X82379409Y-109807037D01*
X82942989Y-109243457D01*
X82907239Y-109217483D01*
X82776298Y-109150765D01*
X82725502Y-109102790D01*
X82708707Y-109034969D01*
X82731245Y-108968834D01*
X82776294Y-108929797D01*
X82907501Y-108862944D01*
X82927912Y-108848114D01*
X83067246Y-108746884D01*
X83067248Y-108746881D01*
X83067252Y-108746879D01*
X83206879Y-108607252D01*
X83206881Y-108607248D01*
X83206884Y-108607246D01*
X83316285Y-108456666D01*
X83322944Y-108447501D01*
X83412591Y-108271561D01*
X83473610Y-108083763D01*
X83483956Y-108018441D01*
X83504500Y-107888736D01*
X83504500Y-107691263D01*
X83473610Y-107496236D01*
X83449972Y-107423487D01*
X83412591Y-107308439D01*
X83322944Y-107132499D01*
X83307721Y-107111546D01*
X83206884Y-106972753D01*
X83067250Y-106833119D01*
X83067245Y-106833115D01*
X82978746Y-106768817D01*
X82936080Y-106713487D01*
X82930101Y-106643874D01*
X82962706Y-106582079D01*
X83023545Y-106547722D01*
X83048573Y-106544849D01*
X83048564Y-106544676D01*
X83051421Y-106544523D01*
X83051631Y-106544499D01*
X83051871Y-106544499D01*
X83051872Y-106544499D01*
X83111483Y-106538091D01*
X83246331Y-106487796D01*
X83361546Y-106401546D01*
X83447796Y-106286331D01*
X83498091Y-106151483D01*
X83504500Y-106091873D01*
X83504499Y-105198135D01*
X93770500Y-105198135D01*
X93770500Y-106801870D01*
X93770501Y-106801876D01*
X93776908Y-106861483D01*
X93827202Y-106996328D01*
X93827206Y-106996335D01*
X93913452Y-107111544D01*
X93913455Y-107111547D01*
X94028664Y-107197793D01*
X94028671Y-107197797D01*
X94059754Y-107209390D01*
X94163517Y-107248091D01*
X94223127Y-107254500D01*
X94223336Y-107254499D01*
X94223381Y-107254513D01*
X94226453Y-107254678D01*
X94226414Y-107255402D01*
X94290378Y-107274165D01*
X94336148Y-107326956D01*
X94346111Y-107396112D01*
X94317104Y-107459675D01*
X94296254Y-107478817D01*
X94207749Y-107543119D01*
X94068115Y-107682753D01*
X93952058Y-107842495D01*
X93862408Y-108018441D01*
X93801389Y-108206236D01*
X93770500Y-108401263D01*
X93770500Y-108598736D01*
X93801389Y-108793763D01*
X93842834Y-108921315D01*
X93862409Y-108981561D01*
X93952056Y-109157501D01*
X93952058Y-109157504D01*
X94068115Y-109317246D01*
X94207753Y-109456884D01*
X94357234Y-109565486D01*
X94367499Y-109572944D01*
X94498702Y-109639796D01*
X94549497Y-109687770D01*
X94566292Y-109755591D01*
X94543754Y-109821726D01*
X94498701Y-109860765D01*
X94367762Y-109927482D01*
X94367760Y-109927483D01*
X94332010Y-109953456D01*
X94332010Y-109953457D01*
X94895591Y-110517037D01*
X94832007Y-110534075D01*
X94717993Y-110599901D01*
X94624901Y-110692993D01*
X94559075Y-110807007D01*
X94542037Y-110870590D01*
X93978457Y-110307010D01*
X93978456Y-110307010D01*
X93952483Y-110342760D01*
X93952482Y-110342762D01*
X93862873Y-110518626D01*
X93801876Y-110706353D01*
X93771000Y-110901302D01*
X93771000Y-111098697D01*
X93801876Y-111293646D01*
X93862873Y-111481373D01*
X93952483Y-111657239D01*
X93978457Y-111692988D01*
X93978457Y-111692989D01*
X94542037Y-111129408D01*
X94559075Y-111192993D01*
X94624901Y-111307007D01*
X94717993Y-111400099D01*
X94832007Y-111465925D01*
X94895590Y-111482962D01*
X94332009Y-112046541D01*
X94332010Y-112046542D01*
X94367755Y-112072512D01*
X94367768Y-112072520D01*
X94543626Y-112162126D01*
X94731353Y-112223123D01*
X94926303Y-112254000D01*
X95123697Y-112254000D01*
X95318646Y-112223123D01*
X95506373Y-112162126D01*
X95682241Y-112072516D01*
X95717988Y-112046543D01*
X95717988Y-112046541D01*
X95154410Y-111482962D01*
X95217993Y-111465925D01*
X95332007Y-111400099D01*
X95425099Y-111307007D01*
X95490925Y-111192993D01*
X95507962Y-111129409D01*
X96071541Y-111692988D01*
X96071543Y-111692988D01*
X96097516Y-111657241D01*
X96174896Y-111505375D01*
X96174897Y-111505373D01*
X96187125Y-111481375D01*
X96248123Y-111293646D01*
X96277379Y-111108932D01*
X96279000Y-111098697D01*
X96279000Y-111095000D01*
X156454647Y-111095000D01*
X157240382Y-111095000D01*
X157189936Y-111145446D01*
X157147149Y-111219555D01*
X157125000Y-111302213D01*
X157125000Y-111387787D01*
X157147149Y-111470445D01*
X157189936Y-111544554D01*
X157240382Y-111595000D01*
X156454647Y-111595000D01*
X156464387Y-111643974D01*
X156464390Y-111643983D01*
X156541652Y-111830513D01*
X156541659Y-111830526D01*
X156653829Y-111998399D01*
X156653832Y-111998403D01*
X156796596Y-112141167D01*
X156796600Y-112141170D01*
X156964473Y-112253340D01*
X156964486Y-112253347D01*
X157151016Y-112330609D01*
X157151025Y-112330612D01*
X157300000Y-112360244D01*
X157300000Y-111633674D01*
X157324555Y-111647851D01*
X157407213Y-111670000D01*
X157692787Y-111670000D01*
X157775445Y-111647851D01*
X157800000Y-111633674D01*
X157800000Y-112360243D01*
X157948974Y-112330612D01*
X157948983Y-112330609D01*
X158135513Y-112253347D01*
X158135526Y-112253340D01*
X158303399Y-112141170D01*
X158303403Y-112141167D01*
X158446167Y-111998403D01*
X158446170Y-111998399D01*
X158558340Y-111830526D01*
X158558347Y-111830513D01*
X158635609Y-111643983D01*
X158635612Y-111643974D01*
X158645353Y-111595000D01*
X157859618Y-111595000D01*
X157910064Y-111544554D01*
X157952851Y-111470445D01*
X157975000Y-111387787D01*
X157975000Y-111302213D01*
X157952851Y-111219555D01*
X157910064Y-111145446D01*
X157859618Y-111095000D01*
X158645353Y-111095000D01*
X158635612Y-111046025D01*
X158635609Y-111046016D01*
X158558347Y-110859486D01*
X158558340Y-110859473D01*
X158446170Y-110691600D01*
X158446167Y-110691596D01*
X158303403Y-110548832D01*
X158303399Y-110548829D01*
X158135526Y-110436659D01*
X158135513Y-110436652D01*
X157948986Y-110359391D01*
X157948976Y-110359388D01*
X157800000Y-110329754D01*
X157800000Y-111056325D01*
X157775445Y-111042149D01*
X157692787Y-111020000D01*
X157407213Y-111020000D01*
X157324555Y-111042149D01*
X157300000Y-111056325D01*
X157300000Y-110329755D01*
X157299999Y-110329754D01*
X157151023Y-110359388D01*
X157151013Y-110359391D01*
X156964486Y-110436652D01*
X156964473Y-110436659D01*
X156796600Y-110548829D01*
X156796596Y-110548832D01*
X156653832Y-110691596D01*
X156653829Y-110691600D01*
X156541659Y-110859473D01*
X156541652Y-110859486D01*
X156464390Y-111046016D01*
X156464387Y-111046025D01*
X156454647Y-111095000D01*
X96279000Y-111095000D01*
X96279000Y-110901302D01*
X96248123Y-110706353D01*
X96187126Y-110518626D01*
X96097520Y-110342768D01*
X96097512Y-110342755D01*
X96071542Y-110307010D01*
X96071541Y-110307009D01*
X95507962Y-110870589D01*
X95490925Y-110807007D01*
X95425099Y-110692993D01*
X95332007Y-110599901D01*
X95217993Y-110534075D01*
X95154409Y-110517037D01*
X95717989Y-109953457D01*
X95682239Y-109927483D01*
X95551298Y-109860765D01*
X95500502Y-109812790D01*
X95483707Y-109744969D01*
X95506245Y-109678834D01*
X95551294Y-109639797D01*
X95682501Y-109572944D01*
X95702912Y-109558114D01*
X95842246Y-109456884D01*
X95842248Y-109456881D01*
X95842252Y-109456879D01*
X95872978Y-109426153D01*
X114976500Y-109426153D01*
X114976500Y-109583846D01*
X115007261Y-109738489D01*
X115007264Y-109738501D01*
X115067602Y-109884172D01*
X115067609Y-109884185D01*
X115155210Y-110015288D01*
X115155213Y-110015292D01*
X115266707Y-110126786D01*
X115266711Y-110126789D01*
X115397814Y-110214390D01*
X115397827Y-110214397D01*
X115543498Y-110274735D01*
X115543503Y-110274737D01*
X115695981Y-110305067D01*
X115698153Y-110305499D01*
X115698156Y-110305500D01*
X115698158Y-110305500D01*
X115855844Y-110305500D01*
X115855845Y-110305499D01*
X116010497Y-110274737D01*
X116156179Y-110214394D01*
X116287289Y-110126789D01*
X116398789Y-110015289D01*
X116486394Y-109884179D01*
X116546737Y-109738497D01*
X116560133Y-109671153D01*
X124699500Y-109671153D01*
X124699500Y-109828846D01*
X124730261Y-109983489D01*
X124730264Y-109983501D01*
X124790602Y-110129172D01*
X124790609Y-110129185D01*
X124878210Y-110260288D01*
X124878213Y-110260292D01*
X124989707Y-110371786D01*
X124989711Y-110371789D01*
X125120814Y-110459390D01*
X125120827Y-110459397D01*
X125177794Y-110482993D01*
X125266503Y-110519737D01*
X125421153Y-110550499D01*
X125421156Y-110550500D01*
X125421158Y-110550500D01*
X125578844Y-110550500D01*
X125578845Y-110550499D01*
X125733497Y-110519737D01*
X125879179Y-110459394D01*
X126010289Y-110371789D01*
X126121789Y-110260289D01*
X126209394Y-110129179D01*
X126269737Y-109983497D01*
X126300500Y-109828842D01*
X126300500Y-109671158D01*
X126300500Y-109671155D01*
X126300499Y-109671153D01*
X126292864Y-109632768D01*
X126269737Y-109516503D01*
X126235769Y-109434496D01*
X126209397Y-109370827D01*
X126209390Y-109370814D01*
X126126808Y-109247222D01*
X126121789Y-109239710D01*
X126010292Y-109128213D01*
X126010288Y-109128210D01*
X125879185Y-109040609D01*
X125879172Y-109040602D01*
X125733501Y-108980264D01*
X125733489Y-108980261D01*
X125578845Y-108949500D01*
X125578842Y-108949500D01*
X125421158Y-108949500D01*
X125421155Y-108949500D01*
X125266510Y-108980261D01*
X125266498Y-108980264D01*
X125120827Y-109040602D01*
X125120814Y-109040609D01*
X124989711Y-109128210D01*
X124989707Y-109128213D01*
X124878213Y-109239707D01*
X124878210Y-109239711D01*
X124790609Y-109370814D01*
X124790602Y-109370827D01*
X124730264Y-109516498D01*
X124730261Y-109516510D01*
X124699500Y-109671153D01*
X116560133Y-109671153D01*
X116577500Y-109583842D01*
X116577500Y-109426158D01*
X116577500Y-109426155D01*
X116577499Y-109426153D01*
X116555837Y-109317252D01*
X116546737Y-109271503D01*
X116535120Y-109243456D01*
X116486397Y-109125827D01*
X116486390Y-109125814D01*
X116398789Y-108994711D01*
X116398786Y-108994707D01*
X116287292Y-108883213D01*
X116287288Y-108883210D01*
X116156185Y-108795609D01*
X116156172Y-108795602D01*
X116010501Y-108735264D01*
X116010489Y-108735261D01*
X115855845Y-108704500D01*
X115855842Y-108704500D01*
X115698158Y-108704500D01*
X115698155Y-108704500D01*
X115543510Y-108735261D01*
X115543498Y-108735264D01*
X115397827Y-108795602D01*
X115397814Y-108795609D01*
X115266711Y-108883210D01*
X115266707Y-108883213D01*
X115155213Y-108994707D01*
X115155210Y-108994711D01*
X115067609Y-109125814D01*
X115067602Y-109125827D01*
X115007264Y-109271498D01*
X115007261Y-109271510D01*
X114976500Y-109426153D01*
X95872978Y-109426153D01*
X95981879Y-109317252D01*
X95981881Y-109317248D01*
X95981884Y-109317246D01*
X96035494Y-109243457D01*
X96097944Y-109157501D01*
X96187591Y-108981561D01*
X96248610Y-108793763D01*
X96256036Y-108746879D01*
X96279500Y-108598736D01*
X96279500Y-108401263D01*
X96248610Y-108206236D01*
X96208816Y-108083763D01*
X96187591Y-108018439D01*
X96097944Y-107842499D01*
X96069778Y-107803731D01*
X95981884Y-107682753D01*
X95842250Y-107543119D01*
X95842245Y-107543115D01*
X95753746Y-107478817D01*
X95711080Y-107423487D01*
X95705101Y-107353874D01*
X95737706Y-107292079D01*
X95798545Y-107257722D01*
X95823573Y-107254849D01*
X95823564Y-107254676D01*
X95826421Y-107254523D01*
X95826631Y-107254499D01*
X95826871Y-107254499D01*
X95826872Y-107254499D01*
X95886483Y-107248091D01*
X96021331Y-107197796D01*
X96136546Y-107111546D01*
X96222796Y-106996331D01*
X96224727Y-106991153D01*
X114399500Y-106991153D01*
X114399500Y-107148846D01*
X114430261Y-107303489D01*
X114430264Y-107303501D01*
X114490602Y-107449172D01*
X114490609Y-107449185D01*
X114578210Y-107580288D01*
X114578213Y-107580292D01*
X114689707Y-107691786D01*
X114689711Y-107691789D01*
X114820814Y-107779390D01*
X114820827Y-107779397D01*
X114879583Y-107803734D01*
X114966503Y-107839737D01*
X115121153Y-107870499D01*
X115121156Y-107870500D01*
X115121158Y-107870500D01*
X115278844Y-107870500D01*
X115278845Y-107870499D01*
X115433497Y-107839737D01*
X115579179Y-107779394D01*
X115710289Y-107691789D01*
X115821789Y-107580289D01*
X115909394Y-107449179D01*
X115969737Y-107303497D01*
X116000500Y-107148842D01*
X116000500Y-106991158D01*
X116000500Y-106991155D01*
X116000499Y-106991153D01*
X115990669Y-106941733D01*
X115969737Y-106836503D01*
X115955393Y-106801873D01*
X115909397Y-106690827D01*
X115909390Y-106690814D01*
X115821789Y-106559711D01*
X115821786Y-106559707D01*
X115710292Y-106448213D01*
X115710288Y-106448210D01*
X115669795Y-106421153D01*
X126699500Y-106421153D01*
X126699500Y-106578846D01*
X126730261Y-106733489D01*
X126730264Y-106733501D01*
X126790602Y-106879172D01*
X126790609Y-106879185D01*
X126878210Y-107010288D01*
X126878213Y-107010292D01*
X126989707Y-107121786D01*
X126989711Y-107121789D01*
X127120814Y-107209390D01*
X127120827Y-107209397D01*
X127231895Y-107255402D01*
X127266503Y-107269737D01*
X127421153Y-107300499D01*
X127421156Y-107300500D01*
X127421158Y-107300500D01*
X127578844Y-107300500D01*
X127578845Y-107300499D01*
X127733497Y-107269737D01*
X127849131Y-107221840D01*
X127879172Y-107209397D01*
X127879172Y-107209396D01*
X127879179Y-107209394D01*
X128010289Y-107121789D01*
X128121789Y-107010289D01*
X128209394Y-106879179D01*
X128269737Y-106733497D01*
X128300500Y-106578842D01*
X128300500Y-106421158D01*
X128300500Y-106421155D01*
X128300499Y-106421153D01*
X128296599Y-106401546D01*
X128269737Y-106266503D01*
X128269735Y-106266498D01*
X128209397Y-106120827D01*
X128209390Y-106120814D01*
X128121789Y-105989711D01*
X128121786Y-105989707D01*
X128010292Y-105878213D01*
X128010288Y-105878210D01*
X127986230Y-105862135D01*
X140239500Y-105862135D01*
X140239500Y-107537870D01*
X140239501Y-107537876D01*
X140245908Y-107597483D01*
X140296202Y-107732328D01*
X140296206Y-107732335D01*
X140382452Y-107847544D01*
X140382455Y-107847547D01*
X140497664Y-107933793D01*
X140497671Y-107933797D01*
X140632517Y-107984091D01*
X140632516Y-107984091D01*
X140639444Y-107984835D01*
X140692127Y-107990500D01*
X142367872Y-107990499D01*
X142427483Y-107984091D01*
X142562331Y-107933796D01*
X142677546Y-107847546D01*
X142763796Y-107732331D01*
X142814091Y-107597483D01*
X142820007Y-107542456D01*
X142846742Y-107477910D01*
X142904134Y-107438061D01*
X142973959Y-107435566D01*
X143034049Y-107471218D01*
X143043613Y-107482830D01*
X143085656Y-107540697D01*
X143085660Y-107540702D01*
X143229297Y-107684339D01*
X143229302Y-107684343D01*
X143295358Y-107732335D01*
X143393631Y-107803734D01*
X143524666Y-107870500D01*
X143574622Y-107895954D01*
X143767803Y-107958722D01*
X143767804Y-107958722D01*
X143767807Y-107958723D01*
X143968435Y-107990500D01*
X143968436Y-107990500D01*
X144171564Y-107990500D01*
X144171565Y-107990500D01*
X144372193Y-107958723D01*
X144372196Y-107958722D01*
X144372197Y-107958722D01*
X144565377Y-107895954D01*
X144565377Y-107895953D01*
X144565380Y-107895953D01*
X144746369Y-107803734D01*
X144910704Y-107684338D01*
X145054338Y-107540704D01*
X145173734Y-107376369D01*
X145229515Y-107266892D01*
X145277490Y-107216097D01*
X145345311Y-107199302D01*
X145411446Y-107221840D01*
X145450484Y-107266892D01*
X145494804Y-107353874D01*
X145506268Y-107376372D01*
X145625656Y-107540697D01*
X145625660Y-107540702D01*
X145769297Y-107684339D01*
X145769302Y-107684343D01*
X145835358Y-107732335D01*
X145933631Y-107803734D01*
X146064666Y-107870500D01*
X146114622Y-107895954D01*
X146307803Y-107958722D01*
X146307804Y-107958722D01*
X146307807Y-107958723D01*
X146508435Y-107990500D01*
X146508436Y-107990500D01*
X146711564Y-107990500D01*
X146711565Y-107990500D01*
X146912193Y-107958723D01*
X146912196Y-107958722D01*
X146912197Y-107958722D01*
X147105377Y-107895954D01*
X147105377Y-107895953D01*
X147105380Y-107895953D01*
X147286369Y-107803734D01*
X147450704Y-107684338D01*
X147594338Y-107540704D01*
X147713734Y-107376369D01*
X147769515Y-107266892D01*
X147817490Y-107216097D01*
X147885311Y-107199302D01*
X147951446Y-107221840D01*
X147990484Y-107266892D01*
X148034804Y-107353874D01*
X148046268Y-107376372D01*
X148165656Y-107540697D01*
X148165660Y-107540702D01*
X148309297Y-107684339D01*
X148309302Y-107684343D01*
X148375358Y-107732335D01*
X148473631Y-107803734D01*
X148604666Y-107870500D01*
X148654622Y-107895954D01*
X148847803Y-107958722D01*
X148847804Y-107958722D01*
X148847807Y-107958723D01*
X149048435Y-107990500D01*
X149048436Y-107990500D01*
X149251564Y-107990500D01*
X149251565Y-107990500D01*
X149452193Y-107958723D01*
X149452196Y-107958722D01*
X149452197Y-107958722D01*
X149645377Y-107895954D01*
X149645377Y-107895953D01*
X149645380Y-107895953D01*
X149826369Y-107803734D01*
X149990704Y-107684338D01*
X150134338Y-107540704D01*
X150253734Y-107376369D01*
X150309515Y-107266892D01*
X150357490Y-107216097D01*
X150425311Y-107199302D01*
X150491446Y-107221840D01*
X150530484Y-107266892D01*
X150574804Y-107353874D01*
X150586268Y-107376372D01*
X150705656Y-107540697D01*
X150705660Y-107540702D01*
X150849297Y-107684339D01*
X150849302Y-107684343D01*
X150915358Y-107732335D01*
X151013631Y-107803734D01*
X151144666Y-107870500D01*
X151194622Y-107895954D01*
X151387803Y-107958722D01*
X151387804Y-107958722D01*
X151387807Y-107958723D01*
X151588435Y-107990500D01*
X151588436Y-107990500D01*
X151791564Y-107990500D01*
X151791565Y-107990500D01*
X151992193Y-107958723D01*
X151992196Y-107958722D01*
X151992197Y-107958722D01*
X152185377Y-107895954D01*
X152185377Y-107895953D01*
X152185380Y-107895953D01*
X152366369Y-107803734D01*
X152530704Y-107684338D01*
X152674338Y-107540704D01*
X152793734Y-107376369D01*
X152885953Y-107195380D01*
X152906384Y-107132499D01*
X152948722Y-107002197D01*
X152948722Y-107002196D01*
X152948723Y-107002193D01*
X152980500Y-106801565D01*
X152980500Y-106598435D01*
X152948723Y-106397807D01*
X152948722Y-106397803D01*
X152948722Y-106397802D01*
X152885954Y-106204622D01*
X152878650Y-106190288D01*
X152793734Y-106023631D01*
X152751728Y-105965814D01*
X152674343Y-105859302D01*
X152674339Y-105859297D01*
X152530702Y-105715660D01*
X152530697Y-105715656D01*
X152366372Y-105596268D01*
X152366371Y-105596267D01*
X152366369Y-105596266D01*
X152275874Y-105550156D01*
X152185377Y-105504045D01*
X151992196Y-105441277D01*
X151832023Y-105415908D01*
X151791565Y-105409500D01*
X151588435Y-105409500D01*
X151547971Y-105415909D01*
X151387805Y-105441277D01*
X151387802Y-105441277D01*
X151194622Y-105504045D01*
X151013627Y-105596268D01*
X150849302Y-105715656D01*
X150849297Y-105715660D01*
X150705660Y-105859297D01*
X150705656Y-105859302D01*
X150586265Y-106023631D01*
X150586264Y-106023632D01*
X150530484Y-106133106D01*
X150482510Y-106183902D01*
X150414689Y-106200697D01*
X150348554Y-106178159D01*
X150309516Y-106133106D01*
X150253735Y-106023632D01*
X150253734Y-106023631D01*
X150134343Y-105859302D01*
X150134339Y-105859297D01*
X149990702Y-105715660D01*
X149990697Y-105715656D01*
X149826372Y-105596268D01*
X149826371Y-105596267D01*
X149826369Y-105596266D01*
X149735874Y-105550156D01*
X149645377Y-105504045D01*
X149452196Y-105441277D01*
X149292023Y-105415908D01*
X149251565Y-105409500D01*
X149048435Y-105409500D01*
X149007971Y-105415909D01*
X148847805Y-105441277D01*
X148847802Y-105441277D01*
X148654622Y-105504045D01*
X148473627Y-105596268D01*
X148309302Y-105715656D01*
X148309297Y-105715660D01*
X148165660Y-105859297D01*
X148165656Y-105859302D01*
X148046265Y-106023631D01*
X148046264Y-106023632D01*
X147990484Y-106133106D01*
X147942510Y-106183902D01*
X147874689Y-106200697D01*
X147808554Y-106178159D01*
X147769516Y-106133106D01*
X147713735Y-106023632D01*
X147713734Y-106023631D01*
X147594343Y-105859302D01*
X147594339Y-105859297D01*
X147450702Y-105715660D01*
X147450697Y-105715656D01*
X147286372Y-105596268D01*
X147286371Y-105596267D01*
X147286369Y-105596266D01*
X147195874Y-105550156D01*
X147105377Y-105504045D01*
X146912196Y-105441277D01*
X146752023Y-105415908D01*
X146711565Y-105409500D01*
X146508435Y-105409500D01*
X146467971Y-105415909D01*
X146307805Y-105441277D01*
X146307802Y-105441277D01*
X146114622Y-105504045D01*
X145933627Y-105596268D01*
X145769302Y-105715656D01*
X145769297Y-105715660D01*
X145625660Y-105859297D01*
X145625656Y-105859302D01*
X145506265Y-106023631D01*
X145506264Y-106023632D01*
X145450484Y-106133106D01*
X145402510Y-106183902D01*
X145334689Y-106200697D01*
X145268554Y-106178159D01*
X145229516Y-106133106D01*
X145173735Y-106023632D01*
X145173734Y-106023631D01*
X145054343Y-105859302D01*
X145054339Y-105859297D01*
X144910702Y-105715660D01*
X144910697Y-105715656D01*
X144746372Y-105596268D01*
X144746371Y-105596267D01*
X144746369Y-105596266D01*
X144655874Y-105550156D01*
X144565377Y-105504045D01*
X144372196Y-105441277D01*
X144212023Y-105415908D01*
X144171565Y-105409500D01*
X143968435Y-105409500D01*
X143927971Y-105415909D01*
X143767805Y-105441277D01*
X143767802Y-105441277D01*
X143574622Y-105504045D01*
X143393627Y-105596268D01*
X143229302Y-105715656D01*
X143229297Y-105715660D01*
X143085660Y-105859297D01*
X143043613Y-105917170D01*
X142988282Y-105959836D01*
X142918669Y-105965814D01*
X142856874Y-105933208D01*
X142822517Y-105872369D01*
X142820005Y-105857536D01*
X142814091Y-105802516D01*
X142763797Y-105667671D01*
X142763793Y-105667664D01*
X142677547Y-105552455D01*
X142677544Y-105552452D01*
X142562335Y-105466206D01*
X142562328Y-105466202D01*
X142427482Y-105415908D01*
X142427483Y-105415908D01*
X142367883Y-105409501D01*
X142367881Y-105409500D01*
X142367873Y-105409500D01*
X142367864Y-105409500D01*
X140692129Y-105409500D01*
X140692123Y-105409501D01*
X140632516Y-105415908D01*
X140497671Y-105466202D01*
X140497664Y-105466206D01*
X140382455Y-105552452D01*
X140382452Y-105552455D01*
X140296206Y-105667664D01*
X140296202Y-105667671D01*
X140245908Y-105802517D01*
X140239501Y-105862116D01*
X140239500Y-105862135D01*
X127986230Y-105862135D01*
X127879185Y-105790609D01*
X127879172Y-105790602D01*
X127733501Y-105730264D01*
X127733489Y-105730261D01*
X127578845Y-105699500D01*
X127578842Y-105699500D01*
X127421158Y-105699500D01*
X127421155Y-105699500D01*
X127266510Y-105730261D01*
X127266498Y-105730264D01*
X127120827Y-105790602D01*
X127120814Y-105790609D01*
X126989711Y-105878210D01*
X126989707Y-105878213D01*
X126878213Y-105989707D01*
X126878210Y-105989711D01*
X126790609Y-106120814D01*
X126790602Y-106120827D01*
X126730264Y-106266498D01*
X126730261Y-106266510D01*
X126699500Y-106421153D01*
X115669795Y-106421153D01*
X115579185Y-106360609D01*
X115579172Y-106360602D01*
X115433501Y-106300264D01*
X115433489Y-106300261D01*
X115278845Y-106269500D01*
X115278842Y-106269500D01*
X115121158Y-106269500D01*
X115121155Y-106269500D01*
X114966510Y-106300261D01*
X114966498Y-106300264D01*
X114820827Y-106360602D01*
X114820814Y-106360609D01*
X114689711Y-106448210D01*
X114689707Y-106448213D01*
X114578213Y-106559707D01*
X114578210Y-106559711D01*
X114490609Y-106690814D01*
X114490602Y-106690827D01*
X114430264Y-106836498D01*
X114430261Y-106836510D01*
X114399500Y-106991153D01*
X96224727Y-106991153D01*
X96273091Y-106861483D01*
X96279500Y-106801873D01*
X96279499Y-105601153D01*
X105959500Y-105601153D01*
X105959500Y-105758846D01*
X105990261Y-105913489D01*
X105990264Y-105913501D01*
X106050602Y-106059172D01*
X106050609Y-106059185D01*
X106138210Y-106190288D01*
X106138213Y-106190292D01*
X106249707Y-106301786D01*
X106249711Y-106301789D01*
X106380814Y-106389390D01*
X106380827Y-106389397D01*
X106522816Y-106448210D01*
X106526503Y-106449737D01*
X106681153Y-106480499D01*
X106681156Y-106480500D01*
X106681158Y-106480500D01*
X106838844Y-106480500D01*
X106838845Y-106480499D01*
X106993497Y-106449737D01*
X107139179Y-106389394D01*
X107270289Y-106301789D01*
X107381789Y-106190289D01*
X107469394Y-106059179D01*
X107529737Y-105913497D01*
X107560500Y-105758842D01*
X107560500Y-105601158D01*
X107560500Y-105601155D01*
X107560499Y-105601153D01*
X107540436Y-105500289D01*
X107529737Y-105446503D01*
X107516062Y-105413489D01*
X107469397Y-105300827D01*
X107469390Y-105300814D01*
X107381790Y-105169712D01*
X107381784Y-105169705D01*
X107313232Y-105101153D01*
X120609500Y-105101153D01*
X120609500Y-105258846D01*
X120640261Y-105413489D01*
X120640264Y-105413501D01*
X120700602Y-105559172D01*
X120700609Y-105559185D01*
X120788210Y-105690288D01*
X120788213Y-105690292D01*
X120899707Y-105801786D01*
X120899711Y-105801789D01*
X121030814Y-105889390D01*
X121030827Y-105889397D01*
X121136598Y-105933208D01*
X121176503Y-105949737D01*
X121331153Y-105980499D01*
X121331156Y-105980500D01*
X121331158Y-105980500D01*
X121488844Y-105980500D01*
X121488845Y-105980499D01*
X121643497Y-105949737D01*
X121789179Y-105889394D01*
X121920289Y-105801789D01*
X122031789Y-105690289D01*
X122119394Y-105559179D01*
X122179737Y-105413497D01*
X122210500Y-105258842D01*
X122210500Y-105101158D01*
X122210500Y-105101155D01*
X122210499Y-105101153D01*
X122184531Y-104970606D01*
X122179737Y-104946503D01*
X122165097Y-104911158D01*
X122165095Y-104911153D01*
X135129500Y-104911153D01*
X135129500Y-105068846D01*
X135160261Y-105223489D01*
X135160264Y-105223501D01*
X135220602Y-105369172D01*
X135220609Y-105369185D01*
X135308210Y-105500288D01*
X135308213Y-105500292D01*
X135419707Y-105611786D01*
X135419711Y-105611789D01*
X135550814Y-105699390D01*
X135550827Y-105699397D01*
X135694342Y-105758842D01*
X135696503Y-105759737D01*
X135851153Y-105790499D01*
X135851156Y-105790500D01*
X135851158Y-105790500D01*
X136008844Y-105790500D01*
X136008845Y-105790499D01*
X136163497Y-105759737D01*
X136183532Y-105751438D01*
X136200899Y-105744245D01*
X136309172Y-105699397D01*
X136309172Y-105699396D01*
X136309179Y-105699394D01*
X136440289Y-105611789D01*
X136551789Y-105500289D01*
X136639394Y-105369179D01*
X136699737Y-105223497D01*
X136730500Y-105068842D01*
X136730500Y-104911158D01*
X136730500Y-104911155D01*
X136730499Y-104911153D01*
X136708828Y-104802206D01*
X136699737Y-104756503D01*
X136695180Y-104745501D01*
X136639397Y-104610827D01*
X136639390Y-104610814D01*
X136551789Y-104479711D01*
X136551786Y-104479707D01*
X136440292Y-104368213D01*
X136440288Y-104368210D01*
X136309185Y-104280609D01*
X136309172Y-104280602D01*
X136163501Y-104220264D01*
X136163489Y-104220261D01*
X136008845Y-104189500D01*
X136008842Y-104189500D01*
X135851158Y-104189500D01*
X135851155Y-104189500D01*
X135696510Y-104220261D01*
X135696498Y-104220264D01*
X135550827Y-104280602D01*
X135550814Y-104280609D01*
X135419711Y-104368210D01*
X135419707Y-104368213D01*
X135308213Y-104479707D01*
X135308210Y-104479711D01*
X135220609Y-104610814D01*
X135220602Y-104610827D01*
X135160264Y-104756498D01*
X135160261Y-104756510D01*
X135129500Y-104911153D01*
X122165095Y-104911153D01*
X122119397Y-104800827D01*
X122119390Y-104800814D01*
X122031789Y-104669711D01*
X122031786Y-104669707D01*
X121920292Y-104558213D01*
X121920288Y-104558210D01*
X121789185Y-104470609D01*
X121789172Y-104470602D01*
X121643501Y-104410264D01*
X121643489Y-104410261D01*
X121488845Y-104379500D01*
X121488842Y-104379500D01*
X121331158Y-104379500D01*
X121331155Y-104379500D01*
X121176510Y-104410261D01*
X121176498Y-104410264D01*
X121030827Y-104470602D01*
X121030814Y-104470609D01*
X120899711Y-104558210D01*
X120899707Y-104558213D01*
X120788213Y-104669707D01*
X120788210Y-104669711D01*
X120700609Y-104800814D01*
X120700602Y-104800827D01*
X120640264Y-104946498D01*
X120640261Y-104946510D01*
X120609500Y-105101153D01*
X107313232Y-105101153D01*
X107270292Y-105058213D01*
X107270288Y-105058210D01*
X107139185Y-104970609D01*
X107139172Y-104970602D01*
X106993501Y-104910264D01*
X106993489Y-104910261D01*
X106838845Y-104879500D01*
X106838842Y-104879500D01*
X106681158Y-104879500D01*
X106681155Y-104879500D01*
X106526510Y-104910261D01*
X106526498Y-104910264D01*
X106380827Y-104970602D01*
X106380814Y-104970609D01*
X106249711Y-105058210D01*
X106249707Y-105058213D01*
X106138213Y-105169707D01*
X106138210Y-105169711D01*
X106050609Y-105300814D01*
X106050602Y-105300827D01*
X105990264Y-105446498D01*
X105990261Y-105446510D01*
X105959500Y-105601153D01*
X96279499Y-105601153D01*
X96279499Y-105198128D01*
X96273091Y-105138517D01*
X96247105Y-105068846D01*
X96222797Y-105003671D01*
X96222793Y-105003664D01*
X96136547Y-104888455D01*
X96136544Y-104888452D01*
X96021335Y-104802206D01*
X96021328Y-104802202D01*
X95886482Y-104751908D01*
X95886483Y-104751908D01*
X95826883Y-104745501D01*
X95826881Y-104745500D01*
X95826873Y-104745500D01*
X95826864Y-104745500D01*
X94223129Y-104745500D01*
X94223123Y-104745501D01*
X94163516Y-104751908D01*
X94028671Y-104802202D01*
X94028664Y-104802206D01*
X93913455Y-104888452D01*
X93913452Y-104888455D01*
X93827206Y-105003664D01*
X93827202Y-105003671D01*
X93776908Y-105138517D01*
X93770501Y-105198116D01*
X93770501Y-105198123D01*
X93770500Y-105198135D01*
X83504499Y-105198135D01*
X83504499Y-104488128D01*
X83498091Y-104428517D01*
X83481556Y-104384185D01*
X83447797Y-104293671D01*
X83447793Y-104293664D01*
X83361547Y-104178455D01*
X83361544Y-104178452D01*
X83246335Y-104092206D01*
X83246328Y-104092202D01*
X83111482Y-104041908D01*
X83111483Y-104041908D01*
X83051883Y-104035501D01*
X83051881Y-104035500D01*
X83051873Y-104035500D01*
X83051864Y-104035500D01*
X81448129Y-104035500D01*
X81448123Y-104035501D01*
X81388516Y-104041908D01*
X81253671Y-104092202D01*
X81253664Y-104092206D01*
X81138455Y-104178452D01*
X81138452Y-104178455D01*
X81052206Y-104293664D01*
X81052202Y-104293671D01*
X81001908Y-104428517D01*
X80997383Y-104470609D01*
X80995501Y-104488123D01*
X80995500Y-104488135D01*
X78580100Y-104488135D01*
X78580100Y-103851153D01*
X110159500Y-103851153D01*
X110159500Y-104008846D01*
X110190261Y-104163489D01*
X110190264Y-104163501D01*
X110250602Y-104309172D01*
X110250609Y-104309185D01*
X110338210Y-104440288D01*
X110338213Y-104440292D01*
X110449707Y-104551786D01*
X110449711Y-104551789D01*
X110580814Y-104639390D01*
X110580827Y-104639397D01*
X110654013Y-104669711D01*
X110726503Y-104699737D01*
X110881153Y-104730499D01*
X110881156Y-104730500D01*
X110881158Y-104730500D01*
X111038844Y-104730500D01*
X111038845Y-104730499D01*
X111193497Y-104699737D01*
X111339179Y-104639394D01*
X111470289Y-104551789D01*
X111581789Y-104440289D01*
X111669394Y-104309179D01*
X111675821Y-104293664D01*
X111683067Y-104276166D01*
X111729737Y-104163497D01*
X111760500Y-104008842D01*
X111760500Y-103851158D01*
X111760500Y-103851155D01*
X111760499Y-103851153D01*
X111742060Y-103758454D01*
X111729737Y-103696503D01*
X111719671Y-103672202D01*
X111667063Y-103545192D01*
X111669376Y-103544233D01*
X111657348Y-103486592D01*
X111682319Y-103421337D01*
X111693267Y-103408810D01*
X111693523Y-103408555D01*
X111781128Y-103277445D01*
X111784692Y-103268842D01*
X111801548Y-103228147D01*
X111841471Y-103131763D01*
X111872234Y-102977108D01*
X111872234Y-102921153D01*
X114479500Y-102921153D01*
X114479500Y-103078846D01*
X114510261Y-103233489D01*
X114510263Y-103233497D01*
X114515527Y-103246205D01*
X114570602Y-103379172D01*
X114570609Y-103379185D01*
X114658210Y-103510288D01*
X114658213Y-103510292D01*
X114769707Y-103621786D01*
X114769711Y-103621789D01*
X114900814Y-103709390D01*
X114900827Y-103709397D01*
X114988230Y-103745599D01*
X115046503Y-103769737D01*
X115127964Y-103785940D01*
X115189872Y-103818324D01*
X115224446Y-103879040D01*
X115225195Y-103919905D01*
X115227097Y-103920093D01*
X115226500Y-103926155D01*
X115226500Y-104083846D01*
X115257261Y-104238489D01*
X115257264Y-104238501D01*
X115317602Y-104384172D01*
X115317609Y-104384185D01*
X115405210Y-104515288D01*
X115405213Y-104515292D01*
X115516707Y-104626786D01*
X115516711Y-104626789D01*
X115647814Y-104714390D01*
X115647827Y-104714397D01*
X115793498Y-104774735D01*
X115793503Y-104774737D01*
X115931578Y-104802202D01*
X115948153Y-104805499D01*
X115948156Y-104805500D01*
X115948158Y-104805500D01*
X116105844Y-104805500D01*
X116105845Y-104805499D01*
X116260497Y-104774737D01*
X116406179Y-104714394D01*
X116537289Y-104626789D01*
X116648789Y-104515289D01*
X116736394Y-104384179D01*
X116796737Y-104238497D01*
X116827500Y-104083842D01*
X116827500Y-104033891D01*
X116847185Y-103966852D01*
X116899989Y-103921097D01*
X116969147Y-103911153D01*
X116998947Y-103919328D01*
X117096503Y-103959737D01*
X117251153Y-103990499D01*
X117251156Y-103990500D01*
X117251158Y-103990500D01*
X117408844Y-103990500D01*
X117408845Y-103990499D01*
X117563497Y-103959737D01*
X117709179Y-103899394D01*
X117840289Y-103811789D01*
X117951789Y-103700289D01*
X118039394Y-103569179D01*
X118099737Y-103423497D01*
X118130500Y-103268842D01*
X118130500Y-103111158D01*
X118130500Y-103111155D01*
X118130499Y-103111153D01*
X118103836Y-102977110D01*
X118099737Y-102956503D01*
X118085097Y-102921158D01*
X118039397Y-102810827D01*
X118039390Y-102810814D01*
X117951789Y-102679711D01*
X117951786Y-102679707D01*
X117840292Y-102568213D01*
X117840288Y-102568210D01*
X117709185Y-102480609D01*
X117709172Y-102480602D01*
X117563501Y-102420264D01*
X117563489Y-102420261D01*
X117408845Y-102389500D01*
X117408842Y-102389500D01*
X117251158Y-102389500D01*
X117251155Y-102389500D01*
X117096510Y-102420261D01*
X117096498Y-102420264D01*
X116950827Y-102480602D01*
X116950814Y-102480609D01*
X116819711Y-102568210D01*
X116819707Y-102568213D01*
X116708213Y-102679707D01*
X116708210Y-102679711D01*
X116620609Y-102810814D01*
X116620602Y-102810827D01*
X116560264Y-102956498D01*
X116560261Y-102956510D01*
X116529500Y-103111153D01*
X116529500Y-103161108D01*
X116521729Y-103187571D01*
X116517277Y-103214791D01*
X116512025Y-103220620D01*
X116509815Y-103228147D01*
X116488974Y-103246205D01*
X116470510Y-103266700D01*
X116462939Y-103268764D01*
X116457011Y-103273902D01*
X116429712Y-103277827D01*
X116403102Y-103285085D01*
X116393374Y-103283052D01*
X116387853Y-103283846D01*
X116368271Y-103279387D01*
X116363071Y-103277750D01*
X116260497Y-103235263D01*
X116172433Y-103217745D01*
X116166000Y-103215721D01*
X116142355Y-103199871D01*
X116117126Y-103186674D01*
X116113704Y-103180665D01*
X116107963Y-103176817D01*
X116096641Y-103150700D01*
X116082552Y-103125958D01*
X116082416Y-103117886D01*
X116080173Y-103112712D01*
X116082128Y-103100760D01*
X116081864Y-103085100D01*
X116079903Y-103084907D01*
X116080500Y-103078844D01*
X116080500Y-102921155D01*
X116080499Y-102921153D01*
X116066656Y-102851561D01*
X116049737Y-102766503D01*
X116013787Y-102679711D01*
X115989397Y-102620827D01*
X115989390Y-102620814D01*
X115901789Y-102489711D01*
X115901786Y-102489707D01*
X115790292Y-102378213D01*
X115790288Y-102378210D01*
X115659185Y-102290609D01*
X115659172Y-102290602D01*
X115513501Y-102230264D01*
X115513489Y-102230261D01*
X115358845Y-102199500D01*
X115358842Y-102199500D01*
X115201158Y-102199500D01*
X115201155Y-102199500D01*
X115046510Y-102230261D01*
X115046498Y-102230264D01*
X114900827Y-102290602D01*
X114900814Y-102290609D01*
X114769711Y-102378210D01*
X114769707Y-102378213D01*
X114658213Y-102489707D01*
X114658210Y-102489711D01*
X114570609Y-102620814D01*
X114570602Y-102620827D01*
X114510264Y-102766498D01*
X114510261Y-102766510D01*
X114479500Y-102921153D01*
X111872234Y-102921153D01*
X111872234Y-102819424D01*
X111872234Y-102819421D01*
X111872233Y-102819419D01*
X111861725Y-102766594D01*
X111841471Y-102664769D01*
X111823267Y-102620821D01*
X111781131Y-102519093D01*
X111781124Y-102519080D01*
X111693523Y-102387977D01*
X111693520Y-102387973D01*
X111582026Y-102276479D01*
X111582022Y-102276476D01*
X111450919Y-102188875D01*
X111450906Y-102188868D01*
X111305235Y-102128530D01*
X111305223Y-102128527D01*
X111150579Y-102097766D01*
X111150576Y-102097766D01*
X110992892Y-102097766D01*
X110992889Y-102097766D01*
X110838244Y-102128527D01*
X110838232Y-102128530D01*
X110692561Y-102188868D01*
X110692548Y-102188875D01*
X110561445Y-102276476D01*
X110561441Y-102276479D01*
X110449947Y-102387973D01*
X110449944Y-102387977D01*
X110362343Y-102519080D01*
X110362336Y-102519093D01*
X110301998Y-102664764D01*
X110301995Y-102664776D01*
X110271234Y-102819419D01*
X110271234Y-102977112D01*
X110301995Y-103131755D01*
X110301998Y-103131767D01*
X110364671Y-103283074D01*
X110362363Y-103284029D01*
X110374382Y-103341709D01*
X110349392Y-103406957D01*
X110338471Y-103419451D01*
X110338211Y-103419710D01*
X110338208Y-103419714D01*
X110250609Y-103550814D01*
X110250602Y-103550827D01*
X110190264Y-103696498D01*
X110190261Y-103696510D01*
X110159500Y-103851153D01*
X78580100Y-103851153D01*
X78580100Y-101978353D01*
X120763900Y-101978353D01*
X120763900Y-102136046D01*
X120794661Y-102290689D01*
X120794664Y-102290701D01*
X120855002Y-102436372D01*
X120855009Y-102436385D01*
X120942610Y-102567488D01*
X120942613Y-102567492D01*
X121054107Y-102678986D01*
X121054111Y-102678989D01*
X121185214Y-102766590D01*
X121185227Y-102766597D01*
X121330898Y-102826935D01*
X121330903Y-102826937D01*
X121485553Y-102857699D01*
X121485556Y-102857700D01*
X121485558Y-102857700D01*
X121643244Y-102857700D01*
X121643245Y-102857699D01*
X121797897Y-102826937D01*
X121943579Y-102766594D01*
X122074689Y-102678989D01*
X122186189Y-102567489D01*
X122223832Y-102511153D01*
X125719500Y-102511153D01*
X125719500Y-102668846D01*
X125750261Y-102823489D01*
X125750264Y-102823501D01*
X125810602Y-102969172D01*
X125810609Y-102969185D01*
X125898210Y-103100288D01*
X125898213Y-103100292D01*
X126009707Y-103211786D01*
X126009711Y-103211789D01*
X126140814Y-103299390D01*
X126140827Y-103299397D01*
X126286498Y-103359735D01*
X126286503Y-103359737D01*
X126404514Y-103383211D01*
X126441153Y-103390499D01*
X126441156Y-103390500D01*
X126441158Y-103390500D01*
X126598844Y-103390500D01*
X126598845Y-103390499D01*
X126753497Y-103359737D01*
X126899179Y-103299394D01*
X127030289Y-103211789D01*
X127141789Y-103100289D01*
X127229394Y-102969179D01*
X127289737Y-102823497D01*
X127320500Y-102668842D01*
X127320500Y-102511158D01*
X127320500Y-102511155D01*
X127320499Y-102511153D01*
X127312061Y-102468731D01*
X127289737Y-102356503D01*
X127262481Y-102290701D01*
X127229397Y-102210827D01*
X127229390Y-102210814D01*
X127141789Y-102079711D01*
X127141786Y-102079707D01*
X127030292Y-101968213D01*
X127030288Y-101968210D01*
X126899185Y-101880609D01*
X126899172Y-101880602D01*
X126753501Y-101820264D01*
X126753489Y-101820261D01*
X126598845Y-101789500D01*
X126598842Y-101789500D01*
X126441158Y-101789500D01*
X126441155Y-101789500D01*
X126286510Y-101820261D01*
X126286498Y-101820264D01*
X126140827Y-101880602D01*
X126140814Y-101880609D01*
X126009711Y-101968210D01*
X126009707Y-101968213D01*
X125898213Y-102079707D01*
X125898210Y-102079711D01*
X125810609Y-102210814D01*
X125810602Y-102210827D01*
X125750264Y-102356498D01*
X125750261Y-102356510D01*
X125719500Y-102511153D01*
X122223832Y-102511153D01*
X122273794Y-102436379D01*
X122334137Y-102290697D01*
X122364900Y-102136042D01*
X122364900Y-101978358D01*
X122364900Y-101978355D01*
X122364899Y-101978353D01*
X122334138Y-101823710D01*
X122334137Y-101823703D01*
X122319970Y-101789500D01*
X122273797Y-101678027D01*
X122273790Y-101678014D01*
X122186189Y-101546911D01*
X122186186Y-101546907D01*
X122074692Y-101435413D01*
X122074688Y-101435410D01*
X121943585Y-101347809D01*
X121943572Y-101347802D01*
X121797901Y-101287464D01*
X121797889Y-101287461D01*
X121643245Y-101256700D01*
X121643242Y-101256700D01*
X121485558Y-101256700D01*
X121485555Y-101256700D01*
X121330910Y-101287461D01*
X121330898Y-101287464D01*
X121185227Y-101347802D01*
X121185214Y-101347809D01*
X121054111Y-101435410D01*
X121054107Y-101435413D01*
X120942613Y-101546907D01*
X120942610Y-101546911D01*
X120855009Y-101678014D01*
X120855002Y-101678027D01*
X120794664Y-101823698D01*
X120794661Y-101823710D01*
X120763900Y-101978353D01*
X78580100Y-101978353D01*
X78580100Y-100221153D01*
X116109500Y-100221153D01*
X116109500Y-100378846D01*
X116140261Y-100533489D01*
X116140264Y-100533501D01*
X116200602Y-100679172D01*
X116200609Y-100679185D01*
X116288210Y-100810288D01*
X116288213Y-100810292D01*
X116399707Y-100921786D01*
X116399711Y-100921789D01*
X116530814Y-101009390D01*
X116530827Y-101009397D01*
X116625362Y-101048554D01*
X116676503Y-101069737D01*
X116796520Y-101093610D01*
X116831153Y-101100499D01*
X116831156Y-101100500D01*
X116831158Y-101100500D01*
X116988844Y-101100500D01*
X116988845Y-101100499D01*
X117143497Y-101069737D01*
X117289179Y-101009394D01*
X117420289Y-100921789D01*
X117531789Y-100810289D01*
X117619394Y-100679179D01*
X117642455Y-100623505D01*
X117686295Y-100569101D01*
X117752589Y-100547036D01*
X117796054Y-100554877D01*
X117796411Y-100553704D01*
X117802227Y-100555467D01*
X117802238Y-100555472D01*
X117956888Y-100586234D01*
X117956891Y-100586235D01*
X117956893Y-100586235D01*
X118114579Y-100586235D01*
X118114580Y-100586234D01*
X118269232Y-100555472D01*
X118414914Y-100495129D01*
X118546024Y-100407524D01*
X118657524Y-100296024D01*
X118745129Y-100164914D01*
X118805472Y-100019232D01*
X118836235Y-99864577D01*
X118836235Y-99706893D01*
X118836235Y-99706890D01*
X118836234Y-99706888D01*
X118830530Y-99678211D01*
X118805472Y-99552238D01*
X118796369Y-99530261D01*
X118745132Y-99406562D01*
X118745125Y-99406549D01*
X118657524Y-99275446D01*
X118657520Y-99275441D01*
X118583232Y-99201153D01*
X122199500Y-99201153D01*
X122199500Y-99358846D01*
X122230261Y-99513489D01*
X122230264Y-99513501D01*
X122290602Y-99659172D01*
X122290609Y-99659185D01*
X122378210Y-99790288D01*
X122378213Y-99790292D01*
X122489707Y-99901786D01*
X122489711Y-99901789D01*
X122620814Y-99989390D01*
X122620827Y-99989397D01*
X122766498Y-100049735D01*
X122766503Y-100049737D01*
X122921153Y-100080499D01*
X122921156Y-100080500D01*
X122921158Y-100080500D01*
X123078844Y-100080500D01*
X123078845Y-100080499D01*
X123233497Y-100049737D01*
X123379179Y-99989394D01*
X123510289Y-99901789D01*
X123621789Y-99790289D01*
X123709394Y-99659179D01*
X123714568Y-99646689D01*
X123762060Y-99532030D01*
X123769737Y-99513497D01*
X123800500Y-99358842D01*
X123800500Y-99201158D01*
X123800500Y-99201155D01*
X123800499Y-99201153D01*
X123776253Y-99079257D01*
X123772651Y-99061153D01*
X124729500Y-99061153D01*
X124729500Y-99218846D01*
X124760261Y-99373489D01*
X124760264Y-99373501D01*
X124820602Y-99519172D01*
X124820609Y-99519185D01*
X124908210Y-99650288D01*
X124908213Y-99650292D01*
X125019707Y-99761786D01*
X125019711Y-99761789D01*
X125150814Y-99849390D01*
X125150827Y-99849397D01*
X125287807Y-99906135D01*
X125296503Y-99909737D01*
X125433055Y-99936899D01*
X125451153Y-99940499D01*
X125451156Y-99940500D01*
X125451158Y-99940500D01*
X125608844Y-99940500D01*
X125608845Y-99940499D01*
X125763497Y-99909737D01*
X125909179Y-99849394D01*
X126040289Y-99761789D01*
X126151789Y-99650289D01*
X126239394Y-99519179D01*
X126299737Y-99373497D01*
X126330500Y-99218842D01*
X126330500Y-99061158D01*
X126330500Y-99061155D01*
X126330499Y-99061153D01*
X126317897Y-98997794D01*
X126314053Y-98978469D01*
X140240000Y-98978469D01*
X140240000Y-99181530D01*
X140271763Y-99382076D01*
X140334511Y-99575192D01*
X140426693Y-99756107D01*
X140457684Y-99798761D01*
X140457684Y-99798762D01*
X141047037Y-99209409D01*
X141064075Y-99272993D01*
X141129901Y-99387007D01*
X141222993Y-99480099D01*
X141337007Y-99545925D01*
X141400590Y-99562962D01*
X140811236Y-100152314D01*
X140853893Y-100183307D01*
X141034807Y-100275488D01*
X141227923Y-100338236D01*
X141428470Y-100370000D01*
X141631530Y-100370000D01*
X141832076Y-100338236D01*
X142025192Y-100275488D01*
X142206106Y-100183306D01*
X142248761Y-100152315D01*
X142248761Y-100152314D01*
X141659409Y-99562962D01*
X141722993Y-99545925D01*
X141837007Y-99480099D01*
X141930099Y-99387007D01*
X141995925Y-99272993D01*
X142012962Y-99209409D01*
X142602314Y-99798761D01*
X142602315Y-99798761D01*
X142633306Y-99756107D01*
X142689515Y-99645792D01*
X142737489Y-99594996D01*
X142805310Y-99578201D01*
X142871445Y-99600738D01*
X142910485Y-99645792D01*
X142966693Y-99756107D01*
X142997684Y-99798761D01*
X142997684Y-99798762D01*
X143587037Y-99209409D01*
X143604075Y-99272993D01*
X143669901Y-99387007D01*
X143762993Y-99480099D01*
X143877007Y-99545925D01*
X143940590Y-99562962D01*
X143351236Y-100152314D01*
X143393893Y-100183307D01*
X143574807Y-100275488D01*
X143767923Y-100338236D01*
X143968470Y-100370000D01*
X144171530Y-100370000D01*
X144372076Y-100338236D01*
X144565192Y-100275488D01*
X144746106Y-100183306D01*
X144788761Y-100152315D01*
X144788761Y-100152314D01*
X144199409Y-99562962D01*
X144262993Y-99545925D01*
X144377007Y-99480099D01*
X144470099Y-99387007D01*
X144535925Y-99272993D01*
X144552962Y-99209409D01*
X145142314Y-99798761D01*
X145142315Y-99798761D01*
X145173306Y-99756107D01*
X145229515Y-99645792D01*
X145277489Y-99594996D01*
X145345310Y-99578201D01*
X145411445Y-99600738D01*
X145450485Y-99645792D01*
X145506693Y-99756107D01*
X145537684Y-99798761D01*
X145537684Y-99798762D01*
X146127037Y-99209409D01*
X146144075Y-99272993D01*
X146209901Y-99387007D01*
X146302993Y-99480099D01*
X146417007Y-99545925D01*
X146480590Y-99562962D01*
X145891236Y-100152314D01*
X145933893Y-100183307D01*
X146114807Y-100275488D01*
X146307923Y-100338236D01*
X146508470Y-100370000D01*
X146711530Y-100370000D01*
X146912076Y-100338236D01*
X147105192Y-100275488D01*
X147286106Y-100183306D01*
X147328761Y-100152315D01*
X147328761Y-100152314D01*
X146739409Y-99562962D01*
X146802993Y-99545925D01*
X146917007Y-99480099D01*
X147010099Y-99387007D01*
X147075925Y-99272993D01*
X147092962Y-99209409D01*
X147682314Y-99798761D01*
X147682315Y-99798761D01*
X147713306Y-99756107D01*
X147769515Y-99645792D01*
X147817489Y-99594996D01*
X147885310Y-99578201D01*
X147951445Y-99600738D01*
X147990485Y-99645792D01*
X148046693Y-99756107D01*
X148077684Y-99798761D01*
X148077684Y-99798762D01*
X148667037Y-99209409D01*
X148684075Y-99272993D01*
X148749901Y-99387007D01*
X148842993Y-99480099D01*
X148957007Y-99545925D01*
X149020590Y-99562962D01*
X148431236Y-100152314D01*
X148473893Y-100183307D01*
X148654807Y-100275488D01*
X148847923Y-100338236D01*
X149048470Y-100370000D01*
X149251530Y-100370000D01*
X149452076Y-100338236D01*
X149645192Y-100275488D01*
X149826106Y-100183306D01*
X149868761Y-100152315D01*
X149868761Y-100152314D01*
X149279409Y-99562962D01*
X149342993Y-99545925D01*
X149457007Y-99480099D01*
X149550099Y-99387007D01*
X149615925Y-99272993D01*
X149632962Y-99209409D01*
X150222314Y-99798761D01*
X150222315Y-99798761D01*
X150253306Y-99756107D01*
X150309515Y-99645792D01*
X150357489Y-99594996D01*
X150425310Y-99578201D01*
X150491445Y-99600738D01*
X150530485Y-99645792D01*
X150586693Y-99756107D01*
X150617684Y-99798761D01*
X150617684Y-99798762D01*
X151207037Y-99209409D01*
X151224075Y-99272993D01*
X151289901Y-99387007D01*
X151382993Y-99480099D01*
X151497007Y-99545925D01*
X151560590Y-99562962D01*
X150971236Y-100152314D01*
X151013893Y-100183307D01*
X151194807Y-100275488D01*
X151387923Y-100338236D01*
X151588470Y-100370000D01*
X151791530Y-100370000D01*
X151992076Y-100338236D01*
X152185192Y-100275488D01*
X152366106Y-100183306D01*
X152408761Y-100152315D01*
X152408761Y-100152314D01*
X151819409Y-99562962D01*
X151882993Y-99545925D01*
X151997007Y-99480099D01*
X152090099Y-99387007D01*
X152155925Y-99272993D01*
X152172962Y-99209409D01*
X152762314Y-99798761D01*
X152762315Y-99798761D01*
X152782294Y-99771263D01*
X156655500Y-99771263D01*
X156655500Y-99968736D01*
X156686389Y-100163763D01*
X156729364Y-100296024D01*
X156747409Y-100351561D01*
X156837056Y-100527501D01*
X156837058Y-100527504D01*
X156953115Y-100687246D01*
X157092753Y-100826884D01*
X157223377Y-100921786D01*
X157252499Y-100942944D01*
X157383151Y-101009515D01*
X157433947Y-101057490D01*
X157450742Y-101125311D01*
X157428204Y-101191446D01*
X157383151Y-101230484D01*
X157271330Y-101287461D01*
X157252495Y-101297058D01*
X157092753Y-101413115D01*
X156953115Y-101552753D01*
X156837058Y-101712495D01*
X156747408Y-101888441D01*
X156686389Y-102076236D01*
X156655500Y-102271263D01*
X156655500Y-102468736D01*
X156686389Y-102663763D01*
X156747408Y-102851558D01*
X156747409Y-102851561D01*
X156837056Y-103027501D01*
X156837058Y-103027504D01*
X156953115Y-103187246D01*
X157092751Y-103326882D01*
X157164724Y-103379172D01*
X157180315Y-103390500D01*
X157181253Y-103391181D01*
X157223920Y-103446511D01*
X157229899Y-103516124D01*
X157197294Y-103577919D01*
X157136456Y-103612277D01*
X157111426Y-103615152D01*
X157111436Y-103615324D01*
X157108626Y-103615474D01*
X157108404Y-103615500D01*
X157108147Y-103615500D01*
X157108123Y-103615501D01*
X157048516Y-103621908D01*
X156913671Y-103672202D01*
X156913664Y-103672206D01*
X156798455Y-103758452D01*
X156798452Y-103758455D01*
X156712206Y-103873664D01*
X156712202Y-103873671D01*
X156661908Y-104008517D01*
X156655501Y-104068116D01*
X156655501Y-104068123D01*
X156655500Y-104068135D01*
X156655500Y-105671870D01*
X156655501Y-105671876D01*
X156661908Y-105731483D01*
X156712202Y-105866328D01*
X156712206Y-105866335D01*
X156798452Y-105981544D01*
X156798455Y-105981547D01*
X156913664Y-106067793D01*
X156913671Y-106067797D01*
X157048517Y-106118091D01*
X157048516Y-106118091D01*
X157055444Y-106118835D01*
X157108127Y-106124500D01*
X158711872Y-106124499D01*
X158771483Y-106118091D01*
X158906331Y-106067796D01*
X159021546Y-105981546D01*
X159107796Y-105866331D01*
X159158091Y-105731483D01*
X159164500Y-105671873D01*
X159164499Y-104068128D01*
X159158091Y-104008517D01*
X159139897Y-103959737D01*
X159107797Y-103873671D01*
X159107793Y-103873664D01*
X159021547Y-103758455D01*
X159021544Y-103758452D01*
X158906335Y-103672206D01*
X158906328Y-103672202D01*
X158771482Y-103621908D01*
X158771483Y-103621908D01*
X158711883Y-103615501D01*
X158711881Y-103615500D01*
X158711873Y-103615500D01*
X158711865Y-103615500D01*
X158711632Y-103615500D01*
X158711579Y-103615484D01*
X158708548Y-103615322D01*
X158708586Y-103614605D01*
X158644593Y-103595815D01*
X158598838Y-103543011D01*
X158588894Y-103473853D01*
X158617919Y-103410297D01*
X158638747Y-103391182D01*
X158727246Y-103326884D01*
X158727248Y-103326881D01*
X158727252Y-103326879D01*
X158866879Y-103187252D01*
X158866881Y-103187248D01*
X158866884Y-103187246D01*
X158922168Y-103111153D01*
X158982944Y-103027501D01*
X159072591Y-102851561D01*
X159133610Y-102663763D01*
X159164500Y-102468736D01*
X159164500Y-102271263D01*
X159133610Y-102076236D01*
X159098510Y-101968210D01*
X159072591Y-101888439D01*
X158982944Y-101712499D01*
X158957899Y-101678027D01*
X158866884Y-101552753D01*
X158727246Y-101413115D01*
X158567505Y-101297058D01*
X158548670Y-101287461D01*
X158436846Y-101230483D01*
X158386052Y-101182510D01*
X158369257Y-101114689D01*
X158391794Y-101048554D01*
X158436845Y-101009517D01*
X158567501Y-100942944D01*
X158596623Y-100921786D01*
X158727246Y-100826884D01*
X158727248Y-100826881D01*
X158727252Y-100826879D01*
X158866879Y-100687252D01*
X158866881Y-100687248D01*
X158866884Y-100687246D01*
X158917779Y-100617192D01*
X158982944Y-100527501D01*
X159072591Y-100351561D01*
X159133610Y-100163763D01*
X159146798Y-100080499D01*
X159164500Y-99968736D01*
X159164500Y-99771263D01*
X159133610Y-99576236D01*
X159078479Y-99406562D01*
X159072591Y-99388439D01*
X158982944Y-99212499D01*
X158947670Y-99163948D01*
X158866884Y-99052753D01*
X158727246Y-98913115D01*
X158567505Y-98797058D01*
X158563039Y-98794782D01*
X158436295Y-98730202D01*
X158385502Y-98682231D01*
X158368707Y-98614410D01*
X158391244Y-98548275D01*
X158436298Y-98509235D01*
X158567241Y-98442516D01*
X158602988Y-98416543D01*
X158602988Y-98416541D01*
X158039410Y-97852962D01*
X158102993Y-97835925D01*
X158217007Y-97770099D01*
X158310099Y-97677007D01*
X158375925Y-97562993D01*
X158392962Y-97499409D01*
X158956541Y-98062988D01*
X158956543Y-98062988D01*
X158982516Y-98027241D01*
X159072126Y-97851373D01*
X159133123Y-97663646D01*
X159164000Y-97468697D01*
X159164000Y-97271302D01*
X159133123Y-97076353D01*
X159072126Y-96888626D01*
X158982520Y-96712768D01*
X158982512Y-96712755D01*
X158956542Y-96677010D01*
X158956541Y-96677009D01*
X158392962Y-97240589D01*
X158375925Y-97177007D01*
X158310099Y-97062993D01*
X158217007Y-96969901D01*
X158102993Y-96904075D01*
X158039409Y-96887037D01*
X158602989Y-96323457D01*
X158567239Y-96297483D01*
X158391373Y-96207873D01*
X158203646Y-96146876D01*
X158008697Y-96116000D01*
X157811303Y-96116000D01*
X157616353Y-96146876D01*
X157428626Y-96207873D01*
X157252762Y-96297482D01*
X157252760Y-96297483D01*
X157217010Y-96323456D01*
X157217010Y-96323457D01*
X157780591Y-96887037D01*
X157717007Y-96904075D01*
X157602993Y-96969901D01*
X157509901Y-97062993D01*
X157444075Y-97177007D01*
X157427037Y-97240590D01*
X156863457Y-96677010D01*
X156863456Y-96677010D01*
X156837483Y-96712760D01*
X156837482Y-96712762D01*
X156747873Y-96888626D01*
X156686876Y-97076353D01*
X156656000Y-97271302D01*
X156656000Y-97468697D01*
X156686876Y-97663646D01*
X156747873Y-97851373D01*
X156837483Y-98027239D01*
X156863457Y-98062988D01*
X156863457Y-98062989D01*
X157427037Y-97499409D01*
X157444075Y-97562993D01*
X157509901Y-97677007D01*
X157602993Y-97770099D01*
X157717007Y-97835925D01*
X157780590Y-97852962D01*
X157217009Y-98416541D01*
X157217010Y-98416542D01*
X157252755Y-98442512D01*
X157252768Y-98442520D01*
X157383701Y-98509234D01*
X157434497Y-98557208D01*
X157451292Y-98625029D01*
X157428755Y-98691164D01*
X157383702Y-98730203D01*
X157252497Y-98797056D01*
X157092753Y-98913115D01*
X156953115Y-99052753D01*
X156837058Y-99212495D01*
X156777291Y-99329792D01*
X156755027Y-99373489D01*
X156747408Y-99388441D01*
X156686389Y-99576236D01*
X156655500Y-99771263D01*
X152782294Y-99771263D01*
X152793308Y-99756105D01*
X152793308Y-99756104D01*
X152816749Y-99710101D01*
X152885488Y-99575192D01*
X152948236Y-99382076D01*
X152980000Y-99181530D01*
X152980000Y-98978469D01*
X152948236Y-98777923D01*
X152885488Y-98584807D01*
X152793307Y-98403893D01*
X152762314Y-98361237D01*
X152762314Y-98361236D01*
X152172962Y-98950589D01*
X152155925Y-98887007D01*
X152090099Y-98772993D01*
X151997007Y-98679901D01*
X151882993Y-98614075D01*
X151819408Y-98597037D01*
X152408762Y-98007684D01*
X152366107Y-97976693D01*
X152185192Y-97884511D01*
X151992076Y-97821763D01*
X151791530Y-97790000D01*
X151588470Y-97790000D01*
X151387923Y-97821763D01*
X151194807Y-97884511D01*
X151013896Y-97976691D01*
X150971237Y-98007684D01*
X150971237Y-98007685D01*
X151560590Y-98597037D01*
X151497007Y-98614075D01*
X151382993Y-98679901D01*
X151289901Y-98772993D01*
X151224075Y-98887007D01*
X151207037Y-98950590D01*
X150617685Y-98361237D01*
X150617684Y-98361237D01*
X150586691Y-98403896D01*
X150530485Y-98514207D01*
X150482510Y-98565003D01*
X150414689Y-98581798D01*
X150348554Y-98559260D01*
X150309515Y-98514207D01*
X150253307Y-98403893D01*
X150222314Y-98361237D01*
X150222314Y-98361236D01*
X149632962Y-98950589D01*
X149615925Y-98887007D01*
X149550099Y-98772993D01*
X149457007Y-98679901D01*
X149342993Y-98614075D01*
X149279408Y-98597037D01*
X149868762Y-98007684D01*
X149826107Y-97976693D01*
X149645192Y-97884511D01*
X149452076Y-97821763D01*
X149251530Y-97790000D01*
X149048470Y-97790000D01*
X148847923Y-97821763D01*
X148654807Y-97884511D01*
X148473896Y-97976691D01*
X148431237Y-98007684D01*
X148431237Y-98007685D01*
X149020590Y-98597037D01*
X148957007Y-98614075D01*
X148842993Y-98679901D01*
X148749901Y-98772993D01*
X148684075Y-98887007D01*
X148667037Y-98950590D01*
X148077685Y-98361237D01*
X148077684Y-98361237D01*
X148046691Y-98403896D01*
X147990485Y-98514207D01*
X147942510Y-98565003D01*
X147874689Y-98581798D01*
X147808554Y-98559260D01*
X147769515Y-98514207D01*
X147713307Y-98403893D01*
X147682314Y-98361237D01*
X147682314Y-98361236D01*
X147092962Y-98950589D01*
X147075925Y-98887007D01*
X147010099Y-98772993D01*
X146917007Y-98679901D01*
X146802993Y-98614075D01*
X146739408Y-98597037D01*
X147328762Y-98007684D01*
X147286107Y-97976693D01*
X147105192Y-97884511D01*
X146912076Y-97821763D01*
X146711530Y-97790000D01*
X146508470Y-97790000D01*
X146307923Y-97821763D01*
X146114807Y-97884511D01*
X145933896Y-97976691D01*
X145891237Y-98007684D01*
X145891237Y-98007685D01*
X146480590Y-98597037D01*
X146417007Y-98614075D01*
X146302993Y-98679901D01*
X146209901Y-98772993D01*
X146144075Y-98887007D01*
X146127037Y-98950590D01*
X145537685Y-98361237D01*
X145537684Y-98361237D01*
X145506691Y-98403896D01*
X145450485Y-98514207D01*
X145402510Y-98565003D01*
X145334689Y-98581798D01*
X145268554Y-98559260D01*
X145229515Y-98514207D01*
X145173307Y-98403893D01*
X145142314Y-98361237D01*
X145142314Y-98361236D01*
X144552962Y-98950589D01*
X144535925Y-98887007D01*
X144470099Y-98772993D01*
X144377007Y-98679901D01*
X144262993Y-98614075D01*
X144199408Y-98597037D01*
X144788762Y-98007684D01*
X144746107Y-97976693D01*
X144565192Y-97884511D01*
X144372076Y-97821763D01*
X144171530Y-97790000D01*
X143968470Y-97790000D01*
X143767923Y-97821763D01*
X143574807Y-97884511D01*
X143393896Y-97976691D01*
X143351237Y-98007684D01*
X143351237Y-98007685D01*
X143940590Y-98597037D01*
X143877007Y-98614075D01*
X143762993Y-98679901D01*
X143669901Y-98772993D01*
X143604075Y-98887007D01*
X143587037Y-98950590D01*
X142997685Y-98361237D01*
X142997684Y-98361237D01*
X142966691Y-98403896D01*
X142910485Y-98514207D01*
X142862510Y-98565003D01*
X142794689Y-98581798D01*
X142728554Y-98559260D01*
X142689515Y-98514207D01*
X142633307Y-98403893D01*
X142602314Y-98361237D01*
X142602314Y-98361236D01*
X142012962Y-98950589D01*
X141995925Y-98887007D01*
X141930099Y-98772993D01*
X141837007Y-98679901D01*
X141722993Y-98614075D01*
X141659408Y-98597037D01*
X142248762Y-98007684D01*
X142206107Y-97976693D01*
X142025192Y-97884511D01*
X141832076Y-97821763D01*
X141631530Y-97790000D01*
X141428470Y-97790000D01*
X141227923Y-97821763D01*
X141034807Y-97884511D01*
X140853896Y-97976691D01*
X140811237Y-98007684D01*
X140811237Y-98007685D01*
X141400590Y-98597037D01*
X141337007Y-98614075D01*
X141222993Y-98679901D01*
X141129901Y-98772993D01*
X141064075Y-98887007D01*
X141047037Y-98950590D01*
X140457685Y-98361237D01*
X140457684Y-98361237D01*
X140426691Y-98403896D01*
X140334511Y-98584807D01*
X140271763Y-98777923D01*
X140240000Y-98978469D01*
X126314053Y-98978469D01*
X126299738Y-98906508D01*
X126299737Y-98906507D01*
X126299737Y-98906503D01*
X126297386Y-98900827D01*
X126239397Y-98760827D01*
X126239390Y-98760814D01*
X126151789Y-98629711D01*
X126151786Y-98629707D01*
X126040292Y-98518213D01*
X126040288Y-98518210D01*
X125909185Y-98430609D01*
X125909172Y-98430602D01*
X125763501Y-98370264D01*
X125763489Y-98370261D01*
X125608845Y-98339500D01*
X125608842Y-98339500D01*
X125451158Y-98339500D01*
X125451155Y-98339500D01*
X125296510Y-98370261D01*
X125296498Y-98370264D01*
X125150827Y-98430602D01*
X125150814Y-98430609D01*
X125019711Y-98518210D01*
X125019707Y-98518213D01*
X124908213Y-98629707D01*
X124908210Y-98629711D01*
X124820609Y-98760814D01*
X124820602Y-98760827D01*
X124760264Y-98906498D01*
X124760261Y-98906510D01*
X124729500Y-99061153D01*
X123772651Y-99061153D01*
X123769738Y-99046508D01*
X123769737Y-99046507D01*
X123769737Y-99046503D01*
X123738690Y-98971548D01*
X123709397Y-98900827D01*
X123709390Y-98900814D01*
X123621789Y-98769711D01*
X123621786Y-98769707D01*
X123510292Y-98658213D01*
X123510288Y-98658210D01*
X123379185Y-98570609D01*
X123379172Y-98570602D01*
X123233501Y-98510264D01*
X123233489Y-98510261D01*
X123078845Y-98479500D01*
X123078842Y-98479500D01*
X122921158Y-98479500D01*
X122921155Y-98479500D01*
X122766510Y-98510261D01*
X122766498Y-98510264D01*
X122620827Y-98570602D01*
X122620814Y-98570609D01*
X122489711Y-98658210D01*
X122489707Y-98658213D01*
X122378213Y-98769707D01*
X122378210Y-98769711D01*
X122290609Y-98900814D01*
X122290602Y-98900827D01*
X122230264Y-99046498D01*
X122230261Y-99046510D01*
X122199500Y-99201153D01*
X118583232Y-99201153D01*
X118546027Y-99163948D01*
X118546023Y-99163945D01*
X118414920Y-99076344D01*
X118414907Y-99076337D01*
X118269236Y-99015999D01*
X118269224Y-99015996D01*
X118114580Y-98985235D01*
X118114577Y-98985235D01*
X117956893Y-98985235D01*
X117956890Y-98985235D01*
X117802245Y-99015996D01*
X117802233Y-99015999D01*
X117656562Y-99076337D01*
X117656549Y-99076344D01*
X117525446Y-99163945D01*
X117525442Y-99163948D01*
X117413948Y-99275442D01*
X117413945Y-99275446D01*
X117326344Y-99406549D01*
X117326339Y-99406559D01*
X117303279Y-99462231D01*
X117259437Y-99516635D01*
X117193143Y-99538699D01*
X117149675Y-99530856D01*
X117149320Y-99532030D01*
X117143488Y-99530260D01*
X116988845Y-99499500D01*
X116988842Y-99499500D01*
X116831158Y-99499500D01*
X116831155Y-99499500D01*
X116676510Y-99530261D01*
X116676498Y-99530264D01*
X116530827Y-99590602D01*
X116530814Y-99590609D01*
X116399711Y-99678210D01*
X116399707Y-99678213D01*
X116288213Y-99789707D01*
X116288210Y-99789711D01*
X116200609Y-99920814D01*
X116200602Y-99920827D01*
X116140264Y-100066498D01*
X116140261Y-100066510D01*
X116109500Y-100221153D01*
X78580100Y-100221153D01*
X78580100Y-90261263D01*
X80335500Y-90261263D01*
X80335500Y-90458736D01*
X80366389Y-90653763D01*
X80426321Y-90838213D01*
X80427409Y-90841561D01*
X80517056Y-91017501D01*
X80517058Y-91017504D01*
X80633115Y-91177246D01*
X80772753Y-91316884D01*
X80922234Y-91425486D01*
X80932499Y-91432944D01*
X81063151Y-91499515D01*
X81113947Y-91547490D01*
X81130742Y-91615311D01*
X81108204Y-91681446D01*
X81063151Y-91720484D01*
X80946017Y-91780167D01*
X80932495Y-91787058D01*
X80772753Y-91903115D01*
X80633115Y-92042753D01*
X80517058Y-92202495D01*
X80427408Y-92378441D01*
X80366389Y-92566236D01*
X80335500Y-92761263D01*
X80335500Y-92958736D01*
X80366389Y-93153763D01*
X80424027Y-93331153D01*
X80427409Y-93341561D01*
X80508584Y-93500873D01*
X80517058Y-93517504D01*
X80633115Y-93677246D01*
X80772753Y-93816884D01*
X80887557Y-93900292D01*
X80932499Y-93932944D01*
X81063151Y-93999515D01*
X81113947Y-94047490D01*
X81130742Y-94115311D01*
X81108204Y-94181446D01*
X81063151Y-94220484D01*
X80983976Y-94260827D01*
X80932495Y-94287058D01*
X80772753Y-94403115D01*
X80633115Y-94542753D01*
X80517058Y-94702495D01*
X80427408Y-94878441D01*
X80366389Y-95066236D01*
X80335500Y-95261263D01*
X80335500Y-95458736D01*
X80366389Y-95653763D01*
X80394143Y-95739179D01*
X80427409Y-95841561D01*
X80498860Y-95981789D01*
X80517058Y-96017504D01*
X80633115Y-96177246D01*
X80772751Y-96316882D01*
X80847543Y-96371220D01*
X80860315Y-96380500D01*
X80861253Y-96381181D01*
X80903920Y-96436511D01*
X80909899Y-96506124D01*
X80877294Y-96567919D01*
X80816456Y-96602277D01*
X80791426Y-96605152D01*
X80791436Y-96605324D01*
X80788626Y-96605474D01*
X80788404Y-96605500D01*
X80788147Y-96605500D01*
X80788123Y-96605501D01*
X80728516Y-96611908D01*
X80593671Y-96662202D01*
X80593664Y-96662206D01*
X80478455Y-96748452D01*
X80478452Y-96748455D01*
X80392206Y-96863664D01*
X80392202Y-96863671D01*
X80341908Y-96998517D01*
X80335501Y-97058116D01*
X80335501Y-97058123D01*
X80335500Y-97058135D01*
X80335500Y-98661870D01*
X80335501Y-98661876D01*
X80341908Y-98721483D01*
X80392202Y-98856328D01*
X80392206Y-98856335D01*
X80478452Y-98971544D01*
X80478455Y-98971547D01*
X80593664Y-99057793D01*
X80593671Y-99057797D01*
X80728517Y-99108091D01*
X80728516Y-99108091D01*
X80735444Y-99108835D01*
X80788127Y-99114500D01*
X82391872Y-99114499D01*
X82451483Y-99108091D01*
X82586331Y-99057796D01*
X82586656Y-99057553D01*
X111595100Y-99057553D01*
X111595100Y-99215246D01*
X111625861Y-99369889D01*
X111625864Y-99369901D01*
X111686202Y-99515572D01*
X111686209Y-99515585D01*
X111773810Y-99646688D01*
X111773813Y-99646692D01*
X111885307Y-99758186D01*
X111885311Y-99758189D01*
X112016414Y-99845790D01*
X112016427Y-99845797D01*
X112151606Y-99901789D01*
X112162103Y-99906137D01*
X112316753Y-99936899D01*
X112316756Y-99936900D01*
X112316758Y-99936900D01*
X112474444Y-99936900D01*
X112474445Y-99936899D01*
X112629097Y-99906137D01*
X112766088Y-99849394D01*
X112774772Y-99845797D01*
X112774772Y-99845796D01*
X112774779Y-99845794D01*
X112905889Y-99758189D01*
X113017389Y-99646689D01*
X113104994Y-99515579D01*
X113165337Y-99369897D01*
X113196100Y-99215242D01*
X113196100Y-99057558D01*
X113196100Y-99057555D01*
X113196099Y-99057553D01*
X113178991Y-98971546D01*
X113165337Y-98902903D01*
X113146048Y-98856335D01*
X113104997Y-98757227D01*
X113104990Y-98757214D01*
X113017389Y-98626111D01*
X113017386Y-98626107D01*
X112905892Y-98514613D01*
X112905888Y-98514610D01*
X112774785Y-98427009D01*
X112774772Y-98427002D01*
X112629101Y-98366664D01*
X112629089Y-98366661D01*
X112474445Y-98335900D01*
X112474442Y-98335900D01*
X112316758Y-98335900D01*
X112316755Y-98335900D01*
X112162110Y-98366661D01*
X112162098Y-98366664D01*
X112016427Y-98427002D01*
X112016414Y-98427009D01*
X111885311Y-98514610D01*
X111885307Y-98514613D01*
X111773813Y-98626107D01*
X111773810Y-98626111D01*
X111686209Y-98757214D01*
X111686202Y-98757227D01*
X111625864Y-98902898D01*
X111625861Y-98902910D01*
X111595100Y-99057553D01*
X82586656Y-99057553D01*
X82701546Y-98971546D01*
X82787796Y-98856331D01*
X82838091Y-98721483D01*
X82844500Y-98661873D01*
X82844499Y-97651153D01*
X114219500Y-97651153D01*
X114219500Y-97808846D01*
X114250261Y-97963489D01*
X114250264Y-97963501D01*
X114310602Y-98109172D01*
X114310609Y-98109185D01*
X114398210Y-98240288D01*
X114398213Y-98240292D01*
X114509707Y-98351786D01*
X114509711Y-98351789D01*
X114640814Y-98439390D01*
X114640827Y-98439397D01*
X114762363Y-98489738D01*
X114786503Y-98499737D01*
X114941153Y-98530499D01*
X114941156Y-98530500D01*
X114941158Y-98530500D01*
X115098844Y-98530500D01*
X115098845Y-98530499D01*
X115253497Y-98499737D01*
X115391642Y-98442516D01*
X115399172Y-98439397D01*
X115399172Y-98439396D01*
X115399179Y-98439394D01*
X115530289Y-98351789D01*
X115641789Y-98240289D01*
X115729394Y-98109179D01*
X115733448Y-98099393D01*
X115748527Y-98062988D01*
X115789737Y-97963497D01*
X115798160Y-97921153D01*
X119869500Y-97921153D01*
X119869500Y-98078846D01*
X119900261Y-98233489D01*
X119900264Y-98233501D01*
X119960602Y-98379172D01*
X119960609Y-98379185D01*
X120048210Y-98510288D01*
X120048213Y-98510292D01*
X120159707Y-98621786D01*
X120159711Y-98621789D01*
X120290814Y-98709390D01*
X120290827Y-98709397D01*
X120436440Y-98769711D01*
X120436503Y-98769737D01*
X120573844Y-98797056D01*
X120591153Y-98800499D01*
X120591156Y-98800500D01*
X120591158Y-98800500D01*
X120748844Y-98800500D01*
X120748845Y-98800499D01*
X120903497Y-98769737D01*
X121049179Y-98709394D01*
X121180289Y-98621789D01*
X121281704Y-98520373D01*
X121343025Y-98486890D01*
X121400398Y-98489198D01*
X121400528Y-98488549D01*
X121404651Y-98489369D01*
X121405392Y-98489399D01*
X121406494Y-98489733D01*
X121406503Y-98489737D01*
X121406512Y-98489738D01*
X121406516Y-98489740D01*
X121561153Y-98520499D01*
X121561156Y-98520500D01*
X121561158Y-98520500D01*
X121718844Y-98520500D01*
X121718845Y-98520499D01*
X121873497Y-98489737D01*
X121987509Y-98442512D01*
X122019172Y-98429397D01*
X122019172Y-98429396D01*
X122019179Y-98429394D01*
X122150289Y-98341789D01*
X122261789Y-98230289D01*
X122349394Y-98099179D01*
X122349393Y-98099179D01*
X122352779Y-98094113D01*
X122354271Y-98095110D01*
X122397287Y-98051301D01*
X122465421Y-98035824D01*
X122526597Y-98056481D01*
X122590821Y-98099394D01*
X122590823Y-98099395D01*
X122590827Y-98099397D01*
X122736498Y-98159735D01*
X122736503Y-98159737D01*
X122891153Y-98190499D01*
X122891156Y-98190500D01*
X122891158Y-98190500D01*
X123048844Y-98190500D01*
X123048845Y-98190499D01*
X123203497Y-98159737D01*
X123349179Y-98099394D01*
X123480289Y-98011789D01*
X123484394Y-98007684D01*
X123524816Y-97967263D01*
X123591786Y-97900292D01*
X123591789Y-97900289D01*
X123679394Y-97769179D01*
X123680503Y-97766503D01*
X123700017Y-97719390D01*
X123739737Y-97623497D01*
X123770500Y-97468842D01*
X123770500Y-97311158D01*
X123766416Y-97290626D01*
X123766416Y-97290623D01*
X123739738Y-97156508D01*
X123739737Y-97156507D01*
X123739737Y-97156503D01*
X123715592Y-97098211D01*
X123679397Y-97010827D01*
X123679390Y-97010814D01*
X123591789Y-96879711D01*
X123591786Y-96879707D01*
X123480292Y-96768213D01*
X123480288Y-96768210D01*
X123349185Y-96680609D01*
X123349172Y-96680602D01*
X123203501Y-96620264D01*
X123203489Y-96620261D01*
X123048845Y-96589500D01*
X123048842Y-96589500D01*
X122891158Y-96589500D01*
X122891155Y-96589500D01*
X122736510Y-96620261D01*
X122736498Y-96620264D01*
X122590827Y-96680602D01*
X122590814Y-96680609D01*
X122459711Y-96768210D01*
X122459707Y-96768213D01*
X122348213Y-96879707D01*
X122348210Y-96879711D01*
X122257221Y-97015886D01*
X122255734Y-97014892D01*
X122212674Y-97058718D01*
X122144535Y-97074171D01*
X122083401Y-97053517D01*
X122019183Y-97010608D01*
X122019172Y-97010602D01*
X121873501Y-96950264D01*
X121873489Y-96950261D01*
X121718845Y-96919500D01*
X121718842Y-96919500D01*
X121561158Y-96919500D01*
X121561155Y-96919500D01*
X121406510Y-96950261D01*
X121406498Y-96950264D01*
X121260827Y-97010602D01*
X121260814Y-97010609D01*
X121129711Y-97098210D01*
X121129707Y-97098213D01*
X121028297Y-97199624D01*
X120966974Y-97233109D01*
X120909600Y-97230803D01*
X120909472Y-97231451D01*
X120905363Y-97230633D01*
X120904623Y-97230604D01*
X120903497Y-97230262D01*
X120748845Y-97199500D01*
X120748842Y-97199500D01*
X120591158Y-97199500D01*
X120591155Y-97199500D01*
X120436510Y-97230261D01*
X120436498Y-97230264D01*
X120290827Y-97290602D01*
X120290814Y-97290609D01*
X120159711Y-97378210D01*
X120159707Y-97378213D01*
X120048213Y-97489707D01*
X120048210Y-97489711D01*
X119960609Y-97620814D01*
X119960602Y-97620827D01*
X119900264Y-97766498D01*
X119900261Y-97766510D01*
X119869500Y-97921153D01*
X115798160Y-97921153D01*
X115800317Y-97910309D01*
X115832701Y-97848398D01*
X115893417Y-97813824D01*
X115899739Y-97812502D01*
X115910743Y-97810500D01*
X115918842Y-97810500D01*
X116073497Y-97779737D01*
X116219179Y-97719394D01*
X116350289Y-97631789D01*
X116461789Y-97520289D01*
X116549394Y-97389179D01*
X116553938Y-97378210D01*
X116584604Y-97304174D01*
X116609737Y-97243497D01*
X116640500Y-97088842D01*
X116640500Y-96931158D01*
X116640500Y-96931155D01*
X116640499Y-96931153D01*
X116627076Y-96863671D01*
X116609737Y-96776503D01*
X116598118Y-96748452D01*
X116549397Y-96630827D01*
X116549390Y-96630814D01*
X116461789Y-96499711D01*
X116461786Y-96499707D01*
X116350292Y-96388213D01*
X116350288Y-96388210D01*
X116219185Y-96300609D01*
X116219172Y-96300602D01*
X116073501Y-96240264D01*
X116073489Y-96240261D01*
X115918845Y-96209500D01*
X115918842Y-96209500D01*
X115761158Y-96209500D01*
X115761155Y-96209500D01*
X115606510Y-96240261D01*
X115606498Y-96240264D01*
X115460827Y-96300602D01*
X115460814Y-96300609D01*
X115329711Y-96388210D01*
X115329707Y-96388213D01*
X115218213Y-96499707D01*
X115218210Y-96499711D01*
X115130609Y-96630814D01*
X115130602Y-96630827D01*
X115070263Y-96776501D01*
X115070261Y-96776510D01*
X115059683Y-96829691D01*
X115027299Y-96891602D01*
X114966583Y-96926176D01*
X114947172Y-96928438D01*
X114947218Y-96928903D01*
X114941153Y-96929500D01*
X114786510Y-96960261D01*
X114786498Y-96960264D01*
X114640827Y-97020602D01*
X114640814Y-97020609D01*
X114509711Y-97108210D01*
X114509707Y-97108213D01*
X114398213Y-97219707D01*
X114398210Y-97219711D01*
X114310609Y-97350814D01*
X114310602Y-97350827D01*
X114250264Y-97496498D01*
X114250261Y-97496510D01*
X114219500Y-97651153D01*
X82844499Y-97651153D01*
X82844499Y-97058128D01*
X82838091Y-96998517D01*
X82823823Y-96960263D01*
X82787797Y-96863671D01*
X82787793Y-96863664D01*
X82701547Y-96748455D01*
X82701544Y-96748452D01*
X82586335Y-96662206D01*
X82586328Y-96662202D01*
X82451482Y-96611908D01*
X82451483Y-96611908D01*
X82391883Y-96605501D01*
X82391881Y-96605500D01*
X82391873Y-96605500D01*
X82391865Y-96605500D01*
X82391632Y-96605500D01*
X82391579Y-96605484D01*
X82388548Y-96605322D01*
X82388586Y-96604605D01*
X82324593Y-96585815D01*
X82278838Y-96533011D01*
X82268894Y-96463853D01*
X82297919Y-96400297D01*
X82318747Y-96381182D01*
X82407246Y-96316884D01*
X82407248Y-96316881D01*
X82407252Y-96316879D01*
X82546879Y-96177252D01*
X82546881Y-96177248D01*
X82546884Y-96177246D01*
X82597779Y-96107192D01*
X82662944Y-96017501D01*
X82752591Y-95841561D01*
X82813610Y-95653763D01*
X82823155Y-95593497D01*
X82837782Y-95501153D01*
X118339500Y-95501153D01*
X118339500Y-95658846D01*
X118370261Y-95813489D01*
X118370264Y-95813501D01*
X118430602Y-95959172D01*
X118430609Y-95959185D01*
X118518210Y-96090288D01*
X118518213Y-96090292D01*
X118629707Y-96201786D01*
X118629711Y-96201789D01*
X118760814Y-96289390D01*
X118760827Y-96289397D01*
X118906498Y-96349735D01*
X118906503Y-96349737D01*
X119061153Y-96380499D01*
X119061156Y-96380500D01*
X119061158Y-96380500D01*
X119218844Y-96380500D01*
X119218845Y-96380499D01*
X119373497Y-96349737D01*
X119519179Y-96289394D01*
X119519185Y-96289390D01*
X119551776Y-96267614D01*
X119600109Y-96235317D01*
X119650289Y-96201789D01*
X119761789Y-96090289D01*
X119849394Y-95959179D01*
X119886218Y-95870277D01*
X119930055Y-95815877D01*
X119996349Y-95793811D01*
X120064049Y-95811089D01*
X120103878Y-95848840D01*
X120118208Y-95870286D01*
X120118213Y-95870292D01*
X120229707Y-95981786D01*
X120229711Y-95981789D01*
X120360814Y-96069390D01*
X120360827Y-96069397D01*
X120506498Y-96129735D01*
X120506503Y-96129737D01*
X120661153Y-96160499D01*
X120661156Y-96160500D01*
X120661158Y-96160500D01*
X120818844Y-96160500D01*
X120818845Y-96160499D01*
X120973497Y-96129737D01*
X121119179Y-96069394D01*
X121250289Y-95981789D01*
X121361789Y-95870289D01*
X121449394Y-95739179D01*
X121509737Y-95593497D01*
X121540500Y-95438842D01*
X121540500Y-95281158D01*
X121540500Y-95281155D01*
X121540499Y-95281153D01*
X121524518Y-95200814D01*
X121509737Y-95126503D01*
X121484774Y-95066236D01*
X121449397Y-94980827D01*
X121449390Y-94980814D01*
X121361789Y-94849711D01*
X121361786Y-94849707D01*
X121250292Y-94738213D01*
X121250288Y-94738210D01*
X121119185Y-94650609D01*
X121119172Y-94650602D01*
X120973501Y-94590264D01*
X120973489Y-94590261D01*
X120818845Y-94559500D01*
X120818842Y-94559500D01*
X120661158Y-94559500D01*
X120661155Y-94559500D01*
X120506510Y-94590261D01*
X120506498Y-94590264D01*
X120360827Y-94650602D01*
X120360814Y-94650609D01*
X120263391Y-94715706D01*
X120196713Y-94736584D01*
X120129333Y-94718099D01*
X120082643Y-94666121D01*
X120070500Y-94612604D01*
X120070500Y-94561155D01*
X120070499Y-94561153D01*
X120040532Y-94410500D01*
X120039737Y-94406503D01*
X120028650Y-94379737D01*
X119979397Y-94260827D01*
X119979390Y-94260814D01*
X119891789Y-94129711D01*
X119891786Y-94129707D01*
X119780292Y-94018213D01*
X119780288Y-94018210D01*
X119649185Y-93930609D01*
X119649172Y-93930602D01*
X119503501Y-93870264D01*
X119503489Y-93870261D01*
X119348845Y-93839500D01*
X119348842Y-93839500D01*
X119191158Y-93839500D01*
X119191155Y-93839500D01*
X119036510Y-93870261D01*
X119036498Y-93870264D01*
X118890827Y-93930602D01*
X118890814Y-93930609D01*
X118759711Y-94018210D01*
X118738188Y-94039732D01*
X118738171Y-94039750D01*
X118648211Y-94129711D01*
X118620180Y-94171660D01*
X118620171Y-94171672D01*
X118560612Y-94260809D01*
X118560602Y-94260827D01*
X118500264Y-94406498D01*
X118500261Y-94406510D01*
X118469500Y-94561153D01*
X118469500Y-94718846D01*
X118500261Y-94873489D01*
X118500264Y-94873501D01*
X118531939Y-94949971D01*
X118539408Y-95019440D01*
X118520480Y-95066314D01*
X118430609Y-95200814D01*
X118430602Y-95200827D01*
X118370264Y-95346498D01*
X118370261Y-95346510D01*
X118339500Y-95501153D01*
X82837782Y-95501153D01*
X82844500Y-95458736D01*
X82844500Y-95261263D01*
X82813610Y-95066236D01*
X82785857Y-94980821D01*
X82752591Y-94878439D01*
X82662944Y-94702499D01*
X82625239Y-94650602D01*
X82546884Y-94542753D01*
X82407246Y-94403115D01*
X82247505Y-94287058D01*
X82196024Y-94260827D01*
X82116846Y-94220483D01*
X82066052Y-94172510D01*
X82049257Y-94104689D01*
X82071794Y-94038554D01*
X82116845Y-93999517D01*
X82247501Y-93932944D01*
X82292447Y-93900289D01*
X82407246Y-93816884D01*
X82407248Y-93816881D01*
X82407252Y-93816879D01*
X82546879Y-93677252D01*
X82546881Y-93677248D01*
X82546884Y-93677246D01*
X82597779Y-93607192D01*
X82662944Y-93517501D01*
X82752591Y-93341561D01*
X82762471Y-93311153D01*
X85729500Y-93311153D01*
X85729500Y-93468846D01*
X85760261Y-93623489D01*
X85760264Y-93623501D01*
X85820602Y-93769172D01*
X85820609Y-93769185D01*
X85908210Y-93900288D01*
X85908213Y-93900292D01*
X86019707Y-94011786D01*
X86019711Y-94011789D01*
X86150814Y-94099390D01*
X86150827Y-94099397D01*
X86296498Y-94159735D01*
X86296503Y-94159737D01*
X86405641Y-94181446D01*
X86451153Y-94190499D01*
X86451156Y-94190500D01*
X86451158Y-94190500D01*
X86608844Y-94190500D01*
X86608845Y-94190499D01*
X86763497Y-94159737D01*
X86909179Y-94099394D01*
X87040289Y-94011789D01*
X87151789Y-93900289D01*
X87239394Y-93769179D01*
X87299737Y-93623497D01*
X87305655Y-93593741D01*
X87318106Y-93531153D01*
X115729500Y-93531153D01*
X115729500Y-93688846D01*
X115760261Y-93843489D01*
X115760264Y-93843501D01*
X115820602Y-93989172D01*
X115820609Y-93989185D01*
X115908210Y-94120288D01*
X115908213Y-94120292D01*
X116019707Y-94231786D01*
X116019711Y-94231789D01*
X116150814Y-94319390D01*
X116150827Y-94319397D01*
X116296498Y-94379735D01*
X116296503Y-94379737D01*
X116414062Y-94403121D01*
X116451153Y-94410499D01*
X116451156Y-94410500D01*
X116451158Y-94410500D01*
X116608844Y-94410500D01*
X116608845Y-94410499D01*
X116763497Y-94379737D01*
X116909179Y-94319394D01*
X117040289Y-94231789D01*
X117151789Y-94120289D01*
X117198592Y-94050243D01*
X117252201Y-94005439D01*
X117321526Y-93996730D01*
X117384554Y-94026884D01*
X117389374Y-94031453D01*
X117389707Y-94031786D01*
X117389711Y-94031789D01*
X117520814Y-94119390D01*
X117520827Y-94119397D01*
X117647032Y-94171672D01*
X117666503Y-94179737D01*
X117755346Y-94197409D01*
X117821153Y-94210499D01*
X117821156Y-94210500D01*
X117821158Y-94210500D01*
X117978844Y-94210500D01*
X117978845Y-94210499D01*
X118133497Y-94179737D01*
X118279179Y-94119394D01*
X118410289Y-94031789D01*
X118521789Y-93920289D01*
X118609394Y-93789179D01*
X118669737Y-93643497D01*
X118700500Y-93488842D01*
X118700500Y-93331158D01*
X118700500Y-93331155D01*
X118700499Y-93331153D01*
X118680543Y-93230827D01*
X118669737Y-93176503D01*
X118637929Y-93099711D01*
X118609397Y-93030827D01*
X118609390Y-93030814D01*
X118521789Y-92899711D01*
X118521786Y-92899707D01*
X118410292Y-92788213D01*
X118410288Y-92788210D01*
X118279185Y-92700609D01*
X118279172Y-92700602D01*
X118133501Y-92640264D01*
X118133489Y-92640261D01*
X117978845Y-92609500D01*
X117978842Y-92609500D01*
X117821158Y-92609500D01*
X117821155Y-92609500D01*
X117666510Y-92640261D01*
X117666498Y-92640264D01*
X117520827Y-92700602D01*
X117520814Y-92700609D01*
X117389711Y-92788210D01*
X117389707Y-92788213D01*
X117278213Y-92899707D01*
X117278208Y-92899713D01*
X117231406Y-92969756D01*
X117177793Y-93014561D01*
X117108468Y-93023267D01*
X117045441Y-92993111D01*
X117040624Y-92988545D01*
X117040292Y-92988213D01*
X117040288Y-92988210D01*
X116909185Y-92900609D01*
X116909172Y-92900602D01*
X116763501Y-92840264D01*
X116763489Y-92840261D01*
X116608845Y-92809500D01*
X116608842Y-92809500D01*
X116451158Y-92809500D01*
X116451155Y-92809500D01*
X116296510Y-92840261D01*
X116296498Y-92840264D01*
X116150827Y-92900602D01*
X116150814Y-92900609D01*
X116019711Y-92988210D01*
X116019707Y-92988213D01*
X115908213Y-93099707D01*
X115908210Y-93099711D01*
X115820609Y-93230814D01*
X115820602Y-93230827D01*
X115760264Y-93376498D01*
X115760261Y-93376510D01*
X115729500Y-93531153D01*
X87318106Y-93531153D01*
X87324129Y-93500874D01*
X87324129Y-93500873D01*
X87330499Y-93468846D01*
X87330500Y-93468844D01*
X87330500Y-93311155D01*
X87330499Y-93311153D01*
X87314518Y-93230814D01*
X87299737Y-93156503D01*
X87247681Y-93030827D01*
X87239397Y-93010827D01*
X87239390Y-93010814D01*
X87151789Y-92879711D01*
X87151786Y-92879707D01*
X87040292Y-92768213D01*
X87040288Y-92768210D01*
X86909185Y-92680609D01*
X86909172Y-92680602D01*
X86763501Y-92620264D01*
X86763489Y-92620261D01*
X86608845Y-92589500D01*
X86608842Y-92589500D01*
X86451158Y-92589500D01*
X86451155Y-92589500D01*
X86296510Y-92620261D01*
X86296498Y-92620264D01*
X86150827Y-92680602D01*
X86150814Y-92680609D01*
X86019711Y-92768210D01*
X86019707Y-92768213D01*
X85908213Y-92879707D01*
X85908210Y-92879711D01*
X85820609Y-93010814D01*
X85820602Y-93010827D01*
X85760264Y-93156498D01*
X85760261Y-93156510D01*
X85729500Y-93311153D01*
X82762471Y-93311153D01*
X82813610Y-93153763D01*
X82844500Y-92958736D01*
X82844500Y-92761263D01*
X82813610Y-92566236D01*
X82793270Y-92503637D01*
X82752591Y-92378439D01*
X82662944Y-92202499D01*
X82638889Y-92169390D01*
X82546884Y-92042753D01*
X82407246Y-91903115D01*
X82247505Y-91787058D01*
X82241830Y-91784166D01*
X82116846Y-91720483D01*
X82066052Y-91672510D01*
X82049257Y-91604689D01*
X82071794Y-91538554D01*
X82116845Y-91499517D01*
X82247501Y-91432944D01*
X82318786Y-91381153D01*
X82407246Y-91316884D01*
X82407248Y-91316881D01*
X82407252Y-91316879D01*
X82546879Y-91177252D01*
X82546881Y-91177248D01*
X82546884Y-91177246D01*
X82603948Y-91098702D01*
X82614688Y-91083920D01*
X93349499Y-91083920D01*
X93378340Y-91228907D01*
X93378343Y-91228917D01*
X93434912Y-91365488D01*
X93434919Y-91365501D01*
X93517048Y-91488415D01*
X93517051Y-91488419D01*
X93621580Y-91592948D01*
X93621584Y-91592951D01*
X93744498Y-91675080D01*
X93744511Y-91675087D01*
X93854113Y-91720485D01*
X93881087Y-91731658D01*
X93881091Y-91731658D01*
X93881092Y-91731659D01*
X94026079Y-91760500D01*
X94026082Y-91760500D01*
X94173920Y-91760500D01*
X94271462Y-91741096D01*
X94318913Y-91731658D01*
X94455495Y-91675084D01*
X94578416Y-91592951D01*
X94682951Y-91488416D01*
X94765084Y-91365495D01*
X94821658Y-91228913D01*
X94831935Y-91177246D01*
X94850500Y-91083920D01*
X94850500Y-90936080D01*
X94847561Y-90921304D01*
X100699500Y-90921304D01*
X100699500Y-91098695D01*
X100734103Y-91272658D01*
X100734106Y-91272667D01*
X100801983Y-91436540D01*
X100801990Y-91436553D01*
X100900535Y-91584034D01*
X100900538Y-91584038D01*
X101025961Y-91709461D01*
X101025965Y-91709464D01*
X101173446Y-91808009D01*
X101173459Y-91808016D01*
X101296363Y-91858923D01*
X101337334Y-91875894D01*
X101337336Y-91875894D01*
X101337341Y-91875896D01*
X101511304Y-91910499D01*
X101511307Y-91910500D01*
X101511309Y-91910500D01*
X101688693Y-91910500D01*
X101688694Y-91910499D01*
X101746682Y-91898964D01*
X101862658Y-91875896D01*
X101862661Y-91875894D01*
X101862666Y-91875894D01*
X102026547Y-91808013D01*
X102174035Y-91709464D01*
X102299464Y-91584035D01*
X102398013Y-91436547D01*
X102465894Y-91272666D01*
X102474597Y-91228917D01*
X102496032Y-91121153D01*
X108699500Y-91121153D01*
X108699500Y-91278846D01*
X108730261Y-91433489D01*
X108730264Y-91433501D01*
X108790602Y-91579172D01*
X108790609Y-91579185D01*
X108878210Y-91710288D01*
X108878213Y-91710292D01*
X108989707Y-91821786D01*
X108989711Y-91821789D01*
X109120814Y-91909390D01*
X109120827Y-91909397D01*
X109266498Y-91969735D01*
X109266503Y-91969737D01*
X109421153Y-92000499D01*
X109421156Y-92000500D01*
X109421158Y-92000500D01*
X109578844Y-92000500D01*
X109578845Y-92000499D01*
X109733497Y-91969737D01*
X109879179Y-91909394D01*
X110010289Y-91821789D01*
X110121789Y-91710289D01*
X110209394Y-91579179D01*
X110269737Y-91433497D01*
X110280149Y-91381153D01*
X111689500Y-91381153D01*
X111689500Y-91538846D01*
X111720261Y-91693489D01*
X111720264Y-91693501D01*
X111780602Y-91839172D01*
X111780609Y-91839185D01*
X111868210Y-91970288D01*
X111868213Y-91970292D01*
X111979707Y-92081786D01*
X111979711Y-92081789D01*
X112110814Y-92169390D01*
X112110827Y-92169397D01*
X112256498Y-92229735D01*
X112256503Y-92229737D01*
X112411153Y-92260499D01*
X112411156Y-92260500D01*
X112411158Y-92260500D01*
X112568844Y-92260500D01*
X112568845Y-92260499D01*
X112723497Y-92229737D01*
X112869179Y-92169394D01*
X113000289Y-92081789D01*
X113111789Y-91970289D01*
X113199394Y-91839179D01*
X113259737Y-91693497D01*
X113290500Y-91538842D01*
X113290500Y-91381158D01*
X113290500Y-91381155D01*
X113290499Y-91381153D01*
X113277714Y-91316879D01*
X113259737Y-91226503D01*
X113216100Y-91121153D01*
X113199397Y-91080827D01*
X113199390Y-91080814D01*
X113111789Y-90949711D01*
X113111786Y-90949707D01*
X113000292Y-90838213D01*
X113000288Y-90838210D01*
X112869185Y-90750609D01*
X112869172Y-90750602D01*
X112723501Y-90690264D01*
X112723489Y-90690261D01*
X112568845Y-90659500D01*
X112568842Y-90659500D01*
X112411158Y-90659500D01*
X112411155Y-90659500D01*
X112256510Y-90690261D01*
X112256498Y-90690264D01*
X112110827Y-90750602D01*
X112110814Y-90750609D01*
X111979711Y-90838210D01*
X111979707Y-90838213D01*
X111868213Y-90949707D01*
X111868210Y-90949711D01*
X111780609Y-91080814D01*
X111780602Y-91080827D01*
X111720264Y-91226498D01*
X111720261Y-91226510D01*
X111689500Y-91381153D01*
X110280149Y-91381153D01*
X110286172Y-91350875D01*
X110286172Y-91350874D01*
X110300500Y-91278844D01*
X110300500Y-91121155D01*
X110300499Y-91121153D01*
X110269738Y-90966510D01*
X110269737Y-90966503D01*
X110257136Y-90936082D01*
X110209397Y-90820827D01*
X110209390Y-90820814D01*
X110121789Y-90689711D01*
X110121786Y-90689707D01*
X110010292Y-90578213D01*
X110010288Y-90578210D01*
X109879185Y-90490609D01*
X109879172Y-90490602D01*
X109733501Y-90430264D01*
X109733489Y-90430261D01*
X109578845Y-90399500D01*
X109578842Y-90399500D01*
X109421158Y-90399500D01*
X109421155Y-90399500D01*
X109266510Y-90430261D01*
X109266498Y-90430264D01*
X109120827Y-90490602D01*
X109120814Y-90490609D01*
X108989711Y-90578210D01*
X108989707Y-90578213D01*
X108878213Y-90689707D01*
X108878210Y-90689711D01*
X108790609Y-90820814D01*
X108790602Y-90820827D01*
X108730264Y-90966498D01*
X108730261Y-90966510D01*
X108699500Y-91121153D01*
X102496032Y-91121153D01*
X102500498Y-91098702D01*
X102500499Y-91098695D01*
X102500500Y-91098691D01*
X102500500Y-90921309D01*
X102500500Y-90921306D01*
X102500499Y-90921304D01*
X102465896Y-90747341D01*
X102465893Y-90747332D01*
X102398016Y-90583459D01*
X102398009Y-90583446D01*
X102299464Y-90435965D01*
X102299461Y-90435961D01*
X102174038Y-90310538D01*
X102174034Y-90310535D01*
X102026553Y-90211990D01*
X102026540Y-90211983D01*
X101862667Y-90144106D01*
X101862658Y-90144103D01*
X101688694Y-90109500D01*
X101688691Y-90109500D01*
X101511309Y-90109500D01*
X101511306Y-90109500D01*
X101337341Y-90144103D01*
X101337332Y-90144106D01*
X101173459Y-90211983D01*
X101173446Y-90211990D01*
X101025965Y-90310535D01*
X101025961Y-90310538D01*
X100900538Y-90435961D01*
X100900535Y-90435965D01*
X100801990Y-90583446D01*
X100801983Y-90583459D01*
X100734106Y-90747332D01*
X100734103Y-90747341D01*
X100699500Y-90921304D01*
X94847561Y-90921304D01*
X94821659Y-90791092D01*
X94821658Y-90791091D01*
X94821658Y-90791087D01*
X94821656Y-90791082D01*
X94765087Y-90654511D01*
X94765080Y-90654498D01*
X94682951Y-90531584D01*
X94682948Y-90531580D01*
X94578419Y-90427051D01*
X94578415Y-90427048D01*
X94455501Y-90344919D01*
X94455488Y-90344912D01*
X94318917Y-90288343D01*
X94318907Y-90288340D01*
X94173920Y-90259500D01*
X94173918Y-90259500D01*
X94026082Y-90259500D01*
X94026080Y-90259500D01*
X93881092Y-90288340D01*
X93881082Y-90288343D01*
X93744511Y-90344912D01*
X93744498Y-90344919D01*
X93621584Y-90427048D01*
X93621580Y-90427051D01*
X93517051Y-90531580D01*
X93517048Y-90531584D01*
X93434919Y-90654498D01*
X93434912Y-90654511D01*
X93378343Y-90791082D01*
X93378340Y-90791092D01*
X93349500Y-90936079D01*
X93349500Y-90936080D01*
X93349500Y-90936082D01*
X93349500Y-91083918D01*
X93349500Y-91083920D01*
X93349499Y-91083920D01*
X82614688Y-91083920D01*
X82662944Y-91017501D01*
X82752591Y-90841561D01*
X82813610Y-90653763D01*
X82825576Y-90578213D01*
X82844500Y-90458736D01*
X82844500Y-90261263D01*
X82813610Y-90066236D01*
X82793270Y-90003637D01*
X82752591Y-89878439D01*
X82662944Y-89702499D01*
X82655486Y-89692234D01*
X82546884Y-89542753D01*
X82407246Y-89403115D01*
X82247505Y-89287058D01*
X82243039Y-89284782D01*
X82116295Y-89220202D01*
X82065502Y-89172231D01*
X82048707Y-89104410D01*
X82071244Y-89038275D01*
X82116298Y-88999235D01*
X82247241Y-88932516D01*
X82282988Y-88906543D01*
X82282988Y-88906541D01*
X81719410Y-88342962D01*
X81782993Y-88325925D01*
X81897007Y-88260099D01*
X81990099Y-88167007D01*
X82055925Y-88052993D01*
X82072962Y-87989409D01*
X82636541Y-88552988D01*
X82636543Y-88552988D01*
X82662516Y-88517241D01*
X82752126Y-88341373D01*
X82813123Y-88153646D01*
X82844000Y-87958697D01*
X82844000Y-87761302D01*
X82828662Y-87664464D01*
X82826554Y-87651153D01*
X117099000Y-87651153D01*
X117099000Y-87808846D01*
X117129761Y-87963489D01*
X117129764Y-87963501D01*
X117190102Y-88109172D01*
X117190109Y-88109185D01*
X117277710Y-88240288D01*
X117277713Y-88240292D01*
X117389207Y-88351786D01*
X117389211Y-88351789D01*
X117520314Y-88439390D01*
X117520327Y-88439397D01*
X117665998Y-88499735D01*
X117666003Y-88499737D01*
X117820653Y-88530499D01*
X117820656Y-88530500D01*
X117820658Y-88530500D01*
X117978344Y-88530500D01*
X117978345Y-88530499D01*
X118132997Y-88499737D01*
X118278679Y-88439394D01*
X118409789Y-88351789D01*
X118428418Y-88333160D01*
X118457069Y-88304510D01*
X118518392Y-88271025D01*
X118588084Y-88276009D01*
X118632431Y-88304510D01*
X118699707Y-88371786D01*
X118699711Y-88371789D01*
X118830814Y-88459390D01*
X118830827Y-88459397D01*
X118970472Y-88517239D01*
X118976503Y-88519737D01*
X119131153Y-88550499D01*
X119131156Y-88550500D01*
X119131158Y-88550500D01*
X119288844Y-88550500D01*
X119364379Y-88535475D01*
X119364379Y-88535474D01*
X119443497Y-88519737D01*
X119589179Y-88459394D01*
X119720289Y-88371789D01*
X119831789Y-88260289D01*
X119919394Y-88129179D01*
X119979737Y-87983497D01*
X120010500Y-87828842D01*
X120010500Y-87671158D01*
X120010500Y-87671155D01*
X120010499Y-87671153D01*
X119979738Y-87516510D01*
X119979737Y-87516503D01*
X119956292Y-87459901D01*
X119949692Y-87443966D01*
X119932055Y-87401386D01*
X140266800Y-87401386D01*
X140266800Y-87630013D01*
X140302565Y-87855824D01*
X140302565Y-87855825D01*
X140373217Y-88073268D01*
X140477011Y-88276976D01*
X140530647Y-88350798D01*
X140530647Y-88350799D01*
X141081137Y-87800308D01*
X141100297Y-87846564D01*
X141176739Y-87960968D01*
X141274032Y-88058261D01*
X141388436Y-88134703D01*
X141434690Y-88153861D01*
X140884199Y-88704351D01*
X140958025Y-88757988D01*
X140958031Y-88757992D01*
X141161731Y-88861782D01*
X141379175Y-88932434D01*
X141604987Y-88968200D01*
X141833613Y-88968200D01*
X142059424Y-88932434D01*
X142059425Y-88932434D01*
X142276868Y-88861782D01*
X142480576Y-88757988D01*
X142554398Y-88704351D01*
X142003909Y-88153862D01*
X142050164Y-88134703D01*
X142164568Y-88058261D01*
X142261861Y-87960968D01*
X142338303Y-87846564D01*
X142357461Y-87800309D01*
X142907951Y-88350799D01*
X142907951Y-88350798D01*
X142961588Y-88276976D01*
X143065382Y-88073268D01*
X143136034Y-87855825D01*
X143136034Y-87855824D01*
X143171800Y-87630013D01*
X143171800Y-87401386D01*
X145372200Y-87401386D01*
X145372200Y-87630013D01*
X145407965Y-87855824D01*
X145407965Y-87855825D01*
X145478617Y-88073268D01*
X145582411Y-88276976D01*
X145636047Y-88350798D01*
X145636047Y-88350799D01*
X146186537Y-87800308D01*
X146205697Y-87846564D01*
X146282139Y-87960968D01*
X146379432Y-88058261D01*
X146493836Y-88134703D01*
X146540090Y-88153861D01*
X145989599Y-88704351D01*
X146063425Y-88757988D01*
X146063431Y-88757992D01*
X146267131Y-88861782D01*
X146484575Y-88932434D01*
X146710387Y-88968200D01*
X146939013Y-88968200D01*
X147164824Y-88932434D01*
X147164825Y-88932434D01*
X147382268Y-88861782D01*
X147585976Y-88757988D01*
X147659798Y-88704351D01*
X147109309Y-88153862D01*
X147155564Y-88134703D01*
X147269968Y-88058261D01*
X147367261Y-87960968D01*
X147443703Y-87846564D01*
X147462861Y-87800309D01*
X148013351Y-88350799D01*
X148013351Y-88350798D01*
X148066988Y-88276976D01*
X148170782Y-88073268D01*
X148241434Y-87855825D01*
X148241434Y-87855824D01*
X148277200Y-87630013D01*
X148277200Y-87401386D01*
X148241434Y-87175575D01*
X148241434Y-87175574D01*
X148170782Y-86958131D01*
X148066992Y-86754431D01*
X148066988Y-86754425D01*
X148013351Y-86680600D01*
X148013351Y-86680599D01*
X147462861Y-87231089D01*
X147443703Y-87184836D01*
X147367261Y-87070432D01*
X147269968Y-86973139D01*
X147155564Y-86896697D01*
X147109308Y-86877537D01*
X147659799Y-86327047D01*
X147585976Y-86273411D01*
X147382268Y-86169617D01*
X147164824Y-86098965D01*
X146939013Y-86063200D01*
X146710387Y-86063200D01*
X146484575Y-86098965D01*
X146484574Y-86098965D01*
X146267131Y-86169617D01*
X146063419Y-86273413D01*
X145989600Y-86327046D01*
X145989599Y-86327047D01*
X146540090Y-86877537D01*
X146493836Y-86896697D01*
X146379432Y-86973139D01*
X146282139Y-87070432D01*
X146205697Y-87184836D01*
X146186537Y-87231090D01*
X145636047Y-86680599D01*
X145636046Y-86680600D01*
X145582413Y-86754419D01*
X145478617Y-86958131D01*
X145407965Y-87175574D01*
X145407965Y-87175575D01*
X145372200Y-87401386D01*
X143171800Y-87401386D01*
X143136034Y-87175575D01*
X143136034Y-87175574D01*
X143065382Y-86958131D01*
X142961592Y-86754431D01*
X142961588Y-86754425D01*
X142907951Y-86680600D01*
X142907951Y-86680599D01*
X142357461Y-87231089D01*
X142338303Y-87184836D01*
X142261861Y-87070432D01*
X142164568Y-86973139D01*
X142050164Y-86896697D01*
X142003908Y-86877537D01*
X142554399Y-86327047D01*
X142480576Y-86273411D01*
X142276868Y-86169617D01*
X142059424Y-86098965D01*
X141833613Y-86063200D01*
X141604987Y-86063200D01*
X141379175Y-86098965D01*
X141379174Y-86098965D01*
X141161731Y-86169617D01*
X140958019Y-86273413D01*
X140884200Y-86327046D01*
X140884199Y-86327047D01*
X141434690Y-86877537D01*
X141388436Y-86896697D01*
X141274032Y-86973139D01*
X141176739Y-87070432D01*
X141100297Y-87184836D01*
X141081137Y-87231090D01*
X140530647Y-86680599D01*
X140530646Y-86680600D01*
X140477013Y-86754419D01*
X140373217Y-86958131D01*
X140302565Y-87175574D01*
X140302565Y-87175575D01*
X140266800Y-87401386D01*
X119932055Y-87401386D01*
X119919397Y-87370827D01*
X119919390Y-87370814D01*
X119828405Y-87234646D01*
X119830431Y-87233291D01*
X119807311Y-87178858D01*
X119819101Y-87109990D01*
X119866252Y-87058429D01*
X119930477Y-87040500D01*
X119998844Y-87040500D01*
X119998845Y-87040499D01*
X120153497Y-87009737D01*
X120299179Y-86949394D01*
X120430289Y-86861789D01*
X120541789Y-86750289D01*
X120629394Y-86619179D01*
X120689737Y-86473497D01*
X120708277Y-86380292D01*
X120714280Y-86350115D01*
X120714280Y-86350114D01*
X120720499Y-86318846D01*
X120720500Y-86318844D01*
X120720500Y-86161155D01*
X120720499Y-86161153D01*
X120689738Y-86006510D01*
X120689737Y-86006503D01*
X120665853Y-85948842D01*
X120629397Y-85860827D01*
X120629390Y-85860814D01*
X120541789Y-85729711D01*
X120541786Y-85729707D01*
X120430292Y-85618213D01*
X120430288Y-85618210D01*
X120299185Y-85530609D01*
X120299172Y-85530602D01*
X120153501Y-85470264D01*
X120153489Y-85470261D01*
X119998845Y-85439500D01*
X119998842Y-85439500D01*
X119841158Y-85439500D01*
X119841155Y-85439500D01*
X119686510Y-85470261D01*
X119686507Y-85470262D01*
X119686506Y-85470262D01*
X119686503Y-85470263D01*
X119636857Y-85490827D01*
X119560554Y-85522432D01*
X119491084Y-85529900D01*
X119428605Y-85498624D01*
X119410000Y-85476761D01*
X119331789Y-85359711D01*
X119331786Y-85359707D01*
X119220292Y-85248213D01*
X119220288Y-85248210D01*
X119089185Y-85160609D01*
X119089172Y-85160602D01*
X118943501Y-85100264D01*
X118943489Y-85100261D01*
X118788845Y-85069500D01*
X118788842Y-85069500D01*
X118631158Y-85069500D01*
X118631155Y-85069500D01*
X118476510Y-85100261D01*
X118476498Y-85100264D01*
X118330827Y-85160602D01*
X118330814Y-85160609D01*
X118199711Y-85248210D01*
X118199707Y-85248213D01*
X118088213Y-85359707D01*
X118088210Y-85359711D01*
X118000609Y-85490814D01*
X118000602Y-85490827D01*
X117940264Y-85636498D01*
X117940261Y-85636510D01*
X117909500Y-85791153D01*
X117909500Y-85948846D01*
X117940261Y-86103489D01*
X117940264Y-86103501D01*
X118000602Y-86249172D01*
X118000609Y-86249185D01*
X118088210Y-86380288D01*
X118088213Y-86380292D01*
X118199707Y-86491786D01*
X118199711Y-86491789D01*
X118330814Y-86579390D01*
X118330827Y-86579397D01*
X118460547Y-86633128D01*
X118476503Y-86639737D01*
X118631153Y-86670499D01*
X118631156Y-86670500D01*
X118631158Y-86670500D01*
X118788844Y-86670500D01*
X118788845Y-86670499D01*
X118943497Y-86639737D01*
X119014292Y-86610413D01*
X119069446Y-86587568D01*
X119100943Y-86584181D01*
X119132220Y-86579079D01*
X119135432Y-86580473D01*
X119138915Y-86580099D01*
X119167254Y-86594284D01*
X119196313Y-86606897D01*
X119199475Y-86610413D01*
X119201394Y-86611374D01*
X119219926Y-86633128D01*
X119298211Y-86750289D01*
X119298759Y-86750837D01*
X119302551Y-86756499D01*
X119311291Y-86784309D01*
X119322689Y-86811142D01*
X119321644Y-86817245D01*
X119323501Y-86823154D01*
X119315817Y-86851277D01*
X119310899Y-86880010D01*
X119306720Y-86884579D01*
X119305088Y-86890554D01*
X119283418Y-86910060D01*
X119263748Y-86931571D01*
X119257624Y-86933280D01*
X119253159Y-86937300D01*
X119229257Y-86941199D01*
X119199523Y-86949500D01*
X119131155Y-86949500D01*
X118976510Y-86980261D01*
X118976498Y-86980264D01*
X118830827Y-87040602D01*
X118830814Y-87040609D01*
X118699711Y-87128210D01*
X118699707Y-87128213D01*
X118652431Y-87175490D01*
X118591108Y-87208975D01*
X118521416Y-87203991D01*
X118477069Y-87175490D01*
X118409792Y-87108213D01*
X118409788Y-87108210D01*
X118278685Y-87020609D01*
X118278672Y-87020602D01*
X118133001Y-86960264D01*
X118132989Y-86960261D01*
X117978345Y-86929500D01*
X117978342Y-86929500D01*
X117820658Y-86929500D01*
X117820655Y-86929500D01*
X117666010Y-86960261D01*
X117665998Y-86960264D01*
X117520327Y-87020602D01*
X117520314Y-87020609D01*
X117389211Y-87108210D01*
X117389207Y-87108213D01*
X117277713Y-87219707D01*
X117277710Y-87219711D01*
X117190109Y-87350814D01*
X117190102Y-87350827D01*
X117129764Y-87496498D01*
X117129761Y-87496510D01*
X117099000Y-87651153D01*
X82826554Y-87651153D01*
X82813122Y-87566353D01*
X82752126Y-87378626D01*
X82662520Y-87202768D01*
X82662512Y-87202755D01*
X82636542Y-87167010D01*
X82636541Y-87167009D01*
X82072962Y-87730589D01*
X82055925Y-87667007D01*
X81990099Y-87552993D01*
X81897007Y-87459901D01*
X81782993Y-87394075D01*
X81719409Y-87377037D01*
X82282989Y-86813457D01*
X82247239Y-86787483D01*
X82071373Y-86697873D01*
X81883646Y-86636876D01*
X81688697Y-86606000D01*
X81491303Y-86606000D01*
X81296353Y-86636876D01*
X81108626Y-86697873D01*
X80932762Y-86787482D01*
X80932760Y-86787483D01*
X80897010Y-86813456D01*
X80897010Y-86813457D01*
X81460591Y-87377037D01*
X81397007Y-87394075D01*
X81282993Y-87459901D01*
X81189901Y-87552993D01*
X81124075Y-87667007D01*
X81107037Y-87730590D01*
X80543457Y-87167010D01*
X80543456Y-87167010D01*
X80517483Y-87202760D01*
X80517482Y-87202762D01*
X80427873Y-87378626D01*
X80366876Y-87566353D01*
X80336000Y-87761302D01*
X80336000Y-87958697D01*
X80366876Y-88153646D01*
X80427873Y-88341373D01*
X80517483Y-88517239D01*
X80543457Y-88552988D01*
X80543457Y-88552989D01*
X81107037Y-87989409D01*
X81124075Y-88052993D01*
X81189901Y-88167007D01*
X81282993Y-88260099D01*
X81397007Y-88325925D01*
X81460590Y-88342962D01*
X80897009Y-88906541D01*
X80897010Y-88906542D01*
X80932755Y-88932512D01*
X80932768Y-88932520D01*
X81063701Y-88999234D01*
X81114497Y-89047208D01*
X81131292Y-89115029D01*
X81108755Y-89181164D01*
X81063702Y-89220203D01*
X80932497Y-89287056D01*
X80772753Y-89403115D01*
X80633115Y-89542753D01*
X80517058Y-89702495D01*
X80427408Y-89878441D01*
X80366389Y-90066236D01*
X80335500Y-90261263D01*
X78580100Y-90261263D01*
X78580100Y-84844648D01*
X142768200Y-84844648D01*
X142768200Y-85081352D01*
X142780752Y-85160602D01*
X142805229Y-85315142D01*
X142805229Y-85315145D01*
X142878372Y-85540256D01*
X142927410Y-85636498D01*
X142985835Y-85751163D01*
X143124966Y-85942660D01*
X143292340Y-86110034D01*
X143483837Y-86249165D01*
X143694741Y-86356626D01*
X143694743Y-86356627D01*
X143919855Y-86429770D01*
X143919856Y-86429770D01*
X143919859Y-86429771D01*
X144153648Y-86466800D01*
X144153649Y-86466800D01*
X144390351Y-86466800D01*
X144390352Y-86466800D01*
X144624141Y-86429771D01*
X144624144Y-86429770D01*
X144624145Y-86429770D01*
X144849256Y-86356627D01*
X144849256Y-86356626D01*
X144849259Y-86356626D01*
X145060163Y-86249165D01*
X145251660Y-86110034D01*
X145419034Y-85942660D01*
X145558165Y-85751163D01*
X145665626Y-85540259D01*
X145665627Y-85540256D01*
X145738770Y-85315145D01*
X145738770Y-85315144D01*
X145738771Y-85315141D01*
X145775800Y-85081352D01*
X145775800Y-84844648D01*
X145738771Y-84610859D01*
X145738770Y-84610855D01*
X145738770Y-84610854D01*
X145665627Y-84385743D01*
X145636806Y-84329179D01*
X145558165Y-84174837D01*
X145419034Y-83983340D01*
X145251660Y-83815966D01*
X145060163Y-83676835D01*
X145012576Y-83652588D01*
X144849256Y-83569372D01*
X144624144Y-83496229D01*
X144448799Y-83468457D01*
X144390352Y-83459200D01*
X144153648Y-83459200D01*
X144075718Y-83471543D01*
X143919857Y-83496229D01*
X143919854Y-83496229D01*
X143694743Y-83569372D01*
X143483836Y-83676835D01*
X143429229Y-83716510D01*
X143292340Y-83815966D01*
X143292338Y-83815968D01*
X143292337Y-83815968D01*
X143124968Y-83983337D01*
X143124968Y-83983338D01*
X143124966Y-83983340D01*
X143091904Y-84028846D01*
X142985835Y-84174836D01*
X142878372Y-84385743D01*
X142805229Y-84610854D01*
X142805229Y-84610857D01*
X142787984Y-84719737D01*
X142768200Y-84844648D01*
X78580100Y-84844648D01*
X78580100Y-83871153D01*
X123439500Y-83871153D01*
X123439500Y-84028846D01*
X123470261Y-84183489D01*
X123470264Y-84183501D01*
X123530602Y-84329172D01*
X123530609Y-84329185D01*
X123618210Y-84460288D01*
X123618213Y-84460292D01*
X123729707Y-84571786D01*
X123729711Y-84571789D01*
X123860814Y-84659390D01*
X123860827Y-84659397D01*
X124006498Y-84719735D01*
X124006503Y-84719737D01*
X124161153Y-84750499D01*
X124161156Y-84750500D01*
X124161158Y-84750500D01*
X124318844Y-84750500D01*
X124318845Y-84750499D01*
X124473497Y-84719737D01*
X124619179Y-84659394D01*
X124750289Y-84571789D01*
X124861789Y-84460289D01*
X124949394Y-84329179D01*
X125009737Y-84183497D01*
X125040500Y-84028842D01*
X125040500Y-83871158D01*
X125040500Y-83871155D01*
X125040499Y-83871153D01*
X125029522Y-83815968D01*
X125009737Y-83716503D01*
X124987235Y-83662177D01*
X124961145Y-83599190D01*
X124961139Y-83599177D01*
X124949394Y-83570821D01*
X124949392Y-83570818D01*
X124949390Y-83570814D01*
X124861789Y-83439711D01*
X124861786Y-83439707D01*
X124750292Y-83328213D01*
X124750288Y-83328210D01*
X124619185Y-83240609D01*
X124619172Y-83240602D01*
X124473501Y-83180264D01*
X124473489Y-83180261D01*
X124318845Y-83149500D01*
X124318842Y-83149500D01*
X124161158Y-83149500D01*
X124161155Y-83149500D01*
X124006510Y-83180261D01*
X124006498Y-83180264D01*
X123860827Y-83240602D01*
X123860814Y-83240609D01*
X123729711Y-83328210D01*
X123729707Y-83328213D01*
X123618213Y-83439707D01*
X123618210Y-83439711D01*
X123530609Y-83570814D01*
X123530602Y-83570827D01*
X123470264Y-83716498D01*
X123470261Y-83716510D01*
X123439500Y-83871153D01*
X78580100Y-83871153D01*
X78580100Y-82295986D01*
X140266800Y-82295986D01*
X140266800Y-82524613D01*
X140302565Y-82750424D01*
X140302565Y-82750425D01*
X140373217Y-82967868D01*
X140477011Y-83171576D01*
X140530647Y-83245398D01*
X140530647Y-83245399D01*
X141081137Y-82694908D01*
X141100297Y-82741164D01*
X141176739Y-82855568D01*
X141274032Y-82952861D01*
X141388436Y-83029303D01*
X141434690Y-83048461D01*
X140884199Y-83598951D01*
X140958025Y-83652588D01*
X140958031Y-83652592D01*
X141161731Y-83756382D01*
X141379175Y-83827034D01*
X141604987Y-83862800D01*
X141833613Y-83862800D01*
X142059424Y-83827034D01*
X142059425Y-83827034D01*
X142276868Y-83756382D01*
X142480576Y-83652588D01*
X142554398Y-83598951D01*
X142003909Y-83048462D01*
X142050164Y-83029303D01*
X142164568Y-82952861D01*
X142261861Y-82855568D01*
X142338303Y-82741164D01*
X142357461Y-82694909D01*
X142907951Y-83245399D01*
X142907951Y-83245398D01*
X142961588Y-83171576D01*
X143065382Y-82967868D01*
X143136034Y-82750425D01*
X143136034Y-82750424D01*
X143171800Y-82524613D01*
X143171800Y-82295986D01*
X145372200Y-82295986D01*
X145372200Y-82524613D01*
X145407965Y-82750424D01*
X145407965Y-82750425D01*
X145478617Y-82967868D01*
X145582411Y-83171576D01*
X145636047Y-83245398D01*
X145636047Y-83245399D01*
X146186537Y-82694908D01*
X146205697Y-82741164D01*
X146282139Y-82855568D01*
X146379432Y-82952861D01*
X146493836Y-83029303D01*
X146540090Y-83048461D01*
X145989599Y-83598951D01*
X146063425Y-83652588D01*
X146063431Y-83652592D01*
X146267131Y-83756382D01*
X146484575Y-83827034D01*
X146710387Y-83862800D01*
X146939013Y-83862800D01*
X147164824Y-83827034D01*
X147164825Y-83827034D01*
X147382268Y-83756382D01*
X147585976Y-83652588D01*
X147659798Y-83598951D01*
X147109309Y-83048462D01*
X147155564Y-83029303D01*
X147269968Y-82952861D01*
X147367261Y-82855568D01*
X147443703Y-82741164D01*
X147462861Y-82694909D01*
X148013351Y-83245399D01*
X148013351Y-83245398D01*
X148066988Y-83171576D01*
X148170782Y-82967868D01*
X148241434Y-82750425D01*
X148241434Y-82750424D01*
X148277200Y-82524613D01*
X148277200Y-82295986D01*
X148241434Y-82070175D01*
X148241434Y-82070174D01*
X148170782Y-81852731D01*
X148066992Y-81649031D01*
X148066988Y-81649025D01*
X148013351Y-81575200D01*
X148013351Y-81575199D01*
X147462861Y-82125689D01*
X147443703Y-82079436D01*
X147367261Y-81965032D01*
X147269968Y-81867739D01*
X147155564Y-81791297D01*
X147109308Y-81772137D01*
X147659799Y-81221647D01*
X147585976Y-81168011D01*
X147382268Y-81064217D01*
X147164824Y-80993565D01*
X146939013Y-80957800D01*
X146710387Y-80957800D01*
X146484575Y-80993565D01*
X146484574Y-80993565D01*
X146267131Y-81064217D01*
X146063419Y-81168013D01*
X145989600Y-81221646D01*
X145989599Y-81221647D01*
X146540090Y-81772137D01*
X146493836Y-81791297D01*
X146379432Y-81867739D01*
X146282139Y-81965032D01*
X146205697Y-82079436D01*
X146186537Y-82125690D01*
X145636047Y-81575199D01*
X145636046Y-81575200D01*
X145582413Y-81649019D01*
X145478617Y-81852731D01*
X145407965Y-82070174D01*
X145407965Y-82070175D01*
X145372200Y-82295986D01*
X143171800Y-82295986D01*
X143136034Y-82070175D01*
X143136034Y-82070174D01*
X143065382Y-81852731D01*
X142961592Y-81649031D01*
X142961588Y-81649025D01*
X142907951Y-81575200D01*
X142907951Y-81575199D01*
X142357461Y-82125689D01*
X142338303Y-82079436D01*
X142261861Y-81965032D01*
X142164568Y-81867739D01*
X142050164Y-81791297D01*
X142003908Y-81772137D01*
X142554399Y-81221647D01*
X142480576Y-81168011D01*
X142276868Y-81064217D01*
X142059424Y-80993565D01*
X141833613Y-80957800D01*
X141604987Y-80957800D01*
X141379175Y-80993565D01*
X141379174Y-80993565D01*
X141161731Y-81064217D01*
X140958019Y-81168013D01*
X140884200Y-81221646D01*
X140884199Y-81221647D01*
X141434690Y-81772137D01*
X141388436Y-81791297D01*
X141274032Y-81867739D01*
X141176739Y-81965032D01*
X141100297Y-82079436D01*
X141081137Y-82125690D01*
X140530647Y-81575199D01*
X140530646Y-81575200D01*
X140477013Y-81649019D01*
X140373217Y-81852731D01*
X140302565Y-82070174D01*
X140302565Y-82070175D01*
X140266800Y-82295986D01*
X78580100Y-82295986D01*
X78580100Y-80693153D01*
X128104500Y-80693153D01*
X128104500Y-80850846D01*
X128135261Y-81005489D01*
X128135264Y-81005501D01*
X128195602Y-81151172D01*
X128195609Y-81151185D01*
X128283210Y-81282288D01*
X128283213Y-81282292D01*
X128394707Y-81393786D01*
X128394711Y-81393789D01*
X128525814Y-81481390D01*
X128525827Y-81481397D01*
X128638749Y-81528170D01*
X128671503Y-81541737D01*
X128826153Y-81572499D01*
X128826156Y-81572500D01*
X128826158Y-81572500D01*
X128983844Y-81572500D01*
X128983845Y-81572499D01*
X129138497Y-81541737D01*
X129153217Y-81535639D01*
X129222684Y-81528170D01*
X129285164Y-81559443D01*
X129315231Y-81602747D01*
X129338604Y-81659176D01*
X129338609Y-81659185D01*
X129426210Y-81790288D01*
X129426213Y-81790292D01*
X129537707Y-81901786D01*
X129537711Y-81901789D01*
X129668814Y-81989390D01*
X129668827Y-81989397D01*
X129814498Y-82049735D01*
X129814503Y-82049737D01*
X129963809Y-82079436D01*
X129969153Y-82080499D01*
X129969156Y-82080500D01*
X129969158Y-82080500D01*
X130126844Y-82080500D01*
X130126845Y-82080499D01*
X130281497Y-82049737D01*
X130427179Y-81989394D01*
X130558289Y-81901789D01*
X130669789Y-81790289D01*
X130757394Y-81659179D01*
X130817737Y-81513497D01*
X130848500Y-81358842D01*
X130848500Y-81201158D01*
X130848500Y-81201155D01*
X130848499Y-81201153D01*
X130838557Y-81151172D01*
X130817737Y-81046503D01*
X130795810Y-80993565D01*
X130757397Y-80900827D01*
X130757390Y-80900814D01*
X130669789Y-80769711D01*
X130669786Y-80769707D01*
X130558292Y-80658213D01*
X130558288Y-80658210D01*
X130427185Y-80570609D01*
X130427172Y-80570602D01*
X130281501Y-80510264D01*
X130281489Y-80510261D01*
X130126845Y-80479500D01*
X130126842Y-80479500D01*
X129969158Y-80479500D01*
X129969155Y-80479500D01*
X129814511Y-80510260D01*
X129814507Y-80510262D01*
X129814506Y-80510262D01*
X129814503Y-80510263D01*
X129800251Y-80516165D01*
X129799776Y-80516363D01*
X129730306Y-80523828D01*
X129667828Y-80492550D01*
X129637769Y-80449254D01*
X129614394Y-80392821D01*
X129614392Y-80392818D01*
X129614390Y-80392814D01*
X129526789Y-80261711D01*
X129526786Y-80261707D01*
X129415292Y-80150213D01*
X129415288Y-80150210D01*
X129284185Y-80062609D01*
X129284172Y-80062602D01*
X129138501Y-80002264D01*
X129138489Y-80002261D01*
X128983845Y-79971500D01*
X128983842Y-79971500D01*
X128826158Y-79971500D01*
X128826155Y-79971500D01*
X128671510Y-80002261D01*
X128671498Y-80002264D01*
X128525827Y-80062602D01*
X128525814Y-80062609D01*
X128394711Y-80150210D01*
X128394707Y-80150213D01*
X128283213Y-80261707D01*
X128283210Y-80261711D01*
X128195609Y-80392814D01*
X128195602Y-80392827D01*
X128135264Y-80538498D01*
X128135261Y-80538510D01*
X128104500Y-80693153D01*
X78580100Y-80693153D01*
X78580100Y-77434100D01*
X78599785Y-77367061D01*
X78652589Y-77321306D01*
X78704100Y-77310100D01*
X151214023Y-77310100D01*
X151281062Y-77329785D01*
G37*
%TD.AperFunction*%
%TD*%
M02*
