%TF.GenerationSoftware,KiCad,Pcbnew,9.0.0*%
%TF.CreationDate,2025-11-11T18:57:33-05:00*%
%TF.ProjectId,Agi_WSN,4167695f-5753-44e2-9e6b-696361645f70,rev?*%
%TF.SameCoordinates,Original*%
%TF.FileFunction,Copper,L4,Bot*%
%TF.FilePolarity,Positive*%
%FSLAX46Y46*%
G04 Gerber Fmt 4.6, Leading zero omitted, Abs format (unit mm)*
G04 Created by KiCad (PCBNEW 9.0.0) date 2025-11-11 18:57:33*
%MOMM*%
%LPD*%
G01*
G04 APERTURE LIST*
%TA.AperFunction,ComponentPad*%
%ADD10R,1.580000X1.580000*%
%TD*%
%TA.AperFunction,ComponentPad*%
%ADD11C,1.580000*%
%TD*%
%TA.AperFunction,ComponentPad*%
%ADD12C,1.575000*%
%TD*%
%TA.AperFunction,ComponentPad*%
%ADD13R,1.575000X1.575000*%
%TD*%
%TA.AperFunction,ComponentPad*%
%ADD14C,1.508000*%
%TD*%
%TA.AperFunction,ComponentPad*%
%ADD15R,1.508000X1.508000*%
%TD*%
%TA.AperFunction,HeatsinkPad*%
%ADD16O,1.900000X1.000000*%
%TD*%
%TA.AperFunction,HeatsinkPad*%
%ADD17O,1.250000X1.050000*%
%TD*%
%TA.AperFunction,ComponentPad*%
%ADD18C,2.006600*%
%TD*%
%TA.AperFunction,ComponentPad*%
%ADD19C,1.905000*%
%TD*%
%TA.AperFunction,ViaPad*%
%ADD20C,0.600000*%
%TD*%
%TA.AperFunction,Conductor*%
%ADD21C,0.200000*%
%TD*%
G04 APERTURE END LIST*
D10*
%TO.P,S1,1A*%
%TO.N,/MCU/DIP0*%
X141530000Y-106700000D03*
D11*
%TO.P,S1,1B*%
%TO.N,GND*%
X141530000Y-99080000D03*
%TO.P,S1,2A*%
%TO.N,/MCU/DIP1*%
X144070000Y-106700000D03*
%TO.P,S1,2B*%
%TO.N,GND*%
X144070000Y-99080000D03*
%TO.P,S1,3A*%
%TO.N,unconnected-(S1-Pad3A)*%
X146610000Y-106700000D03*
%TO.P,S1,3B*%
%TO.N,GND*%
X146610000Y-99080000D03*
%TO.P,S1,4A*%
%TO.N,unconnected-(S1-Pad4A)*%
X149150000Y-106700000D03*
%TO.P,S1,4B*%
%TO.N,GND*%
X149150000Y-99080000D03*
%TO.P,S1,5A*%
%TO.N,unconnected-(S1-Pad5A)*%
X151690000Y-106700000D03*
%TO.P,S1,5B*%
%TO.N,GND*%
X151690000Y-99080000D03*
%TD*%
D12*
%TO.P,J10,2,2*%
%TO.N,GND*%
X155250000Y-123025000D03*
D13*
%TO.P,J10,1,1*%
%TO.N,+5V*%
X157750000Y-123025000D03*
%TD*%
D12*
%TO.P,J9,2,2*%
%TO.N,GND*%
X145250000Y-123025000D03*
D13*
%TO.P,J9,1,1*%
%TO.N,+3.3V*%
X147750000Y-123025000D03*
%TD*%
D14*
%TO.P,J8,3,3*%
%TO.N,SO*%
X81590000Y-92860000D03*
%TO.P,J8,4,4*%
%TO.N,EXT_CS*%
X81590000Y-90360000D03*
%TO.P,J8,2,2*%
%TO.N,SCK*%
X81590000Y-95360000D03*
D15*
%TO.P,J8,1,1*%
%TO.N,SI*%
X81590000Y-97860000D03*
D14*
%TO.P,J8,5,5*%
%TO.N,GND*%
X81590000Y-87860000D03*
%TD*%
%TO.P,J7,3,3*%
%TO.N,GND*%
X82250000Y-123500000D03*
%TO.P,J7,2,2*%
%TO.N,Sensor C(5V)*%
X82250000Y-121000000D03*
D15*
%TO.P,J7,1,1*%
%TO.N,+5V*%
X82250000Y-118500000D03*
%TD*%
D14*
%TO.P,J6,3,3*%
%TO.N,GND*%
X82250000Y-110290000D03*
%TO.P,J6,2,2*%
%TO.N,Input A*%
X82250000Y-107790000D03*
D15*
%TO.P,J6,1,1*%
%TO.N,+3.3V*%
X82250000Y-105290000D03*
%TD*%
D14*
%TO.P,J5,3,3*%
%TO.N,GND*%
X95025000Y-111000000D03*
%TO.P,J5,2,2*%
%TO.N,Input B*%
X95025000Y-108500000D03*
D15*
%TO.P,J5,1,1*%
%TO.N,+3.3V*%
X95025000Y-106000000D03*
%TD*%
D14*
%TO.P,J3,3,3*%
%TO.N,SWDIO*%
X132500000Y-123025000D03*
%TO.P,J3,4,4*%
%TO.N,SWCLK*%
X130000000Y-123025000D03*
%TO.P,J3,2,2*%
%TO.N,NRST*%
X135000000Y-123025000D03*
D15*
%TO.P,J3,1,1*%
%TO.N,+3.3V*%
X137500000Y-123025000D03*
D14*
%TO.P,J3,5,5*%
%TO.N,GND*%
X127500000Y-123025000D03*
%TD*%
D16*
%TO.P,J2,6,Shield*%
%TO.N,GND*%
X160550000Y-117745000D03*
D17*
X157550000Y-115795000D03*
X157550000Y-111345000D03*
D16*
X160550000Y-109395000D03*
%TD*%
D18*
%TO.P,J1,1,1*%
%TO.N,Net-(C25-Pad2)*%
X144272000Y-84963000D03*
D19*
%TO.P,J1,2*%
%TO.N,GND*%
X141719300Y-82410300D03*
%TO.P,J1,3*%
X141719300Y-87515700D03*
%TO.P,J1,4*%
X146824700Y-87515700D03*
%TO.P,J1,5*%
X146824700Y-82410300D03*
%TD*%
D14*
%TO.P,J4,3,3*%
%TO.N,GND*%
X95000000Y-123500000D03*
%TO.P,J4,2,2*%
%TO.N,Sensor C(3.3V)*%
X95000000Y-121000000D03*
D15*
%TO.P,J4,1,1*%
%TO.N,+3.3V*%
X95000000Y-118500000D03*
%TD*%
D14*
%TO.P,J11,3,3*%
%TO.N,UART_TX*%
X157910000Y-99870000D03*
%TO.P,J11,4,4*%
%TO.N,GND*%
X157910000Y-97370000D03*
%TO.P,J11,2,2*%
%TO.N,UART_RX*%
X157910000Y-102370000D03*
D15*
%TO.P,J11,1,1*%
%TO.N,+3.3V*%
X157910000Y-104870000D03*
%TD*%
D20*
%TO.N,GND*%
X125603518Y-78230272D03*
X120954800Y-92557600D03*
X120853200Y-89763600D03*
X123698000Y-92557600D03*
X122259500Y-91200000D03*
%TO.N,+3.3V*%
X121564400Y-102057200D03*
X124256800Y-115925600D03*
%TO.N,GND*%
X143814800Y-111810800D03*
X133807200Y-86309200D03*
X130962400Y-85852000D03*
X135128000Y-78994000D03*
%TO.N,+3.3V*%
X130048000Y-81280000D03*
%TO.N,GND*%
X129921000Y-80264000D03*
%TO.N,+3.3V*%
X128905000Y-80772000D03*
%TO.N,GND*%
X159385000Y-89916000D03*
X160401000Y-89916000D03*
X155194000Y-89916000D03*
X158242000Y-89916000D03*
X156210000Y-89916000D03*
X157226000Y-89916000D03*
X151003000Y-89916000D03*
X154051000Y-89916000D03*
X152019000Y-89916000D03*
X153035000Y-89916000D03*
X146812000Y-89916000D03*
X149860000Y-89916000D03*
X147828000Y-89916000D03*
X148844000Y-89916000D03*
X142748000Y-89916000D03*
X145796000Y-89916000D03*
X143764000Y-89916000D03*
X144780000Y-89916000D03*
X138684000Y-89916000D03*
X141732000Y-89916000D03*
X139700000Y-89916000D03*
X140716000Y-89916000D03*
X134620000Y-89916000D03*
X137668000Y-89916000D03*
X135636000Y-89916000D03*
X136652000Y-89916000D03*
X130556000Y-89916000D03*
X133604000Y-89916000D03*
X131572000Y-89916000D03*
X132588000Y-89916000D03*
X128524000Y-89916000D03*
X129540000Y-89916000D03*
X127508000Y-89916000D03*
X125603000Y-88011000D03*
X125603000Y-83058000D03*
X125603000Y-87122000D03*
X125603000Y-83947000D03*
X125603000Y-82042000D03*
X125603000Y-81026000D03*
X125603000Y-80010000D03*
X125603000Y-79121000D03*
X156972000Y-109220000D03*
X136630000Y-118750000D03*
%TO.N,+3.3V*%
X115200000Y-107070000D03*
%TO.N,ADC_CS*%
X117330000Y-103190000D03*
X116910000Y-100300000D03*
%TO.N,Net-(U3-VBAT)*%
X111071734Y-102898266D03*
%TO.N,GND*%
X89150000Y-93070000D03*
%TO.N,Net-(U3-VBAT)*%
X109500000Y-91200000D03*
%TO.N,+3.3V*%
X124240000Y-83950000D03*
X112490000Y-91460000D03*
%TO.N,/MCU/LED*%
X126520000Y-102590000D03*
X135930000Y-104990000D03*
X123000000Y-99280000D03*
%TO.N,GND*%
X123170000Y-79690000D03*
%TO.N,+3.3V*%
X106760000Y-105680000D03*
X86530000Y-93390000D03*
%TO.N,GND*%
X126140000Y-88790000D03*
%TO.N,!W*%
X121410000Y-105180000D03*
%TO.N,HOLD*%
X125530000Y-99140000D03*
%TO.N,SO*%
X116027000Y-104005000D03*
X119360000Y-118240000D03*
%TO.N,SI*%
X118680000Y-119520000D03*
%TO.N,ADC_CS*%
X123600000Y-120020000D03*
%TO.N,EEPROM_CS*%
X118035735Y-99785735D03*
X116530000Y-93610000D03*
%TO.N,EXT_CS*%
X117900000Y-93410000D03*
%TO.N,ADC_CS*%
X115840000Y-97010000D03*
%TO.N,GND*%
X118240000Y-95700000D03*
%TO.N,RTC_CS*%
X110960000Y-103930000D03*
%TO.N,MFP*%
X115280000Y-103000000D03*
%TO.N,RTC_CS*%
X115020000Y-97730000D03*
%TO.N,SI*%
X120670000Y-98000000D03*
%TO.N,MFP*%
X121640000Y-97720000D03*
%TO.N,/MCU/LED*%
X122970000Y-97390000D03*
%TO.N,SWDIO*%
X119270000Y-94640000D03*
%TO.N,SWCLK*%
X120740000Y-95360000D03*
%TO.N,+3.3V*%
X119140000Y-95580000D03*
%TO.N,GND*%
X112430000Y-95020000D03*
X116220000Y-90080000D03*
X116910000Y-89290000D03*
%TO.N,NRST*%
X119210000Y-87750000D03*
%TO.N,HOLD*%
X118710000Y-85870000D03*
%TO.N,!W*%
X119920000Y-86240000D03*
%TO.N,GND*%
X113235000Y-82780000D03*
X118795000Y-79090000D03*
%TO.N,+3.3V*%
X117899500Y-87730000D03*
%TO.N,GND*%
X113879500Y-86450000D03*
%TO.N,SI*%
X115777000Y-109505000D03*
%TO.N,+3.3V*%
X125500000Y-109750000D03*
%TO.N,GND*%
X117277000Y-106505000D03*
X119310000Y-101500000D03*
%TO.N,NRST*%
X134750000Y-115750000D03*
%TO.N,+3.3V*%
X127500000Y-106500000D03*
%TO.N,GND*%
X149412500Y-110570000D03*
X150050000Y-114020000D03*
X152300000Y-111770000D03*
X137500000Y-112750000D03*
X134000000Y-112750000D03*
X130500000Y-112750000D03*
X127000000Y-112500000D03*
X127000000Y-115500000D03*
X123190000Y-115690000D03*
X123000000Y-122000000D03*
%TO.N,+3.3V*%
X112395600Y-99136400D03*
%TO.N,GND*%
X109527000Y-106005000D03*
X109527000Y-100505000D03*
X105527000Y-99505000D03*
X105527000Y-106505000D03*
X109500000Y-114500000D03*
X105500000Y-114500000D03*
X110562500Y-126062500D03*
X104387500Y-126387500D03*
%TO.N,+3.3V*%
X101000000Y-122500000D03*
%TO.N,GND*%
X105750000Y-117750000D03*
X109250000Y-117500000D03*
%TO.N,/Sensors/Therm*%
X113000000Y-122500000D03*
X113500000Y-116500000D03*
%TO.N,GND*%
X108337500Y-126337500D03*
%TD*%
D21*
%TO.N,SWCLK*%
X118570000Y-108520000D02*
X130000000Y-119950000D01*
X118570000Y-103900000D02*
X118570000Y-108520000D01*
X130000000Y-119950000D02*
X130000000Y-123025000D01*
X122241000Y-96861000D02*
X122241000Y-100229000D01*
X120740000Y-95360000D02*
X122241000Y-96861000D01*
X122241000Y-100229000D02*
X118570000Y-103900000D01*
%TO.N,+5V*%
X152400000Y-127060000D02*
X153715000Y-127060000D01*
%TO.N,ADC_CS*%
X122280000Y-113460000D02*
X122280000Y-118700000D01*
X116620000Y-105600000D02*
X116620000Y-107800000D01*
X116620000Y-107800000D02*
X122280000Y-113460000D01*
X117330000Y-104890000D02*
X116620000Y-105600000D01*
X117330000Y-103190000D02*
X117330000Y-104890000D01*
X122280000Y-118700000D02*
X123600000Y-120020000D01*
X115840000Y-99230000D02*
X116910000Y-100300000D01*
X115840000Y-97010000D02*
X115840000Y-99230000D01*
%TO.N,EEPROM_CS*%
X116530000Y-98280000D02*
X116530000Y-93610000D01*
X118035735Y-99785735D02*
X116530000Y-98280000D01*
%TO.N,SO*%
X116027000Y-108537000D02*
X116027000Y-104005000D01*
X118480000Y-110990000D02*
X116027000Y-108537000D01*
X118480000Y-117360000D02*
X118480000Y-110990000D01*
X119360000Y-118240000D02*
X118480000Y-117360000D01*
%TO.N,Net-(U3-VBAT)*%
X111071734Y-92771734D02*
X109500000Y-91200000D01*
X111071734Y-102898266D02*
X111071734Y-92771734D01*
%TO.N,/MCU/LED*%
X128920000Y-104990000D02*
X135930000Y-104990000D01*
X122970000Y-99250000D02*
X123000000Y-99280000D01*
X122970000Y-97390000D02*
X122970000Y-99250000D01*
X126520000Y-102590000D02*
X128920000Y-104990000D01*
%TO.N,NRST*%
X129400057Y-115750000D02*
X134750000Y-115750000D01*
X120710000Y-104920000D02*
X120710000Y-107059943D01*
X120710000Y-107059943D02*
X129400057Y-115750000D01*
X124450000Y-101180000D02*
X120710000Y-104920000D01*
X124450000Y-95100000D02*
X124450000Y-101180000D01*
X119210000Y-89860000D02*
X124450000Y-95100000D01*
X119210000Y-87750000D02*
X119210000Y-89860000D01*
%TO.N,SWDIO*%
X123660000Y-96280000D02*
X122020000Y-94640000D01*
X123660000Y-101070000D02*
X123660000Y-96280000D01*
X122020000Y-94640000D02*
X119270000Y-94640000D01*
X119970000Y-104760000D02*
X123660000Y-101070000D01*
X132500000Y-120030000D02*
X132500000Y-123025000D01*
X119970000Y-107500000D02*
X132500000Y-120030000D01*
X119970000Y-104760000D02*
X119970000Y-107500000D01*
X119270000Y-94640000D02*
X119290000Y-94620000D01*
%TO.N,RTC_CS*%
X111770000Y-103930000D02*
X110960000Y-103930000D01*
X115030000Y-100670000D02*
X111770000Y-103930000D01*
X115030000Y-98010000D02*
X115030000Y-100670000D01*
X115020000Y-98000000D02*
X115030000Y-98010000D01*
X115020000Y-97730000D02*
X115020000Y-98000000D01*
%TO.N,!W*%
X126510000Y-100310000D02*
X126510000Y-92830000D01*
X121640000Y-105180000D02*
X126510000Y-100310000D01*
X126510000Y-92830000D02*
X119920000Y-86240000D01*
X121410000Y-105180000D02*
X121640000Y-105180000D01*
%TO.N,HOLD*%
X125530000Y-92699944D02*
X125530000Y-99140000D01*
X125460028Y-92629972D02*
X125530000Y-92699944D01*
X125460028Y-92629972D02*
X125480000Y-92649943D01*
X118710000Y-85879943D02*
X125460028Y-92629972D01*
X118710000Y-85870000D02*
X118710000Y-85879943D01*
%TO.N,SI*%
X117670000Y-111398000D02*
X115777000Y-109505000D01*
X117670000Y-118510000D02*
X117670000Y-111398000D01*
X118680000Y-119520000D02*
X117670000Y-118510000D01*
%TO.N,EXT_CS*%
X113590000Y-89100000D02*
X82850000Y-89100000D01*
X117900000Y-93410000D02*
X113590000Y-89100000D01*
X82850000Y-89100000D02*
X81590000Y-90360000D01*
%TO.N,SI*%
X113530000Y-107258000D02*
X115777000Y-109505000D01*
X113530000Y-103220000D02*
X113530000Y-107258000D01*
X114710000Y-102040000D02*
X113530000Y-103220000D01*
X116630000Y-102040000D02*
X114710000Y-102040000D01*
X120670000Y-98000000D02*
X116630000Y-102040000D01*
%TO.N,MFP*%
X116519943Y-103000000D02*
X115280000Y-103000000D01*
X121640000Y-97879943D02*
X116519943Y-103000000D01*
X121640000Y-97720000D02*
X121640000Y-97879943D01*
%TO.N,SI*%
X91132000Y-97860000D02*
X81590000Y-97860000D01*
X101527000Y-108255000D02*
X91132000Y-97860000D01*
%TO.N,+5V*%
X153715000Y-127060000D02*
X157750000Y-123025000D01*
X90860000Y-127060000D02*
X152400000Y-127060000D01*
X82300000Y-118500000D02*
X90860000Y-127060000D01*
X82250000Y-118500000D02*
X82300000Y-118500000D01*
%TO.N,SI*%
X114527000Y-108255000D02*
X115777000Y-109505000D01*
X101527000Y-108255000D02*
X114527000Y-108255000D01*
%TO.N,/Sensors/Therm*%
X113000000Y-122500000D02*
X113000000Y-117000000D01*
X113000000Y-117000000D02*
X113500000Y-116500000D01*
%TD*%
M02*
